M48
; DRILL file {KiCad 9.0.1} date 2026-03-30T06:27:25-1000
; FORMAT={-:-/ absolute / metric / decimal}
; #@! TF.CreationDate,2026-03-30T06:27:25-10:00
; #@! TF.GenerationSoftware,Kicad,Pcbnew,9.0.1
; #@! TF.FileFunction,Plated,1,4,PTH
FMAT,2
METRIC
; #@! TA.AperFunction,Plated,PTH,ViaDrill
T1C0.254
; #@! TA.AperFunction,Plated,PTH,ComponentDrill
T2C0.500
; #@! TA.AperFunction,Plated,PTH,ComponentDrill
T3C0.600
; #@! TA.AperFunction,Plated,PTH,ComponentDrill
T4C0.889
; #@! TA.AperFunction,Plated,PTH,ComponentDrill
T5C1.020
; #@! TA.AperFunction,Plated,PTH,ComponentDrill
T6C3.797
%
G90
G05
T1
X94.042Y-117.19
X94.042Y-119.732
X94.042Y-122.69
X94.103Y-125.97
X103.042Y-117.19
X108.042Y-117.19
X108.098Y-125.97
X113.002Y-107.21
X113.002Y-109.71
X113.005Y-112.206
X113.042Y-125.97
X113.568Y-120.93
X113.568Y-121.565
X113.568Y-122.2
X113.768Y-118.665
X113.768Y-119.67
X113.768Y-123.47
X113.768Y-124.465
X114.968Y-118.665
X114.968Y-124.465
X115.404Y-119.66
X115.404Y-120.93
X115.404Y-122.2
X115.404Y-123.47
X116.068Y-124.465
X116.09Y-118.665
X117.323Y-119.4
X117.323Y-120.6
X117.323Y-121.8
X117.323Y-123.0
X117.923Y-120.0
X117.923Y-121.2
X117.923Y-122.4
X117.923Y-123.6
X118.005Y-109.706
X118.005Y-112.206
X118.042Y-107.184
X118.042Y-117.19
X118.042Y-125.97
X118.523Y-119.4
X118.523Y-120.7
X118.523Y-121.8
X118.523Y-123.0
X119.768Y-124.565
X120.332Y-120.93
X120.332Y-122.2
X120.332Y-123.47
X120.968Y-124.565
X121.433Y-118.27
X122.368Y-122.165
X122.368Y-124.565
X123.005Y-112.206
X123.042Y-107.184
X123.042Y-109.69
X123.042Y-114.69
X123.042Y-125.97
X123.568Y-122.165
X123.568Y-123.465
X123.568Y-124.565
X128.042Y-107.184
X128.042Y-109.684
X128.042Y-112.19
X128.042Y-117.19
X128.042Y-125.971
X133.042Y-107.184
X133.042Y-109.684
X133.042Y-125.965
X138.002Y-114.71
X138.002Y-117.21
X138.042Y-104.684
X138.042Y-107.184
X138.042Y-109.684
X138.042Y-112.184
X138.042Y-125.965
X143.042Y-125.965
X145.542Y-112.084
X145.542Y-114.284
X146.742Y-109.77
X146.742Y-114.284
X146.742Y-119.184
X148.042Y-125.97
X148.542Y-110.284
X149.142Y-114.284
X149.142Y-119.184
X151.542Y-114.284
X151.542Y-119.184
X152.342Y-118.834
X153.042Y-125.965
X153.142Y-118.484
X153.942Y-114.284
X153.942Y-119.184
X154.742Y-118.834
X156.342Y-114.284
X156.342Y-119.184
X157.142Y-118.834
X157.942Y-118.484
X158.742Y-110.384
X158.742Y-114.284
X158.742Y-119.184
X159.542Y-118.484
X160.342Y-114.29
X161.142Y-110.784
X161.142Y-114.284
X161.142Y-119.184
X161.816Y-110.465
X161.843Y-107.034
X161.942Y-118.484
X162.542Y-107.684
X162.722Y-110.461
X162.742Y-118.834
X163.291Y-108.484
X163.542Y-110.584
X163.542Y-114.284
X163.542Y-119.184
X164.342Y-110.384
X164.342Y-118.484
X165.142Y-110.384
X165.142Y-118.834
X165.442Y-126.034
X165.542Y-106.784
X165.542Y-103.684
X165.542Y-120.384
X165.542Y-121.009
X165.542Y-121.634
X165.942Y-110.734
X165.942Y-119.084
X166.342Y-103.684
X166.442Y-126.034
X166.504Y-120.734
X166.504Y-121.421
X166.542Y-107.784
X166.75Y-118.484
X167.142Y-108.284
X167.542Y-118.834
X168.342Y-119.084
X169.15Y-118.484
X169.942Y-110.384
X169.95Y-118.834
X170.742Y-108.984
X170.742Y-110.684
X170.742Y-114.284
X170.742Y-119.084
X171.542Y-110.084
X171.542Y-118.484
X172.342Y-109.784
X172.342Y-118.784
X173.042Y-124.684
X173.142Y-110.084
X173.142Y-114.284
X173.142Y-119.034
X173.942Y-110.384
X173.942Y-118.484
X174.742Y-110.084
X174.742Y-118.784
X175.542Y-107.184
X175.542Y-109.784
X175.542Y-114.284
X175.542Y-119.084
X176.342Y-110.382
X176.342Y-118.484
X177.142Y-110.082
X177.142Y-118.784
X177.942Y-109.784
X177.942Y-114.284
X177.942Y-119.084
X178.042Y-122.184
X178.042Y-124.684
X179.142Y-112.084
X179.142Y-114.284
X179.142Y-116.484
X180.542Y-104.684
X180.542Y-107.184
X180.542Y-109.684
X180.542Y-112.184
X180.542Y-117.184
X180.542Y-119.684
X180.542Y-122.184
X180.548Y-124.685
T2
X103.123Y-125.4
X103.223Y-120.3
X124.948Y-122.885
X157.592Y-124.784
X174.342Y-124.734
X178.742Y-104.284
X178.742Y-106.334
X178.742Y-108.384
X181.442Y-123.984
T3
X129.123Y-115.0
X130.002Y-112.879
X130.002Y-117.121
X132.123Y-112.0
X132.123Y-118.0
X134.245Y-112.879
X134.245Y-117.121
X135.123Y-115.0
T4
X143.592Y-105.462
X143.592Y-108.002
X146.132Y-105.462
X146.132Y-108.002
X148.672Y-105.462
X148.672Y-108.002
X151.212Y-105.462
X151.212Y-108.002
X153.752Y-105.462
X153.752Y-108.002
X156.292Y-105.462
X156.292Y-108.002
T5
X98.123Y-117.78
X98.123Y-120.32
X98.123Y-122.86
X98.123Y-125.4
T6
X132.123Y-115.0
M30
