%TF.GenerationSoftware,KiCad,Pcbnew,9.0.1*%
%TF.CreationDate,2026-03-30T06:27:30-10:00*%
%TF.ProjectId,SRAM_exp,5352414d-5f65-4787-902e-6b696361645f,rev?*%
%TF.SameCoordinates,Original*%
%TF.FileFunction,Copper,L3,Inr*%
%TF.FilePolarity,Positive*%
%FSLAX46Y46*%
G04 Gerber Fmt 4.6, Leading zero omitted, Abs format (unit mm)*
G04 Created by KiCad (PCBNEW 9.0.1) date 2026-03-30 06:27:30*
%MOMM*%
%LPD*%
G01*
G04 APERTURE LIST*
%ADD10C,0.100000*%
%ADD11C,0.150000*%
%ADD12C,0.300000*%
%ADD13C,0.400000*%
%TA.AperFunction,NonConductor*%
%ADD14C,0.200000*%
%TD*%
%TA.AperFunction,ComponentPad*%
%ADD15R,0.850000X0.850000*%
%TD*%
%TA.AperFunction,ComponentPad*%
%ADD16R,1.397000X1.397000*%
%TD*%
%TA.AperFunction,ComponentPad*%
%ADD17C,1.397000*%
%TD*%
%TA.AperFunction,ComponentPad*%
%ADD18R,1.000000X1.000000*%
%TD*%
%TA.AperFunction,ComponentPad*%
%ADD19C,0.900000*%
%TD*%
%TA.AperFunction,ComponentPad*%
%ADD20C,8.000000*%
%TD*%
%TA.AperFunction,ComponentPad*%
%ADD21C,1.750000*%
%TD*%
%TA.AperFunction,ViaPad*%
%ADD22C,0.457200*%
%TD*%
G04 APERTURE END LIST*
D10*
D11*
X177002200Y-166007200D02*
X285002200Y-166007200D01*
X285002200Y-198007200D01*
X177002200Y-198007200D01*
X177002200Y-166007200D01*
D10*
D11*
X10000000Y-10000000D02*
X287002200Y-10000000D01*
X287002200Y-200007200D01*
X10000000Y-200007200D01*
X10000000Y-10000000D01*
D10*
D11*
X12000000Y-12000000D02*
X285002200Y-12000000D01*
X285002200Y-198007200D01*
X12000000Y-198007200D01*
X12000000Y-12000000D01*
D10*
D11*
X60000000Y-12000000D02*
X60000000Y-10000000D01*
D10*
D11*
X110000000Y-12000000D02*
X110000000Y-10000000D01*
D10*
D11*
X160000000Y-12000000D02*
X160000000Y-10000000D01*
D10*
D11*
X210000000Y-12000000D02*
X210000000Y-10000000D01*
D10*
D11*
X260000000Y-12000000D02*
X260000000Y-10000000D01*
D10*
D11*
X36089160Y-11593604D02*
X35346303Y-11593604D01*
X35717731Y-11593604D02*
X35717731Y-10293604D01*
X35717731Y-10293604D02*
X35593922Y-10479319D01*
X35593922Y-10479319D02*
X35470112Y-10603128D01*
X35470112Y-10603128D02*
X35346303Y-10665033D01*
D10*
D11*
X85346303Y-10417414D02*
X85408207Y-10355509D01*
X85408207Y-10355509D02*
X85532017Y-10293604D01*
X85532017Y-10293604D02*
X85841541Y-10293604D01*
X85841541Y-10293604D02*
X85965350Y-10355509D01*
X85965350Y-10355509D02*
X86027255Y-10417414D01*
X86027255Y-10417414D02*
X86089160Y-10541223D01*
X86089160Y-10541223D02*
X86089160Y-10665033D01*
X86089160Y-10665033D02*
X86027255Y-10850747D01*
X86027255Y-10850747D02*
X85284398Y-11593604D01*
X85284398Y-11593604D02*
X86089160Y-11593604D01*
D10*
D11*
X135284398Y-10293604D02*
X136089160Y-10293604D01*
X136089160Y-10293604D02*
X135655826Y-10788842D01*
X135655826Y-10788842D02*
X135841541Y-10788842D01*
X135841541Y-10788842D02*
X135965350Y-10850747D01*
X135965350Y-10850747D02*
X136027255Y-10912652D01*
X136027255Y-10912652D02*
X136089160Y-11036461D01*
X136089160Y-11036461D02*
X136089160Y-11345985D01*
X136089160Y-11345985D02*
X136027255Y-11469795D01*
X136027255Y-11469795D02*
X135965350Y-11531700D01*
X135965350Y-11531700D02*
X135841541Y-11593604D01*
X135841541Y-11593604D02*
X135470112Y-11593604D01*
X135470112Y-11593604D02*
X135346303Y-11531700D01*
X135346303Y-11531700D02*
X135284398Y-11469795D01*
D10*
D11*
X185965350Y-10726938D02*
X185965350Y-11593604D01*
X185655826Y-10231700D02*
X185346303Y-11160271D01*
X185346303Y-11160271D02*
X186151064Y-11160271D01*
D10*
D11*
X236027255Y-10293604D02*
X235408207Y-10293604D01*
X235408207Y-10293604D02*
X235346303Y-10912652D01*
X235346303Y-10912652D02*
X235408207Y-10850747D01*
X235408207Y-10850747D02*
X235532017Y-10788842D01*
X235532017Y-10788842D02*
X235841541Y-10788842D01*
X235841541Y-10788842D02*
X235965350Y-10850747D01*
X235965350Y-10850747D02*
X236027255Y-10912652D01*
X236027255Y-10912652D02*
X236089160Y-11036461D01*
X236089160Y-11036461D02*
X236089160Y-11345985D01*
X236089160Y-11345985D02*
X236027255Y-11469795D01*
X236027255Y-11469795D02*
X235965350Y-11531700D01*
X235965350Y-11531700D02*
X235841541Y-11593604D01*
X235841541Y-11593604D02*
X235532017Y-11593604D01*
X235532017Y-11593604D02*
X235408207Y-11531700D01*
X235408207Y-11531700D02*
X235346303Y-11469795D01*
D10*
D11*
X285965350Y-10293604D02*
X285717731Y-10293604D01*
X285717731Y-10293604D02*
X285593922Y-10355509D01*
X285593922Y-10355509D02*
X285532017Y-10417414D01*
X285532017Y-10417414D02*
X285408207Y-10603128D01*
X285408207Y-10603128D02*
X285346303Y-10850747D01*
X285346303Y-10850747D02*
X285346303Y-11345985D01*
X285346303Y-11345985D02*
X285408207Y-11469795D01*
X285408207Y-11469795D02*
X285470112Y-11531700D01*
X285470112Y-11531700D02*
X285593922Y-11593604D01*
X285593922Y-11593604D02*
X285841541Y-11593604D01*
X285841541Y-11593604D02*
X285965350Y-11531700D01*
X285965350Y-11531700D02*
X286027255Y-11469795D01*
X286027255Y-11469795D02*
X286089160Y-11345985D01*
X286089160Y-11345985D02*
X286089160Y-11036461D01*
X286089160Y-11036461D02*
X286027255Y-10912652D01*
X286027255Y-10912652D02*
X285965350Y-10850747D01*
X285965350Y-10850747D02*
X285841541Y-10788842D01*
X285841541Y-10788842D02*
X285593922Y-10788842D01*
X285593922Y-10788842D02*
X285470112Y-10850747D01*
X285470112Y-10850747D02*
X285408207Y-10912652D01*
X285408207Y-10912652D02*
X285346303Y-11036461D01*
D10*
D11*
X60000000Y-198007200D02*
X60000000Y-200007200D01*
D10*
D11*
X110000000Y-198007200D02*
X110000000Y-200007200D01*
D10*
D11*
X160000000Y-198007200D02*
X160000000Y-200007200D01*
D10*
D11*
X210000000Y-198007200D02*
X210000000Y-200007200D01*
D10*
D11*
X260000000Y-198007200D02*
X260000000Y-200007200D01*
D10*
D11*
X36089160Y-199600804D02*
X35346303Y-199600804D01*
X35717731Y-199600804D02*
X35717731Y-198300804D01*
X35717731Y-198300804D02*
X35593922Y-198486519D01*
X35593922Y-198486519D02*
X35470112Y-198610328D01*
X35470112Y-198610328D02*
X35346303Y-198672233D01*
D10*
D11*
X85346303Y-198424614D02*
X85408207Y-198362709D01*
X85408207Y-198362709D02*
X85532017Y-198300804D01*
X85532017Y-198300804D02*
X85841541Y-198300804D01*
X85841541Y-198300804D02*
X85965350Y-198362709D01*
X85965350Y-198362709D02*
X86027255Y-198424614D01*
X86027255Y-198424614D02*
X86089160Y-198548423D01*
X86089160Y-198548423D02*
X86089160Y-198672233D01*
X86089160Y-198672233D02*
X86027255Y-198857947D01*
X86027255Y-198857947D02*
X85284398Y-199600804D01*
X85284398Y-199600804D02*
X86089160Y-199600804D01*
D10*
D11*
X135284398Y-198300804D02*
X136089160Y-198300804D01*
X136089160Y-198300804D02*
X135655826Y-198796042D01*
X135655826Y-198796042D02*
X135841541Y-198796042D01*
X135841541Y-198796042D02*
X135965350Y-198857947D01*
X135965350Y-198857947D02*
X136027255Y-198919852D01*
X136027255Y-198919852D02*
X136089160Y-199043661D01*
X136089160Y-199043661D02*
X136089160Y-199353185D01*
X136089160Y-199353185D02*
X136027255Y-199476995D01*
X136027255Y-199476995D02*
X135965350Y-199538900D01*
X135965350Y-199538900D02*
X135841541Y-199600804D01*
X135841541Y-199600804D02*
X135470112Y-199600804D01*
X135470112Y-199600804D02*
X135346303Y-199538900D01*
X135346303Y-199538900D02*
X135284398Y-199476995D01*
D10*
D11*
X185965350Y-198734138D02*
X185965350Y-199600804D01*
X185655826Y-198238900D02*
X185346303Y-199167471D01*
X185346303Y-199167471D02*
X186151064Y-199167471D01*
D10*
D11*
X236027255Y-198300804D02*
X235408207Y-198300804D01*
X235408207Y-198300804D02*
X235346303Y-198919852D01*
X235346303Y-198919852D02*
X235408207Y-198857947D01*
X235408207Y-198857947D02*
X235532017Y-198796042D01*
X235532017Y-198796042D02*
X235841541Y-198796042D01*
X235841541Y-198796042D02*
X235965350Y-198857947D01*
X235965350Y-198857947D02*
X236027255Y-198919852D01*
X236027255Y-198919852D02*
X236089160Y-199043661D01*
X236089160Y-199043661D02*
X236089160Y-199353185D01*
X236089160Y-199353185D02*
X236027255Y-199476995D01*
X236027255Y-199476995D02*
X235965350Y-199538900D01*
X235965350Y-199538900D02*
X235841541Y-199600804D01*
X235841541Y-199600804D02*
X235532017Y-199600804D01*
X235532017Y-199600804D02*
X235408207Y-199538900D01*
X235408207Y-199538900D02*
X235346303Y-199476995D01*
D10*
D11*
X285965350Y-198300804D02*
X285717731Y-198300804D01*
X285717731Y-198300804D02*
X285593922Y-198362709D01*
X285593922Y-198362709D02*
X285532017Y-198424614D01*
X285532017Y-198424614D02*
X285408207Y-198610328D01*
X285408207Y-198610328D02*
X285346303Y-198857947D01*
X285346303Y-198857947D02*
X285346303Y-199353185D01*
X285346303Y-199353185D02*
X285408207Y-199476995D01*
X285408207Y-199476995D02*
X285470112Y-199538900D01*
X285470112Y-199538900D02*
X285593922Y-199600804D01*
X285593922Y-199600804D02*
X285841541Y-199600804D01*
X285841541Y-199600804D02*
X285965350Y-199538900D01*
X285965350Y-199538900D02*
X286027255Y-199476995D01*
X286027255Y-199476995D02*
X286089160Y-199353185D01*
X286089160Y-199353185D02*
X286089160Y-199043661D01*
X286089160Y-199043661D02*
X286027255Y-198919852D01*
X286027255Y-198919852D02*
X285965350Y-198857947D01*
X285965350Y-198857947D02*
X285841541Y-198796042D01*
X285841541Y-198796042D02*
X285593922Y-198796042D01*
X285593922Y-198796042D02*
X285470112Y-198857947D01*
X285470112Y-198857947D02*
X285408207Y-198919852D01*
X285408207Y-198919852D02*
X285346303Y-199043661D01*
D10*
D11*
X10000000Y-60000000D02*
X12000000Y-60000000D01*
D10*
D11*
X10000000Y-110000000D02*
X12000000Y-110000000D01*
D10*
D11*
X10000000Y-160000000D02*
X12000000Y-160000000D01*
D10*
D11*
X10690476Y-35222176D02*
X11309523Y-35222176D01*
X10566666Y-35593604D02*
X10999999Y-34293604D01*
X10999999Y-34293604D02*
X11433333Y-35593604D01*
D10*
D11*
X11092857Y-84912652D02*
X11278571Y-84974557D01*
X11278571Y-84974557D02*
X11340476Y-85036461D01*
X11340476Y-85036461D02*
X11402380Y-85160271D01*
X11402380Y-85160271D02*
X11402380Y-85345985D01*
X11402380Y-85345985D02*
X11340476Y-85469795D01*
X11340476Y-85469795D02*
X11278571Y-85531700D01*
X11278571Y-85531700D02*
X11154761Y-85593604D01*
X11154761Y-85593604D02*
X10659523Y-85593604D01*
X10659523Y-85593604D02*
X10659523Y-84293604D01*
X10659523Y-84293604D02*
X11092857Y-84293604D01*
X11092857Y-84293604D02*
X11216666Y-84355509D01*
X11216666Y-84355509D02*
X11278571Y-84417414D01*
X11278571Y-84417414D02*
X11340476Y-84541223D01*
X11340476Y-84541223D02*
X11340476Y-84665033D01*
X11340476Y-84665033D02*
X11278571Y-84788842D01*
X11278571Y-84788842D02*
X11216666Y-84850747D01*
X11216666Y-84850747D02*
X11092857Y-84912652D01*
X11092857Y-84912652D02*
X10659523Y-84912652D01*
D10*
D11*
X11402380Y-135469795D02*
X11340476Y-135531700D01*
X11340476Y-135531700D02*
X11154761Y-135593604D01*
X11154761Y-135593604D02*
X11030952Y-135593604D01*
X11030952Y-135593604D02*
X10845238Y-135531700D01*
X10845238Y-135531700D02*
X10721428Y-135407890D01*
X10721428Y-135407890D02*
X10659523Y-135284080D01*
X10659523Y-135284080D02*
X10597619Y-135036461D01*
X10597619Y-135036461D02*
X10597619Y-134850747D01*
X10597619Y-134850747D02*
X10659523Y-134603128D01*
X10659523Y-134603128D02*
X10721428Y-134479319D01*
X10721428Y-134479319D02*
X10845238Y-134355509D01*
X10845238Y-134355509D02*
X11030952Y-134293604D01*
X11030952Y-134293604D02*
X11154761Y-134293604D01*
X11154761Y-134293604D02*
X11340476Y-134355509D01*
X11340476Y-134355509D02*
X11402380Y-134417414D01*
D10*
D11*
X10659523Y-185593604D02*
X10659523Y-184293604D01*
X10659523Y-184293604D02*
X10969047Y-184293604D01*
X10969047Y-184293604D02*
X11154761Y-184355509D01*
X11154761Y-184355509D02*
X11278571Y-184479319D01*
X11278571Y-184479319D02*
X11340476Y-184603128D01*
X11340476Y-184603128D02*
X11402380Y-184850747D01*
X11402380Y-184850747D02*
X11402380Y-185036461D01*
X11402380Y-185036461D02*
X11340476Y-185284080D01*
X11340476Y-185284080D02*
X11278571Y-185407890D01*
X11278571Y-185407890D02*
X11154761Y-185531700D01*
X11154761Y-185531700D02*
X10969047Y-185593604D01*
X10969047Y-185593604D02*
X10659523Y-185593604D01*
D10*
D11*
X287002200Y-60000000D02*
X285002200Y-60000000D01*
D10*
D11*
X287002200Y-110000000D02*
X285002200Y-110000000D01*
D10*
D11*
X287002200Y-160000000D02*
X285002200Y-160000000D01*
D10*
D11*
X285692676Y-35222176D02*
X286311723Y-35222176D01*
X285568866Y-35593604D02*
X286002199Y-34293604D01*
X286002199Y-34293604D02*
X286435533Y-35593604D01*
D10*
D11*
X286095057Y-84912652D02*
X286280771Y-84974557D01*
X286280771Y-84974557D02*
X286342676Y-85036461D01*
X286342676Y-85036461D02*
X286404580Y-85160271D01*
X286404580Y-85160271D02*
X286404580Y-85345985D01*
X286404580Y-85345985D02*
X286342676Y-85469795D01*
X286342676Y-85469795D02*
X286280771Y-85531700D01*
X286280771Y-85531700D02*
X286156961Y-85593604D01*
X286156961Y-85593604D02*
X285661723Y-85593604D01*
X285661723Y-85593604D02*
X285661723Y-84293604D01*
X285661723Y-84293604D02*
X286095057Y-84293604D01*
X286095057Y-84293604D02*
X286218866Y-84355509D01*
X286218866Y-84355509D02*
X286280771Y-84417414D01*
X286280771Y-84417414D02*
X286342676Y-84541223D01*
X286342676Y-84541223D02*
X286342676Y-84665033D01*
X286342676Y-84665033D02*
X286280771Y-84788842D01*
X286280771Y-84788842D02*
X286218866Y-84850747D01*
X286218866Y-84850747D02*
X286095057Y-84912652D01*
X286095057Y-84912652D02*
X285661723Y-84912652D01*
D10*
D11*
X286404580Y-135469795D02*
X286342676Y-135531700D01*
X286342676Y-135531700D02*
X286156961Y-135593604D01*
X286156961Y-135593604D02*
X286033152Y-135593604D01*
X286033152Y-135593604D02*
X285847438Y-135531700D01*
X285847438Y-135531700D02*
X285723628Y-135407890D01*
X285723628Y-135407890D02*
X285661723Y-135284080D01*
X285661723Y-135284080D02*
X285599819Y-135036461D01*
X285599819Y-135036461D02*
X285599819Y-134850747D01*
X285599819Y-134850747D02*
X285661723Y-134603128D01*
X285661723Y-134603128D02*
X285723628Y-134479319D01*
X285723628Y-134479319D02*
X285847438Y-134355509D01*
X285847438Y-134355509D02*
X286033152Y-134293604D01*
X286033152Y-134293604D02*
X286156961Y-134293604D01*
X286156961Y-134293604D02*
X286342676Y-134355509D01*
X286342676Y-134355509D02*
X286404580Y-134417414D01*
D10*
D11*
X285661723Y-185593604D02*
X285661723Y-184293604D01*
X285661723Y-184293604D02*
X285971247Y-184293604D01*
X285971247Y-184293604D02*
X286156961Y-184355509D01*
X286156961Y-184355509D02*
X286280771Y-184479319D01*
X286280771Y-184479319D02*
X286342676Y-184603128D01*
X286342676Y-184603128D02*
X286404580Y-184850747D01*
X286404580Y-184850747D02*
X286404580Y-185036461D01*
X286404580Y-185036461D02*
X286342676Y-185284080D01*
X286342676Y-185284080D02*
X286280771Y-185407890D01*
X286280771Y-185407890D02*
X286156961Y-185531700D01*
X286156961Y-185531700D02*
X285971247Y-185593604D01*
X285971247Y-185593604D02*
X285661723Y-185593604D01*
D10*
D11*
X200458026Y-193793328D02*
X200458026Y-192293328D01*
X200458026Y-192293328D02*
X200815169Y-192293328D01*
X200815169Y-192293328D02*
X201029455Y-192364757D01*
X201029455Y-192364757D02*
X201172312Y-192507614D01*
X201172312Y-192507614D02*
X201243741Y-192650471D01*
X201243741Y-192650471D02*
X201315169Y-192936185D01*
X201315169Y-192936185D02*
X201315169Y-193150471D01*
X201315169Y-193150471D02*
X201243741Y-193436185D01*
X201243741Y-193436185D02*
X201172312Y-193579042D01*
X201172312Y-193579042D02*
X201029455Y-193721900D01*
X201029455Y-193721900D02*
X200815169Y-193793328D01*
X200815169Y-193793328D02*
X200458026Y-193793328D01*
X202600884Y-193793328D02*
X202600884Y-193007614D01*
X202600884Y-193007614D02*
X202529455Y-192864757D01*
X202529455Y-192864757D02*
X202386598Y-192793328D01*
X202386598Y-192793328D02*
X202100884Y-192793328D01*
X202100884Y-192793328D02*
X201958026Y-192864757D01*
X202600884Y-193721900D02*
X202458026Y-193793328D01*
X202458026Y-193793328D02*
X202100884Y-193793328D01*
X202100884Y-193793328D02*
X201958026Y-193721900D01*
X201958026Y-193721900D02*
X201886598Y-193579042D01*
X201886598Y-193579042D02*
X201886598Y-193436185D01*
X201886598Y-193436185D02*
X201958026Y-193293328D01*
X201958026Y-193293328D02*
X202100884Y-193221900D01*
X202100884Y-193221900D02*
X202458026Y-193221900D01*
X202458026Y-193221900D02*
X202600884Y-193150471D01*
X203100884Y-192793328D02*
X203672312Y-192793328D01*
X203315169Y-192293328D02*
X203315169Y-193579042D01*
X203315169Y-193579042D02*
X203386598Y-193721900D01*
X203386598Y-193721900D02*
X203529455Y-193793328D01*
X203529455Y-193793328D02*
X203672312Y-193793328D01*
X204743741Y-193721900D02*
X204600884Y-193793328D01*
X204600884Y-193793328D02*
X204315170Y-193793328D01*
X204315170Y-193793328D02*
X204172312Y-193721900D01*
X204172312Y-193721900D02*
X204100884Y-193579042D01*
X204100884Y-193579042D02*
X204100884Y-193007614D01*
X204100884Y-193007614D02*
X204172312Y-192864757D01*
X204172312Y-192864757D02*
X204315170Y-192793328D01*
X204315170Y-192793328D02*
X204600884Y-192793328D01*
X204600884Y-192793328D02*
X204743741Y-192864757D01*
X204743741Y-192864757D02*
X204815170Y-193007614D01*
X204815170Y-193007614D02*
X204815170Y-193150471D01*
X204815170Y-193150471D02*
X204100884Y-193293328D01*
X205458026Y-193650471D02*
X205529455Y-193721900D01*
X205529455Y-193721900D02*
X205458026Y-193793328D01*
X205458026Y-193793328D02*
X205386598Y-193721900D01*
X205386598Y-193721900D02*
X205458026Y-193650471D01*
X205458026Y-193650471D02*
X205458026Y-193793328D01*
X205458026Y-192864757D02*
X205529455Y-192936185D01*
X205529455Y-192936185D02*
X205458026Y-193007614D01*
X205458026Y-193007614D02*
X205386598Y-192936185D01*
X205386598Y-192936185D02*
X205458026Y-192864757D01*
X205458026Y-192864757D02*
X205458026Y-193007614D01*
D10*
D11*
X177002200Y-194507200D02*
X285002200Y-194507200D01*
D10*
D11*
X178458026Y-196593328D02*
X178458026Y-195093328D01*
X179315169Y-196593328D02*
X178672312Y-195736185D01*
X179315169Y-195093328D02*
X178458026Y-195950471D01*
X179958026Y-196593328D02*
X179958026Y-195593328D01*
X179958026Y-195093328D02*
X179886598Y-195164757D01*
X179886598Y-195164757D02*
X179958026Y-195236185D01*
X179958026Y-195236185D02*
X180029455Y-195164757D01*
X180029455Y-195164757D02*
X179958026Y-195093328D01*
X179958026Y-195093328D02*
X179958026Y-195236185D01*
X181529455Y-196450471D02*
X181458027Y-196521900D01*
X181458027Y-196521900D02*
X181243741Y-196593328D01*
X181243741Y-196593328D02*
X181100884Y-196593328D01*
X181100884Y-196593328D02*
X180886598Y-196521900D01*
X180886598Y-196521900D02*
X180743741Y-196379042D01*
X180743741Y-196379042D02*
X180672312Y-196236185D01*
X180672312Y-196236185D02*
X180600884Y-195950471D01*
X180600884Y-195950471D02*
X180600884Y-195736185D01*
X180600884Y-195736185D02*
X180672312Y-195450471D01*
X180672312Y-195450471D02*
X180743741Y-195307614D01*
X180743741Y-195307614D02*
X180886598Y-195164757D01*
X180886598Y-195164757D02*
X181100884Y-195093328D01*
X181100884Y-195093328D02*
X181243741Y-195093328D01*
X181243741Y-195093328D02*
X181458027Y-195164757D01*
X181458027Y-195164757D02*
X181529455Y-195236185D01*
X182815170Y-196593328D02*
X182815170Y-195807614D01*
X182815170Y-195807614D02*
X182743741Y-195664757D01*
X182743741Y-195664757D02*
X182600884Y-195593328D01*
X182600884Y-195593328D02*
X182315170Y-195593328D01*
X182315170Y-195593328D02*
X182172312Y-195664757D01*
X182815170Y-196521900D02*
X182672312Y-196593328D01*
X182672312Y-196593328D02*
X182315170Y-196593328D01*
X182315170Y-196593328D02*
X182172312Y-196521900D01*
X182172312Y-196521900D02*
X182100884Y-196379042D01*
X182100884Y-196379042D02*
X182100884Y-196236185D01*
X182100884Y-196236185D02*
X182172312Y-196093328D01*
X182172312Y-196093328D02*
X182315170Y-196021900D01*
X182315170Y-196021900D02*
X182672312Y-196021900D01*
X182672312Y-196021900D02*
X182815170Y-195950471D01*
X184172313Y-196593328D02*
X184172313Y-195093328D01*
X184172313Y-196521900D02*
X184029455Y-196593328D01*
X184029455Y-196593328D02*
X183743741Y-196593328D01*
X183743741Y-196593328D02*
X183600884Y-196521900D01*
X183600884Y-196521900D02*
X183529455Y-196450471D01*
X183529455Y-196450471D02*
X183458027Y-196307614D01*
X183458027Y-196307614D02*
X183458027Y-195879042D01*
X183458027Y-195879042D02*
X183529455Y-195736185D01*
X183529455Y-195736185D02*
X183600884Y-195664757D01*
X183600884Y-195664757D02*
X183743741Y-195593328D01*
X183743741Y-195593328D02*
X184029455Y-195593328D01*
X184029455Y-195593328D02*
X184172313Y-195664757D01*
X186029455Y-195807614D02*
X186529455Y-195807614D01*
X186743741Y-196593328D02*
X186029455Y-196593328D01*
X186029455Y-196593328D02*
X186029455Y-195093328D01*
X186029455Y-195093328D02*
X186743741Y-195093328D01*
X187386598Y-196450471D02*
X187458027Y-196521900D01*
X187458027Y-196521900D02*
X187386598Y-196593328D01*
X187386598Y-196593328D02*
X187315170Y-196521900D01*
X187315170Y-196521900D02*
X187386598Y-196450471D01*
X187386598Y-196450471D02*
X187386598Y-196593328D01*
X188100884Y-196593328D02*
X188100884Y-195093328D01*
X188100884Y-195093328D02*
X188458027Y-195093328D01*
X188458027Y-195093328D02*
X188672313Y-195164757D01*
X188672313Y-195164757D02*
X188815170Y-195307614D01*
X188815170Y-195307614D02*
X188886599Y-195450471D01*
X188886599Y-195450471D02*
X188958027Y-195736185D01*
X188958027Y-195736185D02*
X188958027Y-195950471D01*
X188958027Y-195950471D02*
X188886599Y-196236185D01*
X188886599Y-196236185D02*
X188815170Y-196379042D01*
X188815170Y-196379042D02*
X188672313Y-196521900D01*
X188672313Y-196521900D02*
X188458027Y-196593328D01*
X188458027Y-196593328D02*
X188100884Y-196593328D01*
X189600884Y-196450471D02*
X189672313Y-196521900D01*
X189672313Y-196521900D02*
X189600884Y-196593328D01*
X189600884Y-196593328D02*
X189529456Y-196521900D01*
X189529456Y-196521900D02*
X189600884Y-196450471D01*
X189600884Y-196450471D02*
X189600884Y-196593328D01*
X190243742Y-196164757D02*
X190958028Y-196164757D01*
X190100885Y-196593328D02*
X190600885Y-195093328D01*
X190600885Y-195093328D02*
X191100885Y-196593328D01*
X191600884Y-196450471D02*
X191672313Y-196521900D01*
X191672313Y-196521900D02*
X191600884Y-196593328D01*
X191600884Y-196593328D02*
X191529456Y-196521900D01*
X191529456Y-196521900D02*
X191600884Y-196450471D01*
X191600884Y-196450471D02*
X191600884Y-196593328D01*
X193529456Y-196593328D02*
X193815170Y-196593328D01*
X193815170Y-196593328D02*
X193958027Y-196521900D01*
X193958027Y-196521900D02*
X194029456Y-196450471D01*
X194029456Y-196450471D02*
X194172313Y-196236185D01*
X194172313Y-196236185D02*
X194243742Y-195950471D01*
X194243742Y-195950471D02*
X194243742Y-195379042D01*
X194243742Y-195379042D02*
X194172313Y-195236185D01*
X194172313Y-195236185D02*
X194100885Y-195164757D01*
X194100885Y-195164757D02*
X193958027Y-195093328D01*
X193958027Y-195093328D02*
X193672313Y-195093328D01*
X193672313Y-195093328D02*
X193529456Y-195164757D01*
X193529456Y-195164757D02*
X193458027Y-195236185D01*
X193458027Y-195236185D02*
X193386599Y-195379042D01*
X193386599Y-195379042D02*
X193386599Y-195736185D01*
X193386599Y-195736185D02*
X193458027Y-195879042D01*
X193458027Y-195879042D02*
X193529456Y-195950471D01*
X193529456Y-195950471D02*
X193672313Y-196021900D01*
X193672313Y-196021900D02*
X193958027Y-196021900D01*
X193958027Y-196021900D02*
X194100885Y-195950471D01*
X194100885Y-195950471D02*
X194172313Y-195879042D01*
X194172313Y-195879042D02*
X194243742Y-195736185D01*
X194886598Y-196450471D02*
X194958027Y-196521900D01*
X194958027Y-196521900D02*
X194886598Y-196593328D01*
X194886598Y-196593328D02*
X194815170Y-196521900D01*
X194815170Y-196521900D02*
X194886598Y-196450471D01*
X194886598Y-196450471D02*
X194886598Y-196593328D01*
X195886599Y-195093328D02*
X196029456Y-195093328D01*
X196029456Y-195093328D02*
X196172313Y-195164757D01*
X196172313Y-195164757D02*
X196243742Y-195236185D01*
X196243742Y-195236185D02*
X196315170Y-195379042D01*
X196315170Y-195379042D02*
X196386599Y-195664757D01*
X196386599Y-195664757D02*
X196386599Y-196021900D01*
X196386599Y-196021900D02*
X196315170Y-196307614D01*
X196315170Y-196307614D02*
X196243742Y-196450471D01*
X196243742Y-196450471D02*
X196172313Y-196521900D01*
X196172313Y-196521900D02*
X196029456Y-196593328D01*
X196029456Y-196593328D02*
X195886599Y-196593328D01*
X195886599Y-196593328D02*
X195743742Y-196521900D01*
X195743742Y-196521900D02*
X195672313Y-196450471D01*
X195672313Y-196450471D02*
X195600884Y-196307614D01*
X195600884Y-196307614D02*
X195529456Y-196021900D01*
X195529456Y-196021900D02*
X195529456Y-195664757D01*
X195529456Y-195664757D02*
X195600884Y-195379042D01*
X195600884Y-195379042D02*
X195672313Y-195236185D01*
X195672313Y-195236185D02*
X195743742Y-195164757D01*
X195743742Y-195164757D02*
X195886599Y-195093328D01*
X197029455Y-196450471D02*
X197100884Y-196521900D01*
X197100884Y-196521900D02*
X197029455Y-196593328D01*
X197029455Y-196593328D02*
X196958027Y-196521900D01*
X196958027Y-196521900D02*
X197029455Y-196450471D01*
X197029455Y-196450471D02*
X197029455Y-196593328D01*
X198529456Y-196593328D02*
X197672313Y-196593328D01*
X198100884Y-196593328D02*
X198100884Y-195093328D01*
X198100884Y-195093328D02*
X197958027Y-195307614D01*
X197958027Y-195307614D02*
X197815170Y-195450471D01*
X197815170Y-195450471D02*
X197672313Y-195521900D01*
D10*
D11*
X177002200Y-191507200D02*
X285002200Y-191507200D01*
D10*
D12*
X264413853Y-193785528D02*
X263913853Y-193071242D01*
X263556710Y-193785528D02*
X263556710Y-192285528D01*
X263556710Y-192285528D02*
X264128139Y-192285528D01*
X264128139Y-192285528D02*
X264270996Y-192356957D01*
X264270996Y-192356957D02*
X264342425Y-192428385D01*
X264342425Y-192428385D02*
X264413853Y-192571242D01*
X264413853Y-192571242D02*
X264413853Y-192785528D01*
X264413853Y-192785528D02*
X264342425Y-192928385D01*
X264342425Y-192928385D02*
X264270996Y-192999814D01*
X264270996Y-192999814D02*
X264128139Y-193071242D01*
X264128139Y-193071242D02*
X263556710Y-193071242D01*
X265628139Y-193714100D02*
X265485282Y-193785528D01*
X265485282Y-193785528D02*
X265199568Y-193785528D01*
X265199568Y-193785528D02*
X265056710Y-193714100D01*
X265056710Y-193714100D02*
X264985282Y-193571242D01*
X264985282Y-193571242D02*
X264985282Y-192999814D01*
X264985282Y-192999814D02*
X265056710Y-192856957D01*
X265056710Y-192856957D02*
X265199568Y-192785528D01*
X265199568Y-192785528D02*
X265485282Y-192785528D01*
X265485282Y-192785528D02*
X265628139Y-192856957D01*
X265628139Y-192856957D02*
X265699568Y-192999814D01*
X265699568Y-192999814D02*
X265699568Y-193142671D01*
X265699568Y-193142671D02*
X264985282Y-193285528D01*
X266199567Y-192785528D02*
X266556710Y-193785528D01*
X266556710Y-193785528D02*
X266913853Y-192785528D01*
X267485281Y-193642671D02*
X267556710Y-193714100D01*
X267556710Y-193714100D02*
X267485281Y-193785528D01*
X267485281Y-193785528D02*
X267413853Y-193714100D01*
X267413853Y-193714100D02*
X267485281Y-193642671D01*
X267485281Y-193642671D02*
X267485281Y-193785528D01*
X267485281Y-192856957D02*
X267556710Y-192928385D01*
X267556710Y-192928385D02*
X267485281Y-192999814D01*
X267485281Y-192999814D02*
X267413853Y-192928385D01*
X267413853Y-192928385D02*
X267485281Y-192856957D01*
X267485281Y-192856957D02*
X267485281Y-192999814D01*
D10*
D11*
X178386598Y-193721900D02*
X178600884Y-193793328D01*
X178600884Y-193793328D02*
X178958026Y-193793328D01*
X178958026Y-193793328D02*
X179100884Y-193721900D01*
X179100884Y-193721900D02*
X179172312Y-193650471D01*
X179172312Y-193650471D02*
X179243741Y-193507614D01*
X179243741Y-193507614D02*
X179243741Y-193364757D01*
X179243741Y-193364757D02*
X179172312Y-193221900D01*
X179172312Y-193221900D02*
X179100884Y-193150471D01*
X179100884Y-193150471D02*
X178958026Y-193079042D01*
X178958026Y-193079042D02*
X178672312Y-193007614D01*
X178672312Y-193007614D02*
X178529455Y-192936185D01*
X178529455Y-192936185D02*
X178458026Y-192864757D01*
X178458026Y-192864757D02*
X178386598Y-192721900D01*
X178386598Y-192721900D02*
X178386598Y-192579042D01*
X178386598Y-192579042D02*
X178458026Y-192436185D01*
X178458026Y-192436185D02*
X178529455Y-192364757D01*
X178529455Y-192364757D02*
X178672312Y-192293328D01*
X178672312Y-192293328D02*
X179029455Y-192293328D01*
X179029455Y-192293328D02*
X179243741Y-192364757D01*
X179886597Y-193793328D02*
X179886597Y-192793328D01*
X179886597Y-192293328D02*
X179815169Y-192364757D01*
X179815169Y-192364757D02*
X179886597Y-192436185D01*
X179886597Y-192436185D02*
X179958026Y-192364757D01*
X179958026Y-192364757D02*
X179886597Y-192293328D01*
X179886597Y-192293328D02*
X179886597Y-192436185D01*
X180458026Y-192793328D02*
X181243741Y-192793328D01*
X181243741Y-192793328D02*
X180458026Y-193793328D01*
X180458026Y-193793328D02*
X181243741Y-193793328D01*
X182386598Y-193721900D02*
X182243741Y-193793328D01*
X182243741Y-193793328D02*
X181958027Y-193793328D01*
X181958027Y-193793328D02*
X181815169Y-193721900D01*
X181815169Y-193721900D02*
X181743741Y-193579042D01*
X181743741Y-193579042D02*
X181743741Y-193007614D01*
X181743741Y-193007614D02*
X181815169Y-192864757D01*
X181815169Y-192864757D02*
X181958027Y-192793328D01*
X181958027Y-192793328D02*
X182243741Y-192793328D01*
X182243741Y-192793328D02*
X182386598Y-192864757D01*
X182386598Y-192864757D02*
X182458027Y-193007614D01*
X182458027Y-193007614D02*
X182458027Y-193150471D01*
X182458027Y-193150471D02*
X181743741Y-193293328D01*
X183100883Y-193650471D02*
X183172312Y-193721900D01*
X183172312Y-193721900D02*
X183100883Y-193793328D01*
X183100883Y-193793328D02*
X183029455Y-193721900D01*
X183029455Y-193721900D02*
X183100883Y-193650471D01*
X183100883Y-193650471D02*
X183100883Y-193793328D01*
X183100883Y-192864757D02*
X183172312Y-192936185D01*
X183172312Y-192936185D02*
X183100883Y-193007614D01*
X183100883Y-193007614D02*
X183029455Y-192936185D01*
X183029455Y-192936185D02*
X183100883Y-192864757D01*
X183100883Y-192864757D02*
X183100883Y-193007614D01*
X184886598Y-193364757D02*
X185600884Y-193364757D01*
X184743741Y-193793328D02*
X185243741Y-192293328D01*
X185243741Y-192293328D02*
X185743741Y-193793328D01*
X186886598Y-192793328D02*
X186886598Y-193793328D01*
X186529455Y-192221900D02*
X186172312Y-193293328D01*
X186172312Y-193293328D02*
X187100883Y-193293328D01*
D10*
D11*
X263458026Y-196593328D02*
X263458026Y-195093328D01*
X264815170Y-196593328D02*
X264815170Y-195093328D01*
X264815170Y-196521900D02*
X264672312Y-196593328D01*
X264672312Y-196593328D02*
X264386598Y-196593328D01*
X264386598Y-196593328D02*
X264243741Y-196521900D01*
X264243741Y-196521900D02*
X264172312Y-196450471D01*
X264172312Y-196450471D02*
X264100884Y-196307614D01*
X264100884Y-196307614D02*
X264100884Y-195879042D01*
X264100884Y-195879042D02*
X264172312Y-195736185D01*
X264172312Y-195736185D02*
X264243741Y-195664757D01*
X264243741Y-195664757D02*
X264386598Y-195593328D01*
X264386598Y-195593328D02*
X264672312Y-195593328D01*
X264672312Y-195593328D02*
X264815170Y-195664757D01*
X265529455Y-196450471D02*
X265600884Y-196521900D01*
X265600884Y-196521900D02*
X265529455Y-196593328D01*
X265529455Y-196593328D02*
X265458027Y-196521900D01*
X265458027Y-196521900D02*
X265529455Y-196450471D01*
X265529455Y-196450471D02*
X265529455Y-196593328D01*
X265529455Y-195664757D02*
X265600884Y-195736185D01*
X265600884Y-195736185D02*
X265529455Y-195807614D01*
X265529455Y-195807614D02*
X265458027Y-195736185D01*
X265458027Y-195736185D02*
X265529455Y-195664757D01*
X265529455Y-195664757D02*
X265529455Y-195807614D01*
X267243741Y-195093328D02*
X268172313Y-195093328D01*
X268172313Y-195093328D02*
X267672313Y-195664757D01*
X267672313Y-195664757D02*
X267886598Y-195664757D01*
X267886598Y-195664757D02*
X268029456Y-195736185D01*
X268029456Y-195736185D02*
X268100884Y-195807614D01*
X268100884Y-195807614D02*
X268172313Y-195950471D01*
X268172313Y-195950471D02*
X268172313Y-196307614D01*
X268172313Y-196307614D02*
X268100884Y-196450471D01*
X268100884Y-196450471D02*
X268029456Y-196521900D01*
X268029456Y-196521900D02*
X267886598Y-196593328D01*
X267886598Y-196593328D02*
X267458027Y-196593328D01*
X267458027Y-196593328D02*
X267315170Y-196521900D01*
X267315170Y-196521900D02*
X267243741Y-196450471D01*
X269886598Y-195021900D02*
X268600884Y-196950471D01*
X271172313Y-196593328D02*
X270315170Y-196593328D01*
X270743741Y-196593328D02*
X270743741Y-195093328D01*
X270743741Y-195093328D02*
X270600884Y-195307614D01*
X270600884Y-195307614D02*
X270458027Y-195450471D01*
X270458027Y-195450471D02*
X270315170Y-195521900D01*
X272600884Y-196593328D02*
X271743741Y-196593328D01*
X272172312Y-196593328D02*
X272172312Y-195093328D01*
X272172312Y-195093328D02*
X272029455Y-195307614D01*
X272029455Y-195307614D02*
X271886598Y-195450471D01*
X271886598Y-195450471D02*
X271743741Y-195521900D01*
D10*
D11*
X177002200Y-187507200D02*
X285002200Y-187507200D01*
D10*
D13*
X178693928Y-188211638D02*
X179836785Y-188211638D01*
X179015357Y-190211638D02*
X179265357Y-188211638D01*
X180253452Y-190211638D02*
X180420119Y-188878304D01*
X180503452Y-188211638D02*
X180396309Y-188306876D01*
X180396309Y-188306876D02*
X180479643Y-188402114D01*
X180479643Y-188402114D02*
X180586786Y-188306876D01*
X180586786Y-188306876D02*
X180503452Y-188211638D01*
X180503452Y-188211638D02*
X180479643Y-188402114D01*
X181086786Y-188878304D02*
X181848690Y-188878304D01*
X181455833Y-188211638D02*
X181241548Y-189925923D01*
X181241548Y-189925923D02*
X181312976Y-190116400D01*
X181312976Y-190116400D02*
X181491548Y-190211638D01*
X181491548Y-190211638D02*
X181682024Y-190211638D01*
X182634405Y-190211638D02*
X182455833Y-190116400D01*
X182455833Y-190116400D02*
X182384405Y-189925923D01*
X182384405Y-189925923D02*
X182598690Y-188211638D01*
X184170119Y-190116400D02*
X183967738Y-190211638D01*
X183967738Y-190211638D02*
X183586785Y-190211638D01*
X183586785Y-190211638D02*
X183408214Y-190116400D01*
X183408214Y-190116400D02*
X183336785Y-189925923D01*
X183336785Y-189925923D02*
X183432024Y-189164019D01*
X183432024Y-189164019D02*
X183551071Y-188973542D01*
X183551071Y-188973542D02*
X183753452Y-188878304D01*
X183753452Y-188878304D02*
X184134404Y-188878304D01*
X184134404Y-188878304D02*
X184312976Y-188973542D01*
X184312976Y-188973542D02*
X184384404Y-189164019D01*
X184384404Y-189164019D02*
X184360595Y-189354495D01*
X184360595Y-189354495D02*
X183384404Y-189544971D01*
X185134405Y-190021161D02*
X185217738Y-190116400D01*
X185217738Y-190116400D02*
X185110595Y-190211638D01*
X185110595Y-190211638D02*
X185027262Y-190116400D01*
X185027262Y-190116400D02*
X185134405Y-190021161D01*
X185134405Y-190021161D02*
X185110595Y-190211638D01*
X185265357Y-188973542D02*
X185348690Y-189068780D01*
X185348690Y-189068780D02*
X185241548Y-189164019D01*
X185241548Y-189164019D02*
X185158214Y-189068780D01*
X185158214Y-189068780D02*
X185265357Y-188973542D01*
X185265357Y-188973542D02*
X185241548Y-189164019D01*
D10*
D11*
X178958026Y-185607614D02*
X178458026Y-185607614D01*
X178458026Y-186393328D02*
X178458026Y-184893328D01*
X178458026Y-184893328D02*
X179172312Y-184893328D01*
X179743740Y-186393328D02*
X179743740Y-185393328D01*
X179743740Y-184893328D02*
X179672312Y-184964757D01*
X179672312Y-184964757D02*
X179743740Y-185036185D01*
X179743740Y-185036185D02*
X179815169Y-184964757D01*
X179815169Y-184964757D02*
X179743740Y-184893328D01*
X179743740Y-184893328D02*
X179743740Y-185036185D01*
X180672312Y-186393328D02*
X180529455Y-186321900D01*
X180529455Y-186321900D02*
X180458026Y-186179042D01*
X180458026Y-186179042D02*
X180458026Y-184893328D01*
X181815169Y-186321900D02*
X181672312Y-186393328D01*
X181672312Y-186393328D02*
X181386598Y-186393328D01*
X181386598Y-186393328D02*
X181243740Y-186321900D01*
X181243740Y-186321900D02*
X181172312Y-186179042D01*
X181172312Y-186179042D02*
X181172312Y-185607614D01*
X181172312Y-185607614D02*
X181243740Y-185464757D01*
X181243740Y-185464757D02*
X181386598Y-185393328D01*
X181386598Y-185393328D02*
X181672312Y-185393328D01*
X181672312Y-185393328D02*
X181815169Y-185464757D01*
X181815169Y-185464757D02*
X181886598Y-185607614D01*
X181886598Y-185607614D02*
X181886598Y-185750471D01*
X181886598Y-185750471D02*
X181172312Y-185893328D01*
X182529454Y-186250471D02*
X182600883Y-186321900D01*
X182600883Y-186321900D02*
X182529454Y-186393328D01*
X182529454Y-186393328D02*
X182458026Y-186321900D01*
X182458026Y-186321900D02*
X182529454Y-186250471D01*
X182529454Y-186250471D02*
X182529454Y-186393328D01*
X182529454Y-185464757D02*
X182600883Y-185536185D01*
X182600883Y-185536185D02*
X182529454Y-185607614D01*
X182529454Y-185607614D02*
X182458026Y-185536185D01*
X182458026Y-185536185D02*
X182529454Y-185464757D01*
X182529454Y-185464757D02*
X182529454Y-185607614D01*
X184315169Y-186321900D02*
X184529455Y-186393328D01*
X184529455Y-186393328D02*
X184886597Y-186393328D01*
X184886597Y-186393328D02*
X185029455Y-186321900D01*
X185029455Y-186321900D02*
X185100883Y-186250471D01*
X185100883Y-186250471D02*
X185172312Y-186107614D01*
X185172312Y-186107614D02*
X185172312Y-185964757D01*
X185172312Y-185964757D02*
X185100883Y-185821900D01*
X185100883Y-185821900D02*
X185029455Y-185750471D01*
X185029455Y-185750471D02*
X184886597Y-185679042D01*
X184886597Y-185679042D02*
X184600883Y-185607614D01*
X184600883Y-185607614D02*
X184458026Y-185536185D01*
X184458026Y-185536185D02*
X184386597Y-185464757D01*
X184386597Y-185464757D02*
X184315169Y-185321900D01*
X184315169Y-185321900D02*
X184315169Y-185179042D01*
X184315169Y-185179042D02*
X184386597Y-185036185D01*
X184386597Y-185036185D02*
X184458026Y-184964757D01*
X184458026Y-184964757D02*
X184600883Y-184893328D01*
X184600883Y-184893328D02*
X184958026Y-184893328D01*
X184958026Y-184893328D02*
X185172312Y-184964757D01*
X186672311Y-186393328D02*
X186172311Y-185679042D01*
X185815168Y-186393328D02*
X185815168Y-184893328D01*
X185815168Y-184893328D02*
X186386597Y-184893328D01*
X186386597Y-184893328D02*
X186529454Y-184964757D01*
X186529454Y-184964757D02*
X186600883Y-185036185D01*
X186600883Y-185036185D02*
X186672311Y-185179042D01*
X186672311Y-185179042D02*
X186672311Y-185393328D01*
X186672311Y-185393328D02*
X186600883Y-185536185D01*
X186600883Y-185536185D02*
X186529454Y-185607614D01*
X186529454Y-185607614D02*
X186386597Y-185679042D01*
X186386597Y-185679042D02*
X185815168Y-185679042D01*
X187243740Y-185964757D02*
X187958026Y-185964757D01*
X187100883Y-186393328D02*
X187600883Y-184893328D01*
X187600883Y-184893328D02*
X188100883Y-186393328D01*
X188600882Y-186393328D02*
X188600882Y-184893328D01*
X188600882Y-184893328D02*
X189100882Y-185964757D01*
X189100882Y-185964757D02*
X189600882Y-184893328D01*
X189600882Y-184893328D02*
X189600882Y-186393328D01*
X189958026Y-186536185D02*
X191100883Y-186536185D01*
X192029454Y-186321900D02*
X191886597Y-186393328D01*
X191886597Y-186393328D02*
X191600883Y-186393328D01*
X191600883Y-186393328D02*
X191458025Y-186321900D01*
X191458025Y-186321900D02*
X191386597Y-186179042D01*
X191386597Y-186179042D02*
X191386597Y-185607614D01*
X191386597Y-185607614D02*
X191458025Y-185464757D01*
X191458025Y-185464757D02*
X191600883Y-185393328D01*
X191600883Y-185393328D02*
X191886597Y-185393328D01*
X191886597Y-185393328D02*
X192029454Y-185464757D01*
X192029454Y-185464757D02*
X192100883Y-185607614D01*
X192100883Y-185607614D02*
X192100883Y-185750471D01*
X192100883Y-185750471D02*
X191386597Y-185893328D01*
X192600882Y-186393328D02*
X193386597Y-185393328D01*
X192600882Y-185393328D02*
X193386597Y-186393328D01*
X193958025Y-185393328D02*
X193958025Y-186893328D01*
X193958025Y-185464757D02*
X194100883Y-185393328D01*
X194100883Y-185393328D02*
X194386597Y-185393328D01*
X194386597Y-185393328D02*
X194529454Y-185464757D01*
X194529454Y-185464757D02*
X194600883Y-185536185D01*
X194600883Y-185536185D02*
X194672311Y-185679042D01*
X194672311Y-185679042D02*
X194672311Y-186107614D01*
X194672311Y-186107614D02*
X194600883Y-186250471D01*
X194600883Y-186250471D02*
X194529454Y-186321900D01*
X194529454Y-186321900D02*
X194386597Y-186393328D01*
X194386597Y-186393328D02*
X194100883Y-186393328D01*
X194100883Y-186393328D02*
X193958025Y-186321900D01*
X195315168Y-186250471D02*
X195386597Y-186321900D01*
X195386597Y-186321900D02*
X195315168Y-186393328D01*
X195315168Y-186393328D02*
X195243740Y-186321900D01*
X195243740Y-186321900D02*
X195315168Y-186250471D01*
X195315168Y-186250471D02*
X195315168Y-186393328D01*
X196029454Y-186393328D02*
X196029454Y-184893328D01*
X196172312Y-185821900D02*
X196600883Y-186393328D01*
X196600883Y-185393328D02*
X196029454Y-185964757D01*
X197243740Y-186393328D02*
X197243740Y-185393328D01*
X197243740Y-184893328D02*
X197172312Y-184964757D01*
X197172312Y-184964757D02*
X197243740Y-185036185D01*
X197243740Y-185036185D02*
X197315169Y-184964757D01*
X197315169Y-184964757D02*
X197243740Y-184893328D01*
X197243740Y-184893328D02*
X197243740Y-185036185D01*
X198600884Y-186321900D02*
X198458026Y-186393328D01*
X198458026Y-186393328D02*
X198172312Y-186393328D01*
X198172312Y-186393328D02*
X198029455Y-186321900D01*
X198029455Y-186321900D02*
X197958026Y-186250471D01*
X197958026Y-186250471D02*
X197886598Y-186107614D01*
X197886598Y-186107614D02*
X197886598Y-185679042D01*
X197886598Y-185679042D02*
X197958026Y-185536185D01*
X197958026Y-185536185D02*
X198029455Y-185464757D01*
X198029455Y-185464757D02*
X198172312Y-185393328D01*
X198172312Y-185393328D02*
X198458026Y-185393328D01*
X198458026Y-185393328D02*
X198600884Y-185464757D01*
X199886598Y-186393328D02*
X199886598Y-185607614D01*
X199886598Y-185607614D02*
X199815169Y-185464757D01*
X199815169Y-185464757D02*
X199672312Y-185393328D01*
X199672312Y-185393328D02*
X199386598Y-185393328D01*
X199386598Y-185393328D02*
X199243740Y-185464757D01*
X199886598Y-186321900D02*
X199743740Y-186393328D01*
X199743740Y-186393328D02*
X199386598Y-186393328D01*
X199386598Y-186393328D02*
X199243740Y-186321900D01*
X199243740Y-186321900D02*
X199172312Y-186179042D01*
X199172312Y-186179042D02*
X199172312Y-186036185D01*
X199172312Y-186036185D02*
X199243740Y-185893328D01*
X199243740Y-185893328D02*
X199386598Y-185821900D01*
X199386598Y-185821900D02*
X199743740Y-185821900D01*
X199743740Y-185821900D02*
X199886598Y-185750471D01*
X201243741Y-186393328D02*
X201243741Y-184893328D01*
X201243741Y-186321900D02*
X201100883Y-186393328D01*
X201100883Y-186393328D02*
X200815169Y-186393328D01*
X200815169Y-186393328D02*
X200672312Y-186321900D01*
X200672312Y-186321900D02*
X200600883Y-186250471D01*
X200600883Y-186250471D02*
X200529455Y-186107614D01*
X200529455Y-186107614D02*
X200529455Y-185679042D01*
X200529455Y-185679042D02*
X200600883Y-185536185D01*
X200600883Y-185536185D02*
X200672312Y-185464757D01*
X200672312Y-185464757D02*
X200815169Y-185393328D01*
X200815169Y-185393328D02*
X201100883Y-185393328D01*
X201100883Y-185393328D02*
X201243741Y-185464757D01*
X201600884Y-186536185D02*
X202743741Y-186536185D01*
X203100883Y-185393328D02*
X203100883Y-186893328D01*
X203100883Y-185464757D02*
X203243741Y-185393328D01*
X203243741Y-185393328D02*
X203529455Y-185393328D01*
X203529455Y-185393328D02*
X203672312Y-185464757D01*
X203672312Y-185464757D02*
X203743741Y-185536185D01*
X203743741Y-185536185D02*
X203815169Y-185679042D01*
X203815169Y-185679042D02*
X203815169Y-186107614D01*
X203815169Y-186107614D02*
X203743741Y-186250471D01*
X203743741Y-186250471D02*
X203672312Y-186321900D01*
X203672312Y-186321900D02*
X203529455Y-186393328D01*
X203529455Y-186393328D02*
X203243741Y-186393328D01*
X203243741Y-186393328D02*
X203100883Y-186321900D01*
X205100884Y-186321900D02*
X204958026Y-186393328D01*
X204958026Y-186393328D02*
X204672312Y-186393328D01*
X204672312Y-186393328D02*
X204529455Y-186321900D01*
X204529455Y-186321900D02*
X204458026Y-186250471D01*
X204458026Y-186250471D02*
X204386598Y-186107614D01*
X204386598Y-186107614D02*
X204386598Y-185679042D01*
X204386598Y-185679042D02*
X204458026Y-185536185D01*
X204458026Y-185536185D02*
X204529455Y-185464757D01*
X204529455Y-185464757D02*
X204672312Y-185393328D01*
X204672312Y-185393328D02*
X204958026Y-185393328D01*
X204958026Y-185393328D02*
X205100884Y-185464757D01*
X205743740Y-186393328D02*
X205743740Y-184893328D01*
X205743740Y-185464757D02*
X205886598Y-185393328D01*
X205886598Y-185393328D02*
X206172312Y-185393328D01*
X206172312Y-185393328D02*
X206315169Y-185464757D01*
X206315169Y-185464757D02*
X206386598Y-185536185D01*
X206386598Y-185536185D02*
X206458026Y-185679042D01*
X206458026Y-185679042D02*
X206458026Y-186107614D01*
X206458026Y-186107614D02*
X206386598Y-186250471D01*
X206386598Y-186250471D02*
X206315169Y-186321900D01*
X206315169Y-186321900D02*
X206172312Y-186393328D01*
X206172312Y-186393328D02*
X205886598Y-186393328D01*
X205886598Y-186393328D02*
X205743740Y-186321900D01*
D10*
D11*
X177002200Y-181507200D02*
X285002200Y-181507200D01*
D10*
D11*
X178386598Y-183621900D02*
X178600884Y-183693328D01*
X178600884Y-183693328D02*
X178958026Y-183693328D01*
X178958026Y-183693328D02*
X179100884Y-183621900D01*
X179100884Y-183621900D02*
X179172312Y-183550471D01*
X179172312Y-183550471D02*
X179243741Y-183407614D01*
X179243741Y-183407614D02*
X179243741Y-183264757D01*
X179243741Y-183264757D02*
X179172312Y-183121900D01*
X179172312Y-183121900D02*
X179100884Y-183050471D01*
X179100884Y-183050471D02*
X178958026Y-182979042D01*
X178958026Y-182979042D02*
X178672312Y-182907614D01*
X178672312Y-182907614D02*
X178529455Y-182836185D01*
X178529455Y-182836185D02*
X178458026Y-182764757D01*
X178458026Y-182764757D02*
X178386598Y-182621900D01*
X178386598Y-182621900D02*
X178386598Y-182479042D01*
X178386598Y-182479042D02*
X178458026Y-182336185D01*
X178458026Y-182336185D02*
X178529455Y-182264757D01*
X178529455Y-182264757D02*
X178672312Y-182193328D01*
X178672312Y-182193328D02*
X179029455Y-182193328D01*
X179029455Y-182193328D02*
X179243741Y-182264757D01*
X179886597Y-183693328D02*
X179886597Y-182193328D01*
X180529455Y-183693328D02*
X180529455Y-182907614D01*
X180529455Y-182907614D02*
X180458026Y-182764757D01*
X180458026Y-182764757D02*
X180315169Y-182693328D01*
X180315169Y-182693328D02*
X180100883Y-182693328D01*
X180100883Y-182693328D02*
X179958026Y-182764757D01*
X179958026Y-182764757D02*
X179886597Y-182836185D01*
X181815169Y-183621900D02*
X181672312Y-183693328D01*
X181672312Y-183693328D02*
X181386598Y-183693328D01*
X181386598Y-183693328D02*
X181243740Y-183621900D01*
X181243740Y-183621900D02*
X181172312Y-183479042D01*
X181172312Y-183479042D02*
X181172312Y-182907614D01*
X181172312Y-182907614D02*
X181243740Y-182764757D01*
X181243740Y-182764757D02*
X181386598Y-182693328D01*
X181386598Y-182693328D02*
X181672312Y-182693328D01*
X181672312Y-182693328D02*
X181815169Y-182764757D01*
X181815169Y-182764757D02*
X181886598Y-182907614D01*
X181886598Y-182907614D02*
X181886598Y-183050471D01*
X181886598Y-183050471D02*
X181172312Y-183193328D01*
X183100883Y-183621900D02*
X182958026Y-183693328D01*
X182958026Y-183693328D02*
X182672312Y-183693328D01*
X182672312Y-183693328D02*
X182529454Y-183621900D01*
X182529454Y-183621900D02*
X182458026Y-183479042D01*
X182458026Y-183479042D02*
X182458026Y-182907614D01*
X182458026Y-182907614D02*
X182529454Y-182764757D01*
X182529454Y-182764757D02*
X182672312Y-182693328D01*
X182672312Y-182693328D02*
X182958026Y-182693328D01*
X182958026Y-182693328D02*
X183100883Y-182764757D01*
X183100883Y-182764757D02*
X183172312Y-182907614D01*
X183172312Y-182907614D02*
X183172312Y-183050471D01*
X183172312Y-183050471D02*
X182458026Y-183193328D01*
X183600883Y-182693328D02*
X184172311Y-182693328D01*
X183815168Y-182193328D02*
X183815168Y-183479042D01*
X183815168Y-183479042D02*
X183886597Y-183621900D01*
X183886597Y-183621900D02*
X184029454Y-183693328D01*
X184029454Y-183693328D02*
X184172311Y-183693328D01*
X184672311Y-183550471D02*
X184743740Y-183621900D01*
X184743740Y-183621900D02*
X184672311Y-183693328D01*
X184672311Y-183693328D02*
X184600883Y-183621900D01*
X184600883Y-183621900D02*
X184672311Y-183550471D01*
X184672311Y-183550471D02*
X184672311Y-183693328D01*
X184672311Y-182764757D02*
X184743740Y-182836185D01*
X184743740Y-182836185D02*
X184672311Y-182907614D01*
X184672311Y-182907614D02*
X184600883Y-182836185D01*
X184600883Y-182836185D02*
X184672311Y-182764757D01*
X184672311Y-182764757D02*
X184672311Y-182907614D01*
D10*
D11*
X197002200Y-191507200D02*
X197002200Y-194507200D01*
D10*
D11*
X261002200Y-191507200D02*
X261002200Y-198007200D01*
D14*
X182041700Y-119090000D02*
X183341700Y-119090000D01*
X183341700Y-120090000D01*
X182041700Y-120090000D01*
X182041700Y-119090000D01*
%TA.AperFunction,NonConductor*%
G36*
X182041700Y-119090000D02*
G01*
X183341700Y-119090000D01*
X183341700Y-120090000D01*
X182041700Y-120090000D01*
X182041700Y-119090000D01*
G37*
%TD.AperFunction*%
D15*
%TO.N,+5V*%
%TO.C,TP1*%
X103223400Y-120300100D03*
%TD*%
%TO.N,GND*%
%TO.C,TP3*%
X103123400Y-125400100D03*
%TD*%
D16*
%TO.N,+3.3V*%
%TO.C,J3*%
X143591700Y-105462500D03*
D17*
%TO.N,GND*%
X146131700Y-105462500D03*
%TO.N,/spare1*%
X148671700Y-105462500D03*
%TO.N,/spare3*%
X151211700Y-105462500D03*
%TO.N,/spare5*%
X153751700Y-105462500D03*
%TO.N,/spare7*%
X156291700Y-105462500D03*
%TO.N,+3.3V*%
X143591700Y-108002500D03*
%TO.N,GND*%
X146131700Y-108002500D03*
%TO.N,/spare0*%
X148671700Y-108002500D03*
%TO.N,/spare2*%
X151211700Y-108002500D03*
%TO.N,/spare4*%
X153751700Y-108002500D03*
%TO.N,/spare6*%
X156291700Y-108002500D03*
%TD*%
D18*
%TO.N,Net-(U1-CS#)*%
%TO.C,TP8*%
X157591700Y-124783800D03*
%TD*%
%TO.N,Net-(U1-LB#)*%
%TO.C,TP6*%
X178741700Y-108383800D03*
%TD*%
%TO.N,Net-(U1-WE#)*%
%TO.C,TP7*%
X174341700Y-124733800D03*
%TD*%
%TO.N,Net-(U1-UB#)*%
%TO.C,TP5*%
X178741700Y-106333800D03*
%TD*%
D15*
%TO.N,+3.3V*%
%TO.C,TP2*%
X124947900Y-122885100D03*
%TD*%
D18*
%TO.N,Net-(U1-OE#)*%
%TO.C,TP4*%
X178741700Y-104283800D03*
%TD*%
D15*
%TO.N,GND*%
%TO.C,TP11*%
X181441700Y-123983800D03*
%TD*%
D19*
%TO.N,GND*%
%TO.C,H2*%
X129123400Y-115000100D03*
X130002080Y-112878780D03*
X130002080Y-117121420D03*
X132123400Y-112000100D03*
D20*
X132123400Y-115000100D03*
D19*
X132123400Y-118000100D03*
X134244720Y-112878780D03*
X134244720Y-117121420D03*
X135123400Y-115000100D03*
%TD*%
D21*
%TO.N,GND*%
%TO.C,J2*%
X98123400Y-117780100D03*
%TO.N,+5V*%
X98123400Y-120320100D03*
X98123400Y-122860100D03*
%TO.N,GND*%
X98123400Y-125400100D03*
%TD*%
D22*
%TO.N,/A9*%
X171541700Y-110083800D03*
%TO.N,/A12*%
X174741700Y-110083800D03*
%TO.N,/A0*%
X157941700Y-118483800D03*
%TO.N,/A17*%
X174741700Y-118783800D03*
%TO.N,/A15*%
X177141700Y-118783800D03*
%TO.N,/A20*%
X169941700Y-110383800D03*
%TO.N,/A3*%
X153141700Y-118483800D03*
%TO.N,/A13*%
X176341700Y-110381800D03*
%TO.N,/A11*%
X173941700Y-110383800D03*
%TO.N,/A4*%
X152341700Y-118833800D03*
%TO.N,/A14*%
X177141700Y-110081800D03*
%TO.N,/A10*%
X172341700Y-109783800D03*
%TO.N,/A18*%
X173941700Y-118483800D03*
%TO.N,/A1*%
X157141700Y-118833800D03*
%TO.N,/A2*%
X154741700Y-118833800D03*
%TO.N,/A19*%
X172341700Y-118783800D03*
%TO.N,/A5*%
X161816199Y-110464634D03*
%TO.N,/A8*%
X165141700Y-110383800D03*
%TO.N,/A6*%
X162722348Y-110461208D03*
%TO.N,/A7*%
X164341700Y-110383800D03*
%TO.N,/A16*%
X176341700Y-118483800D03*
%TO.N,/IO2*%
X164341700Y-118483800D03*
%TO.N,GND*%
X123041700Y-114690000D03*
X156341700Y-114283800D03*
X138001700Y-114710000D03*
X153941700Y-114283800D03*
X128041700Y-125971300D03*
X177941700Y-114283800D03*
X117323400Y-119400100D03*
X170741700Y-114283800D03*
X120331700Y-120930100D03*
X123041700Y-125970000D03*
X115404100Y-122200100D03*
X138041700Y-125965100D03*
X118523400Y-119400100D03*
X180541700Y-109683800D03*
X113001700Y-107210000D03*
X153041700Y-125965100D03*
X138041700Y-104683800D03*
X128041700Y-107183800D03*
X113567900Y-122200100D03*
X158741700Y-119183800D03*
X166441700Y-126033800D03*
X180541700Y-119683800D03*
X175541700Y-109783800D03*
X161141700Y-119183800D03*
X145541700Y-112083800D03*
X161141700Y-110783800D03*
X175541700Y-114283800D03*
X180541700Y-104683800D03*
X118523400Y-123000100D03*
X180541700Y-112183800D03*
X177941700Y-119083800D03*
X94103161Y-125970000D03*
X178041700Y-122183800D03*
X118005377Y-112205862D03*
X113005377Y-112205862D03*
X177941700Y-109783800D03*
X108098404Y-125970000D03*
X123005377Y-112205862D03*
X179141700Y-112083800D03*
X138041700Y-112183800D03*
X163541700Y-119183800D03*
X113041700Y-125970000D03*
X158741700Y-110383800D03*
X133041700Y-107183800D03*
X117323400Y-123000100D03*
X170741700Y-108983800D03*
X118041700Y-125970000D03*
X117323400Y-121800100D03*
X94041700Y-119731629D03*
X180541700Y-117183800D03*
X118041700Y-107183800D03*
X151541700Y-119183800D03*
X117923400Y-123600100D03*
X121433400Y-118270100D03*
X103041700Y-117190000D03*
X158741700Y-114283800D03*
X175541700Y-119083800D03*
X148541700Y-110283800D03*
X173141700Y-114283800D03*
X165941700Y-110733800D03*
X146741700Y-109770000D03*
X123041700Y-109690000D03*
X145541700Y-114283800D03*
X173141700Y-119033800D03*
X113001700Y-109710000D03*
X180541700Y-107183800D03*
X161141700Y-114283800D03*
X128041700Y-112190000D03*
X166503804Y-120733800D03*
X163541700Y-114283800D03*
X138041700Y-109683800D03*
X153941700Y-119183800D03*
X165541698Y-106784035D03*
X117323400Y-120600100D03*
X108041700Y-117190000D03*
X163541700Y-110583857D03*
X165541700Y-103683800D03*
X173041700Y-124683800D03*
X175541700Y-107183800D03*
X118041700Y-117190000D03*
X148041700Y-125970000D03*
X180547900Y-124685100D03*
X146741700Y-114283800D03*
X166503804Y-121420904D03*
X128041700Y-117190000D03*
X115404100Y-120930100D03*
X146741700Y-119183800D03*
X156341700Y-119183800D03*
X113567900Y-121565100D03*
X138001700Y-117210000D03*
X117923400Y-122400100D03*
X94041700Y-122690000D03*
X118005377Y-109705862D03*
X117923400Y-121200100D03*
X128041700Y-109683800D03*
X138041700Y-107183800D03*
X178041700Y-124683800D03*
X165941700Y-119083800D03*
X170741700Y-119083800D03*
X143041700Y-125965100D03*
X179141700Y-116483800D03*
X149141700Y-114283800D03*
X170741700Y-110683800D03*
X117923400Y-120000100D03*
X179141700Y-114283800D03*
X118523400Y-120700100D03*
X168341700Y-119083800D03*
X118523400Y-121800100D03*
X94041700Y-117190000D03*
X123041700Y-107183800D03*
X173141700Y-110083800D03*
X133041700Y-109683800D03*
X180541700Y-122183800D03*
X149141700Y-119183800D03*
X133041700Y-125965100D03*
X113567900Y-120930100D03*
X151541700Y-114283800D03*
%TO.N,/IO4*%
X166750000Y-118483800D03*
%TO.N,Net-(U1-CS#)*%
X159541700Y-118483800D03*
%TO.N,Net-(U1-WE#)*%
X171541700Y-118483800D03*
%TO.N,/IO6*%
X169150000Y-118483800D03*
%TO.N,Net-(U1-OE#)*%
X161842677Y-107033800D03*
%TO.N,/IO1*%
X162741700Y-118833800D03*
%TO.N,/IO5*%
X167541700Y-118833800D03*
%TO.N,/IO7*%
X169950000Y-118833800D03*
%TO.N,/IO0*%
X161941700Y-118483800D03*
%TO.N,/IO3*%
X165141700Y-118833800D03*
%TO.N,+3.3V*%
X165441700Y-126033800D03*
X165541700Y-121008800D03*
X120967900Y-124565100D03*
X122367900Y-124565100D03*
X167141700Y-108283800D03*
X166341700Y-103683800D03*
X123567900Y-123465100D03*
X123567900Y-124565100D03*
X122367900Y-122165100D03*
X123567900Y-122165100D03*
X165541700Y-120383800D03*
X119767900Y-124565100D03*
X120331700Y-123470100D03*
X120331700Y-122200100D03*
X166541700Y-107783800D03*
X165541700Y-121633800D03*
%TO.N,+5V*%
X113767900Y-124465100D03*
X116089900Y-118665100D03*
X113767900Y-119670100D03*
X113767900Y-123470100D03*
X113767900Y-118665100D03*
X114967900Y-118665100D03*
X114967900Y-124465100D03*
X116067900Y-124465100D03*
X115404100Y-119660100D03*
X115404100Y-123470100D03*
%TO.N,Net-(U1-LB#)*%
X163291426Y-108484074D03*
%TO.N,Net-(U1-UB#)*%
X162541700Y-107683800D03*
%TO.N,/spare7*%
X160341700Y-114290000D03*
%TD*%
%TA.AperFunction,Conductor*%
%TO.N,GND*%
G36*
X97394524Y-116401185D02*
G01*
X97440279Y-116453989D01*
X97450223Y-116523147D01*
X97421198Y-116586703D01*
X97400370Y-116605819D01*
X97343783Y-116646930D01*
X97985825Y-117288971D01*
X97926547Y-117304855D01*
X97810253Y-117371998D01*
X97715298Y-117466953D01*
X97648155Y-117583247D01*
X97632271Y-117642524D01*
X96990230Y-117000483D01*
X96947392Y-117059446D01*
X96849136Y-117252282D01*
X96849135Y-117252285D01*
X96782257Y-117458118D01*
X96748400Y-117671879D01*
X96748400Y-117888320D01*
X96782257Y-118102081D01*
X96849135Y-118307914D01*
X96849136Y-118307917D01*
X96947396Y-118500760D01*
X96990229Y-118559715D01*
X96990230Y-118559716D01*
X97632271Y-117917675D01*
X97648155Y-117976953D01*
X97715298Y-118093247D01*
X97810253Y-118188202D01*
X97926547Y-118255345D01*
X97985824Y-118271228D01*
X97343782Y-118913268D01*
X97393614Y-118949473D01*
X97436279Y-119004803D01*
X97442258Y-119074416D01*
X97409652Y-119136211D01*
X97393614Y-119150109D01*
X97227320Y-119270929D01*
X97074230Y-119424019D01*
X97074230Y-119424020D01*
X97074228Y-119424022D01*
X97019574Y-119499245D01*
X96946967Y-119599180D01*
X96848673Y-119792090D01*
X96848672Y-119792093D01*
X96781770Y-119998001D01*
X96747900Y-120211846D01*
X96747900Y-120428353D01*
X96781770Y-120642198D01*
X96848672Y-120848106D01*
X96848673Y-120848109D01*
X96909474Y-120967435D01*
X96946967Y-121041019D01*
X97074228Y-121216178D01*
X97227322Y-121369272D01*
X97345188Y-121454907D01*
X97393189Y-121489782D01*
X97435854Y-121545112D01*
X97441833Y-121614726D01*
X97409227Y-121676521D01*
X97393188Y-121690418D01*
X97227322Y-121810928D01*
X97227320Y-121810930D01*
X97227319Y-121810930D01*
X97074230Y-121964019D01*
X97074230Y-121964020D01*
X97074228Y-121964022D01*
X97030703Y-122023929D01*
X96946967Y-122139180D01*
X96848673Y-122332090D01*
X96848672Y-122332093D01*
X96781770Y-122538001D01*
X96747900Y-122751846D01*
X96747900Y-122968353D01*
X96781770Y-123182198D01*
X96848672Y-123388106D01*
X96848673Y-123388109D01*
X96865863Y-123421845D01*
X96946967Y-123581019D01*
X97074228Y-123756178D01*
X97227322Y-123909272D01*
X97393615Y-124030091D01*
X97436279Y-124085420D01*
X97442258Y-124155033D01*
X97409652Y-124216828D01*
X97393613Y-124230726D01*
X97343783Y-124266929D01*
X97343783Y-124266930D01*
X97985825Y-124908971D01*
X97926547Y-124924855D01*
X97810253Y-124991998D01*
X97715298Y-125086953D01*
X97648155Y-125203247D01*
X97632271Y-125262524D01*
X96990230Y-124620483D01*
X96947392Y-124679446D01*
X96849136Y-124872282D01*
X96849135Y-124872285D01*
X96782257Y-125078118D01*
X96748400Y-125291879D01*
X96748400Y-125508320D01*
X96782257Y-125722081D01*
X96849135Y-125927914D01*
X96849136Y-125927917D01*
X96947396Y-126120760D01*
X96990229Y-126179715D01*
X96990230Y-126179716D01*
X97632271Y-125537675D01*
X97648155Y-125596953D01*
X97715298Y-125713247D01*
X97810253Y-125808202D01*
X97926547Y-125875345D01*
X97985824Y-125891228D01*
X97343782Y-126533268D01*
X97405325Y-126577982D01*
X97447990Y-126633312D01*
X97453969Y-126702926D01*
X97421363Y-126764721D01*
X97360524Y-126799078D01*
X97332439Y-126802300D01*
X93448661Y-126802300D01*
X93434777Y-126801520D01*
X93317953Y-126788357D01*
X93290882Y-126782178D01*
X93271900Y-126775536D01*
X93186532Y-126745664D01*
X93161515Y-126733617D01*
X93067899Y-126674794D01*
X93046190Y-126657481D01*
X92968018Y-126579309D01*
X92950705Y-126557600D01*
X92926023Y-126518319D01*
X92891880Y-126463981D01*
X92879837Y-126438971D01*
X92843319Y-126334611D01*
X92837143Y-126307550D01*
X92823980Y-126190721D01*
X92823200Y-126176838D01*
X92823200Y-117006961D01*
X92823980Y-116993078D01*
X92835450Y-116891274D01*
X92837143Y-116876247D01*
X92843319Y-116849190D01*
X92879838Y-116744824D01*
X92891878Y-116719821D01*
X92950707Y-116626195D01*
X92968014Y-116604494D01*
X93046194Y-116526314D01*
X93067895Y-116509007D01*
X93161521Y-116450178D01*
X93186524Y-116438138D01*
X93290890Y-116401619D01*
X93317947Y-116395443D01*
X93423616Y-116383537D01*
X93434778Y-116382280D01*
X93448661Y-116381500D01*
X97327485Y-116381500D01*
X97394524Y-116401185D01*
G37*
%TD.AperFunction*%
%TA.AperFunction,Conductor*%
G36*
X165479239Y-102501185D02*
G01*
X165524994Y-102553989D01*
X165536200Y-102605500D01*
X165536200Y-103101336D01*
X165539097Y-103155384D01*
X165539097Y-103155385D01*
X165541929Y-103181718D01*
X165541932Y-103181745D01*
X165550585Y-103235141D01*
X165550585Y-103235143D01*
X165589697Y-103340004D01*
X165600868Y-103369953D01*
X165623194Y-103410839D01*
X165638045Y-103479112D01*
X165635978Y-103494456D01*
X165612600Y-103611985D01*
X165612600Y-103755614D01*
X165635526Y-103870872D01*
X165629299Y-103940464D01*
X165626703Y-103946575D01*
X165576364Y-104056799D01*
X165556676Y-104123847D01*
X165536200Y-104266266D01*
X165536200Y-106201573D01*
X165539097Y-106255621D01*
X165539097Y-106255622D01*
X165541929Y-106281955D01*
X165541932Y-106281982D01*
X165550585Y-106335378D01*
X165550585Y-106335380D01*
X165600539Y-106469308D01*
X165600868Y-106470190D01*
X165630603Y-106524646D01*
X165634354Y-106531515D01*
X165702515Y-106622565D01*
X165706352Y-106627988D01*
X165733063Y-106667965D01*
X165744522Y-106689403D01*
X165752031Y-106707532D01*
X165759085Y-106730785D01*
X165762914Y-106750029D01*
X165765298Y-106774227D01*
X165765298Y-106793844D01*
X165762914Y-106818041D01*
X165759086Y-106837281D01*
X165752031Y-106860536D01*
X165744521Y-106878667D01*
X165733061Y-106900107D01*
X165718773Y-106921490D01*
X165707926Y-106935454D01*
X165684399Y-106961648D01*
X165667771Y-106982285D01*
X165667756Y-106982304D01*
X165636133Y-107026161D01*
X165636130Y-107026165D01*
X165576364Y-107157032D01*
X165556676Y-107224080D01*
X165545915Y-107298925D01*
X165540234Y-107338444D01*
X165536200Y-107366499D01*
X165536200Y-109572456D01*
X165516515Y-109639495D01*
X165463711Y-109685250D01*
X165394553Y-109695194D01*
X165364748Y-109687017D01*
X165354375Y-109682720D01*
X165354363Y-109682717D01*
X165213513Y-109654700D01*
X165213510Y-109654700D01*
X165069890Y-109654700D01*
X165069887Y-109654700D01*
X164929036Y-109682717D01*
X164929028Y-109682719D01*
X164790714Y-109740011D01*
X164789799Y-109737802D01*
X164731728Y-109749882D01*
X164693274Y-109738591D01*
X164692686Y-109740011D01*
X164554371Y-109682719D01*
X164554363Y-109682717D01*
X164413513Y-109654700D01*
X164413510Y-109654700D01*
X164269890Y-109654700D01*
X164269887Y-109654700D01*
X164129036Y-109682717D01*
X164129028Y-109682719D01*
X163996344Y-109737678D01*
X163996335Y-109737683D01*
X163876926Y-109817470D01*
X163876922Y-109817473D01*
X163775373Y-109919022D01*
X163775370Y-109919026D01*
X163695583Y-110038435D01*
X163695578Y-110038444D01*
X163640619Y-110171128D01*
X163640617Y-110171134D01*
X163639501Y-110176746D01*
X163607112Y-110238655D01*
X163546394Y-110273225D01*
X163476624Y-110269481D01*
X163419955Y-110228611D01*
X163403324Y-110199999D01*
X163368471Y-110115856D01*
X163368464Y-110115843D01*
X163288677Y-109996434D01*
X163288674Y-109996430D01*
X163187125Y-109894881D01*
X163187121Y-109894878D01*
X163067712Y-109815091D01*
X163067703Y-109815086D01*
X162935019Y-109760127D01*
X162935011Y-109760125D01*
X162794161Y-109732108D01*
X162794158Y-109732108D01*
X162650538Y-109732108D01*
X162650535Y-109732108D01*
X162509684Y-109760125D01*
X162509676Y-109760127D01*
X162376989Y-109815088D01*
X162335598Y-109842744D01*
X162268921Y-109863621D01*
X162201541Y-109845136D01*
X162197818Y-109842743D01*
X162161556Y-109818513D01*
X162028870Y-109763553D01*
X162028862Y-109763551D01*
X161888012Y-109735534D01*
X161888009Y-109735534D01*
X161744389Y-109735534D01*
X161744386Y-109735534D01*
X161603535Y-109763551D01*
X161603527Y-109763553D01*
X161470843Y-109818512D01*
X161470834Y-109818517D01*
X161351425Y-109898304D01*
X161351421Y-109898307D01*
X161249872Y-109999856D01*
X161249869Y-109999860D01*
X161170082Y-110119269D01*
X161170077Y-110119278D01*
X161115118Y-110251962D01*
X161115116Y-110251970D01*
X161087099Y-110392819D01*
X161087099Y-110536448D01*
X161115116Y-110677297D01*
X161115118Y-110677305D01*
X161170077Y-110809989D01*
X161170082Y-110809998D01*
X161249869Y-110929407D01*
X161249872Y-110929411D01*
X161351421Y-111030960D01*
X161351425Y-111030963D01*
X161470834Y-111110750D01*
X161470838Y-111110752D01*
X161470841Y-111110754D01*
X161603528Y-111165715D01*
X161744384Y-111193733D01*
X161744387Y-111193734D01*
X161744389Y-111193734D01*
X161888011Y-111193734D01*
X161888012Y-111193733D01*
X162028870Y-111165715D01*
X162161557Y-111110754D01*
X162202946Y-111083098D01*
X162269621Y-111062220D01*
X162337002Y-111080703D01*
X162340697Y-111083077D01*
X162376791Y-111107195D01*
X162376987Y-111107326D01*
X162376992Y-111107329D01*
X162390442Y-111112900D01*
X162509677Y-111162289D01*
X162610923Y-111182428D01*
X162650533Y-111190307D01*
X162650536Y-111190308D01*
X162650538Y-111190308D01*
X162794160Y-111190308D01*
X162794161Y-111190307D01*
X162935019Y-111162289D01*
X163067706Y-111107328D01*
X163187122Y-111027537D01*
X163288677Y-110925982D01*
X163368468Y-110806566D01*
X163423429Y-110673879D01*
X163424544Y-110668272D01*
X163456927Y-110606361D01*
X163517641Y-110571785D01*
X163587411Y-110575522D01*
X163644084Y-110616386D01*
X163660723Y-110645007D01*
X163695578Y-110729154D01*
X163695583Y-110729164D01*
X163775370Y-110848573D01*
X163775373Y-110848577D01*
X163876922Y-110950126D01*
X163876926Y-110950129D01*
X163996335Y-111029916D01*
X163996344Y-111029921D01*
X163998860Y-111030963D01*
X164129029Y-111084881D01*
X164259830Y-111110899D01*
X164269885Y-111112899D01*
X164269888Y-111112900D01*
X164269890Y-111112900D01*
X164413512Y-111112900D01*
X164413513Y-111112899D01*
X164554371Y-111084881D01*
X164684540Y-111030963D01*
X164692686Y-111027589D01*
X164693605Y-111029807D01*
X164751611Y-111017712D01*
X164790121Y-111029019D01*
X164790714Y-111027589D01*
X164798860Y-111030963D01*
X164929029Y-111084881D01*
X165059830Y-111110899D01*
X165069885Y-111112899D01*
X165069888Y-111112900D01*
X165069890Y-111112900D01*
X165213512Y-111112900D01*
X165213513Y-111112899D01*
X165354371Y-111084881D01*
X165487058Y-111029920D01*
X165487061Y-111029917D01*
X165489982Y-111028708D01*
X165559451Y-111021239D01*
X165621930Y-111052514D01*
X165657583Y-111112602D01*
X165655090Y-111182428D01*
X165639283Y-111210207D01*
X165640926Y-111211263D01*
X165636130Y-111218724D01*
X165576364Y-111349590D01*
X165556676Y-111416638D01*
X165536200Y-111559057D01*
X165536200Y-114118456D01*
X165516515Y-114185495D01*
X165463711Y-114231250D01*
X165412333Y-114242456D01*
X164157962Y-114243813D01*
X164133460Y-114245147D01*
X164104190Y-114246740D01*
X164077961Y-114249575D01*
X164024843Y-114258198D01*
X163890035Y-114308478D01*
X163890028Y-114308481D01*
X163839455Y-114336095D01*
X163839447Y-114336100D01*
X163828717Y-114341960D01*
X163828709Y-114341964D01*
X163713528Y-114428189D01*
X163687405Y-114454310D01*
X163681298Y-114459059D01*
X163679617Y-114459721D01*
X163674074Y-114464270D01*
X163657761Y-114475169D01*
X163636330Y-114486624D01*
X163618205Y-114494132D01*
X163594947Y-114501188D01*
X163575707Y-114505016D01*
X163551510Y-114507400D01*
X163531889Y-114507400D01*
X163507693Y-114505016D01*
X163488452Y-114501188D01*
X163465197Y-114494134D01*
X163447068Y-114486625D01*
X163425627Y-114475164D01*
X163409313Y-114464263D01*
X163390524Y-114448843D01*
X163371198Y-114429517D01*
X163330710Y-114393169D01*
X163309995Y-114376496D01*
X163309969Y-114376475D01*
X163291028Y-114362840D01*
X163265844Y-114344710D01*
X163265842Y-114344709D01*
X163134902Y-114285082D01*
X163134899Y-114285081D01*
X163068940Y-114265790D01*
X163067911Y-114265479D01*
X163067843Y-114265469D01*
X162985914Y-114253780D01*
X162925400Y-114245146D01*
X161767830Y-114246399D01*
X161755363Y-114246413D01*
X161728967Y-114247850D01*
X161701593Y-114249340D01*
X161695628Y-114249984D01*
X161675367Y-114252175D01*
X161675361Y-114252176D01*
X161675360Y-114252176D01*
X161622243Y-114260798D01*
X161487435Y-114311078D01*
X161487428Y-114311081D01*
X161436736Y-114338760D01*
X161436728Y-114338765D01*
X161426117Y-114344560D01*
X161426109Y-114344564D01*
X161310928Y-114430789D01*
X161287306Y-114454409D01*
X161281082Y-114459227D01*
X161279434Y-114459871D01*
X161274074Y-114464271D01*
X161263664Y-114471226D01*
X161196985Y-114492100D01*
X161129606Y-114473612D01*
X161082918Y-114421631D01*
X161073540Y-114367902D01*
X161070800Y-114367902D01*
X161070800Y-114218187D01*
X161070799Y-114218185D01*
X161065019Y-114189127D01*
X161042781Y-114077329D01*
X160987820Y-113944642D01*
X160987819Y-113944641D01*
X160987816Y-113944635D01*
X160908029Y-113825226D01*
X160908026Y-113825222D01*
X160806477Y-113723673D01*
X160806473Y-113723670D01*
X160687064Y-113643883D01*
X160687055Y-113643878D01*
X160554371Y-113588919D01*
X160554363Y-113588917D01*
X160413513Y-113560900D01*
X160413510Y-113560900D01*
X160269890Y-113560900D01*
X160269887Y-113560900D01*
X160129036Y-113588917D01*
X160129028Y-113588919D01*
X159996344Y-113643878D01*
X159996335Y-113643883D01*
X159876926Y-113723670D01*
X159876922Y-113723673D01*
X159775373Y-113825222D01*
X159775370Y-113825226D01*
X159695583Y-113944635D01*
X159695578Y-113944644D01*
X159640619Y-114077328D01*
X159640617Y-114077334D01*
X159626354Y-114149040D01*
X159593969Y-114210951D01*
X159533253Y-114245525D01*
X159504872Y-114248848D01*
X159352757Y-114249013D01*
X159298978Y-114251940D01*
X159272792Y-114254771D01*
X159272789Y-114254771D01*
X159219642Y-114263398D01*
X159084835Y-114313678D01*
X159084828Y-114313681D01*
X159034007Y-114341430D01*
X159033997Y-114341437D01*
X159023517Y-114347160D01*
X159023509Y-114347164D01*
X158908328Y-114433390D01*
X158887214Y-114454503D01*
X158880862Y-114459396D01*
X158879251Y-114460022D01*
X158874082Y-114464264D01*
X158857764Y-114475167D01*
X158836330Y-114486624D01*
X158818205Y-114494132D01*
X158794947Y-114501188D01*
X158775707Y-114505016D01*
X158751510Y-114507400D01*
X158731889Y-114507400D01*
X158707693Y-114505016D01*
X158688452Y-114501188D01*
X158665197Y-114494134D01*
X158647068Y-114486625D01*
X158625628Y-114475165D01*
X158619733Y-114471226D01*
X158609311Y-114464262D01*
X158590522Y-114448841D01*
X158576398Y-114434716D01*
X158576396Y-114434714D01*
X158569128Y-114428189D01*
X158535918Y-114398373D01*
X158515169Y-114381671D01*
X158489511Y-114363201D01*
X158471032Y-114349899D01*
X158471029Y-114349897D01*
X158340088Y-114290269D01*
X158273032Y-114270659D01*
X158273030Y-114270658D01*
X158273028Y-114270658D01*
X158214728Y-114262340D01*
X158130587Y-114250335D01*
X158130586Y-114250335D01*
X156950150Y-114251613D01*
X156896371Y-114254540D01*
X156870204Y-114257369D01*
X156870170Y-114257373D01*
X156817044Y-114265997D01*
X156682236Y-114316277D01*
X156682229Y-114316280D01*
X156631283Y-114344098D01*
X156631276Y-114344102D01*
X156620918Y-114349759D01*
X156620910Y-114349763D01*
X156505728Y-114435989D01*
X156487099Y-114454617D01*
X156480627Y-114459578D01*
X156479050Y-114460186D01*
X156474077Y-114464268D01*
X156457761Y-114475169D01*
X156436330Y-114486624D01*
X156418205Y-114494132D01*
X156394947Y-114501188D01*
X156375707Y-114505016D01*
X156351510Y-114507400D01*
X156331889Y-114507400D01*
X156307693Y-114505016D01*
X156288452Y-114501188D01*
X156265197Y-114494134D01*
X156247068Y-114486625D01*
X156225628Y-114475165D01*
X156219733Y-114471226D01*
X156209311Y-114464262D01*
X156190526Y-114448845D01*
X156178982Y-114437301D01*
X156138512Y-114400967D01*
X156117763Y-114384265D01*
X156088004Y-114362843D01*
X156073627Y-114352493D01*
X156073339Y-114352362D01*
X156050497Y-114341960D01*
X155942684Y-114292864D01*
X155942680Y-114292863D01*
X155910606Y-114283483D01*
X155900093Y-114276743D01*
X155733182Y-114252929D01*
X154560193Y-114254199D01*
X154547559Y-114254213D01*
X154525155Y-114255432D01*
X154493776Y-114257140D01*
X154467612Y-114259968D01*
X154467580Y-114259972D01*
X154414439Y-114268599D01*
X154279626Y-114318882D01*
X154279621Y-114318884D01*
X154218314Y-114352362D01*
X154218313Y-114352362D01*
X154218308Y-114352366D01*
X154103126Y-114438591D01*
X154103123Y-114438593D01*
X154103119Y-114438597D01*
X154092864Y-114448852D01*
X154074079Y-114464266D01*
X154074077Y-114464268D01*
X154057763Y-114475168D01*
X154036330Y-114486624D01*
X154018205Y-114494132D01*
X153994947Y-114501188D01*
X153975707Y-114505016D01*
X153951510Y-114507400D01*
X153931889Y-114507400D01*
X153907692Y-114505016D01*
X153888452Y-114501188D01*
X153865199Y-114494134D01*
X153847072Y-114486626D01*
X153825631Y-114475166D01*
X153824938Y-114474703D01*
X153809311Y-114464261D01*
X153790524Y-114448842D01*
X153781586Y-114439904D01*
X153781585Y-114439903D01*
X153781576Y-114439894D01*
X153781572Y-114439890D01*
X153741148Y-114403598D01*
X153741137Y-114403588D01*
X153737881Y-114400967D01*
X153734653Y-114398368D01*
X153720366Y-114386866D01*
X153687492Y-114363201D01*
X153676221Y-114355087D01*
X153676218Y-114355085D01*
X153676216Y-114355084D01*
X153545277Y-114295457D01*
X153479296Y-114276161D01*
X153478289Y-114275856D01*
X153478220Y-114275846D01*
X153407737Y-114265790D01*
X153335777Y-114255523D01*
X152144952Y-114256813D01*
X152107134Y-114258871D01*
X152091193Y-114259739D01*
X152091189Y-114259739D01*
X152091178Y-114259740D01*
X152065000Y-114262569D01*
X152064986Y-114262571D01*
X152064979Y-114262572D01*
X152047073Y-114265479D01*
X152011842Y-114271198D01*
X151877025Y-114321482D01*
X151877019Y-114321485D01*
X151825812Y-114349446D01*
X151825800Y-114349454D01*
X151815711Y-114354964D01*
X151815707Y-114354966D01*
X151700526Y-114441191D01*
X151686884Y-114454832D01*
X151680128Y-114459957D01*
X151678640Y-114460522D01*
X151674079Y-114464266D01*
X151657766Y-114475166D01*
X151636330Y-114486624D01*
X151618205Y-114494132D01*
X151594947Y-114501188D01*
X151575707Y-114505016D01*
X151551510Y-114507400D01*
X151531889Y-114507400D01*
X151507692Y-114505016D01*
X151488452Y-114501188D01*
X151465199Y-114494134D01*
X151447072Y-114486626D01*
X151425628Y-114475164D01*
X151423305Y-114473612D01*
X151409313Y-114464262D01*
X151390526Y-114448843D01*
X151384193Y-114442510D01*
X151384167Y-114442485D01*
X151343743Y-114406193D01*
X151343732Y-114406183D01*
X151340521Y-114403598D01*
X151322965Y-114389465D01*
X151319360Y-114386870D01*
X151286482Y-114363201D01*
X151278817Y-114357683D01*
X151147874Y-114298053D01*
X151135886Y-114294547D01*
X151083023Y-114279086D01*
X151081400Y-114278578D01*
X151080814Y-114278440D01*
X150938369Y-114258117D01*
X149742353Y-114259413D01*
X149704535Y-114261471D01*
X149688596Y-114262339D01*
X149688592Y-114262339D01*
X149688581Y-114262340D01*
X149662402Y-114265169D01*
X149662398Y-114265169D01*
X149609242Y-114273798D01*
X149609240Y-114273799D01*
X149474430Y-114324080D01*
X149474419Y-114324085D01*
X149423066Y-114352126D01*
X149423055Y-114352133D01*
X149413111Y-114357564D01*
X149413107Y-114357566D01*
X149297926Y-114443791D01*
X149286767Y-114454949D01*
X149279866Y-114460156D01*
X149278426Y-114460698D01*
X149274076Y-114464269D01*
X149257765Y-114475167D01*
X149236333Y-114486623D01*
X149218206Y-114494132D01*
X149194947Y-114501188D01*
X149175707Y-114505016D01*
X149151510Y-114507400D01*
X149131889Y-114507400D01*
X149107692Y-114505016D01*
X149088452Y-114501188D01*
X149065196Y-114494133D01*
X149047070Y-114486625D01*
X149025637Y-114475169D01*
X149009321Y-114464268D01*
X148990517Y-114448835D01*
X148986782Y-114445099D01*
X148986763Y-114445081D01*
X148946337Y-114408787D01*
X148946326Y-114408777D01*
X148946314Y-114408767D01*
X148925559Y-114392059D01*
X148925553Y-114392054D01*
X148925529Y-114392036D01*
X148881410Y-114360276D01*
X148881403Y-114360272D01*
X148750468Y-114300647D01*
X148683409Y-114281036D01*
X148683407Y-114281035D01*
X148683405Y-114281035D01*
X148614458Y-114271198D01*
X148540964Y-114260712D01*
X148540963Y-114260712D01*
X147351275Y-114261999D01*
X147339762Y-114262012D01*
X147314304Y-114263398D01*
X147285989Y-114264939D01*
X147285980Y-114264940D01*
X147259764Y-114267774D01*
X147259751Y-114267775D01*
X147259723Y-114267780D01*
X147206647Y-114276396D01*
X147071825Y-114326682D01*
X147071819Y-114326685D01*
X147020313Y-114354809D01*
X147020299Y-114354818D01*
X147010511Y-114360164D01*
X147010507Y-114360166D01*
X146895326Y-114446391D01*
X146886643Y-114455073D01*
X146879593Y-114460362D01*
X146878203Y-114460881D01*
X146874071Y-114464273D01*
X146857760Y-114475170D01*
X146836333Y-114486623D01*
X146818206Y-114494132D01*
X146794947Y-114501188D01*
X146775707Y-114505016D01*
X146751510Y-114507400D01*
X146731889Y-114507400D01*
X146707692Y-114505016D01*
X146688452Y-114501188D01*
X146665196Y-114494133D01*
X146647070Y-114486625D01*
X146625634Y-114475167D01*
X146609316Y-114464264D01*
X146590524Y-114448842D01*
X146589375Y-114447693D01*
X146589371Y-114447689D01*
X146589369Y-114447687D01*
X146554085Y-114416012D01*
X146548880Y-114411339D01*
X146528109Y-114394621D01*
X146528081Y-114394600D01*
X146483959Y-114362843D01*
X146483956Y-114362841D01*
X146483954Y-114362840D01*
X146353006Y-114303222D01*
X146285948Y-114283617D01*
X146285945Y-114283616D01*
X146285948Y-114283616D01*
X146143605Y-114263307D01*
X146143604Y-114263307D01*
X146143093Y-114263307D01*
X146138494Y-114263312D01*
X146092954Y-114265790D01*
X146084646Y-114266242D01*
X146084638Y-114266242D01*
X146058435Y-114269076D01*
X146013316Y-114276396D01*
X146005493Y-114277665D01*
X146005490Y-114277665D01*
X146005482Y-114277668D01*
X146003061Y-114278569D01*
X146003062Y-114278570D01*
X145994838Y-114281634D01*
X145961098Y-114289018D01*
X145900368Y-114316836D01*
X145896115Y-114318422D01*
X145896113Y-114318422D01*
X145870681Y-114327899D01*
X145870670Y-114327904D01*
X145845493Y-114341642D01*
X145841717Y-114343704D01*
X145830289Y-114348940D01*
X145819992Y-114355573D01*
X145816047Y-114357729D01*
X145816046Y-114357729D01*
X145816033Y-114357737D01*
X145809220Y-114361457D01*
X145809201Y-114361470D01*
X145694027Y-114447689D01*
X145694015Y-114447700D01*
X145692869Y-114448847D01*
X145674073Y-114464271D01*
X145674071Y-114464273D01*
X145657760Y-114475170D01*
X145636333Y-114486623D01*
X145618206Y-114494132D01*
X145594947Y-114501188D01*
X145575707Y-114505016D01*
X145551510Y-114507400D01*
X145531889Y-114507400D01*
X145507692Y-114505016D01*
X145488452Y-114501188D01*
X145465196Y-114494133D01*
X145447068Y-114486624D01*
X145425631Y-114475166D01*
X145403978Y-114460698D01*
X145366628Y-114435741D01*
X145357721Y-114429197D01*
X145341358Y-114416012D01*
X145341350Y-114416006D01*
X145341348Y-114416004D01*
X145305829Y-114393177D01*
X145295963Y-114386836D01*
X145275484Y-114363201D01*
X145253588Y-114340866D01*
X145252788Y-114337007D01*
X145250209Y-114334030D01*
X145245759Y-114303075D01*
X145239415Y-114272449D01*
X145240828Y-114268771D01*
X145240268Y-114264872D01*
X145253258Y-114236427D01*
X145264480Y-114207230D01*
X145267954Y-114204249D01*
X145269294Y-114201317D01*
X145289683Y-114182522D01*
X145306933Y-114169874D01*
X145308407Y-114169340D01*
X145315815Y-114163933D01*
X145380680Y-114124484D01*
X145385300Y-114120677D01*
X145385320Y-114120658D01*
X145385326Y-114120654D01*
X145389967Y-114116437D01*
X145398911Y-114108315D01*
X145413130Y-114097751D01*
X145417928Y-114093799D01*
X145471011Y-114042663D01*
X145472314Y-114041478D01*
X145472725Y-114041277D01*
X145472987Y-114040995D01*
X145474430Y-114039370D01*
X145474436Y-114039365D01*
X145493198Y-114018248D01*
X145493197Y-114018247D01*
X145496109Y-114014970D01*
X145496111Y-114014967D01*
X145498460Y-114012322D01*
X145498462Y-114012324D01*
X145499830Y-114010785D01*
X145499849Y-114010759D01*
X145501441Y-114008968D01*
X145501444Y-114008965D01*
X145511543Y-113997598D01*
X145511656Y-113997109D01*
X145520956Y-113982931D01*
X145522217Y-113981268D01*
X145525539Y-113977084D01*
X145528280Y-113973780D01*
X145538729Y-113961181D01*
X145538730Y-113961178D01*
X145542755Y-113954936D01*
X145543204Y-113955225D01*
X145543847Y-113954177D01*
X145543755Y-113954122D01*
X145547264Y-113948249D01*
X145547269Y-113948243D01*
X145581396Y-113873514D01*
X145601694Y-113831810D01*
X145602027Y-113830771D01*
X145601058Y-113830460D01*
X145607039Y-113817365D01*
X145614260Y-113792768D01*
X145615135Y-113789921D01*
X145622988Y-113765452D01*
X145623012Y-113765376D01*
X145623014Y-113765366D01*
X145624021Y-113761196D01*
X145624069Y-113761207D01*
X145626050Y-113752613D01*
X145626211Y-113752064D01*
X145626212Y-113752065D01*
X145626664Y-113750528D01*
X145626681Y-113750471D01*
X145626691Y-113750474D01*
X145626719Y-113750341D01*
X145626724Y-113750326D01*
X145633124Y-113705805D01*
X145633582Y-113702880D01*
X145647007Y-113623511D01*
X145647226Y-113614649D01*
X145647455Y-113614654D01*
X145647401Y-113612340D01*
X145647200Y-113612340D01*
X145647200Y-112759688D01*
X145636586Y-112656648D01*
X145636585Y-112656637D01*
X145626279Y-112607144D01*
X145594882Y-112508430D01*
X145519264Y-112386023D01*
X145474459Y-112332414D01*
X145473367Y-112331433D01*
X145468550Y-112326868D01*
X145376654Y-112234973D01*
X145361233Y-112216182D01*
X145350331Y-112199866D01*
X145338875Y-112178433D01*
X145331361Y-112160294D01*
X145324309Y-112137042D01*
X145320481Y-112117801D01*
X145318100Y-112093616D01*
X145318100Y-112073981D01*
X145320483Y-112049790D01*
X145324308Y-112030560D01*
X145331362Y-112007303D01*
X145332508Y-112004535D01*
X145338874Y-111989165D01*
X145350332Y-111967728D01*
X145361235Y-111951412D01*
X145376651Y-111932629D01*
X145424600Y-111884679D01*
X145433176Y-111876869D01*
X145447222Y-111865238D01*
X145482643Y-111829177D01*
X145547267Y-111748246D01*
X145607038Y-111617369D01*
X145626723Y-111550330D01*
X145626724Y-111550326D01*
X145647200Y-111407910D01*
X145647200Y-109275925D01*
X145666885Y-109208886D01*
X145719689Y-109163131D01*
X145788847Y-109153187D01*
X145809519Y-109157994D01*
X145851052Y-109171489D01*
X146037377Y-109201000D01*
X146226023Y-109201000D01*
X146412350Y-109171488D01*
X146591761Y-109113195D01*
X146591764Y-109113194D01*
X146759851Y-109027548D01*
X146784955Y-109009308D01*
X146784956Y-109009308D01*
X146215794Y-108440147D01*
X146303271Y-108416708D01*
X146404630Y-108358189D01*
X146487389Y-108275430D01*
X146545908Y-108174071D01*
X146569347Y-108086594D01*
X147138508Y-108655756D01*
X147138508Y-108655755D01*
X147156748Y-108630651D01*
X147242394Y-108462564D01*
X147242395Y-108462561D01*
X147300688Y-108283150D01*
X147330200Y-108096823D01*
X147330200Y-107917496D01*
X147591700Y-107917496D01*
X147591700Y-108087503D01*
X147618293Y-108255402D01*
X147670822Y-108417073D01*
X147670823Y-108417076D01*
X147715386Y-108504534D01*
X147748001Y-108568544D01*
X147847922Y-108706073D01*
X147968127Y-108826278D01*
X148105656Y-108926199D01*
X148150105Y-108948847D01*
X148257123Y-109003376D01*
X148257126Y-109003377D01*
X148331518Y-109027548D01*
X148418799Y-109055907D01*
X148496561Y-109068223D01*
X148586697Y-109082500D01*
X148586702Y-109082500D01*
X148756703Y-109082500D01*
X148838098Y-109069607D01*
X148924601Y-109055907D01*
X149086276Y-109003376D01*
X149237744Y-108926199D01*
X149375273Y-108826278D01*
X149495478Y-108706073D01*
X149595399Y-108568544D01*
X149672576Y-108417076D01*
X149725107Y-108255401D01*
X149744027Y-108135943D01*
X149751700Y-108087503D01*
X149751700Y-107917496D01*
X150131700Y-107917496D01*
X150131700Y-108087503D01*
X150158293Y-108255402D01*
X150210822Y-108417073D01*
X150210823Y-108417076D01*
X150255386Y-108504534D01*
X150288001Y-108568544D01*
X150387922Y-108706073D01*
X150508127Y-108826278D01*
X150645656Y-108926199D01*
X150690105Y-108948847D01*
X150797123Y-109003376D01*
X150797126Y-109003377D01*
X150871518Y-109027548D01*
X150958799Y-109055907D01*
X151036561Y-109068223D01*
X151126697Y-109082500D01*
X151126702Y-109082500D01*
X151296703Y-109082500D01*
X151378098Y-109069607D01*
X151464601Y-109055907D01*
X151626276Y-109003376D01*
X151777744Y-108926199D01*
X151915273Y-108826278D01*
X152035478Y-108706073D01*
X152135399Y-108568544D01*
X152212576Y-108417076D01*
X152265107Y-108255401D01*
X152284027Y-108135943D01*
X152291700Y-108087503D01*
X152291700Y-107917496D01*
X152671700Y-107917496D01*
X152671700Y-108087503D01*
X152698293Y-108255402D01*
X152750822Y-108417073D01*
X152750823Y-108417076D01*
X152795386Y-108504534D01*
X152828001Y-108568544D01*
X152927922Y-108706073D01*
X153048127Y-108826278D01*
X153185656Y-108926199D01*
X153230105Y-108948847D01*
X153337123Y-109003376D01*
X153337126Y-109003377D01*
X153411518Y-109027548D01*
X153498799Y-109055907D01*
X153576561Y-109068223D01*
X153666697Y-109082500D01*
X153666702Y-109082500D01*
X153836703Y-109082500D01*
X153918098Y-109069607D01*
X154004601Y-109055907D01*
X154166276Y-109003376D01*
X154317744Y-108926199D01*
X154455273Y-108826278D01*
X154575478Y-108706073D01*
X154675399Y-108568544D01*
X154752576Y-108417076D01*
X154805107Y-108255401D01*
X154824027Y-108135943D01*
X154831700Y-108087503D01*
X154831700Y-107917496D01*
X155211700Y-107917496D01*
X155211700Y-108087503D01*
X155238293Y-108255402D01*
X155290822Y-108417073D01*
X155290823Y-108417076D01*
X155335386Y-108504534D01*
X155368001Y-108568544D01*
X155467922Y-108706073D01*
X155588127Y-108826278D01*
X155725656Y-108926199D01*
X155770105Y-108948847D01*
X155877123Y-109003376D01*
X155877126Y-109003377D01*
X155951518Y-109027548D01*
X156038799Y-109055907D01*
X156116561Y-109068223D01*
X156206697Y-109082500D01*
X156206702Y-109082500D01*
X156376703Y-109082500D01*
X156458098Y-109069607D01*
X156544601Y-109055907D01*
X156706276Y-109003376D01*
X156857744Y-108926199D01*
X156995273Y-108826278D01*
X157115478Y-108706073D01*
X157215399Y-108568544D01*
X157292576Y-108417076D01*
X157345107Y-108255401D01*
X157364027Y-108135943D01*
X157371700Y-108087503D01*
X157371700Y-107917496D01*
X157350396Y-107782993D01*
X157345107Y-107749599D01*
X157307814Y-107634822D01*
X157292577Y-107587926D01*
X157292576Y-107587923D01*
X157226410Y-107458066D01*
X157215399Y-107436456D01*
X157115478Y-107298927D01*
X156995273Y-107178722D01*
X156857744Y-107078801D01*
X156777036Y-107037678D01*
X156706276Y-107001623D01*
X156706273Y-107001622D01*
X156584280Y-106961985D01*
X161113577Y-106961985D01*
X161113577Y-107105614D01*
X161141594Y-107246463D01*
X161141596Y-107246471D01*
X161196555Y-107379155D01*
X161196560Y-107379164D01*
X161276347Y-107498573D01*
X161276350Y-107498577D01*
X161377899Y-107600126D01*
X161377903Y-107600129D01*
X161497312Y-107679916D01*
X161497318Y-107679919D01*
X161497319Y-107679920D01*
X161630006Y-107734881D01*
X161666921Y-107742224D01*
X161734566Y-107755680D01*
X161796477Y-107788065D01*
X161831051Y-107848781D01*
X161831992Y-107853104D01*
X161840617Y-107896466D01*
X161840619Y-107896471D01*
X161895578Y-108029155D01*
X161895583Y-108029164D01*
X161975370Y-108148573D01*
X161975373Y-108148577D01*
X162076922Y-108250126D01*
X162076926Y-108250129D01*
X162196335Y-108329916D01*
X162196341Y-108329919D01*
X162196342Y-108329920D01*
X162329029Y-108384881D01*
X162382836Y-108395583D01*
X162462517Y-108411434D01*
X162524428Y-108443819D01*
X162559002Y-108504534D01*
X162562326Y-108533051D01*
X162562326Y-108555888D01*
X162590343Y-108696737D01*
X162590345Y-108696745D01*
X162645304Y-108829429D01*
X162645309Y-108829438D01*
X162725096Y-108948847D01*
X162725099Y-108948851D01*
X162826648Y-109050400D01*
X162826652Y-109050403D01*
X162946061Y-109130190D01*
X162946067Y-109130193D01*
X162946068Y-109130194D01*
X163078755Y-109185155D01*
X163198059Y-109208886D01*
X163219611Y-109213173D01*
X163219614Y-109213174D01*
X163219616Y-109213174D01*
X163363238Y-109213174D01*
X163363239Y-109213173D01*
X163504097Y-109185155D01*
X163636784Y-109130194D01*
X163756200Y-109050403D01*
X163857755Y-108948848D01*
X163937546Y-108829432D01*
X163992507Y-108696745D01*
X164020526Y-108555884D01*
X164020526Y-108412264D01*
X164020526Y-108412261D01*
X164020525Y-108412259D01*
X164004146Y-108329916D01*
X163992507Y-108271403D01*
X163937546Y-108138716D01*
X163937545Y-108138715D01*
X163937542Y-108138709D01*
X163857755Y-108019300D01*
X163857752Y-108019296D01*
X163756203Y-107917747D01*
X163756199Y-107917744D01*
X163636790Y-107837957D01*
X163636781Y-107837952D01*
X163504097Y-107782993D01*
X163504091Y-107782991D01*
X163370608Y-107756439D01*
X163308697Y-107724054D01*
X163274123Y-107663338D01*
X163270800Y-107634822D01*
X163270800Y-107611987D01*
X163270799Y-107611985D01*
X163256965Y-107542438D01*
X163242781Y-107471129D01*
X163187820Y-107338442D01*
X163187819Y-107338441D01*
X163187816Y-107338435D01*
X163108029Y-107219026D01*
X163108026Y-107219022D01*
X163006477Y-107117473D01*
X163006473Y-107117470D01*
X162887064Y-107037683D01*
X162887055Y-107037678D01*
X162754371Y-106982719D01*
X162754365Y-106982717D01*
X162649809Y-106961919D01*
X162587898Y-106929534D01*
X162553324Y-106868818D01*
X162552384Y-106864493D01*
X162543759Y-106821136D01*
X162543758Y-106821129D01*
X162488797Y-106688442D01*
X162488796Y-106688441D01*
X162488793Y-106688435D01*
X162409006Y-106569026D01*
X162409003Y-106569022D01*
X162307454Y-106467473D01*
X162307450Y-106467470D01*
X162188041Y-106387683D01*
X162188032Y-106387678D01*
X162055348Y-106332719D01*
X162055340Y-106332717D01*
X161914490Y-106304700D01*
X161914487Y-106304700D01*
X161770867Y-106304700D01*
X161770864Y-106304700D01*
X161630013Y-106332717D01*
X161630005Y-106332719D01*
X161497321Y-106387678D01*
X161497312Y-106387683D01*
X161377903Y-106467470D01*
X161377899Y-106467473D01*
X161276350Y-106569022D01*
X161276347Y-106569026D01*
X161196560Y-106688435D01*
X161196555Y-106688444D01*
X161141596Y-106821128D01*
X161141594Y-106821136D01*
X161113577Y-106961985D01*
X156584280Y-106961985D01*
X156544602Y-106949093D01*
X156376703Y-106922500D01*
X156376698Y-106922500D01*
X156206702Y-106922500D01*
X156206697Y-106922500D01*
X156038797Y-106949093D01*
X155877126Y-107001622D01*
X155877123Y-107001623D01*
X155725655Y-107078801D01*
X155647189Y-107135810D01*
X155588127Y-107178722D01*
X155588125Y-107178724D01*
X155588124Y-107178724D01*
X155467924Y-107298924D01*
X155467924Y-107298925D01*
X155467922Y-107298927D01*
X155443573Y-107332441D01*
X155368001Y-107436455D01*
X155290823Y-107587923D01*
X155290822Y-107587926D01*
X155238293Y-107749597D01*
X155211700Y-107917496D01*
X154831700Y-107917496D01*
X154810396Y-107782993D01*
X154805107Y-107749599D01*
X154767814Y-107634822D01*
X154752577Y-107587926D01*
X154752576Y-107587923D01*
X154686410Y-107458066D01*
X154675399Y-107436456D01*
X154575478Y-107298927D01*
X154455273Y-107178722D01*
X154317744Y-107078801D01*
X154312498Y-107076128D01*
X154166276Y-107001623D01*
X154166273Y-107001622D01*
X154004602Y-106949093D01*
X153836703Y-106922500D01*
X153836698Y-106922500D01*
X153666702Y-106922500D01*
X153666697Y-106922500D01*
X153498797Y-106949093D01*
X153337126Y-107001622D01*
X153337123Y-107001623D01*
X153185655Y-107078801D01*
X153107189Y-107135810D01*
X153048127Y-107178722D01*
X153048125Y-107178724D01*
X153048124Y-107178724D01*
X152927924Y-107298924D01*
X152927924Y-107298925D01*
X152927922Y-107298927D01*
X152903573Y-107332441D01*
X152828001Y-107436455D01*
X152750823Y-107587923D01*
X152750822Y-107587926D01*
X152698293Y-107749597D01*
X152671700Y-107917496D01*
X152291700Y-107917496D01*
X152270396Y-107782993D01*
X152265107Y-107749599D01*
X152227814Y-107634822D01*
X152212577Y-107587926D01*
X152212576Y-107587923D01*
X152146410Y-107458066D01*
X152135399Y-107436456D01*
X152035478Y-107298927D01*
X151915273Y-107178722D01*
X151777744Y-107078801D01*
X151772498Y-107076128D01*
X151626276Y-107001623D01*
X151626273Y-107001622D01*
X151464602Y-106949093D01*
X151296703Y-106922500D01*
X151296698Y-106922500D01*
X151126702Y-106922500D01*
X151126697Y-106922500D01*
X150958797Y-106949093D01*
X150797126Y-107001622D01*
X150797123Y-107001623D01*
X150645655Y-107078801D01*
X150567189Y-107135810D01*
X150508127Y-107178722D01*
X150508125Y-107178724D01*
X150508124Y-107178724D01*
X150387924Y-107298924D01*
X150387924Y-107298925D01*
X150387922Y-107298927D01*
X150363573Y-107332441D01*
X150288001Y-107436455D01*
X150210823Y-107587923D01*
X150210822Y-107587926D01*
X150158293Y-107749597D01*
X150131700Y-107917496D01*
X149751700Y-107917496D01*
X149730396Y-107782993D01*
X149725107Y-107749599D01*
X149687814Y-107634822D01*
X149672577Y-107587926D01*
X149672576Y-107587923D01*
X149606410Y-107458066D01*
X149595399Y-107436456D01*
X149495478Y-107298927D01*
X149375273Y-107178722D01*
X149237744Y-107078801D01*
X149232498Y-107076128D01*
X149086276Y-107001623D01*
X149086273Y-107001622D01*
X148924602Y-106949093D01*
X148756703Y-106922500D01*
X148756698Y-106922500D01*
X148586702Y-106922500D01*
X148586697Y-106922500D01*
X148418797Y-106949093D01*
X148257126Y-107001622D01*
X148257123Y-107001623D01*
X148105655Y-107078801D01*
X148027189Y-107135810D01*
X147968127Y-107178722D01*
X147968125Y-107178724D01*
X147968124Y-107178724D01*
X147847924Y-107298924D01*
X147847924Y-107298925D01*
X147847922Y-107298927D01*
X147823573Y-107332441D01*
X147748001Y-107436455D01*
X147670823Y-107587923D01*
X147670822Y-107587926D01*
X147618293Y-107749597D01*
X147591700Y-107917496D01*
X147330200Y-107917496D01*
X147330200Y-107908176D01*
X147300688Y-107721849D01*
X147242395Y-107542438D01*
X147242394Y-107542435D01*
X147156746Y-107374344D01*
X147138509Y-107349243D01*
X147138508Y-107349243D01*
X146569347Y-107918404D01*
X146545908Y-107830929D01*
X146487389Y-107729570D01*
X146404630Y-107646811D01*
X146303271Y-107588292D01*
X146215793Y-107564852D01*
X146784955Y-106995690D01*
X146784955Y-106995689D01*
X146759853Y-106977452D01*
X146591763Y-106891805D01*
X146591761Y-106891804D01*
X146464424Y-106850431D01*
X146406749Y-106810994D01*
X146379550Y-106746635D01*
X146391464Y-106677789D01*
X146438708Y-106626313D01*
X146464424Y-106614569D01*
X146591761Y-106573195D01*
X146591764Y-106573194D01*
X146759851Y-106487548D01*
X146784955Y-106469308D01*
X146784956Y-106469308D01*
X146215794Y-105900147D01*
X146303271Y-105876708D01*
X146404630Y-105818189D01*
X146487389Y-105735430D01*
X146545908Y-105634071D01*
X146569347Y-105546594D01*
X147138508Y-106115756D01*
X147138508Y-106115755D01*
X147156748Y-106090651D01*
X147242394Y-105922564D01*
X147242395Y-105922561D01*
X147300688Y-105743150D01*
X147330200Y-105556823D01*
X147330200Y-105377496D01*
X147591700Y-105377496D01*
X147591700Y-105547503D01*
X147618293Y-105715402D01*
X147670822Y-105877073D01*
X147670823Y-105877076D01*
X147748001Y-106028544D01*
X147847922Y-106166073D01*
X147968127Y-106286278D01*
X148105656Y-106386199D01*
X148108569Y-106387683D01*
X148257123Y-106463376D01*
X148257126Y-106463377D01*
X148278095Y-106470190D01*
X148418799Y-106515907D01*
X148496561Y-106528223D01*
X148586697Y-106542500D01*
X148586702Y-106542500D01*
X148756703Y-106542500D01*
X148838098Y-106529607D01*
X148924601Y-106515907D01*
X149086276Y-106463376D01*
X149237744Y-106386199D01*
X149375273Y-106286278D01*
X149495478Y-106166073D01*
X149595399Y-106028544D01*
X149672576Y-105877076D01*
X149725107Y-105715401D01*
X149744027Y-105595943D01*
X149751700Y-105547503D01*
X149751700Y-105377496D01*
X150131700Y-105377496D01*
X150131700Y-105547503D01*
X150158293Y-105715402D01*
X150210822Y-105877073D01*
X150210823Y-105877076D01*
X150288001Y-106028544D01*
X150387922Y-106166073D01*
X150508127Y-106286278D01*
X150645656Y-106386199D01*
X150648569Y-106387683D01*
X150797123Y-106463376D01*
X150797126Y-106463377D01*
X150818095Y-106470190D01*
X150958799Y-106515907D01*
X151036561Y-106528223D01*
X151126697Y-106542500D01*
X151126702Y-106542500D01*
X151296703Y-106542500D01*
X151378098Y-106529607D01*
X151464601Y-106515907D01*
X151626276Y-106463376D01*
X151777744Y-106386199D01*
X151915273Y-106286278D01*
X152035478Y-106166073D01*
X152135399Y-106028544D01*
X152212576Y-105877076D01*
X152265107Y-105715401D01*
X152284027Y-105595943D01*
X152291700Y-105547503D01*
X152291700Y-105377496D01*
X152671700Y-105377496D01*
X152671700Y-105547503D01*
X152698293Y-105715402D01*
X152750822Y-105877073D01*
X152750823Y-105877076D01*
X152828001Y-106028544D01*
X152927922Y-106166073D01*
X153048127Y-106286278D01*
X153185656Y-106386199D01*
X153188569Y-106387683D01*
X153337123Y-106463376D01*
X153337126Y-106463377D01*
X153358095Y-106470190D01*
X153498799Y-106515907D01*
X153576561Y-106528223D01*
X153666697Y-106542500D01*
X153666702Y-106542500D01*
X153836703Y-106542500D01*
X153918098Y-106529607D01*
X154004601Y-106515907D01*
X154166276Y-106463376D01*
X154317744Y-106386199D01*
X154455273Y-106286278D01*
X154575478Y-106166073D01*
X154675399Y-106028544D01*
X154752576Y-105877076D01*
X154805107Y-105715401D01*
X154824027Y-105595943D01*
X154831700Y-105547503D01*
X154831700Y-105377496D01*
X155211700Y-105377496D01*
X155211700Y-105547503D01*
X155238293Y-105715402D01*
X155290822Y-105877073D01*
X155290823Y-105877076D01*
X155368001Y-106028544D01*
X155467922Y-106166073D01*
X155588127Y-106286278D01*
X155725656Y-106386199D01*
X155728569Y-106387683D01*
X155877123Y-106463376D01*
X155877126Y-106463377D01*
X155898095Y-106470190D01*
X156038799Y-106515907D01*
X156116561Y-106528223D01*
X156206697Y-106542500D01*
X156206702Y-106542500D01*
X156376703Y-106542500D01*
X156458098Y-106529607D01*
X156544601Y-106515907D01*
X156706276Y-106463376D01*
X156857744Y-106386199D01*
X156995273Y-106286278D01*
X157115478Y-106166073D01*
X157215399Y-106028544D01*
X157292576Y-105877076D01*
X157345107Y-105715401D01*
X157364027Y-105595943D01*
X157371700Y-105547503D01*
X157371700Y-105377496D01*
X157346931Y-105221118D01*
X157345107Y-105209599D01*
X157292576Y-105047924D01*
X157292576Y-105047923D01*
X157215398Y-104896455D01*
X157115478Y-104758927D01*
X156995273Y-104638722D01*
X156857744Y-104538801D01*
X156706276Y-104461623D01*
X156706273Y-104461622D01*
X156544602Y-104409093D01*
X156376703Y-104382500D01*
X156376698Y-104382500D01*
X156206702Y-104382500D01*
X156206697Y-104382500D01*
X156038797Y-104409093D01*
X155877126Y-104461622D01*
X155877123Y-104461623D01*
X155725655Y-104538801D01*
X155647189Y-104595810D01*
X155588127Y-104638722D01*
X155588125Y-104638724D01*
X155588124Y-104638724D01*
X155467924Y-104758924D01*
X155467924Y-104758925D01*
X155467922Y-104758927D01*
X155431365Y-104809243D01*
X155368001Y-104896455D01*
X155290823Y-105047923D01*
X155290822Y-105047926D01*
X155238293Y-105209597D01*
X155211700Y-105377496D01*
X154831700Y-105377496D01*
X154806931Y-105221118D01*
X154805107Y-105209599D01*
X154752576Y-105047924D01*
X154752576Y-105047923D01*
X154675398Y-104896455D01*
X154575478Y-104758927D01*
X154455273Y-104638722D01*
X154317744Y-104538801D01*
X154166276Y-104461623D01*
X154166273Y-104461622D01*
X154004602Y-104409093D01*
X153836703Y-104382500D01*
X153836698Y-104382500D01*
X153666702Y-104382500D01*
X153666697Y-104382500D01*
X153498797Y-104409093D01*
X153337126Y-104461622D01*
X153337123Y-104461623D01*
X153185655Y-104538801D01*
X153107189Y-104595810D01*
X153048127Y-104638722D01*
X153048125Y-104638724D01*
X153048124Y-104638724D01*
X152927924Y-104758924D01*
X152927924Y-104758925D01*
X152927922Y-104758927D01*
X152891365Y-104809243D01*
X152828001Y-104896455D01*
X152750823Y-105047923D01*
X152750822Y-105047926D01*
X152698293Y-105209597D01*
X152671700Y-105377496D01*
X152291700Y-105377496D01*
X152266931Y-105221118D01*
X152265107Y-105209599D01*
X152212576Y-105047924D01*
X152212576Y-105047923D01*
X152135398Y-104896455D01*
X152035478Y-104758927D01*
X151915273Y-104638722D01*
X151777744Y-104538801D01*
X151626276Y-104461623D01*
X151626273Y-104461622D01*
X151464602Y-104409093D01*
X151296703Y-104382500D01*
X151296698Y-104382500D01*
X151126702Y-104382500D01*
X151126697Y-104382500D01*
X150958797Y-104409093D01*
X150797126Y-104461622D01*
X150797123Y-104461623D01*
X150645655Y-104538801D01*
X150567189Y-104595810D01*
X150508127Y-104638722D01*
X150508125Y-104638724D01*
X150508124Y-104638724D01*
X150387924Y-104758924D01*
X150387924Y-104758925D01*
X150387922Y-104758927D01*
X150351365Y-104809243D01*
X150288001Y-104896455D01*
X150210823Y-105047923D01*
X150210822Y-105047926D01*
X150158293Y-105209597D01*
X150131700Y-105377496D01*
X149751700Y-105377496D01*
X149726931Y-105221118D01*
X149725107Y-105209599D01*
X149672576Y-105047924D01*
X149672576Y-105047923D01*
X149595398Y-104896455D01*
X149495478Y-104758927D01*
X149375273Y-104638722D01*
X149237744Y-104538801D01*
X149086276Y-104461623D01*
X149086273Y-104461622D01*
X148924602Y-104409093D01*
X148756703Y-104382500D01*
X148756698Y-104382500D01*
X148586702Y-104382500D01*
X148586697Y-104382500D01*
X148418797Y-104409093D01*
X148257126Y-104461622D01*
X148257123Y-104461623D01*
X148105655Y-104538801D01*
X148027189Y-104595810D01*
X147968127Y-104638722D01*
X147968125Y-104638724D01*
X147968124Y-104638724D01*
X147847924Y-104758924D01*
X147847924Y-104758925D01*
X147847922Y-104758927D01*
X147811365Y-104809243D01*
X147748001Y-104896455D01*
X147670823Y-105047923D01*
X147670822Y-105047926D01*
X147618293Y-105209597D01*
X147591700Y-105377496D01*
X147330200Y-105377496D01*
X147330200Y-105368176D01*
X147300688Y-105181849D01*
X147242395Y-105002438D01*
X147242394Y-105002435D01*
X147156746Y-104834344D01*
X147138509Y-104809243D01*
X147138508Y-104809243D01*
X146569347Y-105378404D01*
X146545908Y-105290929D01*
X146487389Y-105189570D01*
X146404630Y-105106811D01*
X146303271Y-105048292D01*
X146215793Y-105024852D01*
X146784955Y-104455690D01*
X146784955Y-104455689D01*
X146759853Y-104437452D01*
X146591763Y-104351805D01*
X146591761Y-104351804D01*
X146412350Y-104293511D01*
X146226023Y-104264000D01*
X146037377Y-104264000D01*
X145851047Y-104293511D01*
X145809517Y-104307005D01*
X145739676Y-104309000D01*
X145679843Y-104272919D01*
X145649016Y-104210217D01*
X145647200Y-104189074D01*
X145647200Y-104032223D01*
X145647200Y-104032210D01*
X145644765Y-103982654D01*
X145642382Y-103958463D01*
X145642381Y-103958460D01*
X145642380Y-103958446D01*
X145635106Y-103909419D01*
X145635103Y-103909398D01*
X145623267Y-103849896D01*
X145594665Y-103755610D01*
X145594505Y-103755083D01*
X145594500Y-103755068D01*
X145594499Y-103755064D01*
X145575985Y-103710369D01*
X145557783Y-103676316D01*
X145529285Y-103622998D01*
X145529271Y-103622974D01*
X145502497Y-103582904D01*
X145502484Y-103582886D01*
X145439615Y-103506280D01*
X145405419Y-103472085D01*
X145405414Y-103472080D01*
X145328813Y-103409214D01*
X145327264Y-103408179D01*
X145288721Y-103382425D01*
X145288711Y-103382419D01*
X145209351Y-103340002D01*
X145201310Y-103335704D01*
X145201308Y-103335703D01*
X145201307Y-103335702D01*
X145156612Y-103317190D01*
X145061800Y-103288432D01*
X145061797Y-103288431D01*
X145061796Y-103288431D01*
X145002296Y-103276596D01*
X145002291Y-103276595D01*
X145002273Y-103276592D01*
X144953270Y-103269322D01*
X144953211Y-103269315D01*
X144929050Y-103266935D01*
X144916003Y-103266294D01*
X144879489Y-103264500D01*
X141103911Y-103264500D01*
X141077347Y-103265804D01*
X141054390Y-103266931D01*
X141054352Y-103266934D01*
X141030228Y-103269309D01*
X141030177Y-103269315D01*
X140981131Y-103276590D01*
X140981113Y-103276593D01*
X140981110Y-103276594D01*
X140973528Y-103278102D01*
X140921605Y-103288429D01*
X140826770Y-103317197D01*
X140782080Y-103335707D01*
X140694692Y-103382417D01*
X140694681Y-103382423D01*
X140664507Y-103402585D01*
X140654587Y-103409214D01*
X140654584Y-103409216D01*
X140654580Y-103409218D01*
X140577976Y-103472086D01*
X140543786Y-103506276D01*
X140480918Y-103582880D01*
X140480916Y-103582883D01*
X140480915Y-103582885D01*
X140472064Y-103596130D01*
X140454122Y-103622983D01*
X140454118Y-103622990D01*
X140407399Y-103710398D01*
X140388892Y-103755084D01*
X140388888Y-103755095D01*
X140360134Y-103849888D01*
X140348299Y-103909387D01*
X140348293Y-103909419D01*
X140341019Y-103958446D01*
X140341016Y-103958473D01*
X140338635Y-103982644D01*
X140338635Y-103982653D01*
X140338635Y-103982654D01*
X140336200Y-104032210D01*
X140336200Y-104032223D01*
X140336200Y-119060500D01*
X140316515Y-119127539D01*
X140263711Y-119173294D01*
X140212200Y-119184500D01*
X124228533Y-119184500D01*
X124225332Y-119184652D01*
X124180509Y-119186785D01*
X124180503Y-119186785D01*
X124157095Y-119189019D01*
X124157077Y-119189021D01*
X124109559Y-119195846D01*
X124109529Y-119195851D01*
X124091249Y-119199370D01*
X124091235Y-119199372D01*
X124090808Y-119199455D01*
X124090807Y-119199454D01*
X124090705Y-119199475D01*
X124063431Y-119204728D01*
X124051697Y-119206988D01*
X123968393Y-119231429D01*
X123959558Y-119234021D01*
X123916024Y-119251434D01*
X123830660Y-119295402D01*
X123830651Y-119295407D01*
X123781108Y-119327216D01*
X123741983Y-119355049D01*
X123741966Y-119355062D01*
X123741953Y-119355071D01*
X123741949Y-119355075D01*
X123723435Y-119369620D01*
X123723420Y-119369632D01*
X123687102Y-119401067D01*
X123687081Y-119401086D01*
X121850416Y-121150293D01*
X121788295Y-121182273D01*
X121764899Y-121184500D01*
X119376500Y-121184500D01*
X119376491Y-121184500D01*
X119376490Y-121184501D01*
X119269049Y-121196052D01*
X119269037Y-121196054D01*
X119217527Y-121207260D01*
X119115002Y-121241383D01*
X119114996Y-121241386D01*
X118993962Y-121319171D01*
X118993951Y-121319179D01*
X118941159Y-121364923D01*
X118846933Y-121473664D01*
X118846930Y-121473668D01*
X118787164Y-121604534D01*
X118767476Y-121671582D01*
X118755865Y-121752340D01*
X118747442Y-121810930D01*
X118747000Y-121814001D01*
X118746684Y-121818420D01*
X118746165Y-121818382D01*
X118744616Y-121834106D01*
X118740788Y-121853346D01*
X118733734Y-121876599D01*
X118726226Y-121894726D01*
X118714767Y-121916166D01*
X118695062Y-121945657D01*
X118685421Y-121958070D01*
X118685493Y-121958131D01*
X118684401Y-121959414D01*
X118667767Y-121980057D01*
X118667749Y-121980080D01*
X118636131Y-122023931D01*
X118576364Y-122154799D01*
X118556676Y-122221847D01*
X118536200Y-122364266D01*
X118536200Y-122435936D01*
X118539097Y-122489982D01*
X118541931Y-122516340D01*
X118550571Y-122569676D01*
X118550574Y-122569686D01*
X118551412Y-122571934D01*
X118554508Y-122580237D01*
X118561698Y-122613282D01*
X118589639Y-122674465D01*
X118591192Y-122678630D01*
X118600836Y-122704498D01*
X118614117Y-122728827D01*
X118616242Y-122732719D01*
X118621468Y-122744160D01*
X118628291Y-122754778D01*
X118630415Y-122758666D01*
X118630415Y-122758667D01*
X118630418Y-122758672D01*
X118634348Y-122765869D01*
X118634351Y-122765874D01*
X118634354Y-122765878D01*
X118643114Y-122777579D01*
X118645993Y-122781426D01*
X118649827Y-122786844D01*
X118714764Y-122884028D01*
X118726224Y-122905468D01*
X118733733Y-122923597D01*
X118740787Y-122946850D01*
X118744616Y-122966094D01*
X118747000Y-122990292D01*
X118747000Y-123009909D01*
X118744616Y-123034106D01*
X118740788Y-123053346D01*
X118733734Y-123076599D01*
X118726226Y-123094726D01*
X118714767Y-123116166D01*
X118695062Y-123145657D01*
X118685421Y-123158070D01*
X118685493Y-123158131D01*
X118684401Y-123159414D01*
X118667767Y-123180057D01*
X118667749Y-123180080D01*
X118636131Y-123223931D01*
X118576364Y-123354799D01*
X118563594Y-123398290D01*
X118556677Y-123421845D01*
X118556676Y-123421849D01*
X118536200Y-123564265D01*
X118536200Y-124927789D01*
X118536303Y-124929877D01*
X118538635Y-124977345D01*
X118538635Y-124977354D01*
X118541015Y-125001511D01*
X118541022Y-125001570D01*
X118548292Y-125050573D01*
X118548295Y-125050591D01*
X118560132Y-125110100D01*
X118588890Y-125204912D01*
X118607402Y-125249607D01*
X118607403Y-125249608D01*
X118629996Y-125291879D01*
X118654122Y-125337016D01*
X118680914Y-125377113D01*
X118743780Y-125453714D01*
X118743785Y-125453719D01*
X118777980Y-125487915D01*
X118777985Y-125487919D01*
X118854588Y-125550786D01*
X118894684Y-125577577D01*
X118894687Y-125577579D01*
X118894695Y-125577584D01*
X118894698Y-125577586D01*
X118957340Y-125613257D01*
X118957349Y-125613261D01*
X118957357Y-125613266D01*
X118983930Y-125625979D01*
X118989196Y-125628499D01*
X119006437Y-125635282D01*
X119056315Y-125654906D01*
X119070343Y-125657178D01*
X119086498Y-125660920D01*
X119105729Y-125666753D01*
X119121597Y-125671567D01*
X119181099Y-125683403D01*
X119189998Y-125684723D01*
X119230147Y-125690680D01*
X119230161Y-125690681D01*
X119230164Y-125690682D01*
X119254355Y-125693065D01*
X119303911Y-125695500D01*
X119303925Y-125695500D01*
X150040077Y-125695500D01*
X150040138Y-125695500D01*
X150040634Y-125695499D01*
X150041859Y-125695498D01*
X150043454Y-125695493D01*
X150043607Y-125695492D01*
X150043636Y-125695492D01*
X150045895Y-125695479D01*
X150046815Y-125695472D01*
X150048102Y-125695461D01*
X156473592Y-125630209D01*
X156578425Y-125618129D01*
X156589759Y-125615603D01*
X156620296Y-125608797D01*
X156690013Y-125613426D01*
X156726516Y-125636751D01*
X156727055Y-125636032D01*
X156849364Y-125727593D01*
X156849371Y-125727597D01*
X156984217Y-125777891D01*
X156984216Y-125777891D01*
X156991144Y-125778635D01*
X157043827Y-125784300D01*
X158139572Y-125784299D01*
X158199183Y-125777891D01*
X158334031Y-125727596D01*
X158449246Y-125641346D01*
X158453786Y-125635281D01*
X158464733Y-125627085D01*
X158472168Y-125615603D01*
X158492157Y-125606556D01*
X158509718Y-125593410D01*
X158524708Y-125591824D01*
X158535822Y-125586794D01*
X158557982Y-125588303D01*
X158571116Y-125586914D01*
X158579059Y-125588083D01*
X158579974Y-125588342D01*
X158579975Y-125588342D01*
X158722591Y-125607371D01*
X163700846Y-125556817D01*
X163768081Y-125575820D01*
X163794272Y-125597859D01*
X164632761Y-126529513D01*
X164632785Y-126529537D01*
X164670162Y-126566931D01*
X164670188Y-126566955D01*
X164690650Y-126585387D01*
X164690277Y-126585800D01*
X164727302Y-126642533D01*
X164727791Y-126712401D01*
X164690429Y-126771442D01*
X164627078Y-126800911D01*
X164608572Y-126802300D01*
X98914360Y-126802300D01*
X98847321Y-126782615D01*
X98801566Y-126729811D01*
X98791622Y-126660653D01*
X98820647Y-126597097D01*
X98841474Y-126577982D01*
X98903015Y-126533268D01*
X98903016Y-126533268D01*
X98260975Y-125891228D01*
X98320253Y-125875345D01*
X98436547Y-125808202D01*
X98531502Y-125713247D01*
X98598645Y-125596953D01*
X98614528Y-125537675D01*
X99256568Y-126179716D01*
X99256568Y-126179715D01*
X99299406Y-126120756D01*
X99397663Y-125927917D01*
X99397664Y-125927914D01*
X99464542Y-125722081D01*
X99498400Y-125508320D01*
X99498400Y-125291879D01*
X99464542Y-125078118D01*
X99397664Y-124872285D01*
X99397663Y-124872282D01*
X99299405Y-124679442D01*
X99256568Y-124620483D01*
X99256568Y-124620482D01*
X98614527Y-125262523D01*
X98598645Y-125203247D01*
X98531502Y-125086953D01*
X98436547Y-124991998D01*
X98320253Y-124924855D01*
X98260974Y-124908971D01*
X98903016Y-124266930D01*
X98903015Y-124266928D01*
X98853187Y-124230726D01*
X98810521Y-124175396D01*
X98804542Y-124105783D01*
X98837148Y-124043988D01*
X98853180Y-124030094D01*
X99019478Y-123909272D01*
X99172572Y-123756178D01*
X99299833Y-123581019D01*
X99392941Y-123398285D01*
X113038800Y-123398285D01*
X113038800Y-123541914D01*
X113066817Y-123682763D01*
X113066819Y-123682771D01*
X113121778Y-123815455D01*
X113121782Y-123815462D01*
X113177406Y-123898710D01*
X113198283Y-123965388D01*
X113179798Y-124032768D01*
X113177406Y-124036490D01*
X113121782Y-124119737D01*
X113121778Y-124119744D01*
X113066819Y-124252428D01*
X113066817Y-124252436D01*
X113038800Y-124393285D01*
X113038800Y-124536914D01*
X113066817Y-124677763D01*
X113066819Y-124677771D01*
X113121778Y-124810455D01*
X113121783Y-124810464D01*
X113201570Y-124929873D01*
X113201573Y-124929877D01*
X113303122Y-125031426D01*
X113303126Y-125031429D01*
X113422535Y-125111216D01*
X113422541Y-125111219D01*
X113422542Y-125111220D01*
X113555229Y-125166181D01*
X113696085Y-125194199D01*
X113696088Y-125194200D01*
X113696090Y-125194200D01*
X113839712Y-125194200D01*
X113839713Y-125194199D01*
X113980571Y-125166181D01*
X114113258Y-125111220D01*
X114232674Y-125031429D01*
X114236539Y-125027564D01*
X114280219Y-124983885D01*
X114341542Y-124950400D01*
X114411234Y-124955384D01*
X114455581Y-124983885D01*
X114503122Y-125031426D01*
X114503126Y-125031429D01*
X114622535Y-125111216D01*
X114622541Y-125111219D01*
X114622542Y-125111220D01*
X114755229Y-125166181D01*
X114896085Y-125194199D01*
X114896088Y-125194200D01*
X114896090Y-125194200D01*
X115039712Y-125194200D01*
X115039713Y-125194199D01*
X115180571Y-125166181D01*
X115313258Y-125111220D01*
X115432674Y-125031429D01*
X115432678Y-125031424D01*
X115437384Y-125027564D01*
X115438752Y-125029231D01*
X115491509Y-125000406D01*
X115561202Y-125005372D01*
X115597490Y-125028692D01*
X115598416Y-125027564D01*
X115603126Y-125031429D01*
X115722535Y-125111216D01*
X115722541Y-125111219D01*
X115722542Y-125111220D01*
X115855229Y-125166181D01*
X115996085Y-125194199D01*
X115996088Y-125194200D01*
X115996090Y-125194200D01*
X116139712Y-125194200D01*
X116139713Y-125194199D01*
X116280571Y-125166181D01*
X116413258Y-125111220D01*
X116532674Y-125031429D01*
X116634229Y-124929874D01*
X116714020Y-124810458D01*
X116768981Y-124677771D01*
X116797000Y-124536910D01*
X116797000Y-124393290D01*
X116797000Y-124393287D01*
X116796999Y-124393285D01*
X116768982Y-124252436D01*
X116768981Y-124252429D01*
X116720268Y-124134826D01*
X116714021Y-124119744D01*
X116714016Y-124119735D01*
X116634229Y-124000326D01*
X116634226Y-124000322D01*
X116532677Y-123898773D01*
X116532673Y-123898770D01*
X116413264Y-123818983D01*
X116413255Y-123818978D01*
X116280571Y-123764019D01*
X116280566Y-123764017D01*
X116217926Y-123751557D01*
X116156015Y-123719171D01*
X116121442Y-123658455D01*
X116120502Y-123605748D01*
X116133200Y-123541912D01*
X116133200Y-123398287D01*
X116133199Y-123398285D01*
X116124366Y-123353880D01*
X116105181Y-123257429D01*
X116050220Y-123124742D01*
X116050219Y-123124741D01*
X116050216Y-123124735D01*
X115970429Y-123005326D01*
X115970426Y-123005322D01*
X115868877Y-122903773D01*
X115868873Y-122903770D01*
X115749464Y-122823983D01*
X115749455Y-122823978D01*
X115616771Y-122769019D01*
X115616763Y-122769017D01*
X115475913Y-122741000D01*
X115475910Y-122741000D01*
X115332290Y-122741000D01*
X115332287Y-122741000D01*
X115191436Y-122769017D01*
X115191428Y-122769019D01*
X115058744Y-122823978D01*
X115058735Y-122823983D01*
X114939326Y-122903770D01*
X114939322Y-122903773D01*
X114837773Y-123005322D01*
X114837770Y-123005326D01*
X114757983Y-123124735D01*
X114757978Y-123124744D01*
X114716895Y-123223929D01*
X114703020Y-123257428D01*
X114700688Y-123263057D01*
X114698132Y-123261998D01*
X114666322Y-123310491D01*
X114602497Y-123338920D01*
X114533434Y-123328329D01*
X114481061Y-123282082D01*
X114472203Y-123262687D01*
X114471312Y-123263057D01*
X114468980Y-123257428D01*
X114414020Y-123124742D01*
X114414019Y-123124741D01*
X114414016Y-123124735D01*
X114334229Y-123005326D01*
X114334226Y-123005322D01*
X114232677Y-122903773D01*
X114232673Y-122903770D01*
X114113264Y-122823983D01*
X114113255Y-122823978D01*
X113980571Y-122769019D01*
X113980563Y-122769017D01*
X113839713Y-122741000D01*
X113839710Y-122741000D01*
X113696090Y-122741000D01*
X113696087Y-122741000D01*
X113555236Y-122769017D01*
X113555228Y-122769019D01*
X113422544Y-122823978D01*
X113422535Y-122823983D01*
X113303126Y-122903770D01*
X113303122Y-122903773D01*
X113201573Y-123005322D01*
X113201570Y-123005326D01*
X113121783Y-123124735D01*
X113121778Y-123124744D01*
X113066819Y-123257428D01*
X113066817Y-123257436D01*
X113038800Y-123398285D01*
X99392941Y-123398285D01*
X99398126Y-123388109D01*
X99414109Y-123338920D01*
X99438757Y-123263057D01*
X99465030Y-123182197D01*
X99498900Y-122968354D01*
X99498900Y-122751846D01*
X99465030Y-122538003D01*
X99398126Y-122332091D01*
X99398126Y-122332090D01*
X99307794Y-122154806D01*
X99299833Y-122139181D01*
X99172572Y-121964022D01*
X99019478Y-121810928D01*
X98853608Y-121690416D01*
X98810945Y-121635088D01*
X98804966Y-121565475D01*
X98837572Y-121503680D01*
X98853605Y-121489786D01*
X99019478Y-121369272D01*
X99172572Y-121216178D01*
X99299833Y-121041019D01*
X99398126Y-120848109D01*
X99465030Y-120642197D01*
X99498900Y-120428354D01*
X99498900Y-120211846D01*
X99465030Y-119998003D01*
X99465029Y-119997999D01*
X99420914Y-119862223D01*
X99409546Y-119827235D01*
X102297900Y-119827235D01*
X102297900Y-120772970D01*
X102297901Y-120772976D01*
X102304308Y-120832583D01*
X102354602Y-120967428D01*
X102354606Y-120967435D01*
X102440852Y-121082644D01*
X102440855Y-121082647D01*
X102556064Y-121168893D01*
X102556071Y-121168897D01*
X102690917Y-121219191D01*
X102690916Y-121219191D01*
X102697844Y-121219935D01*
X102750527Y-121225600D01*
X103696272Y-121225599D01*
X103755883Y-121219191D01*
X103890731Y-121168896D01*
X104005946Y-121082646D01*
X104092196Y-120967431D01*
X104142491Y-120832583D01*
X104148900Y-120772973D01*
X104148899Y-119827228D01*
X104142491Y-119767617D01*
X104132904Y-119741914D01*
X104092197Y-119632771D01*
X104092193Y-119632764D01*
X104005947Y-119517555D01*
X104005944Y-119517552D01*
X103890735Y-119431306D01*
X103890728Y-119431302D01*
X103755882Y-119381008D01*
X103755883Y-119381008D01*
X103696283Y-119374601D01*
X103696281Y-119374600D01*
X103696273Y-119374600D01*
X103696264Y-119374600D01*
X102750529Y-119374600D01*
X102750523Y-119374601D01*
X102690916Y-119381008D01*
X102556071Y-119431302D01*
X102556064Y-119431306D01*
X102440855Y-119517552D01*
X102440852Y-119517555D01*
X102354606Y-119632764D01*
X102354602Y-119632771D01*
X102304308Y-119767617D01*
X102298242Y-119824042D01*
X102297901Y-119827223D01*
X102297900Y-119827235D01*
X99409546Y-119827235D01*
X99398127Y-119792093D01*
X99398126Y-119792090D01*
X99299832Y-119599180D01*
X99172572Y-119424022D01*
X99019478Y-119270928D01*
X98941248Y-119214090D01*
X98853185Y-119150108D01*
X98810520Y-119094777D01*
X98804541Y-119025164D01*
X98837147Y-118963369D01*
X98853186Y-118949472D01*
X98903015Y-118913268D01*
X98903016Y-118913268D01*
X98583033Y-118593285D01*
X113038800Y-118593285D01*
X113038800Y-118736914D01*
X113066817Y-118877763D01*
X113066819Y-118877771D01*
X113121778Y-119010455D01*
X113121782Y-119010462D01*
X113180747Y-119098710D01*
X113201624Y-119165387D01*
X113183139Y-119232767D01*
X113180747Y-119236490D01*
X113121782Y-119324737D01*
X113121778Y-119324744D01*
X113066819Y-119457428D01*
X113066817Y-119457436D01*
X113038800Y-119598285D01*
X113038800Y-119741914D01*
X113066817Y-119882763D01*
X113066819Y-119882771D01*
X113121778Y-120015455D01*
X113121783Y-120015464D01*
X113201570Y-120134873D01*
X113201573Y-120134877D01*
X113303122Y-120236426D01*
X113303126Y-120236429D01*
X113422535Y-120316216D01*
X113422544Y-120316221D01*
X113435989Y-120321790D01*
X113555229Y-120371181D01*
X113645812Y-120389199D01*
X113696085Y-120399199D01*
X113696088Y-120399200D01*
X113696090Y-120399200D01*
X113839712Y-120399200D01*
X113839713Y-120399199D01*
X113980571Y-120371181D01*
X114113258Y-120316220D01*
X114232674Y-120236429D01*
X114334229Y-120134874D01*
X114414020Y-120015458D01*
X114468981Y-119882771D01*
X114468984Y-119882753D01*
X114469067Y-119882484D01*
X114469155Y-119882348D01*
X114471312Y-119877143D01*
X114472298Y-119877551D01*
X114507359Y-119824042D01*
X114571169Y-119795580D01*
X114640237Y-119806134D01*
X114692635Y-119852354D01*
X114702292Y-119871016D01*
X114757978Y-120005454D01*
X114757983Y-120005464D01*
X114837770Y-120124873D01*
X114837773Y-120124877D01*
X114939322Y-120226426D01*
X114939326Y-120226429D01*
X115058735Y-120306216D01*
X115058741Y-120306219D01*
X115058742Y-120306220D01*
X115191429Y-120361181D01*
X115332285Y-120389199D01*
X115332288Y-120389200D01*
X115332290Y-120389200D01*
X115475912Y-120389200D01*
X115475913Y-120389199D01*
X115616771Y-120361181D01*
X115749458Y-120306220D01*
X115868874Y-120226429D01*
X115970429Y-120124874D01*
X116050220Y-120005458D01*
X116105181Y-119872771D01*
X116133200Y-119731910D01*
X116133200Y-119588290D01*
X116133200Y-119588287D01*
X116121339Y-119528660D01*
X116127566Y-119459068D01*
X116170429Y-119403891D01*
X116218762Y-119382851D01*
X116302571Y-119366181D01*
X116435258Y-119311220D01*
X116554674Y-119231429D01*
X116656229Y-119129874D01*
X116736020Y-119010458D01*
X116790981Y-118877771D01*
X116819000Y-118736910D01*
X116819000Y-118593290D01*
X116819000Y-118593287D01*
X116818999Y-118593285D01*
X116812322Y-118559716D01*
X116790981Y-118452429D01*
X116736020Y-118319742D01*
X116736019Y-118319741D01*
X116736016Y-118319735D01*
X116656229Y-118200326D01*
X116656226Y-118200322D01*
X116554677Y-118098773D01*
X116554673Y-118098770D01*
X116435264Y-118018983D01*
X116435255Y-118018978D01*
X116302571Y-117964019D01*
X116302563Y-117964017D01*
X116161713Y-117936000D01*
X116161710Y-117936000D01*
X116018090Y-117936000D01*
X116018087Y-117936000D01*
X115877236Y-117964017D01*
X115877228Y-117964019D01*
X115744544Y-118018978D01*
X115744535Y-118018983D01*
X115625126Y-118098770D01*
X115625122Y-118098773D01*
X115616581Y-118107315D01*
X115555258Y-118140800D01*
X115485566Y-118135816D01*
X115441219Y-118107315D01*
X115432677Y-118098773D01*
X115432673Y-118098770D01*
X115313264Y-118018983D01*
X115313255Y-118018978D01*
X115180571Y-117964019D01*
X115180563Y-117964017D01*
X115039713Y-117936000D01*
X115039710Y-117936000D01*
X114896090Y-117936000D01*
X114896087Y-117936000D01*
X114755236Y-117964017D01*
X114755228Y-117964019D01*
X114622544Y-118018978D01*
X114622535Y-118018983D01*
X114503126Y-118098770D01*
X114503122Y-118098773D01*
X114455581Y-118146315D01*
X114394258Y-118179800D01*
X114324566Y-118174816D01*
X114280219Y-118146315D01*
X114232677Y-118098773D01*
X114232673Y-118098770D01*
X114113264Y-118018983D01*
X114113255Y-118018978D01*
X113980571Y-117964019D01*
X113980563Y-117964017D01*
X113839713Y-117936000D01*
X113839710Y-117936000D01*
X113696090Y-117936000D01*
X113696087Y-117936000D01*
X113555236Y-117964017D01*
X113555228Y-117964019D01*
X113422544Y-118018978D01*
X113422535Y-118018983D01*
X113303126Y-118098770D01*
X113303122Y-118098773D01*
X113201573Y-118200322D01*
X113201570Y-118200326D01*
X113121783Y-118319735D01*
X113121778Y-118319744D01*
X113066819Y-118452428D01*
X113066817Y-118452436D01*
X113038800Y-118593285D01*
X98583033Y-118593285D01*
X98260975Y-118271228D01*
X98320253Y-118255345D01*
X98436547Y-118188202D01*
X98531502Y-118093247D01*
X98598645Y-117976953D01*
X98614528Y-117917675D01*
X99256568Y-118559716D01*
X99256568Y-118559715D01*
X99289557Y-118514312D01*
X99289557Y-118514311D01*
X99299405Y-118500757D01*
X99397663Y-118307917D01*
X99397664Y-118307914D01*
X99464542Y-118102081D01*
X99498400Y-117888320D01*
X99498400Y-117671879D01*
X99464542Y-117458118D01*
X99397664Y-117252285D01*
X99397663Y-117252282D01*
X99299405Y-117059442D01*
X99256568Y-117000483D01*
X99256568Y-117000482D01*
X98614527Y-117642523D01*
X98598645Y-117583247D01*
X98531502Y-117466953D01*
X98436547Y-117371998D01*
X98320253Y-117304855D01*
X98260974Y-117288971D01*
X98903016Y-116646930D01*
X98903015Y-116646929D01*
X98846431Y-116605818D01*
X98803765Y-116550489D01*
X98797786Y-116480875D01*
X98830391Y-116419080D01*
X98891230Y-116384723D01*
X98919316Y-116381500D01*
X109185757Y-116381500D01*
X109246027Y-116374181D01*
X109471762Y-116346773D01*
X109751499Y-116277824D01*
X110020885Y-116175659D01*
X110275992Y-116041768D01*
X110513101Y-115878104D01*
X110728753Y-115687053D01*
X110919804Y-115471401D01*
X111083468Y-115234292D01*
X111217359Y-114979185D01*
X111319524Y-114709799D01*
X111388473Y-114430062D01*
X111423200Y-114144054D01*
X111423200Y-114000000D01*
X111423200Y-113945149D01*
X111423200Y-103106961D01*
X111423980Y-103093078D01*
X111435450Y-102991274D01*
X111437143Y-102976245D01*
X111443319Y-102949190D01*
X111479838Y-102844824D01*
X111491878Y-102819821D01*
X111550707Y-102726195D01*
X111568014Y-102704494D01*
X111646194Y-102626314D01*
X111667895Y-102609007D01*
X111761521Y-102550178D01*
X111786524Y-102538138D01*
X111890890Y-102501619D01*
X111917947Y-102495443D01*
X112023616Y-102483537D01*
X112034778Y-102482280D01*
X112048661Y-102481500D01*
X112096551Y-102481500D01*
X165412200Y-102481500D01*
X165479239Y-102501185D01*
G37*
%TD.AperFunction*%
%TA.AperFunction,Conductor*%
G36*
X182448622Y-102482280D02*
G01*
X182461491Y-102483729D01*
X182565450Y-102495443D01*
X182592511Y-102501619D01*
X182696871Y-102538137D01*
X182721881Y-102550180D01*
X182809922Y-102605500D01*
X182815500Y-102609005D01*
X182837209Y-102626318D01*
X182915381Y-102704490D01*
X182932694Y-102726199D01*
X182991517Y-102819815D01*
X183003564Y-102844832D01*
X183040078Y-102949182D01*
X183046257Y-102976253D01*
X183059420Y-103093077D01*
X183060200Y-103106961D01*
X183060200Y-117566000D01*
X183040515Y-117633039D01*
X182987711Y-117678794D01*
X182936200Y-117690000D01*
X181641700Y-117690000D01*
X181641700Y-118589402D01*
X181622015Y-118656441D01*
X181605381Y-118677083D01*
X181561181Y-118721282D01*
X181561175Y-118721290D01*
X181482126Y-118858209D01*
X181482123Y-118858216D01*
X181441200Y-119010943D01*
X181441200Y-120169057D01*
X181481491Y-120319423D01*
X181482123Y-120321783D01*
X181482126Y-120321790D01*
X181561175Y-120458709D01*
X181561181Y-120458717D01*
X181605381Y-120502917D01*
X181638866Y-120564240D01*
X181641700Y-120590598D01*
X181641700Y-122490000D01*
X182936200Y-122490000D01*
X183003239Y-122509685D01*
X183048994Y-122562489D01*
X183060200Y-122614000D01*
X183060200Y-126176838D01*
X183059420Y-126190721D01*
X183059420Y-126190722D01*
X183046257Y-126307546D01*
X183040078Y-126334617D01*
X183003564Y-126438967D01*
X182991517Y-126463984D01*
X182932694Y-126557600D01*
X182915381Y-126579309D01*
X182837209Y-126657481D01*
X182815500Y-126674794D01*
X182721884Y-126733617D01*
X182696867Y-126745664D01*
X182592517Y-126782178D01*
X182565446Y-126788357D01*
X182448623Y-126801520D01*
X182434739Y-126802300D01*
X166133390Y-126802300D01*
X166066351Y-126782615D01*
X166020596Y-126729811D01*
X166010652Y-126660653D01*
X166024795Y-126629683D01*
X166024952Y-126627492D01*
X166027721Y-126623276D01*
X166039677Y-126597097D01*
X166047290Y-126589066D01*
X166055035Y-126581593D01*
X166055038Y-126581596D01*
X166055075Y-126581554D01*
X166055087Y-126581543D01*
X166055607Y-126580873D01*
X166067451Y-126567687D01*
X166067475Y-126567663D01*
X166068021Y-126567137D01*
X166084231Y-126546269D01*
X166084230Y-126546268D01*
X166104076Y-126520720D01*
X166104085Y-126520709D01*
X166105282Y-126519169D01*
X166110741Y-126512142D01*
X166110868Y-126511981D01*
X166110869Y-126511979D01*
X166110882Y-126511963D01*
X166111314Y-126511202D01*
X166121136Y-126496496D01*
X166143340Y-126467908D01*
X166156563Y-126434286D01*
X166164191Y-126418341D01*
X166182077Y-126386932D01*
X166190406Y-126351681D01*
X166194183Y-126338841D01*
X166194885Y-126336854D01*
X166196004Y-126334012D01*
X166198085Y-126325201D01*
X166205980Y-126291791D01*
X166205981Y-126291792D01*
X166212058Y-126266076D01*
X166212058Y-126266075D01*
X166212061Y-126266031D01*
X166212608Y-126261349D01*
X166215101Y-126247170D01*
X166215164Y-126246907D01*
X166217519Y-126220586D01*
X166217518Y-126220585D01*
X166220581Y-126186344D01*
X166220583Y-126186345D01*
X166221390Y-126177328D01*
X166221392Y-126177305D01*
X166221227Y-126174241D01*
X166221188Y-126172101D01*
X166221440Y-126171179D01*
X166221660Y-126158754D01*
X166224882Y-126122767D01*
X166220482Y-126100644D01*
X166218100Y-126076455D01*
X166218100Y-126023981D01*
X166220480Y-125999805D01*
X166224310Y-125980547D01*
X166231359Y-125957308D01*
X166239217Y-125938339D01*
X166246094Y-125926701D01*
X166245071Y-125926140D01*
X166247261Y-125922148D01*
X166247267Y-125922139D01*
X166307038Y-125791262D01*
X166326723Y-125724223D01*
X166326724Y-125724219D01*
X166347200Y-125581803D01*
X166347200Y-124185935D01*
X173341200Y-124185935D01*
X173341200Y-125281670D01*
X173341201Y-125281676D01*
X173347608Y-125341283D01*
X173397902Y-125476128D01*
X173397906Y-125476135D01*
X173484152Y-125591344D01*
X173484155Y-125591347D01*
X173599364Y-125677593D01*
X173599371Y-125677597D01*
X173734217Y-125727891D01*
X173734216Y-125727891D01*
X173741144Y-125728635D01*
X173793827Y-125734300D01*
X174889572Y-125734299D01*
X174949183Y-125727891D01*
X175084031Y-125677596D01*
X175199246Y-125591346D01*
X175285496Y-125476131D01*
X175335791Y-125341283D01*
X175342200Y-125281673D01*
X175342199Y-124185928D01*
X175335791Y-124126317D01*
X175333339Y-124119744D01*
X175285497Y-123991471D01*
X175285493Y-123991464D01*
X175199247Y-123876255D01*
X175199244Y-123876252D01*
X175084035Y-123790006D01*
X175084028Y-123790002D01*
X174949182Y-123739708D01*
X174949183Y-123739708D01*
X174889583Y-123733301D01*
X174889581Y-123733300D01*
X174889573Y-123733300D01*
X174889564Y-123733300D01*
X173793829Y-123733300D01*
X173793823Y-123733301D01*
X173734216Y-123739708D01*
X173599371Y-123790002D01*
X173599364Y-123790006D01*
X173484155Y-123876252D01*
X173484152Y-123876255D01*
X173397906Y-123991464D01*
X173397902Y-123991471D01*
X173347608Y-124126317D01*
X173342332Y-124175396D01*
X173341201Y-124185923D01*
X173341200Y-124185935D01*
X166347200Y-124185935D01*
X166347200Y-121752338D01*
X166337487Y-121653720D01*
X166328048Y-121606267D01*
X166299281Y-121511436D01*
X166293468Y-121497404D01*
X166286412Y-121474143D01*
X166282585Y-121454905D01*
X166280204Y-121430720D01*
X166280204Y-121411085D01*
X166282586Y-121386898D01*
X166284471Y-121377414D01*
X166286410Y-121367668D01*
X166293466Y-121344408D01*
X166299283Y-121330366D01*
X166328048Y-121235541D01*
X166337487Y-121188089D01*
X166347200Y-121089469D01*
X166347200Y-121065235D01*
X166342055Y-120993293D01*
X166337032Y-120958358D01*
X166321696Y-120887868D01*
X166315786Y-120874930D01*
X166311159Y-120863270D01*
X166310518Y-120861382D01*
X166299282Y-120824335D01*
X166291906Y-120806529D01*
X166290604Y-120802691D01*
X166290515Y-120800566D01*
X166286413Y-120787042D01*
X166282585Y-120767800D01*
X166280204Y-120743616D01*
X166280204Y-120723983D01*
X166282586Y-120699797D01*
X166286414Y-120680553D01*
X166293466Y-120657303D01*
X166299282Y-120643264D01*
X166328048Y-120548436D01*
X166337487Y-120500984D01*
X166347200Y-120402364D01*
X166347200Y-120319423D01*
X166366885Y-120252384D01*
X166367224Y-120251858D01*
X166369548Y-120248290D01*
X166422649Y-120140617D01*
X166450718Y-119999502D01*
X166454457Y-119929733D01*
X166441633Y-119786432D01*
X166388954Y-119652542D01*
X166356032Y-119594728D01*
X166355049Y-119592887D01*
X166354377Y-119591820D01*
X166293068Y-119512899D01*
X166266112Y-119478199D01*
X166266110Y-119478197D01*
X166266108Y-119478195D01*
X166149416Y-119394050D01*
X166149415Y-119394049D01*
X166149409Y-119394045D01*
X166087498Y-119361660D01*
X165951817Y-119313794D01*
X165936581Y-119310763D01*
X165896969Y-119302883D01*
X165883475Y-119295824D01*
X165868430Y-119293494D01*
X165853147Y-119279958D01*
X165835059Y-119270496D01*
X165827524Y-119257264D01*
X165816126Y-119247169D01*
X165810587Y-119227519D01*
X165800486Y-119209780D01*
X165801009Y-119193540D01*
X165797170Y-119179920D01*
X165802247Y-119155097D01*
X165802572Y-119145041D01*
X165804313Y-119139338D01*
X165842781Y-119046471D01*
X165861636Y-118951679D01*
X165863448Y-118945748D01*
X165879376Y-118921544D01*
X165892806Y-118895872D01*
X165898350Y-118892714D01*
X165901859Y-118887384D01*
X165928342Y-118875635D01*
X165953521Y-118861297D01*
X165964122Y-118859762D01*
X165965726Y-118859051D01*
X165967325Y-118859298D01*
X165975159Y-118858164D01*
X165994403Y-118857097D01*
X166001240Y-118856336D01*
X166006980Y-118855664D01*
X166009771Y-118855321D01*
X166015455Y-118854590D01*
X166017252Y-118854080D01*
X166017910Y-118854085D01*
X166019969Y-118853664D01*
X166020059Y-118854105D01*
X166087118Y-118854714D01*
X166145550Y-118893020D01*
X166154206Y-118904477D01*
X166183673Y-118948577D01*
X166285222Y-119050126D01*
X166285226Y-119050129D01*
X166404635Y-119129916D01*
X166404644Y-119129921D01*
X166406206Y-119130568D01*
X166537329Y-119184881D01*
X166662505Y-119209780D01*
X166678185Y-119212899D01*
X166678188Y-119212900D01*
X166678190Y-119212900D01*
X166821809Y-119212900D01*
X166821810Y-119212900D01*
X166825554Y-119212155D01*
X166827557Y-119212334D01*
X166827875Y-119212303D01*
X166827880Y-119212363D01*
X166895144Y-119218376D01*
X166950326Y-119261233D01*
X166952842Y-119264857D01*
X166960500Y-119276318D01*
X166975372Y-119298576D01*
X167076922Y-119400126D01*
X167076926Y-119400129D01*
X167196335Y-119479916D01*
X167196341Y-119479919D01*
X167196342Y-119479920D01*
X167329029Y-119534881D01*
X167469885Y-119562899D01*
X167469888Y-119562900D01*
X167469890Y-119562900D01*
X167613512Y-119562900D01*
X167613513Y-119562899D01*
X167754371Y-119534881D01*
X167887058Y-119479920D01*
X168006474Y-119400129D01*
X168108029Y-119298574D01*
X168187820Y-119179158D01*
X168242781Y-119046471D01*
X168270800Y-118905610D01*
X168270800Y-118888132D01*
X168290485Y-118821093D01*
X168343289Y-118775338D01*
X168412447Y-118765394D01*
X168476003Y-118794419D01*
X168499973Y-118824441D01*
X168500495Y-118824093D01*
X168583670Y-118948573D01*
X168583673Y-118948577D01*
X168685222Y-119050126D01*
X168685226Y-119050129D01*
X168804635Y-119129916D01*
X168804644Y-119129921D01*
X168806206Y-119130568D01*
X168937329Y-119184881D01*
X169062505Y-119209780D01*
X169078185Y-119212899D01*
X169078188Y-119212900D01*
X169078190Y-119212900D01*
X169221811Y-119212900D01*
X169226060Y-119212054D01*
X169232884Y-119210697D01*
X169302475Y-119216921D01*
X169357655Y-119259781D01*
X169360183Y-119263423D01*
X169383667Y-119298569D01*
X169383673Y-119298577D01*
X169485222Y-119400126D01*
X169485226Y-119400129D01*
X169604635Y-119479916D01*
X169604641Y-119479919D01*
X169604642Y-119479920D01*
X169737329Y-119534881D01*
X169878185Y-119562899D01*
X169878188Y-119562900D01*
X169878190Y-119562900D01*
X170021812Y-119562900D01*
X170021813Y-119562899D01*
X170162671Y-119534881D01*
X170295358Y-119479920D01*
X170414774Y-119400129D01*
X170516329Y-119298574D01*
X170596120Y-119179158D01*
X170651081Y-119046471D01*
X170679100Y-118905610D01*
X170679100Y-118905600D01*
X170679503Y-118901511D01*
X170705661Y-118836722D01*
X170762693Y-118796360D01*
X170832493Y-118793239D01*
X170892900Y-118828351D01*
X170906009Y-118844767D01*
X170975370Y-118948573D01*
X170975373Y-118948577D01*
X171076922Y-119050126D01*
X171076926Y-119050129D01*
X171196335Y-119129916D01*
X171196344Y-119129921D01*
X171197906Y-119130568D01*
X171329029Y-119184881D01*
X171454205Y-119209780D01*
X171469885Y-119212899D01*
X171469888Y-119212900D01*
X171469890Y-119212900D01*
X171613511Y-119212900D01*
X171629195Y-119209780D01*
X171654592Y-119204728D01*
X171724183Y-119210954D01*
X171770592Y-119244737D01*
X171771063Y-119244267D01*
X171774048Y-119247252D01*
X171774640Y-119247683D01*
X171775376Y-119248580D01*
X171876922Y-119350126D01*
X171876926Y-119350129D01*
X171996335Y-119429916D01*
X171996341Y-119429919D01*
X171996342Y-119429920D01*
X172129029Y-119484881D01*
X172269885Y-119512899D01*
X172269888Y-119512900D01*
X172269890Y-119512900D01*
X172413512Y-119512900D01*
X172413513Y-119512899D01*
X172554371Y-119484881D01*
X172687058Y-119429920D01*
X172806474Y-119350129D01*
X172908029Y-119248574D01*
X172987820Y-119129158D01*
X173042781Y-118996471D01*
X173061670Y-118901511D01*
X173068017Y-118869603D01*
X173100402Y-118807692D01*
X173161117Y-118773118D01*
X173230887Y-118776857D01*
X173287559Y-118817724D01*
X173292736Y-118824903D01*
X173375370Y-118948573D01*
X173375373Y-118948577D01*
X173476922Y-119050126D01*
X173476926Y-119050129D01*
X173596335Y-119129916D01*
X173596344Y-119129921D01*
X173597906Y-119130568D01*
X173729029Y-119184881D01*
X173854205Y-119209780D01*
X173869885Y-119212899D01*
X173869888Y-119212900D01*
X173869890Y-119212900D01*
X174013511Y-119212900D01*
X174029195Y-119209780D01*
X174054592Y-119204728D01*
X174124183Y-119210954D01*
X174170592Y-119244737D01*
X174171063Y-119244267D01*
X174174048Y-119247252D01*
X174174640Y-119247683D01*
X174175376Y-119248580D01*
X174276922Y-119350126D01*
X174276926Y-119350129D01*
X174396335Y-119429916D01*
X174396341Y-119429919D01*
X174396342Y-119429920D01*
X174529029Y-119484881D01*
X174669885Y-119512899D01*
X174669888Y-119512900D01*
X174669890Y-119512900D01*
X174813512Y-119512900D01*
X174813513Y-119512899D01*
X174954371Y-119484881D01*
X175087058Y-119429920D01*
X175206474Y-119350129D01*
X175308029Y-119248574D01*
X175387820Y-119129158D01*
X175442781Y-118996471D01*
X175461670Y-118901511D01*
X175468017Y-118869603D01*
X175500402Y-118807692D01*
X175561117Y-118773118D01*
X175630887Y-118776857D01*
X175687559Y-118817724D01*
X175692736Y-118824903D01*
X175775370Y-118948573D01*
X175775373Y-118948577D01*
X175876922Y-119050126D01*
X175876926Y-119050129D01*
X175996335Y-119129916D01*
X175996344Y-119129921D01*
X175997906Y-119130568D01*
X176129029Y-119184881D01*
X176254205Y-119209780D01*
X176269885Y-119212899D01*
X176269888Y-119212900D01*
X176269890Y-119212900D01*
X176413511Y-119212900D01*
X176429195Y-119209780D01*
X176454592Y-119204728D01*
X176524183Y-119210954D01*
X176570592Y-119244737D01*
X176571063Y-119244267D01*
X176574048Y-119247252D01*
X176574640Y-119247683D01*
X176575376Y-119248580D01*
X176676922Y-119350126D01*
X176676926Y-119350129D01*
X176796335Y-119429916D01*
X176796341Y-119429919D01*
X176796342Y-119429920D01*
X176929029Y-119484881D01*
X177069885Y-119512899D01*
X177069888Y-119512900D01*
X177069890Y-119512900D01*
X177213512Y-119512900D01*
X177213513Y-119512899D01*
X177354371Y-119484881D01*
X177487058Y-119429920D01*
X177606474Y-119350129D01*
X177708029Y-119248574D01*
X177787820Y-119129158D01*
X177842781Y-118996471D01*
X177870800Y-118855610D01*
X177870800Y-118711990D01*
X177870800Y-118711987D01*
X177870799Y-118711985D01*
X177867713Y-118696471D01*
X177842781Y-118571129D01*
X177787820Y-118438442D01*
X177787819Y-118438441D01*
X177787816Y-118438435D01*
X177708029Y-118319026D01*
X177708026Y-118319022D01*
X177606477Y-118217473D01*
X177606473Y-118217470D01*
X177487064Y-118137683D01*
X177487055Y-118137678D01*
X177354371Y-118082719D01*
X177354363Y-118082717D01*
X177213513Y-118054700D01*
X177213510Y-118054700D01*
X177069890Y-118054700D01*
X177028805Y-118062872D01*
X176959213Y-118056643D01*
X176912807Y-118022862D01*
X176912337Y-118023333D01*
X176909346Y-118020342D01*
X176908758Y-118019914D01*
X176908026Y-118019022D01*
X176806477Y-117917473D01*
X176806473Y-117917470D01*
X176687064Y-117837683D01*
X176687055Y-117837678D01*
X176554371Y-117782719D01*
X176554363Y-117782717D01*
X176413513Y-117754700D01*
X176413510Y-117754700D01*
X176269890Y-117754700D01*
X176269887Y-117754700D01*
X176129036Y-117782717D01*
X176129028Y-117782719D01*
X175996344Y-117837678D01*
X175996335Y-117837683D01*
X175876926Y-117917470D01*
X175876922Y-117917473D01*
X175775373Y-118019022D01*
X175775370Y-118019026D01*
X175695583Y-118138435D01*
X175695578Y-118138444D01*
X175640619Y-118271128D01*
X175640617Y-118271134D01*
X175615382Y-118397997D01*
X175582997Y-118459908D01*
X175522281Y-118494482D01*
X175452511Y-118490741D01*
X175395839Y-118449875D01*
X175390663Y-118442696D01*
X175308029Y-118319026D01*
X175308026Y-118319022D01*
X175206477Y-118217473D01*
X175206473Y-118217470D01*
X175087064Y-118137683D01*
X175087055Y-118137678D01*
X174954371Y-118082719D01*
X174954363Y-118082717D01*
X174813513Y-118054700D01*
X174813510Y-118054700D01*
X174669890Y-118054700D01*
X174628805Y-118062872D01*
X174559213Y-118056643D01*
X174512807Y-118022862D01*
X174512337Y-118023333D01*
X174509346Y-118020342D01*
X174508758Y-118019914D01*
X174508026Y-118019022D01*
X174406477Y-117917473D01*
X174406473Y-117917470D01*
X174287064Y-117837683D01*
X174287055Y-117837678D01*
X174154371Y-117782719D01*
X174154363Y-117782717D01*
X174013513Y-117754700D01*
X174013510Y-117754700D01*
X173869890Y-117754700D01*
X173869887Y-117754700D01*
X173729036Y-117782717D01*
X173729028Y-117782719D01*
X173596344Y-117837678D01*
X173596335Y-117837683D01*
X173476926Y-117917470D01*
X173476922Y-117917473D01*
X173375373Y-118019022D01*
X173375370Y-118019026D01*
X173295583Y-118138435D01*
X173295578Y-118138444D01*
X173240619Y-118271128D01*
X173240617Y-118271134D01*
X173215382Y-118397997D01*
X173182997Y-118459908D01*
X173122281Y-118494482D01*
X173052511Y-118490741D01*
X172995839Y-118449875D01*
X172990663Y-118442696D01*
X172908029Y-118319026D01*
X172908026Y-118319022D01*
X172806477Y-118217473D01*
X172806473Y-118217470D01*
X172687064Y-118137683D01*
X172687055Y-118137678D01*
X172554371Y-118082719D01*
X172554363Y-118082717D01*
X172413513Y-118054700D01*
X172413510Y-118054700D01*
X172269890Y-118054700D01*
X172228805Y-118062872D01*
X172159213Y-118056643D01*
X172112807Y-118022862D01*
X172112337Y-118023333D01*
X172109346Y-118020342D01*
X172108758Y-118019914D01*
X172108026Y-118019022D01*
X172006477Y-117917473D01*
X172006473Y-117917470D01*
X171887064Y-117837683D01*
X171887055Y-117837678D01*
X171754371Y-117782719D01*
X171754363Y-117782717D01*
X171613513Y-117754700D01*
X171613510Y-117754700D01*
X171469890Y-117754700D01*
X171469887Y-117754700D01*
X171329036Y-117782717D01*
X171329028Y-117782719D01*
X171196344Y-117837678D01*
X171196335Y-117837683D01*
X171076926Y-117917470D01*
X171076922Y-117917473D01*
X170975373Y-118019022D01*
X170975370Y-118019026D01*
X170895583Y-118138435D01*
X170895578Y-118138444D01*
X170840619Y-118271128D01*
X170840617Y-118271136D01*
X170812599Y-118411990D01*
X170812194Y-118416102D01*
X170786030Y-118480887D01*
X170728993Y-118521243D01*
X170659193Y-118524357D01*
X170598790Y-118489239D01*
X170585690Y-118472832D01*
X170516329Y-118369025D01*
X170414777Y-118267473D01*
X170414773Y-118267470D01*
X170295364Y-118187683D01*
X170295355Y-118187678D01*
X170162671Y-118132719D01*
X170162663Y-118132717D01*
X170021813Y-118104700D01*
X170021810Y-118104700D01*
X169878190Y-118104700D01*
X169878185Y-118104700D01*
X169867105Y-118106904D01*
X169797513Y-118100674D01*
X169742338Y-118057809D01*
X169739816Y-118054177D01*
X169716327Y-118019023D01*
X169614777Y-117917473D01*
X169614773Y-117917470D01*
X169495364Y-117837683D01*
X169495355Y-117837678D01*
X169362671Y-117782719D01*
X169362665Y-117782717D01*
X169250148Y-117760336D01*
X169188237Y-117727951D01*
X169153663Y-117667235D01*
X169157403Y-117597466D01*
X169166094Y-117578231D01*
X169170586Y-117570192D01*
X169170587Y-117570190D01*
X169172396Y-117566000D01*
X169190486Y-117524106D01*
X169221439Y-117426035D01*
X169234170Y-117364440D01*
X169242010Y-117313553D01*
X169244577Y-117288454D01*
X169246422Y-117252282D01*
X169247200Y-117237032D01*
X169247200Y-114219332D01*
X179787200Y-114219332D01*
X179787200Y-114348267D01*
X179812349Y-114474703D01*
X179812352Y-114474712D01*
X179861686Y-114593817D01*
X179861687Y-114593819D01*
X179933316Y-114701019D01*
X179933319Y-114701023D01*
X180024476Y-114792180D01*
X180024480Y-114792183D01*
X180131678Y-114863811D01*
X180131679Y-114863811D01*
X180131680Y-114863812D01*
X180131682Y-114863813D01*
X180211085Y-114896702D01*
X180250789Y-114913148D01*
X180250791Y-114913148D01*
X180250796Y-114913150D01*
X180377232Y-114938299D01*
X180377236Y-114938300D01*
X180377237Y-114938300D01*
X180506164Y-114938300D01*
X180506165Y-114938299D01*
X180548312Y-114929916D01*
X180632603Y-114913150D01*
X180632606Y-114913148D01*
X180632611Y-114913148D01*
X180751722Y-114863811D01*
X180858920Y-114792183D01*
X180950083Y-114701020D01*
X181021711Y-114593822D01*
X181071048Y-114474711D01*
X181071742Y-114471226D01*
X181090592Y-114376456D01*
X181096200Y-114348263D01*
X181096200Y-114219337D01*
X181090191Y-114189127D01*
X181071050Y-114092896D01*
X181071047Y-114092887D01*
X181021713Y-113973782D01*
X181021712Y-113973780D01*
X181013294Y-113961182D01*
X180950083Y-113866580D01*
X180950080Y-113866576D01*
X180858923Y-113775419D01*
X180858919Y-113775416D01*
X180751719Y-113703787D01*
X180751717Y-113703786D01*
X180632612Y-113654452D01*
X180632603Y-113654449D01*
X180506167Y-113629300D01*
X180506163Y-113629300D01*
X180377237Y-113629300D01*
X180377232Y-113629300D01*
X180250796Y-113654449D01*
X180250787Y-113654452D01*
X180131682Y-113703786D01*
X180131680Y-113703787D01*
X180024480Y-113775416D01*
X180024476Y-113775419D01*
X179933319Y-113866576D01*
X179933316Y-113866580D01*
X179861687Y-113973780D01*
X179861686Y-113973782D01*
X179812352Y-114092887D01*
X179812349Y-114092896D01*
X179787200Y-114219332D01*
X169247200Y-114219332D01*
X169247200Y-111019766D01*
X169266885Y-110952727D01*
X169319689Y-110906972D01*
X169388847Y-110897028D01*
X169452403Y-110926053D01*
X169458881Y-110932085D01*
X169476922Y-110950126D01*
X169476926Y-110950129D01*
X169596335Y-111029916D01*
X169596344Y-111029921D01*
X169598860Y-111030963D01*
X169729029Y-111084881D01*
X169859830Y-111110899D01*
X169869885Y-111112899D01*
X169869888Y-111112900D01*
X169869890Y-111112900D01*
X170013512Y-111112900D01*
X170013513Y-111112899D01*
X170154371Y-111084881D01*
X170287058Y-111029920D01*
X170406474Y-110950129D01*
X170508029Y-110848574D01*
X170587820Y-110729158D01*
X170642781Y-110596471D01*
X170662022Y-110499739D01*
X170668017Y-110469603D01*
X170700402Y-110407692D01*
X170761117Y-110373118D01*
X170830887Y-110376857D01*
X170887559Y-110417724D01*
X170892736Y-110424903D01*
X170975370Y-110548573D01*
X170975373Y-110548577D01*
X171076922Y-110650126D01*
X171076926Y-110650129D01*
X171196335Y-110729916D01*
X171196341Y-110729919D01*
X171196342Y-110729920D01*
X171329029Y-110784881D01*
X171455301Y-110809998D01*
X171469885Y-110812899D01*
X171469888Y-110812900D01*
X171469890Y-110812900D01*
X171613512Y-110812900D01*
X171613513Y-110812899D01*
X171754371Y-110784881D01*
X171887058Y-110729920D01*
X172006474Y-110650129D01*
X172108029Y-110548574D01*
X172108036Y-110548562D01*
X172108751Y-110547693D01*
X172109253Y-110547350D01*
X172112337Y-110544267D01*
X172112921Y-110544851D01*
X172166492Y-110508351D01*
X172228807Y-110504728D01*
X172247021Y-110508351D01*
X172269889Y-110512900D01*
X172269890Y-110512900D01*
X172413512Y-110512900D01*
X172413513Y-110512899D01*
X172554371Y-110484881D01*
X172687058Y-110429920D01*
X172806474Y-110350129D01*
X172844618Y-110311985D01*
X173212600Y-110311985D01*
X173212600Y-110455614D01*
X173240617Y-110596463D01*
X173240619Y-110596471D01*
X173295578Y-110729155D01*
X173295583Y-110729164D01*
X173375370Y-110848573D01*
X173375373Y-110848577D01*
X173476922Y-110950126D01*
X173476926Y-110950129D01*
X173596335Y-111029916D01*
X173596344Y-111029921D01*
X173598860Y-111030963D01*
X173729029Y-111084881D01*
X173859830Y-111110899D01*
X173869885Y-111112899D01*
X173869888Y-111112900D01*
X173869890Y-111112900D01*
X174013512Y-111112900D01*
X174013513Y-111112899D01*
X174154371Y-111084881D01*
X174287058Y-111029920D01*
X174406474Y-110950129D01*
X174508029Y-110848574D01*
X174508036Y-110848562D01*
X174508751Y-110847693D01*
X174509253Y-110847350D01*
X174512337Y-110844267D01*
X174512921Y-110844851D01*
X174566492Y-110808351D01*
X174628807Y-110804728D01*
X174647021Y-110808351D01*
X174669889Y-110812900D01*
X174669890Y-110812900D01*
X174813512Y-110812900D01*
X174813513Y-110812899D01*
X174954371Y-110784881D01*
X175087058Y-110729920D01*
X175206474Y-110650129D01*
X175308029Y-110548574D01*
X175355127Y-110478087D01*
X175390970Y-110424444D01*
X175444582Y-110379639D01*
X175513907Y-110370932D01*
X175576934Y-110401086D01*
X175613654Y-110460529D01*
X175615689Y-110469143D01*
X175640617Y-110594465D01*
X175640619Y-110594471D01*
X175695578Y-110727155D01*
X175695583Y-110727164D01*
X175775370Y-110846573D01*
X175775373Y-110846577D01*
X175876922Y-110948126D01*
X175876926Y-110948129D01*
X175996335Y-111027916D01*
X175996344Y-111027921D01*
X176003681Y-111030960D01*
X176129029Y-111082881D01*
X176265295Y-111109986D01*
X176269885Y-111110899D01*
X176269888Y-111110900D01*
X176269890Y-111110900D01*
X176413512Y-111110900D01*
X176413513Y-111110899D01*
X176554371Y-111082881D01*
X176687058Y-111027920D01*
X176806474Y-110948129D01*
X176908029Y-110846574D01*
X176908036Y-110846562D01*
X176908751Y-110845693D01*
X176909253Y-110845350D01*
X176912337Y-110842267D01*
X176912921Y-110842851D01*
X176966492Y-110806351D01*
X177028807Y-110802728D01*
X177047021Y-110806351D01*
X177069889Y-110810900D01*
X177069890Y-110810900D01*
X177213512Y-110810900D01*
X177213513Y-110810899D01*
X177354371Y-110782881D01*
X177487058Y-110727920D01*
X177606474Y-110648129D01*
X177708029Y-110546574D01*
X177787820Y-110427158D01*
X177842781Y-110294471D01*
X177870800Y-110153610D01*
X177870800Y-110009990D01*
X177870800Y-110009987D01*
X177870799Y-110009985D01*
X177852308Y-109917026D01*
X177842781Y-109869129D01*
X177788649Y-109738444D01*
X177787821Y-109736444D01*
X177787816Y-109736435D01*
X177708029Y-109617026D01*
X177708026Y-109617022D01*
X177606477Y-109515473D01*
X177606473Y-109515470D01*
X177487064Y-109435683D01*
X177487055Y-109435678D01*
X177354371Y-109380719D01*
X177354363Y-109380717D01*
X177213513Y-109352700D01*
X177213510Y-109352700D01*
X177069890Y-109352700D01*
X177069887Y-109352700D01*
X176929036Y-109380717D01*
X176929028Y-109380719D01*
X176796344Y-109435678D01*
X176796335Y-109435683D01*
X176676927Y-109515469D01*
X176575366Y-109617031D01*
X176574634Y-109617924D01*
X176574132Y-109618265D01*
X176571065Y-109621333D01*
X176570483Y-109620751D01*
X176516886Y-109657255D01*
X176454595Y-109660872D01*
X176413510Y-109652700D01*
X176269890Y-109652700D01*
X176269887Y-109652700D01*
X176129036Y-109680717D01*
X176129028Y-109680719D01*
X175996344Y-109735678D01*
X175996335Y-109735683D01*
X175876926Y-109815470D01*
X175876922Y-109815473D01*
X175775373Y-109917022D01*
X175775370Y-109917026D01*
X175692429Y-110041155D01*
X175638816Y-110085960D01*
X175569491Y-110094667D01*
X175506464Y-110064512D01*
X175469745Y-110005069D01*
X175467710Y-109996455D01*
X175452308Y-109919026D01*
X175442781Y-109871129D01*
X175396801Y-109760125D01*
X175387821Y-109738444D01*
X175387816Y-109738435D01*
X175308029Y-109619026D01*
X175308026Y-109619022D01*
X175206477Y-109517473D01*
X175206473Y-109517470D01*
X175087064Y-109437683D01*
X175087055Y-109437678D01*
X174954371Y-109382719D01*
X174954363Y-109382717D01*
X174813513Y-109354700D01*
X174813510Y-109354700D01*
X174669890Y-109354700D01*
X174669887Y-109354700D01*
X174529036Y-109382717D01*
X174529028Y-109382719D01*
X174396344Y-109437678D01*
X174396335Y-109437683D01*
X174276927Y-109517469D01*
X174175366Y-109619031D01*
X174174634Y-109619924D01*
X174174132Y-109620265D01*
X174171065Y-109623333D01*
X174170483Y-109622751D01*
X174116886Y-109659255D01*
X174054595Y-109662872D01*
X174013510Y-109654700D01*
X173869890Y-109654700D01*
X173869887Y-109654700D01*
X173729036Y-109682717D01*
X173729028Y-109682719D01*
X173596344Y-109737678D01*
X173596335Y-109737683D01*
X173476926Y-109817470D01*
X173476922Y-109817473D01*
X173375373Y-109919022D01*
X173375370Y-109919026D01*
X173295583Y-110038435D01*
X173295578Y-110038444D01*
X173240619Y-110171128D01*
X173240617Y-110171136D01*
X173212600Y-110311985D01*
X172844618Y-110311985D01*
X172908029Y-110248574D01*
X172987820Y-110129158D01*
X173042781Y-109996471D01*
X173070800Y-109855610D01*
X173070800Y-109711990D01*
X173070800Y-109711987D01*
X173070799Y-109711985D01*
X173067459Y-109695194D01*
X173042781Y-109571129D01*
X172987820Y-109438442D01*
X172987819Y-109438441D01*
X172987816Y-109438435D01*
X172908029Y-109319026D01*
X172908026Y-109319022D01*
X172806477Y-109217473D01*
X172806473Y-109217470D01*
X172687064Y-109137683D01*
X172687055Y-109137678D01*
X172554371Y-109082719D01*
X172554363Y-109082717D01*
X172413513Y-109054700D01*
X172413510Y-109054700D01*
X172269890Y-109054700D01*
X172269887Y-109054700D01*
X172129036Y-109082717D01*
X172129028Y-109082719D01*
X171996344Y-109137678D01*
X171996335Y-109137683D01*
X171876927Y-109217469D01*
X171775366Y-109319031D01*
X171774634Y-109319924D01*
X171774132Y-109320265D01*
X171771065Y-109323333D01*
X171770483Y-109322751D01*
X171716886Y-109359255D01*
X171654595Y-109362872D01*
X171613510Y-109354700D01*
X171469890Y-109354700D01*
X171469887Y-109354700D01*
X171329036Y-109382717D01*
X171329028Y-109382719D01*
X171196344Y-109437678D01*
X171196335Y-109437683D01*
X171076926Y-109517470D01*
X171076922Y-109517473D01*
X170975373Y-109619022D01*
X170975370Y-109619026D01*
X170895583Y-109738435D01*
X170895578Y-109738444D01*
X170840619Y-109871128D01*
X170840617Y-109871134D01*
X170815382Y-109997997D01*
X170782997Y-110059908D01*
X170722281Y-110094482D01*
X170652511Y-110090741D01*
X170595839Y-110049875D01*
X170590663Y-110042696D01*
X170508029Y-109919026D01*
X170508026Y-109919022D01*
X170406477Y-109817473D01*
X170406473Y-109817470D01*
X170287064Y-109737683D01*
X170287055Y-109737678D01*
X170154371Y-109682719D01*
X170154363Y-109682717D01*
X170013513Y-109654700D01*
X170013510Y-109654700D01*
X169869890Y-109654700D01*
X169869887Y-109654700D01*
X169729036Y-109682717D01*
X169729028Y-109682719D01*
X169596344Y-109737678D01*
X169596335Y-109737683D01*
X169476926Y-109817470D01*
X169476922Y-109817473D01*
X169458881Y-109835515D01*
X169397558Y-109869000D01*
X169327866Y-109864016D01*
X169271933Y-109822144D01*
X169247516Y-109756680D01*
X169247200Y-109747834D01*
X169247200Y-104399576D01*
X169247200Y-104399563D01*
X169244764Y-104350001D01*
X169242381Y-104325813D01*
X169235104Y-104276757D01*
X169223268Y-104217253D01*
X169204185Y-104147693D01*
X169192443Y-104114410D01*
X169163650Y-104048268D01*
X169155335Y-104036739D01*
X169146557Y-104022670D01*
X169129275Y-103990335D01*
X169095571Y-103939893D01*
X169066023Y-103900051D01*
X169050602Y-103881260D01*
X169022171Y-103849892D01*
X169017287Y-103844503D01*
X168908719Y-103735935D01*
X177741200Y-103735935D01*
X177741200Y-104831670D01*
X177741201Y-104831676D01*
X177747608Y-104891283D01*
X177797902Y-105026128D01*
X177797906Y-105026135D01*
X177884152Y-105141344D01*
X177884155Y-105141347D01*
X177975240Y-105209534D01*
X178017111Y-105265468D01*
X178022095Y-105335159D01*
X177988609Y-105396482D01*
X177975240Y-105408066D01*
X177884155Y-105476252D01*
X177884152Y-105476255D01*
X177797906Y-105591464D01*
X177797902Y-105591471D01*
X177747608Y-105726317D01*
X177741633Y-105781901D01*
X177741201Y-105785923D01*
X177741200Y-105785935D01*
X177741200Y-106881670D01*
X177741201Y-106881676D01*
X177747608Y-106941283D01*
X177797902Y-107076128D01*
X177797906Y-107076135D01*
X177884152Y-107191344D01*
X177884155Y-107191347D01*
X177975240Y-107259534D01*
X178017111Y-107315468D01*
X178022095Y-107385159D01*
X177988609Y-107446482D01*
X177975240Y-107458066D01*
X177884155Y-107526252D01*
X177884152Y-107526255D01*
X177797906Y-107641464D01*
X177797902Y-107641471D01*
X177747608Y-107776317D01*
X177741737Y-107830929D01*
X177741201Y-107835923D01*
X177741200Y-107835935D01*
X177741200Y-108931670D01*
X177741201Y-108931676D01*
X177747608Y-108991283D01*
X177797902Y-109126128D01*
X177797906Y-109126135D01*
X177884152Y-109241344D01*
X177884155Y-109241347D01*
X177999364Y-109327593D01*
X177999371Y-109327597D01*
X178134217Y-109377891D01*
X178134216Y-109377891D01*
X178141144Y-109378635D01*
X178193827Y-109384300D01*
X179289572Y-109384299D01*
X179349183Y-109377891D01*
X179484031Y-109327596D01*
X179599246Y-109241346D01*
X179685496Y-109126131D01*
X179735791Y-108991283D01*
X179742200Y-108931673D01*
X179742199Y-107835928D01*
X179735791Y-107776317D01*
X179723786Y-107744131D01*
X179685497Y-107641471D01*
X179685493Y-107641464D01*
X179599247Y-107526256D01*
X179599248Y-107526256D01*
X179599246Y-107526254D01*
X179508157Y-107458065D01*
X179466288Y-107402133D01*
X179461304Y-107332441D01*
X179494789Y-107271118D01*
X179508152Y-107259538D01*
X179599246Y-107191346D01*
X179685496Y-107076131D01*
X179735791Y-106941283D01*
X179742200Y-106881673D01*
X179742199Y-105785928D01*
X179735791Y-105726317D01*
X179733986Y-105721478D01*
X179685497Y-105591471D01*
X179685493Y-105591464D01*
X179599247Y-105476256D01*
X179599248Y-105476256D01*
X179599246Y-105476254D01*
X179508157Y-105408065D01*
X179466288Y-105352133D01*
X179461304Y-105282441D01*
X179494789Y-105221118D01*
X179508152Y-105209538D01*
X179599246Y-105141346D01*
X179685496Y-105026131D01*
X179735791Y-104891283D01*
X179742200Y-104831673D01*
X179742199Y-103735928D01*
X179735791Y-103676317D01*
X179715904Y-103622998D01*
X179685497Y-103541471D01*
X179685493Y-103541464D01*
X179599247Y-103426255D01*
X179599244Y-103426252D01*
X179484035Y-103340006D01*
X179484028Y-103340002D01*
X179349182Y-103289708D01*
X179349183Y-103289708D01*
X179289583Y-103283301D01*
X179289581Y-103283300D01*
X179289573Y-103283300D01*
X179289564Y-103283300D01*
X178193829Y-103283300D01*
X178193823Y-103283301D01*
X178134216Y-103289708D01*
X177999371Y-103340002D01*
X177999364Y-103340006D01*
X177884155Y-103426252D01*
X177884152Y-103426255D01*
X177797906Y-103541464D01*
X177797902Y-103541471D01*
X177747608Y-103676317D01*
X177741201Y-103735916D01*
X177741201Y-103735923D01*
X177741200Y-103735935D01*
X168908719Y-103735935D01*
X167865965Y-102693181D01*
X167832480Y-102631858D01*
X167837464Y-102562166D01*
X167879336Y-102506233D01*
X167944800Y-102481816D01*
X167953646Y-102481500D01*
X182386849Y-102481500D01*
X182434739Y-102481500D01*
X182448622Y-102482280D01*
G37*
%TD.AperFunction*%
%TA.AperFunction,Conductor*%
G36*
X158764162Y-118815012D02*
G01*
X158764165Y-118815011D01*
X158764170Y-118815012D01*
X158793033Y-118809804D01*
X158810107Y-118811639D01*
X158826976Y-118808408D01*
X158844125Y-118815295D01*
X158862501Y-118817271D01*
X158876173Y-118828167D01*
X158891811Y-118834448D01*
X158913524Y-118857935D01*
X158916139Y-118860019D01*
X158917175Y-118861477D01*
X158975371Y-118948574D01*
X158988075Y-118961278D01*
X158994110Y-118969773D01*
X159002237Y-118993341D01*
X159014187Y-119015223D01*
X159013510Y-119026032D01*
X159016888Y-119035825D01*
X159011521Y-119057838D01*
X159009958Y-119082841D01*
X158963659Y-119214073D01*
X158963655Y-119214090D01*
X158959087Y-119237050D01*
X158952032Y-119260304D01*
X158952031Y-119260308D01*
X158944522Y-119278435D01*
X158933066Y-119299867D01*
X158922166Y-119316181D01*
X158906743Y-119334974D01*
X158892874Y-119348843D01*
X158874082Y-119364265D01*
X158857767Y-119375166D01*
X158836331Y-119386624D01*
X158818203Y-119394133D01*
X158794947Y-119401188D01*
X158775707Y-119405016D01*
X158751510Y-119407400D01*
X158731889Y-119407400D01*
X158707698Y-119405017D01*
X158688453Y-119401189D01*
X158665194Y-119394133D01*
X158647063Y-119386622D01*
X158625627Y-119375164D01*
X158624784Y-119374601D01*
X158617330Y-119369620D01*
X158609315Y-119364264D01*
X158590528Y-119348845D01*
X158576654Y-119334971D01*
X158561235Y-119316184D01*
X158550333Y-119299869D01*
X158538874Y-119278433D01*
X158531363Y-119260297D01*
X158524309Y-119237043D01*
X158523708Y-119234020D01*
X158519743Y-119214087D01*
X158519434Y-119212900D01*
X158511016Y-119180521D01*
X158504992Y-119157351D01*
X158499613Y-119140696D01*
X158499612Y-119140696D01*
X158497918Y-119135450D01*
X158496180Y-119130067D01*
X158496177Y-119130060D01*
X158493321Y-119121216D01*
X158492147Y-119116895D01*
X158491667Y-119115622D01*
X158490015Y-119110903D01*
X158483401Y-119097158D01*
X158478001Y-119083249D01*
X158472086Y-119013634D01*
X158504749Y-118951869D01*
X158505849Y-118950753D01*
X158508029Y-118948574D01*
X158566748Y-118860694D01*
X158620358Y-118815891D01*
X158683105Y-118806297D01*
X158764162Y-118815012D01*
G37*
%TD.AperFunction*%
%TA.AperFunction,Conductor*%
G36*
X166008429Y-110519416D02*
G01*
X166036336Y-110530976D01*
X166057764Y-110542430D01*
X166066975Y-110548584D01*
X166074082Y-110553333D01*
X166092869Y-110568752D01*
X166106743Y-110582626D01*
X166122162Y-110601413D01*
X166133064Y-110617728D01*
X166144524Y-110639168D01*
X166149063Y-110650126D01*
X166152031Y-110657290D01*
X166159086Y-110680545D01*
X166162397Y-110697186D01*
X166162402Y-110697210D01*
X166162914Y-110699782D01*
X166165300Y-110723991D01*
X166165300Y-110743609D01*
X166162916Y-110767806D01*
X166159088Y-110787046D01*
X166152032Y-110810303D01*
X166144522Y-110828433D01*
X166133066Y-110849867D01*
X166122166Y-110866181D01*
X166106743Y-110884974D01*
X166092874Y-110898843D01*
X166074081Y-110914266D01*
X166057767Y-110925166D01*
X166036334Y-110936622D01*
X166000598Y-110951425D01*
X165987848Y-110955909D01*
X165986178Y-110956395D01*
X165958828Y-110965228D01*
X165904193Y-110986443D01*
X165904188Y-110986446D01*
X165899959Y-110989164D01*
X165832918Y-111008844D01*
X165765880Y-110989154D01*
X165720129Y-110936347D01*
X165710190Y-110867188D01*
X165729823Y-110815956D01*
X165787820Y-110729158D01*
X165842781Y-110596471D01*
X165842781Y-110596470D01*
X165845112Y-110590843D01*
X165846599Y-110591459D01*
X165880614Y-110539550D01*
X165944425Y-110511090D01*
X166008429Y-110519416D01*
G37*
%TD.AperFunction*%
%TD*%
%TA.AperFunction,Conductor*%
%TO.N,+3.3V*%
G36*
X166955077Y-102501185D02*
G01*
X166975719Y-102517819D01*
X168659841Y-104201941D01*
X168675262Y-104220732D01*
X168708966Y-104271174D01*
X168712155Y-104278874D01*
X168715739Y-104282588D01*
X168727481Y-104315871D01*
X168731597Y-104336566D01*
X168739317Y-104375375D01*
X168741700Y-104399563D01*
X168741700Y-117237022D01*
X168739133Y-117262121D01*
X168726402Y-117323716D01*
X168706504Y-117369798D01*
X168670405Y-117421291D01*
X168653897Y-117440368D01*
X167927069Y-118125075D01*
X167864774Y-118156715D01*
X167795262Y-118149655D01*
X167794590Y-118149378D01*
X167754372Y-118132719D01*
X167754363Y-118132716D01*
X167613513Y-118104700D01*
X167613510Y-118104700D01*
X167469890Y-118104700D01*
X167469884Y-118104700D01*
X167466130Y-118105447D01*
X167464125Y-118105267D01*
X167463826Y-118105297D01*
X167463820Y-118105240D01*
X167396539Y-118099217D01*
X167341363Y-118056352D01*
X167338841Y-118052718D01*
X167316330Y-118019027D01*
X167316326Y-118019022D01*
X167214777Y-117917473D01*
X167214773Y-117917470D01*
X167095364Y-117837683D01*
X167095355Y-117837678D01*
X166962671Y-117782719D01*
X166962663Y-117782717D01*
X166821813Y-117754700D01*
X166821810Y-117754700D01*
X166678190Y-117754700D01*
X166678187Y-117754700D01*
X166537336Y-117782717D01*
X166537328Y-117782719D01*
X166404644Y-117837678D01*
X166404635Y-117837683D01*
X166285226Y-117917470D01*
X166285222Y-117917473D01*
X166183673Y-118019022D01*
X166183670Y-118019026D01*
X166103883Y-118138435D01*
X166103878Y-118138444D01*
X166064561Y-118233366D01*
X166048920Y-118271128D01*
X166046588Y-118276757D01*
X166044300Y-118275809D01*
X166039720Y-118282791D01*
X166033724Y-118301038D01*
X166020953Y-118311408D01*
X166011933Y-118325162D01*
X165994392Y-118332976D01*
X165979485Y-118345082D01*
X165957152Y-118349567D01*
X165948111Y-118353596D01*
X165945320Y-118353939D01*
X165938483Y-118354700D01*
X165869890Y-118354700D01*
X165782742Y-118372034D01*
X165777466Y-118372622D01*
X165748076Y-118367433D01*
X165718348Y-118364773D01*
X165712941Y-118361229D01*
X165708661Y-118360474D01*
X165701032Y-118353424D01*
X165676068Y-118337064D01*
X165606477Y-118267473D01*
X165606473Y-118267470D01*
X165487064Y-118187683D01*
X165487055Y-118187678D01*
X165354371Y-118132719D01*
X165354363Y-118132717D01*
X165213513Y-118104700D01*
X165213510Y-118104700D01*
X165069890Y-118104700D01*
X165069885Y-118104700D01*
X165058805Y-118106904D01*
X164989213Y-118100674D01*
X164934038Y-118057809D01*
X164931516Y-118054177D01*
X164908027Y-118019023D01*
X164806477Y-117917473D01*
X164806473Y-117917470D01*
X164687064Y-117837683D01*
X164687055Y-117837678D01*
X164554371Y-117782719D01*
X164554363Y-117782717D01*
X164413513Y-117754700D01*
X164413510Y-117754700D01*
X164269890Y-117754700D01*
X164269887Y-117754700D01*
X164129036Y-117782717D01*
X164129028Y-117782719D01*
X163996344Y-117837678D01*
X163996335Y-117837683D01*
X163876926Y-117917470D01*
X163876922Y-117917473D01*
X163775373Y-118019022D01*
X163775370Y-118019026D01*
X163695583Y-118138435D01*
X163695578Y-118138444D01*
X163640619Y-118271128D01*
X163640617Y-118271136D01*
X163623957Y-118354891D01*
X163611111Y-118379448D01*
X163601325Y-118405386D01*
X163595141Y-118409978D01*
X163591572Y-118416802D01*
X163567486Y-118430517D01*
X163545233Y-118447045D01*
X163535373Y-118448804D01*
X163530856Y-118451377D01*
X163510718Y-118454417D01*
X163506539Y-118454700D01*
X163469890Y-118454700D01*
X163450972Y-118458462D01*
X163442996Y-118459003D01*
X163416371Y-118453105D01*
X163389213Y-118450674D01*
X163382758Y-118445659D01*
X163374780Y-118443892D01*
X163355572Y-118424539D01*
X163334038Y-118407809D01*
X163331516Y-118404177D01*
X163308027Y-118369023D01*
X163206477Y-118267473D01*
X163206473Y-118267470D01*
X163087064Y-118187683D01*
X163087055Y-118187678D01*
X162954371Y-118132719D01*
X162954363Y-118132717D01*
X162813513Y-118104700D01*
X162813510Y-118104700D01*
X162669890Y-118104700D01*
X162669885Y-118104700D01*
X162658805Y-118106904D01*
X162589213Y-118100674D01*
X162534038Y-118057809D01*
X162531516Y-118054177D01*
X162508027Y-118019023D01*
X162406477Y-117917473D01*
X162406473Y-117917470D01*
X162287064Y-117837683D01*
X162287055Y-117837678D01*
X162154371Y-117782719D01*
X162154363Y-117782717D01*
X162013513Y-117754700D01*
X162013510Y-117754700D01*
X161869890Y-117754700D01*
X161869887Y-117754700D01*
X161729036Y-117782717D01*
X161729028Y-117782719D01*
X161596344Y-117837678D01*
X161596335Y-117837683D01*
X161476926Y-117917470D01*
X161476922Y-117917473D01*
X161375373Y-118019022D01*
X161375370Y-118019026D01*
X161295583Y-118138435D01*
X161295578Y-118138444D01*
X161240619Y-118271128D01*
X161240617Y-118271136D01*
X161223957Y-118354891D01*
X161191572Y-118416802D01*
X161130856Y-118451377D01*
X161102340Y-118454700D01*
X161069887Y-118454700D01*
X160929036Y-118482717D01*
X160929028Y-118482719D01*
X160796344Y-118537678D01*
X160796335Y-118537683D01*
X160676926Y-118617470D01*
X160676922Y-118617473D01*
X160575373Y-118719022D01*
X160575370Y-118719026D01*
X160495583Y-118838435D01*
X160495578Y-118838444D01*
X160440619Y-118971128D01*
X160440617Y-118971136D01*
X160412600Y-119111985D01*
X160412600Y-119255614D01*
X160440617Y-119396463D01*
X160440619Y-119396471D01*
X160495578Y-119529155D01*
X160495583Y-119529164D01*
X160575370Y-119648573D01*
X160575373Y-119648577D01*
X160676922Y-119750126D01*
X160676926Y-119750129D01*
X160796335Y-119829916D01*
X160796341Y-119829919D01*
X160796342Y-119829920D01*
X160929029Y-119884881D01*
X161018516Y-119902681D01*
X161069885Y-119912899D01*
X161069888Y-119912900D01*
X161069890Y-119912900D01*
X161213512Y-119912900D01*
X161213513Y-119912899D01*
X161354371Y-119884881D01*
X161487058Y-119829920D01*
X161606474Y-119750129D01*
X161708029Y-119648574D01*
X161787820Y-119529158D01*
X161842781Y-119396471D01*
X161850415Y-119358090D01*
X161859443Y-119312709D01*
X161872289Y-119288150D01*
X161882074Y-119262216D01*
X161888257Y-119257623D01*
X161891828Y-119250798D01*
X161915915Y-119237081D01*
X161938165Y-119220556D01*
X161948025Y-119218796D01*
X161952544Y-119216223D01*
X161972680Y-119213183D01*
X161976858Y-119212900D01*
X162013510Y-119212900D01*
X162032433Y-119209135D01*
X162040401Y-119208596D01*
X162067022Y-119214492D01*
X162094175Y-119216921D01*
X162100633Y-119221937D01*
X162108618Y-119223706D01*
X162127822Y-119243056D01*
X162149355Y-119259781D01*
X162151883Y-119263423D01*
X162175367Y-119298569D01*
X162175373Y-119298577D01*
X162276922Y-119400126D01*
X162276926Y-119400129D01*
X162396335Y-119479916D01*
X162396341Y-119479919D01*
X162396342Y-119479920D01*
X162529029Y-119534881D01*
X162619245Y-119552826D01*
X162669885Y-119562899D01*
X162669888Y-119562900D01*
X162669890Y-119562900D01*
X162813511Y-119562900D01*
X162817760Y-119562054D01*
X162824584Y-119560697D01*
X162894175Y-119566921D01*
X162949355Y-119609781D01*
X162951883Y-119613423D01*
X162975367Y-119648569D01*
X162975373Y-119648577D01*
X163076922Y-119750126D01*
X163076926Y-119750129D01*
X163196335Y-119829916D01*
X163196341Y-119829919D01*
X163196342Y-119829920D01*
X163329029Y-119884881D01*
X163418516Y-119902681D01*
X163469885Y-119912899D01*
X163469888Y-119912900D01*
X163469890Y-119912900D01*
X163613512Y-119912900D01*
X163613513Y-119912899D01*
X163754371Y-119884881D01*
X163887058Y-119829920D01*
X164006474Y-119750129D01*
X164108029Y-119648574D01*
X164187820Y-119529158D01*
X164242781Y-119396471D01*
X164250415Y-119358090D01*
X164259443Y-119312709D01*
X164272289Y-119288150D01*
X164282074Y-119262216D01*
X164288257Y-119257623D01*
X164291828Y-119250798D01*
X164315915Y-119237081D01*
X164338165Y-119220556D01*
X164348025Y-119218796D01*
X164352544Y-119216223D01*
X164372680Y-119213183D01*
X164376858Y-119212900D01*
X164413510Y-119212900D01*
X164432433Y-119209135D01*
X164440401Y-119208596D01*
X164467022Y-119214492D01*
X164494175Y-119216921D01*
X164500633Y-119221937D01*
X164508618Y-119223706D01*
X164527822Y-119243056D01*
X164549355Y-119259781D01*
X164551883Y-119263423D01*
X164575367Y-119298569D01*
X164575373Y-119298577D01*
X164676922Y-119400126D01*
X164676926Y-119400129D01*
X164796335Y-119479916D01*
X164796341Y-119479919D01*
X164796342Y-119479920D01*
X164929029Y-119534881D01*
X165019245Y-119552826D01*
X165069885Y-119562899D01*
X165069888Y-119562900D01*
X165069890Y-119562900D01*
X165213511Y-119562900D01*
X165264155Y-119552826D01*
X165295460Y-119546599D01*
X165365050Y-119552826D01*
X165407330Y-119580533D01*
X165475366Y-119648569D01*
X165476927Y-119650130D01*
X165596335Y-119729916D01*
X165596341Y-119729919D01*
X165596342Y-119729920D01*
X165729029Y-119784881D01*
X165776059Y-119794236D01*
X165853196Y-119809580D01*
X165915107Y-119841965D01*
X165949681Y-119902681D01*
X165945942Y-119972450D01*
X165914032Y-120021454D01*
X165841700Y-120089594D01*
X165841700Y-120402364D01*
X165832261Y-120449816D01*
X165802724Y-120521124D01*
X165802721Y-120521136D01*
X165774704Y-120661985D01*
X165774704Y-120805614D01*
X165802721Y-120946463D01*
X165802723Y-120946471D01*
X165825686Y-121001910D01*
X165832261Y-121017782D01*
X165833887Y-121025959D01*
X165836677Y-121030300D01*
X165841700Y-121065235D01*
X165841700Y-121089469D01*
X165832261Y-121136921D01*
X165802723Y-121208231D01*
X165802720Y-121208240D01*
X165774704Y-121349089D01*
X165774704Y-121492718D01*
X165802721Y-121633567D01*
X165802723Y-121633575D01*
X165832261Y-121704885D01*
X165841700Y-121752338D01*
X165841700Y-125581803D01*
X165822015Y-125648842D01*
X165820803Y-125650693D01*
X165795579Y-125688443D01*
X165740619Y-125821128D01*
X165740617Y-125821136D01*
X165712600Y-125961985D01*
X165712600Y-125961990D01*
X165712600Y-126105610D01*
X165712600Y-126105612D01*
X165712599Y-126105612D01*
X165717902Y-126132267D01*
X165717095Y-126141284D01*
X165720107Y-126149822D01*
X165714030Y-126175538D01*
X165711675Y-126201859D01*
X165706120Y-126209008D01*
X165704039Y-126217819D01*
X165685022Y-126236168D01*
X165668812Y-126257036D01*
X165658944Y-126261331D01*
X165653760Y-126266334D01*
X165620477Y-126278075D01*
X165603679Y-126281417D01*
X165579489Y-126283800D01*
X165216078Y-126283800D01*
X165190291Y-126281089D01*
X165167997Y-126276349D01*
X165127117Y-126267657D01*
X165080004Y-126246674D01*
X165027762Y-126208705D01*
X165008496Y-126191351D01*
X164054305Y-125131139D01*
X164054304Y-125131138D01*
X164010884Y-125082894D01*
X163979892Y-125048458D01*
X163979891Y-125048458D01*
X163867033Y-125049604D01*
X158717458Y-125101897D01*
X158650222Y-125082894D01*
X158603934Y-125030557D01*
X158592199Y-124977906D01*
X158592199Y-124235928D01*
X158585791Y-124176317D01*
X158535496Y-124041469D01*
X158535495Y-124041468D01*
X158535493Y-124041464D01*
X158449247Y-123926255D01*
X158449244Y-123926252D01*
X158334035Y-123840006D01*
X158334028Y-123840002D01*
X158199182Y-123789708D01*
X158199183Y-123789708D01*
X158139583Y-123783301D01*
X158139581Y-123783300D01*
X158139573Y-123783300D01*
X158139564Y-123783300D01*
X157043829Y-123783300D01*
X157043823Y-123783301D01*
X156984216Y-123789708D01*
X156849371Y-123840002D01*
X156849364Y-123840006D01*
X156734155Y-123926252D01*
X156734152Y-123926255D01*
X156647906Y-124041464D01*
X156647902Y-124041471D01*
X156597608Y-124176317D01*
X156591201Y-124235916D01*
X156591201Y-124235923D01*
X156591200Y-124235935D01*
X156591200Y-125000741D01*
X156571515Y-125067780D01*
X156518711Y-125113535D01*
X156468459Y-125124735D01*
X150042969Y-125189987D01*
X150042420Y-125189991D01*
X150042049Y-125189994D01*
X150041521Y-125189996D01*
X150040504Y-125189999D01*
X150040138Y-125190000D01*
X119303911Y-125190000D01*
X119279720Y-125187617D01*
X119264889Y-125184667D01*
X119220218Y-125175781D01*
X119212516Y-125172591D01*
X119207358Y-125172499D01*
X119175523Y-125157268D01*
X119135427Y-125130477D01*
X119101222Y-125096272D01*
X119074430Y-125056175D01*
X119055918Y-125011480D01*
X119044083Y-124951980D01*
X119041700Y-124927789D01*
X119041700Y-123564265D01*
X119061385Y-123497226D01*
X119078016Y-123476586D01*
X119089729Y-123464874D01*
X119169520Y-123345458D01*
X119224481Y-123212771D01*
X119252500Y-123071910D01*
X119252500Y-122928290D01*
X119252500Y-122928287D01*
X119252499Y-122928285D01*
X119224482Y-122787436D01*
X119224481Y-122787429D01*
X119169520Y-122654742D01*
X119169519Y-122654741D01*
X119169516Y-122654735D01*
X119089729Y-122535326D01*
X119089726Y-122535322D01*
X119078019Y-122523615D01*
X119063315Y-122496687D01*
X119046723Y-122470869D01*
X119045831Y-122464668D01*
X119044534Y-122462292D01*
X119041700Y-122435934D01*
X119041700Y-122364265D01*
X119061385Y-122297226D01*
X119078016Y-122276586D01*
X119089729Y-122264874D01*
X119169520Y-122145458D01*
X119224481Y-122012771D01*
X119252500Y-121871910D01*
X119252500Y-121814000D01*
X119272185Y-121746961D01*
X119324989Y-121701206D01*
X119376500Y-121690000D01*
X122016700Y-121690000D01*
X123697125Y-120089595D01*
X123882656Y-119912899D01*
X124035721Y-119767122D01*
X124054235Y-119752577D01*
X124103759Y-119720781D01*
X124147299Y-119703365D01*
X124186806Y-119695756D01*
X124205086Y-119692237D01*
X124228533Y-119690000D01*
X140841700Y-119690000D01*
X140841700Y-119111985D01*
X146012600Y-119111985D01*
X146012600Y-119255614D01*
X146040617Y-119396463D01*
X146040619Y-119396471D01*
X146095578Y-119529155D01*
X146095583Y-119529164D01*
X146175370Y-119648573D01*
X146175373Y-119648577D01*
X146276922Y-119750126D01*
X146276926Y-119750129D01*
X146396335Y-119829916D01*
X146396341Y-119829919D01*
X146396342Y-119829920D01*
X146529029Y-119884881D01*
X146618516Y-119902681D01*
X146669885Y-119912899D01*
X146669888Y-119912900D01*
X146669890Y-119912900D01*
X146813512Y-119912900D01*
X146813513Y-119912899D01*
X146954371Y-119884881D01*
X147087058Y-119829920D01*
X147206474Y-119750129D01*
X147308029Y-119648574D01*
X147387820Y-119529158D01*
X147442781Y-119396471D01*
X147470800Y-119255610D01*
X147470800Y-119111990D01*
X147470800Y-119111987D01*
X147470799Y-119111985D01*
X148412600Y-119111985D01*
X148412600Y-119255614D01*
X148440617Y-119396463D01*
X148440619Y-119396471D01*
X148495578Y-119529155D01*
X148495583Y-119529164D01*
X148575370Y-119648573D01*
X148575373Y-119648577D01*
X148676922Y-119750126D01*
X148676926Y-119750129D01*
X148796335Y-119829916D01*
X148796341Y-119829919D01*
X148796342Y-119829920D01*
X148929029Y-119884881D01*
X149018516Y-119902681D01*
X149069885Y-119912899D01*
X149069888Y-119912900D01*
X149069890Y-119912900D01*
X149213512Y-119912900D01*
X149213513Y-119912899D01*
X149354371Y-119884881D01*
X149487058Y-119829920D01*
X149606474Y-119750129D01*
X149708029Y-119648574D01*
X149787820Y-119529158D01*
X149842781Y-119396471D01*
X149870800Y-119255610D01*
X149870800Y-119111990D01*
X149870800Y-119111987D01*
X149870799Y-119111985D01*
X150812600Y-119111985D01*
X150812600Y-119255614D01*
X150840617Y-119396463D01*
X150840619Y-119396471D01*
X150895578Y-119529155D01*
X150895583Y-119529164D01*
X150975370Y-119648573D01*
X150975373Y-119648577D01*
X151076922Y-119750126D01*
X151076926Y-119750129D01*
X151196335Y-119829916D01*
X151196341Y-119829919D01*
X151196342Y-119829920D01*
X151329029Y-119884881D01*
X151418516Y-119902681D01*
X151469885Y-119912899D01*
X151469888Y-119912900D01*
X151469890Y-119912900D01*
X151613512Y-119912900D01*
X151613513Y-119912899D01*
X151754371Y-119884881D01*
X151887058Y-119829920D01*
X152006474Y-119750129D01*
X152108029Y-119648574D01*
X152131516Y-119613421D01*
X152185127Y-119568618D01*
X152254452Y-119559910D01*
X152258783Y-119560690D01*
X152269890Y-119562900D01*
X152269891Y-119562900D01*
X152413512Y-119562900D01*
X152413513Y-119562899D01*
X152554371Y-119534881D01*
X152687058Y-119479920D01*
X152806474Y-119400129D01*
X152908029Y-119298574D01*
X152931516Y-119263421D01*
X152940829Y-119255638D01*
X152946607Y-119244963D01*
X152967139Y-119233650D01*
X152985127Y-119218618D01*
X152998686Y-119216269D01*
X153007803Y-119211247D01*
X153029013Y-119211017D01*
X153042998Y-119208596D01*
X153050966Y-119209135D01*
X153069890Y-119212900D01*
X153106542Y-119212900D01*
X153110720Y-119213183D01*
X153139733Y-119223879D01*
X153169379Y-119232585D01*
X153172212Y-119235854D01*
X153176276Y-119237353D01*
X153194901Y-119262039D01*
X153215134Y-119285389D01*
X153217091Y-119291450D01*
X153218358Y-119293129D01*
X153218578Y-119296054D01*
X153223957Y-119312709D01*
X153240617Y-119396463D01*
X153240619Y-119396471D01*
X153295578Y-119529155D01*
X153295583Y-119529164D01*
X153375370Y-119648573D01*
X153375373Y-119648577D01*
X153476922Y-119750126D01*
X153476926Y-119750129D01*
X153596335Y-119829916D01*
X153596341Y-119829919D01*
X153596342Y-119829920D01*
X153729029Y-119884881D01*
X153818516Y-119902681D01*
X153869885Y-119912899D01*
X153869888Y-119912900D01*
X153869890Y-119912900D01*
X154013512Y-119912900D01*
X154013513Y-119912899D01*
X154154371Y-119884881D01*
X154287058Y-119829920D01*
X154406474Y-119750129D01*
X154508029Y-119648574D01*
X154531516Y-119613421D01*
X154585127Y-119568618D01*
X154654452Y-119559910D01*
X154658783Y-119560690D01*
X154669890Y-119562900D01*
X154669891Y-119562900D01*
X154813512Y-119562900D01*
X154813513Y-119562899D01*
X154954371Y-119534881D01*
X155087058Y-119479920D01*
X155206474Y-119400129D01*
X155308029Y-119298574D01*
X155352121Y-119232585D01*
X155385498Y-119182634D01*
X155439110Y-119137829D01*
X155508435Y-119129122D01*
X155571463Y-119159276D01*
X155608182Y-119218719D01*
X155612600Y-119251525D01*
X155612600Y-119255614D01*
X155640617Y-119396463D01*
X155640619Y-119396471D01*
X155695578Y-119529155D01*
X155695583Y-119529164D01*
X155775370Y-119648573D01*
X155775373Y-119648577D01*
X155876922Y-119750126D01*
X155876926Y-119750129D01*
X155996335Y-119829916D01*
X155996341Y-119829919D01*
X155996342Y-119829920D01*
X156129029Y-119884881D01*
X156218516Y-119902681D01*
X156269885Y-119912899D01*
X156269888Y-119912900D01*
X156269890Y-119912900D01*
X156413512Y-119912900D01*
X156413513Y-119912899D01*
X156554371Y-119884881D01*
X156687058Y-119829920D01*
X156806474Y-119750129D01*
X156908029Y-119648574D01*
X156931516Y-119613421D01*
X156985127Y-119568618D01*
X157054452Y-119559910D01*
X157058783Y-119560690D01*
X157069890Y-119562900D01*
X157069891Y-119562900D01*
X157213512Y-119562900D01*
X157213513Y-119562899D01*
X157354371Y-119534881D01*
X157487058Y-119479920D01*
X157606474Y-119400129D01*
X157708029Y-119298574D01*
X157731516Y-119263421D01*
X157740829Y-119255638D01*
X157746607Y-119244963D01*
X157767139Y-119233650D01*
X157785127Y-119218618D01*
X157798686Y-119216269D01*
X157807803Y-119211247D01*
X157829013Y-119211017D01*
X157842998Y-119208596D01*
X157850966Y-119209135D01*
X157869890Y-119212900D01*
X157906542Y-119212900D01*
X157910720Y-119213183D01*
X157939733Y-119223879D01*
X157969379Y-119232585D01*
X157972212Y-119235854D01*
X157976276Y-119237353D01*
X157994901Y-119262039D01*
X158015134Y-119285389D01*
X158017091Y-119291450D01*
X158018358Y-119293129D01*
X158018578Y-119296054D01*
X158023957Y-119312709D01*
X158040617Y-119396463D01*
X158040619Y-119396471D01*
X158095578Y-119529155D01*
X158095583Y-119529164D01*
X158175370Y-119648573D01*
X158175373Y-119648577D01*
X158276922Y-119750126D01*
X158276926Y-119750129D01*
X158396335Y-119829916D01*
X158396341Y-119829919D01*
X158396342Y-119829920D01*
X158529029Y-119884881D01*
X158618516Y-119902681D01*
X158669885Y-119912899D01*
X158669888Y-119912900D01*
X158669890Y-119912900D01*
X158813512Y-119912900D01*
X158813513Y-119912899D01*
X158954371Y-119884881D01*
X159087058Y-119829920D01*
X159206474Y-119750129D01*
X159308029Y-119648574D01*
X159387820Y-119529158D01*
X159442781Y-119396471D01*
X159450415Y-119358090D01*
X159459443Y-119312709D01*
X159491828Y-119250798D01*
X159552544Y-119216223D01*
X159581060Y-119212900D01*
X159613512Y-119212900D01*
X159613513Y-119212899D01*
X159754371Y-119184881D01*
X159887058Y-119129920D01*
X160006474Y-119050129D01*
X160108029Y-118948574D01*
X160187820Y-118829158D01*
X160242781Y-118696471D01*
X160270800Y-118555610D01*
X160270800Y-118411990D01*
X160270800Y-118411987D01*
X160270799Y-118411985D01*
X160246091Y-118287769D01*
X160242781Y-118271129D01*
X160187820Y-118138442D01*
X160187819Y-118138441D01*
X160187816Y-118138435D01*
X160108029Y-118019026D01*
X160108026Y-118019022D01*
X160006477Y-117917473D01*
X160006473Y-117917470D01*
X159887064Y-117837683D01*
X159887055Y-117837678D01*
X159754371Y-117782719D01*
X159754363Y-117782717D01*
X159613513Y-117754700D01*
X159613510Y-117754700D01*
X159469890Y-117754700D01*
X159469887Y-117754700D01*
X159329036Y-117782717D01*
X159329028Y-117782719D01*
X159196344Y-117837678D01*
X159196335Y-117837683D01*
X159076926Y-117917470D01*
X159076922Y-117917473D01*
X158975373Y-118019022D01*
X158975370Y-118019026D01*
X158895583Y-118138435D01*
X158895578Y-118138444D01*
X158856261Y-118233366D01*
X158812420Y-118287769D01*
X158746126Y-118309834D01*
X158678427Y-118292555D01*
X158630816Y-118241418D01*
X158627139Y-118233366D01*
X158587821Y-118138444D01*
X158587816Y-118138435D01*
X158508029Y-118019026D01*
X158508026Y-118019022D01*
X158406477Y-117917473D01*
X158406473Y-117917470D01*
X158287064Y-117837683D01*
X158287055Y-117837678D01*
X158154371Y-117782719D01*
X158154363Y-117782717D01*
X158013513Y-117754700D01*
X158013510Y-117754700D01*
X157869890Y-117754700D01*
X157869887Y-117754700D01*
X157729036Y-117782717D01*
X157729028Y-117782719D01*
X157596344Y-117837678D01*
X157596335Y-117837683D01*
X157476926Y-117917470D01*
X157476922Y-117917473D01*
X157375373Y-118019022D01*
X157351883Y-118054178D01*
X157298270Y-118098982D01*
X157228945Y-118107689D01*
X157224592Y-118106904D01*
X157213511Y-118104700D01*
X157213510Y-118104700D01*
X157069890Y-118104700D01*
X157069887Y-118104700D01*
X156929036Y-118132717D01*
X156929028Y-118132719D01*
X156796344Y-118187678D01*
X156796335Y-118187683D01*
X156676926Y-118267470D01*
X156676922Y-118267473D01*
X156575373Y-118369022D01*
X156551883Y-118404178D01*
X156498270Y-118448982D01*
X156428945Y-118457689D01*
X156424592Y-118456904D01*
X156413511Y-118454700D01*
X156413510Y-118454700D01*
X156269890Y-118454700D01*
X156269887Y-118454700D01*
X156129036Y-118482717D01*
X156129028Y-118482719D01*
X155996344Y-118537678D01*
X155996335Y-118537683D01*
X155876926Y-118617470D01*
X155876922Y-118617473D01*
X155775373Y-118719022D01*
X155775370Y-118719026D01*
X155697902Y-118834965D01*
X155644290Y-118879770D01*
X155574965Y-118888477D01*
X155511937Y-118858322D01*
X155475218Y-118798879D01*
X155470800Y-118766074D01*
X155470800Y-118761987D01*
X155470799Y-118761985D01*
X155442782Y-118621136D01*
X155442781Y-118621129D01*
X155387820Y-118488442D01*
X155387819Y-118488441D01*
X155387816Y-118488435D01*
X155308029Y-118369026D01*
X155308026Y-118369022D01*
X155206477Y-118267473D01*
X155206473Y-118267470D01*
X155087064Y-118187683D01*
X155087055Y-118187678D01*
X154954371Y-118132719D01*
X154954363Y-118132717D01*
X154813513Y-118104700D01*
X154813510Y-118104700D01*
X154669890Y-118104700D01*
X154669887Y-118104700D01*
X154529036Y-118132717D01*
X154529028Y-118132719D01*
X154396344Y-118187678D01*
X154396335Y-118187683D01*
X154276926Y-118267470D01*
X154276922Y-118267473D01*
X154175373Y-118369022D01*
X154151883Y-118404178D01*
X154142568Y-118411961D01*
X154136793Y-118422635D01*
X154116259Y-118433948D01*
X154098270Y-118448982D01*
X154084712Y-118451329D01*
X154075597Y-118456352D01*
X154054385Y-118456581D01*
X154040403Y-118459003D01*
X154032427Y-118458462D01*
X154013510Y-118454700D01*
X153976861Y-118454700D01*
X153972682Y-118454417D01*
X153943670Y-118443721D01*
X153914021Y-118435015D01*
X153911188Y-118431745D01*
X153907126Y-118430248D01*
X153888502Y-118405564D01*
X153868266Y-118382211D01*
X153866308Y-118376150D01*
X153865043Y-118374473D01*
X153864822Y-118371549D01*
X153859443Y-118354891D01*
X153846091Y-118287769D01*
X153842781Y-118271129D01*
X153787820Y-118138442D01*
X153787819Y-118138441D01*
X153787816Y-118138435D01*
X153708029Y-118019026D01*
X153708026Y-118019022D01*
X153606477Y-117917473D01*
X153606473Y-117917470D01*
X153487064Y-117837683D01*
X153487055Y-117837678D01*
X153354371Y-117782719D01*
X153354363Y-117782717D01*
X153213513Y-117754700D01*
X153213510Y-117754700D01*
X153069890Y-117754700D01*
X153069887Y-117754700D01*
X152929036Y-117782717D01*
X152929028Y-117782719D01*
X152796344Y-117837678D01*
X152796335Y-117837683D01*
X152676926Y-117917470D01*
X152676922Y-117917473D01*
X152575373Y-118019022D01*
X152551883Y-118054178D01*
X152498270Y-118098982D01*
X152428945Y-118107689D01*
X152424592Y-118106904D01*
X152413511Y-118104700D01*
X152413510Y-118104700D01*
X152269890Y-118104700D01*
X152269887Y-118104700D01*
X152129036Y-118132717D01*
X152129028Y-118132719D01*
X151996344Y-118187678D01*
X151996335Y-118187683D01*
X151876926Y-118267470D01*
X151876922Y-118267473D01*
X151775373Y-118369022D01*
X151751883Y-118404178D01*
X151698270Y-118448982D01*
X151628945Y-118457689D01*
X151624592Y-118456904D01*
X151613511Y-118454700D01*
X151613510Y-118454700D01*
X151469890Y-118454700D01*
X151469887Y-118454700D01*
X151329036Y-118482717D01*
X151329028Y-118482719D01*
X151196344Y-118537678D01*
X151196335Y-118537683D01*
X151076926Y-118617470D01*
X151076922Y-118617473D01*
X150975373Y-118719022D01*
X150975370Y-118719026D01*
X150895583Y-118838435D01*
X150895578Y-118838444D01*
X150840619Y-118971128D01*
X150840617Y-118971136D01*
X150812600Y-119111985D01*
X149870799Y-119111985D01*
X149857767Y-119046471D01*
X149842781Y-118971129D01*
X149787820Y-118838442D01*
X149787819Y-118838441D01*
X149787816Y-118838435D01*
X149708029Y-118719026D01*
X149708026Y-118719022D01*
X149606477Y-118617473D01*
X149606473Y-118617470D01*
X149487064Y-118537683D01*
X149487055Y-118537678D01*
X149354371Y-118482719D01*
X149354363Y-118482717D01*
X149213513Y-118454700D01*
X149213510Y-118454700D01*
X149069890Y-118454700D01*
X149069887Y-118454700D01*
X148929036Y-118482717D01*
X148929028Y-118482719D01*
X148796344Y-118537678D01*
X148796335Y-118537683D01*
X148676926Y-118617470D01*
X148676922Y-118617473D01*
X148575373Y-118719022D01*
X148575370Y-118719026D01*
X148495583Y-118838435D01*
X148495578Y-118838444D01*
X148440619Y-118971128D01*
X148440617Y-118971136D01*
X148412600Y-119111985D01*
X147470799Y-119111985D01*
X147457767Y-119046471D01*
X147442781Y-118971129D01*
X147387820Y-118838442D01*
X147387819Y-118838441D01*
X147387816Y-118838435D01*
X147308029Y-118719026D01*
X147308026Y-118719022D01*
X147206477Y-118617473D01*
X147206473Y-118617470D01*
X147087064Y-118537683D01*
X147087055Y-118537678D01*
X146954371Y-118482719D01*
X146954363Y-118482717D01*
X146813513Y-118454700D01*
X146813510Y-118454700D01*
X146669890Y-118454700D01*
X146669887Y-118454700D01*
X146529036Y-118482717D01*
X146529028Y-118482719D01*
X146396344Y-118537678D01*
X146396335Y-118537683D01*
X146276926Y-118617470D01*
X146276922Y-118617473D01*
X146175373Y-118719022D01*
X146175370Y-118719026D01*
X146095583Y-118838435D01*
X146095578Y-118838444D01*
X146040619Y-118971128D01*
X146040617Y-118971136D01*
X146012600Y-119111985D01*
X140841700Y-119111985D01*
X140841700Y-104716155D01*
X142393200Y-104716155D01*
X142393200Y-105212500D01*
X143222773Y-105212500D01*
X143177492Y-105290929D01*
X143147200Y-105403980D01*
X143147200Y-105521020D01*
X143177492Y-105634071D01*
X143222773Y-105712500D01*
X142393200Y-105712500D01*
X142393200Y-106208844D01*
X142399601Y-106268372D01*
X142399603Y-106268379D01*
X142449845Y-106403086D01*
X142449849Y-106403093D01*
X142536009Y-106518187D01*
X142536012Y-106518190D01*
X142651106Y-106604350D01*
X142651113Y-106604354D01*
X142785820Y-106654596D01*
X142785827Y-106654598D01*
X142845355Y-106660999D01*
X142845372Y-106661000D01*
X143068120Y-106661000D01*
X143135159Y-106680685D01*
X143180914Y-106733489D01*
X143190858Y-106802647D01*
X143161833Y-106866203D01*
X143124416Y-106895484D01*
X142963549Y-106977450D01*
X142963539Y-106977457D01*
X142938443Y-106995688D01*
X142938443Y-106995691D01*
X143507606Y-107564852D01*
X143420129Y-107588292D01*
X143318770Y-107646811D01*
X143236011Y-107729570D01*
X143177492Y-107830929D01*
X143154052Y-107918405D01*
X142584891Y-107349243D01*
X142584888Y-107349243D01*
X142566657Y-107374339D01*
X142566653Y-107374344D01*
X142481005Y-107542436D01*
X142481004Y-107542438D01*
X142422711Y-107721849D01*
X142393200Y-107908176D01*
X142393200Y-108096823D01*
X142422711Y-108283150D01*
X142481004Y-108462561D01*
X142481005Y-108462563D01*
X142566652Y-108630653D01*
X142584889Y-108655755D01*
X142584890Y-108655755D01*
X143154052Y-108086593D01*
X143177492Y-108174071D01*
X143236011Y-108275430D01*
X143318770Y-108358189D01*
X143420129Y-108416708D01*
X143507605Y-108440147D01*
X142938443Y-109009308D01*
X142938443Y-109009309D01*
X142963544Y-109027546D01*
X143131635Y-109113194D01*
X143131638Y-109113195D01*
X143311049Y-109171488D01*
X143497377Y-109201000D01*
X143686023Y-109201000D01*
X143872350Y-109171488D01*
X144051761Y-109113195D01*
X144051764Y-109113194D01*
X144219851Y-109027548D01*
X144244955Y-109009308D01*
X144244956Y-109009308D01*
X143675795Y-108440147D01*
X143763271Y-108416708D01*
X143864630Y-108358189D01*
X143947389Y-108275430D01*
X144005908Y-108174071D01*
X144029347Y-108086594D01*
X144598508Y-108655756D01*
X144598508Y-108655755D01*
X144616748Y-108630651D01*
X144702394Y-108462564D01*
X144702395Y-108462561D01*
X144760688Y-108283150D01*
X144790200Y-108096823D01*
X144790200Y-107908176D01*
X144760688Y-107721849D01*
X144702395Y-107542438D01*
X144702394Y-107542435D01*
X144616746Y-107374344D01*
X144598509Y-107349243D01*
X144598508Y-107349243D01*
X144029347Y-107918404D01*
X144005908Y-107830929D01*
X143947389Y-107729570D01*
X143864630Y-107646811D01*
X143763271Y-107588292D01*
X143675794Y-107564852D01*
X144244955Y-106995690D01*
X144244955Y-106995689D01*
X144219850Y-106977451D01*
X144058984Y-106895484D01*
X144008189Y-106847510D01*
X143991394Y-106779689D01*
X144013932Y-106713554D01*
X144068647Y-106670103D01*
X144115280Y-106661000D01*
X144338028Y-106661000D01*
X144338044Y-106660999D01*
X144397572Y-106654598D01*
X144397579Y-106654596D01*
X144532286Y-106604354D01*
X144532293Y-106604350D01*
X144647387Y-106518190D01*
X144647390Y-106518187D01*
X144733550Y-106403093D01*
X144733554Y-106403086D01*
X144783796Y-106268379D01*
X144783798Y-106268372D01*
X144790199Y-106208844D01*
X144790200Y-106208827D01*
X144790200Y-105712500D01*
X143960627Y-105712500D01*
X144005908Y-105634071D01*
X144036200Y-105521020D01*
X144036200Y-105403980D01*
X144005908Y-105290929D01*
X143960627Y-105212500D01*
X144790200Y-105212500D01*
X144790200Y-104716172D01*
X144790199Y-104716155D01*
X144783798Y-104656627D01*
X144783796Y-104656620D01*
X144733554Y-104521913D01*
X144733550Y-104521906D01*
X144647390Y-104406812D01*
X144647387Y-104406809D01*
X144532293Y-104320649D01*
X144532286Y-104320645D01*
X144397579Y-104270403D01*
X144397572Y-104270401D01*
X144338044Y-104264000D01*
X143841700Y-104264000D01*
X143841700Y-105093572D01*
X143763271Y-105048292D01*
X143650220Y-105018000D01*
X143533180Y-105018000D01*
X143420129Y-105048292D01*
X143341700Y-105093572D01*
X143341700Y-104264000D01*
X142845355Y-104264000D01*
X142785827Y-104270401D01*
X142785820Y-104270403D01*
X142651113Y-104320645D01*
X142651106Y-104320649D01*
X142536012Y-104406809D01*
X142536009Y-104406812D01*
X142449849Y-104521906D01*
X142449845Y-104521913D01*
X142399603Y-104656620D01*
X142399601Y-104656627D01*
X142393200Y-104716155D01*
X140841700Y-104716155D01*
X140841700Y-104032210D01*
X140844083Y-104008019D01*
X140855919Y-103948517D01*
X140874429Y-103903826D01*
X140901224Y-103863724D01*
X140935424Y-103829524D01*
X140975526Y-103802729D01*
X141020214Y-103784219D01*
X141079728Y-103772381D01*
X141103911Y-103770000D01*
X144879489Y-103770000D01*
X144903680Y-103772383D01*
X144963180Y-103784218D01*
X145007875Y-103802730D01*
X145047972Y-103829522D01*
X145082177Y-103863727D01*
X145108967Y-103903822D01*
X145127481Y-103948517D01*
X145131242Y-103967427D01*
X145139317Y-104008019D01*
X145141700Y-104032210D01*
X145141700Y-104997001D01*
X145132262Y-105044452D01*
X145130822Y-105047926D01*
X145078293Y-105209597D01*
X145051700Y-105377496D01*
X145051700Y-105547503D01*
X145078292Y-105715401D01*
X145130824Y-105877077D01*
X145132258Y-105880537D01*
X145141700Y-105927996D01*
X145141700Y-107537001D01*
X145132262Y-107584452D01*
X145130822Y-107587926D01*
X145078293Y-107749597D01*
X145051700Y-107917496D01*
X145051700Y-108087503D01*
X145078292Y-108255401D01*
X145130824Y-108417077D01*
X145132258Y-108420537D01*
X145141700Y-108467996D01*
X145141700Y-111407910D01*
X145122015Y-111474949D01*
X145086594Y-111511010D01*
X145076927Y-111517469D01*
X145076922Y-111517473D01*
X144975373Y-111619022D01*
X144975370Y-111619026D01*
X144895583Y-111738435D01*
X144895578Y-111738444D01*
X144840619Y-111871128D01*
X144840617Y-111871136D01*
X144812600Y-112011985D01*
X144812600Y-112155614D01*
X144840617Y-112296463D01*
X144840619Y-112296471D01*
X144895578Y-112429155D01*
X144895583Y-112429164D01*
X144975370Y-112548573D01*
X144975373Y-112548577D01*
X145076922Y-112650126D01*
X145076925Y-112650128D01*
X145076926Y-112650129D01*
X145086589Y-112656586D01*
X145131394Y-112710195D01*
X145141700Y-112759688D01*
X145141700Y-113607910D01*
X145141248Y-113609447D01*
X145141662Y-113610998D01*
X145131431Y-113642881D01*
X145122015Y-113674949D01*
X145120647Y-113676488D01*
X145120314Y-113677527D01*
X145115306Y-113682499D01*
X145096544Y-113703616D01*
X145091746Y-113707568D01*
X145076926Y-113717471D01*
X145063835Y-113730561D01*
X145059215Y-113734368D01*
X145032356Y-113745834D01*
X145006724Y-113759829D01*
X145000601Y-113759390D01*
X144994956Y-113761801D01*
X144966160Y-113756926D01*
X144937033Y-113754842D01*
X144931020Y-113750977D01*
X144926066Y-113750139D01*
X144917327Y-113742177D01*
X144892690Y-113726343D01*
X144786415Y-113620068D01*
X144786411Y-113620065D01*
X144646464Y-113526555D01*
X144646455Y-113526550D01*
X144490949Y-113462138D01*
X144490941Y-113462136D01*
X144325865Y-113429300D01*
X144325861Y-113429300D01*
X144157539Y-113429300D01*
X144157534Y-113429300D01*
X143992458Y-113462136D01*
X143992450Y-113462138D01*
X143836944Y-113526550D01*
X143836935Y-113526555D01*
X143696988Y-113620065D01*
X143696984Y-113620068D01*
X143577968Y-113739084D01*
X143577965Y-113739088D01*
X143484455Y-113879035D01*
X143484450Y-113879044D01*
X143420038Y-114034550D01*
X143420036Y-114034558D01*
X143387200Y-114199634D01*
X143387200Y-114367965D01*
X143420036Y-114533041D01*
X143420038Y-114533049D01*
X143484450Y-114688555D01*
X143484455Y-114688564D01*
X143577965Y-114828511D01*
X143577968Y-114828515D01*
X143696984Y-114947531D01*
X143696988Y-114947534D01*
X143836935Y-115041044D01*
X143836941Y-115041047D01*
X143836942Y-115041048D01*
X143992451Y-115105462D01*
X144157534Y-115138299D01*
X144157538Y-115138300D01*
X144157539Y-115138300D01*
X144325862Y-115138300D01*
X144325863Y-115138299D01*
X144490949Y-115105462D01*
X144646458Y-115041048D01*
X144786412Y-114947534D01*
X144892691Y-114841254D01*
X144954012Y-114807771D01*
X145023704Y-114812755D01*
X145068052Y-114841256D01*
X145076922Y-114850126D01*
X145076926Y-114850129D01*
X145196335Y-114929916D01*
X145196344Y-114929921D01*
X145206431Y-114934099D01*
X145329029Y-114984881D01*
X145469885Y-115012899D01*
X145469888Y-115012900D01*
X145469890Y-115012900D01*
X145613512Y-115012900D01*
X145613513Y-115012899D01*
X145754371Y-114984881D01*
X145887058Y-114929920D01*
X146006474Y-114850129D01*
X146051472Y-114805130D01*
X146078336Y-114790461D01*
X146104077Y-114773876D01*
X146110383Y-114772961D01*
X146112793Y-114771646D01*
X146138998Y-114768812D01*
X146144099Y-114768807D01*
X146211157Y-114788412D01*
X146231923Y-114805126D01*
X146276922Y-114850126D01*
X146276926Y-114850129D01*
X146396335Y-114929916D01*
X146396344Y-114929921D01*
X146406431Y-114934099D01*
X146529029Y-114984881D01*
X146669885Y-115012899D01*
X146669888Y-115012900D01*
X146669890Y-115012900D01*
X146813512Y-115012900D01*
X146813513Y-115012899D01*
X146954371Y-114984881D01*
X147087058Y-114929920D01*
X147206474Y-114850129D01*
X147252772Y-114803830D01*
X147314093Y-114770346D01*
X147340309Y-114767512D01*
X148541516Y-114766213D01*
X148608574Y-114785824D01*
X148629329Y-114802532D01*
X148676922Y-114850126D01*
X148676926Y-114850129D01*
X148796335Y-114929916D01*
X148796344Y-114929921D01*
X148806431Y-114934099D01*
X148929029Y-114984881D01*
X149069885Y-115012899D01*
X149069888Y-115012900D01*
X149069890Y-115012900D01*
X149213512Y-115012900D01*
X149213513Y-115012899D01*
X149354371Y-114984881D01*
X149487058Y-114929920D01*
X149606474Y-114850129D01*
X149655372Y-114801230D01*
X149716693Y-114767746D01*
X149742908Y-114764913D01*
X150938921Y-114763618D01*
X151005980Y-114783230D01*
X151026735Y-114799938D01*
X151076922Y-114850126D01*
X151076926Y-114850129D01*
X151196335Y-114929916D01*
X151196344Y-114929921D01*
X151206431Y-114934099D01*
X151329029Y-114984881D01*
X151469885Y-115012899D01*
X151469888Y-115012900D01*
X151469890Y-115012900D01*
X151613512Y-115012900D01*
X151613513Y-115012899D01*
X151754371Y-114984881D01*
X151887058Y-114929920D01*
X152006474Y-114850129D01*
X152057972Y-114798630D01*
X152119293Y-114765146D01*
X152145507Y-114762313D01*
X153336329Y-114761024D01*
X153403385Y-114780635D01*
X153424140Y-114797343D01*
X153476922Y-114850126D01*
X153476926Y-114850129D01*
X153596335Y-114929916D01*
X153596344Y-114929921D01*
X153606431Y-114934099D01*
X153729029Y-114984881D01*
X153869885Y-115012899D01*
X153869888Y-115012900D01*
X153869890Y-115012900D01*
X154013512Y-115012900D01*
X154013513Y-115012899D01*
X154154371Y-114984881D01*
X154287058Y-114929920D01*
X154406474Y-114850129D01*
X154460572Y-114796030D01*
X154521893Y-114762546D01*
X154548106Y-114759713D01*
X155733734Y-114758430D01*
X155800791Y-114778041D01*
X155821540Y-114794743D01*
X155855308Y-114828511D01*
X155876927Y-114850130D01*
X155996335Y-114929916D01*
X155996344Y-114929921D01*
X156006431Y-114934099D01*
X156129029Y-114984881D01*
X156269885Y-115012899D01*
X156269888Y-115012900D01*
X156269890Y-115012900D01*
X156413512Y-115012900D01*
X156413513Y-115012899D01*
X156554371Y-114984881D01*
X156687058Y-114929920D01*
X156806474Y-114850129D01*
X156863174Y-114793428D01*
X156924493Y-114759946D01*
X156950704Y-114757113D01*
X158131139Y-114755836D01*
X158198197Y-114775447D01*
X158218946Y-114792149D01*
X158255308Y-114828511D01*
X158276927Y-114850130D01*
X158396335Y-114929916D01*
X158396344Y-114929921D01*
X158406431Y-114934099D01*
X158529029Y-114984881D01*
X158669885Y-115012899D01*
X158669888Y-115012900D01*
X158669890Y-115012900D01*
X158813512Y-115012900D01*
X158813513Y-115012899D01*
X158954371Y-114984881D01*
X159087058Y-114929920D01*
X159206474Y-114850129D01*
X159265773Y-114790829D01*
X159327092Y-114757347D01*
X159353312Y-114754513D01*
X159723216Y-114754113D01*
X159790272Y-114773724D01*
X159811027Y-114790431D01*
X159876922Y-114856326D01*
X159876926Y-114856329D01*
X159996335Y-114936116D01*
X159996344Y-114936121D01*
X160023890Y-114947531D01*
X160129029Y-114991081D01*
X160238721Y-115012900D01*
X160269885Y-115019099D01*
X160269888Y-115019100D01*
X160269890Y-115019100D01*
X160413512Y-115019100D01*
X160413513Y-115019099D01*
X160554371Y-114991081D01*
X160687058Y-114936120D01*
X160687068Y-114936113D01*
X160689572Y-114934775D01*
X160691047Y-114934467D01*
X160692686Y-114933789D01*
X160692814Y-114934099D01*
X160757974Y-114920527D01*
X160795489Y-114929567D01*
X160838866Y-114947534D01*
X160929029Y-114984881D01*
X161069885Y-115012899D01*
X161069888Y-115012900D01*
X161069890Y-115012900D01*
X161213512Y-115012900D01*
X161213513Y-115012899D01*
X161354371Y-114984881D01*
X161487058Y-114929920D01*
X161606474Y-114850129D01*
X161668373Y-114788229D01*
X161729692Y-114754747D01*
X161755910Y-114751913D01*
X162925952Y-114750647D01*
X162993007Y-114770258D01*
X163013757Y-114786960D01*
X163055308Y-114828511D01*
X163076927Y-114850130D01*
X163196335Y-114929916D01*
X163196344Y-114929921D01*
X163206431Y-114934099D01*
X163329029Y-114984881D01*
X163469885Y-115012899D01*
X163469888Y-115012900D01*
X163469890Y-115012900D01*
X163613512Y-115012900D01*
X163613513Y-115012899D01*
X163754371Y-114984881D01*
X163887058Y-114929920D01*
X164006474Y-114850129D01*
X164070973Y-114785629D01*
X164132292Y-114752147D01*
X164158509Y-114749313D01*
X166041700Y-114747276D01*
X166041700Y-111559056D01*
X166061385Y-111492017D01*
X166114189Y-111446262D01*
X166141508Y-111437439D01*
X166154371Y-111434881D01*
X166287058Y-111379920D01*
X166406474Y-111300129D01*
X166508029Y-111198574D01*
X166587820Y-111079158D01*
X166642781Y-110946471D01*
X166670800Y-110805610D01*
X166670800Y-110661990D01*
X166670800Y-110661987D01*
X166670799Y-110661985D01*
X166657767Y-110596471D01*
X166642781Y-110521129D01*
X166587820Y-110388442D01*
X166587819Y-110388441D01*
X166587816Y-110388435D01*
X166508029Y-110269026D01*
X166508026Y-110269022D01*
X166406477Y-110167473D01*
X166406473Y-110167470D01*
X166287064Y-110087683D01*
X166287055Y-110087678D01*
X166154371Y-110032719D01*
X166154365Y-110032717D01*
X166141508Y-110030160D01*
X166079597Y-109997775D01*
X166045023Y-109937059D01*
X166041700Y-109908543D01*
X166041700Y-107366498D01*
X166061385Y-107299459D01*
X166078015Y-107278820D01*
X166108027Y-107248809D01*
X166187818Y-107129393D01*
X166242779Y-106996706D01*
X166270798Y-106855845D01*
X166270798Y-106712225D01*
X166270798Y-106712222D01*
X166270797Y-106712220D01*
X166260609Y-106661000D01*
X166242779Y-106571364D01*
X166187818Y-106438677D01*
X166187817Y-106438676D01*
X166187814Y-106438670D01*
X166108027Y-106319261D01*
X166108024Y-106319257D01*
X166078019Y-106289252D01*
X166044534Y-106227929D01*
X166041700Y-106201571D01*
X166041700Y-104266265D01*
X166061385Y-104199226D01*
X166078015Y-104178587D01*
X166108029Y-104148574D01*
X166187820Y-104029158D01*
X166242781Y-103896471D01*
X166270800Y-103755610D01*
X166270800Y-103611990D01*
X166270800Y-103611987D01*
X166270799Y-103611985D01*
X166242782Y-103471136D01*
X166242781Y-103471129D01*
X166187820Y-103338442D01*
X166187819Y-103338441D01*
X166187816Y-103338435D01*
X166108029Y-103219026D01*
X166108026Y-103219022D01*
X166078019Y-103189015D01*
X166044534Y-103127692D01*
X166041700Y-103101334D01*
X166041700Y-102605500D01*
X166061385Y-102538461D01*
X166114189Y-102492706D01*
X166165700Y-102481500D01*
X166888038Y-102481500D01*
X166955077Y-102501185D01*
G37*
%TD.AperFunction*%
%TD*%
M02*
