%TF.GenerationSoftware,KiCad,Pcbnew,9.0.1*%
%TF.CreationDate,2026-03-30T06:27:29-10:00*%
%TF.ProjectId,SRAM_exp,5352414d-5f65-4787-902e-6b696361645f,rev?*%
%TF.SameCoordinates,Original*%
%TF.FileFunction,Copper,L2,Inr*%
%TF.FilePolarity,Positive*%
%FSLAX46Y46*%
G04 Gerber Fmt 4.6, Leading zero omitted, Abs format (unit mm)*
G04 Created by KiCad (PCBNEW 9.0.1) date 2026-03-30 06:27:29*
%MOMM*%
%LPD*%
G01*
G04 APERTURE LIST*
%ADD10C,0.100000*%
%ADD11C,0.150000*%
%ADD12C,0.300000*%
%ADD13C,0.400000*%
%TA.AperFunction,NonConductor*%
%ADD14C,0.200000*%
%TD*%
%TA.AperFunction,ComponentPad*%
%ADD15R,0.850000X0.850000*%
%TD*%
%TA.AperFunction,ComponentPad*%
%ADD16R,1.397000X1.397000*%
%TD*%
%TA.AperFunction,ComponentPad*%
%ADD17C,1.397000*%
%TD*%
%TA.AperFunction,ComponentPad*%
%ADD18R,1.000000X1.000000*%
%TD*%
%TA.AperFunction,ComponentPad*%
%ADD19C,0.900000*%
%TD*%
%TA.AperFunction,ComponentPad*%
%ADD20C,8.000000*%
%TD*%
%TA.AperFunction,ComponentPad*%
%ADD21C,1.750000*%
%TD*%
%TA.AperFunction,ViaPad*%
%ADD22C,0.457200*%
%TD*%
G04 APERTURE END LIST*
D10*
D11*
X177002200Y-166007200D02*
X285002200Y-166007200D01*
X285002200Y-198007200D01*
X177002200Y-198007200D01*
X177002200Y-166007200D01*
D10*
D11*
X10000000Y-10000000D02*
X287002200Y-10000000D01*
X287002200Y-200007200D01*
X10000000Y-200007200D01*
X10000000Y-10000000D01*
D10*
D11*
X12000000Y-12000000D02*
X285002200Y-12000000D01*
X285002200Y-198007200D01*
X12000000Y-198007200D01*
X12000000Y-12000000D01*
D10*
D11*
X60000000Y-12000000D02*
X60000000Y-10000000D01*
D10*
D11*
X110000000Y-12000000D02*
X110000000Y-10000000D01*
D10*
D11*
X160000000Y-12000000D02*
X160000000Y-10000000D01*
D10*
D11*
X210000000Y-12000000D02*
X210000000Y-10000000D01*
D10*
D11*
X260000000Y-12000000D02*
X260000000Y-10000000D01*
D10*
D11*
X36089160Y-11593604D02*
X35346303Y-11593604D01*
X35717731Y-11593604D02*
X35717731Y-10293604D01*
X35717731Y-10293604D02*
X35593922Y-10479319D01*
X35593922Y-10479319D02*
X35470112Y-10603128D01*
X35470112Y-10603128D02*
X35346303Y-10665033D01*
D10*
D11*
X85346303Y-10417414D02*
X85408207Y-10355509D01*
X85408207Y-10355509D02*
X85532017Y-10293604D01*
X85532017Y-10293604D02*
X85841541Y-10293604D01*
X85841541Y-10293604D02*
X85965350Y-10355509D01*
X85965350Y-10355509D02*
X86027255Y-10417414D01*
X86027255Y-10417414D02*
X86089160Y-10541223D01*
X86089160Y-10541223D02*
X86089160Y-10665033D01*
X86089160Y-10665033D02*
X86027255Y-10850747D01*
X86027255Y-10850747D02*
X85284398Y-11593604D01*
X85284398Y-11593604D02*
X86089160Y-11593604D01*
D10*
D11*
X135284398Y-10293604D02*
X136089160Y-10293604D01*
X136089160Y-10293604D02*
X135655826Y-10788842D01*
X135655826Y-10788842D02*
X135841541Y-10788842D01*
X135841541Y-10788842D02*
X135965350Y-10850747D01*
X135965350Y-10850747D02*
X136027255Y-10912652D01*
X136027255Y-10912652D02*
X136089160Y-11036461D01*
X136089160Y-11036461D02*
X136089160Y-11345985D01*
X136089160Y-11345985D02*
X136027255Y-11469795D01*
X136027255Y-11469795D02*
X135965350Y-11531700D01*
X135965350Y-11531700D02*
X135841541Y-11593604D01*
X135841541Y-11593604D02*
X135470112Y-11593604D01*
X135470112Y-11593604D02*
X135346303Y-11531700D01*
X135346303Y-11531700D02*
X135284398Y-11469795D01*
D10*
D11*
X185965350Y-10726938D02*
X185965350Y-11593604D01*
X185655826Y-10231700D02*
X185346303Y-11160271D01*
X185346303Y-11160271D02*
X186151064Y-11160271D01*
D10*
D11*
X236027255Y-10293604D02*
X235408207Y-10293604D01*
X235408207Y-10293604D02*
X235346303Y-10912652D01*
X235346303Y-10912652D02*
X235408207Y-10850747D01*
X235408207Y-10850747D02*
X235532017Y-10788842D01*
X235532017Y-10788842D02*
X235841541Y-10788842D01*
X235841541Y-10788842D02*
X235965350Y-10850747D01*
X235965350Y-10850747D02*
X236027255Y-10912652D01*
X236027255Y-10912652D02*
X236089160Y-11036461D01*
X236089160Y-11036461D02*
X236089160Y-11345985D01*
X236089160Y-11345985D02*
X236027255Y-11469795D01*
X236027255Y-11469795D02*
X235965350Y-11531700D01*
X235965350Y-11531700D02*
X235841541Y-11593604D01*
X235841541Y-11593604D02*
X235532017Y-11593604D01*
X235532017Y-11593604D02*
X235408207Y-11531700D01*
X235408207Y-11531700D02*
X235346303Y-11469795D01*
D10*
D11*
X285965350Y-10293604D02*
X285717731Y-10293604D01*
X285717731Y-10293604D02*
X285593922Y-10355509D01*
X285593922Y-10355509D02*
X285532017Y-10417414D01*
X285532017Y-10417414D02*
X285408207Y-10603128D01*
X285408207Y-10603128D02*
X285346303Y-10850747D01*
X285346303Y-10850747D02*
X285346303Y-11345985D01*
X285346303Y-11345985D02*
X285408207Y-11469795D01*
X285408207Y-11469795D02*
X285470112Y-11531700D01*
X285470112Y-11531700D02*
X285593922Y-11593604D01*
X285593922Y-11593604D02*
X285841541Y-11593604D01*
X285841541Y-11593604D02*
X285965350Y-11531700D01*
X285965350Y-11531700D02*
X286027255Y-11469795D01*
X286027255Y-11469795D02*
X286089160Y-11345985D01*
X286089160Y-11345985D02*
X286089160Y-11036461D01*
X286089160Y-11036461D02*
X286027255Y-10912652D01*
X286027255Y-10912652D02*
X285965350Y-10850747D01*
X285965350Y-10850747D02*
X285841541Y-10788842D01*
X285841541Y-10788842D02*
X285593922Y-10788842D01*
X285593922Y-10788842D02*
X285470112Y-10850747D01*
X285470112Y-10850747D02*
X285408207Y-10912652D01*
X285408207Y-10912652D02*
X285346303Y-11036461D01*
D10*
D11*
X60000000Y-198007200D02*
X60000000Y-200007200D01*
D10*
D11*
X110000000Y-198007200D02*
X110000000Y-200007200D01*
D10*
D11*
X160000000Y-198007200D02*
X160000000Y-200007200D01*
D10*
D11*
X210000000Y-198007200D02*
X210000000Y-200007200D01*
D10*
D11*
X260000000Y-198007200D02*
X260000000Y-200007200D01*
D10*
D11*
X36089160Y-199600804D02*
X35346303Y-199600804D01*
X35717731Y-199600804D02*
X35717731Y-198300804D01*
X35717731Y-198300804D02*
X35593922Y-198486519D01*
X35593922Y-198486519D02*
X35470112Y-198610328D01*
X35470112Y-198610328D02*
X35346303Y-198672233D01*
D10*
D11*
X85346303Y-198424614D02*
X85408207Y-198362709D01*
X85408207Y-198362709D02*
X85532017Y-198300804D01*
X85532017Y-198300804D02*
X85841541Y-198300804D01*
X85841541Y-198300804D02*
X85965350Y-198362709D01*
X85965350Y-198362709D02*
X86027255Y-198424614D01*
X86027255Y-198424614D02*
X86089160Y-198548423D01*
X86089160Y-198548423D02*
X86089160Y-198672233D01*
X86089160Y-198672233D02*
X86027255Y-198857947D01*
X86027255Y-198857947D02*
X85284398Y-199600804D01*
X85284398Y-199600804D02*
X86089160Y-199600804D01*
D10*
D11*
X135284398Y-198300804D02*
X136089160Y-198300804D01*
X136089160Y-198300804D02*
X135655826Y-198796042D01*
X135655826Y-198796042D02*
X135841541Y-198796042D01*
X135841541Y-198796042D02*
X135965350Y-198857947D01*
X135965350Y-198857947D02*
X136027255Y-198919852D01*
X136027255Y-198919852D02*
X136089160Y-199043661D01*
X136089160Y-199043661D02*
X136089160Y-199353185D01*
X136089160Y-199353185D02*
X136027255Y-199476995D01*
X136027255Y-199476995D02*
X135965350Y-199538900D01*
X135965350Y-199538900D02*
X135841541Y-199600804D01*
X135841541Y-199600804D02*
X135470112Y-199600804D01*
X135470112Y-199600804D02*
X135346303Y-199538900D01*
X135346303Y-199538900D02*
X135284398Y-199476995D01*
D10*
D11*
X185965350Y-198734138D02*
X185965350Y-199600804D01*
X185655826Y-198238900D02*
X185346303Y-199167471D01*
X185346303Y-199167471D02*
X186151064Y-199167471D01*
D10*
D11*
X236027255Y-198300804D02*
X235408207Y-198300804D01*
X235408207Y-198300804D02*
X235346303Y-198919852D01*
X235346303Y-198919852D02*
X235408207Y-198857947D01*
X235408207Y-198857947D02*
X235532017Y-198796042D01*
X235532017Y-198796042D02*
X235841541Y-198796042D01*
X235841541Y-198796042D02*
X235965350Y-198857947D01*
X235965350Y-198857947D02*
X236027255Y-198919852D01*
X236027255Y-198919852D02*
X236089160Y-199043661D01*
X236089160Y-199043661D02*
X236089160Y-199353185D01*
X236089160Y-199353185D02*
X236027255Y-199476995D01*
X236027255Y-199476995D02*
X235965350Y-199538900D01*
X235965350Y-199538900D02*
X235841541Y-199600804D01*
X235841541Y-199600804D02*
X235532017Y-199600804D01*
X235532017Y-199600804D02*
X235408207Y-199538900D01*
X235408207Y-199538900D02*
X235346303Y-199476995D01*
D10*
D11*
X285965350Y-198300804D02*
X285717731Y-198300804D01*
X285717731Y-198300804D02*
X285593922Y-198362709D01*
X285593922Y-198362709D02*
X285532017Y-198424614D01*
X285532017Y-198424614D02*
X285408207Y-198610328D01*
X285408207Y-198610328D02*
X285346303Y-198857947D01*
X285346303Y-198857947D02*
X285346303Y-199353185D01*
X285346303Y-199353185D02*
X285408207Y-199476995D01*
X285408207Y-199476995D02*
X285470112Y-199538900D01*
X285470112Y-199538900D02*
X285593922Y-199600804D01*
X285593922Y-199600804D02*
X285841541Y-199600804D01*
X285841541Y-199600804D02*
X285965350Y-199538900D01*
X285965350Y-199538900D02*
X286027255Y-199476995D01*
X286027255Y-199476995D02*
X286089160Y-199353185D01*
X286089160Y-199353185D02*
X286089160Y-199043661D01*
X286089160Y-199043661D02*
X286027255Y-198919852D01*
X286027255Y-198919852D02*
X285965350Y-198857947D01*
X285965350Y-198857947D02*
X285841541Y-198796042D01*
X285841541Y-198796042D02*
X285593922Y-198796042D01*
X285593922Y-198796042D02*
X285470112Y-198857947D01*
X285470112Y-198857947D02*
X285408207Y-198919852D01*
X285408207Y-198919852D02*
X285346303Y-199043661D01*
D10*
D11*
X10000000Y-60000000D02*
X12000000Y-60000000D01*
D10*
D11*
X10000000Y-110000000D02*
X12000000Y-110000000D01*
D10*
D11*
X10000000Y-160000000D02*
X12000000Y-160000000D01*
D10*
D11*
X10690476Y-35222176D02*
X11309523Y-35222176D01*
X10566666Y-35593604D02*
X10999999Y-34293604D01*
X10999999Y-34293604D02*
X11433333Y-35593604D01*
D10*
D11*
X11092857Y-84912652D02*
X11278571Y-84974557D01*
X11278571Y-84974557D02*
X11340476Y-85036461D01*
X11340476Y-85036461D02*
X11402380Y-85160271D01*
X11402380Y-85160271D02*
X11402380Y-85345985D01*
X11402380Y-85345985D02*
X11340476Y-85469795D01*
X11340476Y-85469795D02*
X11278571Y-85531700D01*
X11278571Y-85531700D02*
X11154761Y-85593604D01*
X11154761Y-85593604D02*
X10659523Y-85593604D01*
X10659523Y-85593604D02*
X10659523Y-84293604D01*
X10659523Y-84293604D02*
X11092857Y-84293604D01*
X11092857Y-84293604D02*
X11216666Y-84355509D01*
X11216666Y-84355509D02*
X11278571Y-84417414D01*
X11278571Y-84417414D02*
X11340476Y-84541223D01*
X11340476Y-84541223D02*
X11340476Y-84665033D01*
X11340476Y-84665033D02*
X11278571Y-84788842D01*
X11278571Y-84788842D02*
X11216666Y-84850747D01*
X11216666Y-84850747D02*
X11092857Y-84912652D01*
X11092857Y-84912652D02*
X10659523Y-84912652D01*
D10*
D11*
X11402380Y-135469795D02*
X11340476Y-135531700D01*
X11340476Y-135531700D02*
X11154761Y-135593604D01*
X11154761Y-135593604D02*
X11030952Y-135593604D01*
X11030952Y-135593604D02*
X10845238Y-135531700D01*
X10845238Y-135531700D02*
X10721428Y-135407890D01*
X10721428Y-135407890D02*
X10659523Y-135284080D01*
X10659523Y-135284080D02*
X10597619Y-135036461D01*
X10597619Y-135036461D02*
X10597619Y-134850747D01*
X10597619Y-134850747D02*
X10659523Y-134603128D01*
X10659523Y-134603128D02*
X10721428Y-134479319D01*
X10721428Y-134479319D02*
X10845238Y-134355509D01*
X10845238Y-134355509D02*
X11030952Y-134293604D01*
X11030952Y-134293604D02*
X11154761Y-134293604D01*
X11154761Y-134293604D02*
X11340476Y-134355509D01*
X11340476Y-134355509D02*
X11402380Y-134417414D01*
D10*
D11*
X10659523Y-185593604D02*
X10659523Y-184293604D01*
X10659523Y-184293604D02*
X10969047Y-184293604D01*
X10969047Y-184293604D02*
X11154761Y-184355509D01*
X11154761Y-184355509D02*
X11278571Y-184479319D01*
X11278571Y-184479319D02*
X11340476Y-184603128D01*
X11340476Y-184603128D02*
X11402380Y-184850747D01*
X11402380Y-184850747D02*
X11402380Y-185036461D01*
X11402380Y-185036461D02*
X11340476Y-185284080D01*
X11340476Y-185284080D02*
X11278571Y-185407890D01*
X11278571Y-185407890D02*
X11154761Y-185531700D01*
X11154761Y-185531700D02*
X10969047Y-185593604D01*
X10969047Y-185593604D02*
X10659523Y-185593604D01*
D10*
D11*
X287002200Y-60000000D02*
X285002200Y-60000000D01*
D10*
D11*
X287002200Y-110000000D02*
X285002200Y-110000000D01*
D10*
D11*
X287002200Y-160000000D02*
X285002200Y-160000000D01*
D10*
D11*
X285692676Y-35222176D02*
X286311723Y-35222176D01*
X285568866Y-35593604D02*
X286002199Y-34293604D01*
X286002199Y-34293604D02*
X286435533Y-35593604D01*
D10*
D11*
X286095057Y-84912652D02*
X286280771Y-84974557D01*
X286280771Y-84974557D02*
X286342676Y-85036461D01*
X286342676Y-85036461D02*
X286404580Y-85160271D01*
X286404580Y-85160271D02*
X286404580Y-85345985D01*
X286404580Y-85345985D02*
X286342676Y-85469795D01*
X286342676Y-85469795D02*
X286280771Y-85531700D01*
X286280771Y-85531700D02*
X286156961Y-85593604D01*
X286156961Y-85593604D02*
X285661723Y-85593604D01*
X285661723Y-85593604D02*
X285661723Y-84293604D01*
X285661723Y-84293604D02*
X286095057Y-84293604D01*
X286095057Y-84293604D02*
X286218866Y-84355509D01*
X286218866Y-84355509D02*
X286280771Y-84417414D01*
X286280771Y-84417414D02*
X286342676Y-84541223D01*
X286342676Y-84541223D02*
X286342676Y-84665033D01*
X286342676Y-84665033D02*
X286280771Y-84788842D01*
X286280771Y-84788842D02*
X286218866Y-84850747D01*
X286218866Y-84850747D02*
X286095057Y-84912652D01*
X286095057Y-84912652D02*
X285661723Y-84912652D01*
D10*
D11*
X286404580Y-135469795D02*
X286342676Y-135531700D01*
X286342676Y-135531700D02*
X286156961Y-135593604D01*
X286156961Y-135593604D02*
X286033152Y-135593604D01*
X286033152Y-135593604D02*
X285847438Y-135531700D01*
X285847438Y-135531700D02*
X285723628Y-135407890D01*
X285723628Y-135407890D02*
X285661723Y-135284080D01*
X285661723Y-135284080D02*
X285599819Y-135036461D01*
X285599819Y-135036461D02*
X285599819Y-134850747D01*
X285599819Y-134850747D02*
X285661723Y-134603128D01*
X285661723Y-134603128D02*
X285723628Y-134479319D01*
X285723628Y-134479319D02*
X285847438Y-134355509D01*
X285847438Y-134355509D02*
X286033152Y-134293604D01*
X286033152Y-134293604D02*
X286156961Y-134293604D01*
X286156961Y-134293604D02*
X286342676Y-134355509D01*
X286342676Y-134355509D02*
X286404580Y-134417414D01*
D10*
D11*
X285661723Y-185593604D02*
X285661723Y-184293604D01*
X285661723Y-184293604D02*
X285971247Y-184293604D01*
X285971247Y-184293604D02*
X286156961Y-184355509D01*
X286156961Y-184355509D02*
X286280771Y-184479319D01*
X286280771Y-184479319D02*
X286342676Y-184603128D01*
X286342676Y-184603128D02*
X286404580Y-184850747D01*
X286404580Y-184850747D02*
X286404580Y-185036461D01*
X286404580Y-185036461D02*
X286342676Y-185284080D01*
X286342676Y-185284080D02*
X286280771Y-185407890D01*
X286280771Y-185407890D02*
X286156961Y-185531700D01*
X286156961Y-185531700D02*
X285971247Y-185593604D01*
X285971247Y-185593604D02*
X285661723Y-185593604D01*
D10*
D11*
X200458026Y-193793328D02*
X200458026Y-192293328D01*
X200458026Y-192293328D02*
X200815169Y-192293328D01*
X200815169Y-192293328D02*
X201029455Y-192364757D01*
X201029455Y-192364757D02*
X201172312Y-192507614D01*
X201172312Y-192507614D02*
X201243741Y-192650471D01*
X201243741Y-192650471D02*
X201315169Y-192936185D01*
X201315169Y-192936185D02*
X201315169Y-193150471D01*
X201315169Y-193150471D02*
X201243741Y-193436185D01*
X201243741Y-193436185D02*
X201172312Y-193579042D01*
X201172312Y-193579042D02*
X201029455Y-193721900D01*
X201029455Y-193721900D02*
X200815169Y-193793328D01*
X200815169Y-193793328D02*
X200458026Y-193793328D01*
X202600884Y-193793328D02*
X202600884Y-193007614D01*
X202600884Y-193007614D02*
X202529455Y-192864757D01*
X202529455Y-192864757D02*
X202386598Y-192793328D01*
X202386598Y-192793328D02*
X202100884Y-192793328D01*
X202100884Y-192793328D02*
X201958026Y-192864757D01*
X202600884Y-193721900D02*
X202458026Y-193793328D01*
X202458026Y-193793328D02*
X202100884Y-193793328D01*
X202100884Y-193793328D02*
X201958026Y-193721900D01*
X201958026Y-193721900D02*
X201886598Y-193579042D01*
X201886598Y-193579042D02*
X201886598Y-193436185D01*
X201886598Y-193436185D02*
X201958026Y-193293328D01*
X201958026Y-193293328D02*
X202100884Y-193221900D01*
X202100884Y-193221900D02*
X202458026Y-193221900D01*
X202458026Y-193221900D02*
X202600884Y-193150471D01*
X203100884Y-192793328D02*
X203672312Y-192793328D01*
X203315169Y-192293328D02*
X203315169Y-193579042D01*
X203315169Y-193579042D02*
X203386598Y-193721900D01*
X203386598Y-193721900D02*
X203529455Y-193793328D01*
X203529455Y-193793328D02*
X203672312Y-193793328D01*
X204743741Y-193721900D02*
X204600884Y-193793328D01*
X204600884Y-193793328D02*
X204315170Y-193793328D01*
X204315170Y-193793328D02*
X204172312Y-193721900D01*
X204172312Y-193721900D02*
X204100884Y-193579042D01*
X204100884Y-193579042D02*
X204100884Y-193007614D01*
X204100884Y-193007614D02*
X204172312Y-192864757D01*
X204172312Y-192864757D02*
X204315170Y-192793328D01*
X204315170Y-192793328D02*
X204600884Y-192793328D01*
X204600884Y-192793328D02*
X204743741Y-192864757D01*
X204743741Y-192864757D02*
X204815170Y-193007614D01*
X204815170Y-193007614D02*
X204815170Y-193150471D01*
X204815170Y-193150471D02*
X204100884Y-193293328D01*
X205458026Y-193650471D02*
X205529455Y-193721900D01*
X205529455Y-193721900D02*
X205458026Y-193793328D01*
X205458026Y-193793328D02*
X205386598Y-193721900D01*
X205386598Y-193721900D02*
X205458026Y-193650471D01*
X205458026Y-193650471D02*
X205458026Y-193793328D01*
X205458026Y-192864757D02*
X205529455Y-192936185D01*
X205529455Y-192936185D02*
X205458026Y-193007614D01*
X205458026Y-193007614D02*
X205386598Y-192936185D01*
X205386598Y-192936185D02*
X205458026Y-192864757D01*
X205458026Y-192864757D02*
X205458026Y-193007614D01*
D10*
D11*
X177002200Y-194507200D02*
X285002200Y-194507200D01*
D10*
D11*
X178458026Y-196593328D02*
X178458026Y-195093328D01*
X179315169Y-196593328D02*
X178672312Y-195736185D01*
X179315169Y-195093328D02*
X178458026Y-195950471D01*
X179958026Y-196593328D02*
X179958026Y-195593328D01*
X179958026Y-195093328D02*
X179886598Y-195164757D01*
X179886598Y-195164757D02*
X179958026Y-195236185D01*
X179958026Y-195236185D02*
X180029455Y-195164757D01*
X180029455Y-195164757D02*
X179958026Y-195093328D01*
X179958026Y-195093328D02*
X179958026Y-195236185D01*
X181529455Y-196450471D02*
X181458027Y-196521900D01*
X181458027Y-196521900D02*
X181243741Y-196593328D01*
X181243741Y-196593328D02*
X181100884Y-196593328D01*
X181100884Y-196593328D02*
X180886598Y-196521900D01*
X180886598Y-196521900D02*
X180743741Y-196379042D01*
X180743741Y-196379042D02*
X180672312Y-196236185D01*
X180672312Y-196236185D02*
X180600884Y-195950471D01*
X180600884Y-195950471D02*
X180600884Y-195736185D01*
X180600884Y-195736185D02*
X180672312Y-195450471D01*
X180672312Y-195450471D02*
X180743741Y-195307614D01*
X180743741Y-195307614D02*
X180886598Y-195164757D01*
X180886598Y-195164757D02*
X181100884Y-195093328D01*
X181100884Y-195093328D02*
X181243741Y-195093328D01*
X181243741Y-195093328D02*
X181458027Y-195164757D01*
X181458027Y-195164757D02*
X181529455Y-195236185D01*
X182815170Y-196593328D02*
X182815170Y-195807614D01*
X182815170Y-195807614D02*
X182743741Y-195664757D01*
X182743741Y-195664757D02*
X182600884Y-195593328D01*
X182600884Y-195593328D02*
X182315170Y-195593328D01*
X182315170Y-195593328D02*
X182172312Y-195664757D01*
X182815170Y-196521900D02*
X182672312Y-196593328D01*
X182672312Y-196593328D02*
X182315170Y-196593328D01*
X182315170Y-196593328D02*
X182172312Y-196521900D01*
X182172312Y-196521900D02*
X182100884Y-196379042D01*
X182100884Y-196379042D02*
X182100884Y-196236185D01*
X182100884Y-196236185D02*
X182172312Y-196093328D01*
X182172312Y-196093328D02*
X182315170Y-196021900D01*
X182315170Y-196021900D02*
X182672312Y-196021900D01*
X182672312Y-196021900D02*
X182815170Y-195950471D01*
X184172313Y-196593328D02*
X184172313Y-195093328D01*
X184172313Y-196521900D02*
X184029455Y-196593328D01*
X184029455Y-196593328D02*
X183743741Y-196593328D01*
X183743741Y-196593328D02*
X183600884Y-196521900D01*
X183600884Y-196521900D02*
X183529455Y-196450471D01*
X183529455Y-196450471D02*
X183458027Y-196307614D01*
X183458027Y-196307614D02*
X183458027Y-195879042D01*
X183458027Y-195879042D02*
X183529455Y-195736185D01*
X183529455Y-195736185D02*
X183600884Y-195664757D01*
X183600884Y-195664757D02*
X183743741Y-195593328D01*
X183743741Y-195593328D02*
X184029455Y-195593328D01*
X184029455Y-195593328D02*
X184172313Y-195664757D01*
X186029455Y-195807614D02*
X186529455Y-195807614D01*
X186743741Y-196593328D02*
X186029455Y-196593328D01*
X186029455Y-196593328D02*
X186029455Y-195093328D01*
X186029455Y-195093328D02*
X186743741Y-195093328D01*
X187386598Y-196450471D02*
X187458027Y-196521900D01*
X187458027Y-196521900D02*
X187386598Y-196593328D01*
X187386598Y-196593328D02*
X187315170Y-196521900D01*
X187315170Y-196521900D02*
X187386598Y-196450471D01*
X187386598Y-196450471D02*
X187386598Y-196593328D01*
X188100884Y-196593328D02*
X188100884Y-195093328D01*
X188100884Y-195093328D02*
X188458027Y-195093328D01*
X188458027Y-195093328D02*
X188672313Y-195164757D01*
X188672313Y-195164757D02*
X188815170Y-195307614D01*
X188815170Y-195307614D02*
X188886599Y-195450471D01*
X188886599Y-195450471D02*
X188958027Y-195736185D01*
X188958027Y-195736185D02*
X188958027Y-195950471D01*
X188958027Y-195950471D02*
X188886599Y-196236185D01*
X188886599Y-196236185D02*
X188815170Y-196379042D01*
X188815170Y-196379042D02*
X188672313Y-196521900D01*
X188672313Y-196521900D02*
X188458027Y-196593328D01*
X188458027Y-196593328D02*
X188100884Y-196593328D01*
X189600884Y-196450471D02*
X189672313Y-196521900D01*
X189672313Y-196521900D02*
X189600884Y-196593328D01*
X189600884Y-196593328D02*
X189529456Y-196521900D01*
X189529456Y-196521900D02*
X189600884Y-196450471D01*
X189600884Y-196450471D02*
X189600884Y-196593328D01*
X190243742Y-196164757D02*
X190958028Y-196164757D01*
X190100885Y-196593328D02*
X190600885Y-195093328D01*
X190600885Y-195093328D02*
X191100885Y-196593328D01*
X191600884Y-196450471D02*
X191672313Y-196521900D01*
X191672313Y-196521900D02*
X191600884Y-196593328D01*
X191600884Y-196593328D02*
X191529456Y-196521900D01*
X191529456Y-196521900D02*
X191600884Y-196450471D01*
X191600884Y-196450471D02*
X191600884Y-196593328D01*
X193529456Y-196593328D02*
X193815170Y-196593328D01*
X193815170Y-196593328D02*
X193958027Y-196521900D01*
X193958027Y-196521900D02*
X194029456Y-196450471D01*
X194029456Y-196450471D02*
X194172313Y-196236185D01*
X194172313Y-196236185D02*
X194243742Y-195950471D01*
X194243742Y-195950471D02*
X194243742Y-195379042D01*
X194243742Y-195379042D02*
X194172313Y-195236185D01*
X194172313Y-195236185D02*
X194100885Y-195164757D01*
X194100885Y-195164757D02*
X193958027Y-195093328D01*
X193958027Y-195093328D02*
X193672313Y-195093328D01*
X193672313Y-195093328D02*
X193529456Y-195164757D01*
X193529456Y-195164757D02*
X193458027Y-195236185D01*
X193458027Y-195236185D02*
X193386599Y-195379042D01*
X193386599Y-195379042D02*
X193386599Y-195736185D01*
X193386599Y-195736185D02*
X193458027Y-195879042D01*
X193458027Y-195879042D02*
X193529456Y-195950471D01*
X193529456Y-195950471D02*
X193672313Y-196021900D01*
X193672313Y-196021900D02*
X193958027Y-196021900D01*
X193958027Y-196021900D02*
X194100885Y-195950471D01*
X194100885Y-195950471D02*
X194172313Y-195879042D01*
X194172313Y-195879042D02*
X194243742Y-195736185D01*
X194886598Y-196450471D02*
X194958027Y-196521900D01*
X194958027Y-196521900D02*
X194886598Y-196593328D01*
X194886598Y-196593328D02*
X194815170Y-196521900D01*
X194815170Y-196521900D02*
X194886598Y-196450471D01*
X194886598Y-196450471D02*
X194886598Y-196593328D01*
X195886599Y-195093328D02*
X196029456Y-195093328D01*
X196029456Y-195093328D02*
X196172313Y-195164757D01*
X196172313Y-195164757D02*
X196243742Y-195236185D01*
X196243742Y-195236185D02*
X196315170Y-195379042D01*
X196315170Y-195379042D02*
X196386599Y-195664757D01*
X196386599Y-195664757D02*
X196386599Y-196021900D01*
X196386599Y-196021900D02*
X196315170Y-196307614D01*
X196315170Y-196307614D02*
X196243742Y-196450471D01*
X196243742Y-196450471D02*
X196172313Y-196521900D01*
X196172313Y-196521900D02*
X196029456Y-196593328D01*
X196029456Y-196593328D02*
X195886599Y-196593328D01*
X195886599Y-196593328D02*
X195743742Y-196521900D01*
X195743742Y-196521900D02*
X195672313Y-196450471D01*
X195672313Y-196450471D02*
X195600884Y-196307614D01*
X195600884Y-196307614D02*
X195529456Y-196021900D01*
X195529456Y-196021900D02*
X195529456Y-195664757D01*
X195529456Y-195664757D02*
X195600884Y-195379042D01*
X195600884Y-195379042D02*
X195672313Y-195236185D01*
X195672313Y-195236185D02*
X195743742Y-195164757D01*
X195743742Y-195164757D02*
X195886599Y-195093328D01*
X197029455Y-196450471D02*
X197100884Y-196521900D01*
X197100884Y-196521900D02*
X197029455Y-196593328D01*
X197029455Y-196593328D02*
X196958027Y-196521900D01*
X196958027Y-196521900D02*
X197029455Y-196450471D01*
X197029455Y-196450471D02*
X197029455Y-196593328D01*
X198529456Y-196593328D02*
X197672313Y-196593328D01*
X198100884Y-196593328D02*
X198100884Y-195093328D01*
X198100884Y-195093328D02*
X197958027Y-195307614D01*
X197958027Y-195307614D02*
X197815170Y-195450471D01*
X197815170Y-195450471D02*
X197672313Y-195521900D01*
D10*
D11*
X177002200Y-191507200D02*
X285002200Y-191507200D01*
D10*
D12*
X264413853Y-193785528D02*
X263913853Y-193071242D01*
X263556710Y-193785528D02*
X263556710Y-192285528D01*
X263556710Y-192285528D02*
X264128139Y-192285528D01*
X264128139Y-192285528D02*
X264270996Y-192356957D01*
X264270996Y-192356957D02*
X264342425Y-192428385D01*
X264342425Y-192428385D02*
X264413853Y-192571242D01*
X264413853Y-192571242D02*
X264413853Y-192785528D01*
X264413853Y-192785528D02*
X264342425Y-192928385D01*
X264342425Y-192928385D02*
X264270996Y-192999814D01*
X264270996Y-192999814D02*
X264128139Y-193071242D01*
X264128139Y-193071242D02*
X263556710Y-193071242D01*
X265628139Y-193714100D02*
X265485282Y-193785528D01*
X265485282Y-193785528D02*
X265199568Y-193785528D01*
X265199568Y-193785528D02*
X265056710Y-193714100D01*
X265056710Y-193714100D02*
X264985282Y-193571242D01*
X264985282Y-193571242D02*
X264985282Y-192999814D01*
X264985282Y-192999814D02*
X265056710Y-192856957D01*
X265056710Y-192856957D02*
X265199568Y-192785528D01*
X265199568Y-192785528D02*
X265485282Y-192785528D01*
X265485282Y-192785528D02*
X265628139Y-192856957D01*
X265628139Y-192856957D02*
X265699568Y-192999814D01*
X265699568Y-192999814D02*
X265699568Y-193142671D01*
X265699568Y-193142671D02*
X264985282Y-193285528D01*
X266199567Y-192785528D02*
X266556710Y-193785528D01*
X266556710Y-193785528D02*
X266913853Y-192785528D01*
X267485281Y-193642671D02*
X267556710Y-193714100D01*
X267556710Y-193714100D02*
X267485281Y-193785528D01*
X267485281Y-193785528D02*
X267413853Y-193714100D01*
X267413853Y-193714100D02*
X267485281Y-193642671D01*
X267485281Y-193642671D02*
X267485281Y-193785528D01*
X267485281Y-192856957D02*
X267556710Y-192928385D01*
X267556710Y-192928385D02*
X267485281Y-192999814D01*
X267485281Y-192999814D02*
X267413853Y-192928385D01*
X267413853Y-192928385D02*
X267485281Y-192856957D01*
X267485281Y-192856957D02*
X267485281Y-192999814D01*
D10*
D11*
X178386598Y-193721900D02*
X178600884Y-193793328D01*
X178600884Y-193793328D02*
X178958026Y-193793328D01*
X178958026Y-193793328D02*
X179100884Y-193721900D01*
X179100884Y-193721900D02*
X179172312Y-193650471D01*
X179172312Y-193650471D02*
X179243741Y-193507614D01*
X179243741Y-193507614D02*
X179243741Y-193364757D01*
X179243741Y-193364757D02*
X179172312Y-193221900D01*
X179172312Y-193221900D02*
X179100884Y-193150471D01*
X179100884Y-193150471D02*
X178958026Y-193079042D01*
X178958026Y-193079042D02*
X178672312Y-193007614D01*
X178672312Y-193007614D02*
X178529455Y-192936185D01*
X178529455Y-192936185D02*
X178458026Y-192864757D01*
X178458026Y-192864757D02*
X178386598Y-192721900D01*
X178386598Y-192721900D02*
X178386598Y-192579042D01*
X178386598Y-192579042D02*
X178458026Y-192436185D01*
X178458026Y-192436185D02*
X178529455Y-192364757D01*
X178529455Y-192364757D02*
X178672312Y-192293328D01*
X178672312Y-192293328D02*
X179029455Y-192293328D01*
X179029455Y-192293328D02*
X179243741Y-192364757D01*
X179886597Y-193793328D02*
X179886597Y-192793328D01*
X179886597Y-192293328D02*
X179815169Y-192364757D01*
X179815169Y-192364757D02*
X179886597Y-192436185D01*
X179886597Y-192436185D02*
X179958026Y-192364757D01*
X179958026Y-192364757D02*
X179886597Y-192293328D01*
X179886597Y-192293328D02*
X179886597Y-192436185D01*
X180458026Y-192793328D02*
X181243741Y-192793328D01*
X181243741Y-192793328D02*
X180458026Y-193793328D01*
X180458026Y-193793328D02*
X181243741Y-193793328D01*
X182386598Y-193721900D02*
X182243741Y-193793328D01*
X182243741Y-193793328D02*
X181958027Y-193793328D01*
X181958027Y-193793328D02*
X181815169Y-193721900D01*
X181815169Y-193721900D02*
X181743741Y-193579042D01*
X181743741Y-193579042D02*
X181743741Y-193007614D01*
X181743741Y-193007614D02*
X181815169Y-192864757D01*
X181815169Y-192864757D02*
X181958027Y-192793328D01*
X181958027Y-192793328D02*
X182243741Y-192793328D01*
X182243741Y-192793328D02*
X182386598Y-192864757D01*
X182386598Y-192864757D02*
X182458027Y-193007614D01*
X182458027Y-193007614D02*
X182458027Y-193150471D01*
X182458027Y-193150471D02*
X181743741Y-193293328D01*
X183100883Y-193650471D02*
X183172312Y-193721900D01*
X183172312Y-193721900D02*
X183100883Y-193793328D01*
X183100883Y-193793328D02*
X183029455Y-193721900D01*
X183029455Y-193721900D02*
X183100883Y-193650471D01*
X183100883Y-193650471D02*
X183100883Y-193793328D01*
X183100883Y-192864757D02*
X183172312Y-192936185D01*
X183172312Y-192936185D02*
X183100883Y-193007614D01*
X183100883Y-193007614D02*
X183029455Y-192936185D01*
X183029455Y-192936185D02*
X183100883Y-192864757D01*
X183100883Y-192864757D02*
X183100883Y-193007614D01*
X184886598Y-193364757D02*
X185600884Y-193364757D01*
X184743741Y-193793328D02*
X185243741Y-192293328D01*
X185243741Y-192293328D02*
X185743741Y-193793328D01*
X186886598Y-192793328D02*
X186886598Y-193793328D01*
X186529455Y-192221900D02*
X186172312Y-193293328D01*
X186172312Y-193293328D02*
X187100883Y-193293328D01*
D10*
D11*
X263458026Y-196593328D02*
X263458026Y-195093328D01*
X264815170Y-196593328D02*
X264815170Y-195093328D01*
X264815170Y-196521900D02*
X264672312Y-196593328D01*
X264672312Y-196593328D02*
X264386598Y-196593328D01*
X264386598Y-196593328D02*
X264243741Y-196521900D01*
X264243741Y-196521900D02*
X264172312Y-196450471D01*
X264172312Y-196450471D02*
X264100884Y-196307614D01*
X264100884Y-196307614D02*
X264100884Y-195879042D01*
X264100884Y-195879042D02*
X264172312Y-195736185D01*
X264172312Y-195736185D02*
X264243741Y-195664757D01*
X264243741Y-195664757D02*
X264386598Y-195593328D01*
X264386598Y-195593328D02*
X264672312Y-195593328D01*
X264672312Y-195593328D02*
X264815170Y-195664757D01*
X265529455Y-196450471D02*
X265600884Y-196521900D01*
X265600884Y-196521900D02*
X265529455Y-196593328D01*
X265529455Y-196593328D02*
X265458027Y-196521900D01*
X265458027Y-196521900D02*
X265529455Y-196450471D01*
X265529455Y-196450471D02*
X265529455Y-196593328D01*
X265529455Y-195664757D02*
X265600884Y-195736185D01*
X265600884Y-195736185D02*
X265529455Y-195807614D01*
X265529455Y-195807614D02*
X265458027Y-195736185D01*
X265458027Y-195736185D02*
X265529455Y-195664757D01*
X265529455Y-195664757D02*
X265529455Y-195807614D01*
X267315170Y-195236185D02*
X267386598Y-195164757D01*
X267386598Y-195164757D02*
X267529456Y-195093328D01*
X267529456Y-195093328D02*
X267886598Y-195093328D01*
X267886598Y-195093328D02*
X268029456Y-195164757D01*
X268029456Y-195164757D02*
X268100884Y-195236185D01*
X268100884Y-195236185D02*
X268172313Y-195379042D01*
X268172313Y-195379042D02*
X268172313Y-195521900D01*
X268172313Y-195521900D02*
X268100884Y-195736185D01*
X268100884Y-195736185D02*
X267243741Y-196593328D01*
X267243741Y-196593328D02*
X268172313Y-196593328D01*
X269886598Y-195021900D02*
X268600884Y-196950471D01*
X271172313Y-196593328D02*
X270315170Y-196593328D01*
X270743741Y-196593328D02*
X270743741Y-195093328D01*
X270743741Y-195093328D02*
X270600884Y-195307614D01*
X270600884Y-195307614D02*
X270458027Y-195450471D01*
X270458027Y-195450471D02*
X270315170Y-195521900D01*
X272600884Y-196593328D02*
X271743741Y-196593328D01*
X272172312Y-196593328D02*
X272172312Y-195093328D01*
X272172312Y-195093328D02*
X272029455Y-195307614D01*
X272029455Y-195307614D02*
X271886598Y-195450471D01*
X271886598Y-195450471D02*
X271743741Y-195521900D01*
D10*
D11*
X177002200Y-187507200D02*
X285002200Y-187507200D01*
D10*
D13*
X178693928Y-188211638D02*
X179836785Y-188211638D01*
X179015357Y-190211638D02*
X179265357Y-188211638D01*
X180253452Y-190211638D02*
X180420119Y-188878304D01*
X180503452Y-188211638D02*
X180396309Y-188306876D01*
X180396309Y-188306876D02*
X180479643Y-188402114D01*
X180479643Y-188402114D02*
X180586786Y-188306876D01*
X180586786Y-188306876D02*
X180503452Y-188211638D01*
X180503452Y-188211638D02*
X180479643Y-188402114D01*
X181086786Y-188878304D02*
X181848690Y-188878304D01*
X181455833Y-188211638D02*
X181241548Y-189925923D01*
X181241548Y-189925923D02*
X181312976Y-190116400D01*
X181312976Y-190116400D02*
X181491548Y-190211638D01*
X181491548Y-190211638D02*
X181682024Y-190211638D01*
X182634405Y-190211638D02*
X182455833Y-190116400D01*
X182455833Y-190116400D02*
X182384405Y-189925923D01*
X182384405Y-189925923D02*
X182598690Y-188211638D01*
X184170119Y-190116400D02*
X183967738Y-190211638D01*
X183967738Y-190211638D02*
X183586785Y-190211638D01*
X183586785Y-190211638D02*
X183408214Y-190116400D01*
X183408214Y-190116400D02*
X183336785Y-189925923D01*
X183336785Y-189925923D02*
X183432024Y-189164019D01*
X183432024Y-189164019D02*
X183551071Y-188973542D01*
X183551071Y-188973542D02*
X183753452Y-188878304D01*
X183753452Y-188878304D02*
X184134404Y-188878304D01*
X184134404Y-188878304D02*
X184312976Y-188973542D01*
X184312976Y-188973542D02*
X184384404Y-189164019D01*
X184384404Y-189164019D02*
X184360595Y-189354495D01*
X184360595Y-189354495D02*
X183384404Y-189544971D01*
X185134405Y-190021161D02*
X185217738Y-190116400D01*
X185217738Y-190116400D02*
X185110595Y-190211638D01*
X185110595Y-190211638D02*
X185027262Y-190116400D01*
X185027262Y-190116400D02*
X185134405Y-190021161D01*
X185134405Y-190021161D02*
X185110595Y-190211638D01*
X185265357Y-188973542D02*
X185348690Y-189068780D01*
X185348690Y-189068780D02*
X185241548Y-189164019D01*
X185241548Y-189164019D02*
X185158214Y-189068780D01*
X185158214Y-189068780D02*
X185265357Y-188973542D01*
X185265357Y-188973542D02*
X185241548Y-189164019D01*
D10*
D11*
X178958026Y-185607614D02*
X178458026Y-185607614D01*
X178458026Y-186393328D02*
X178458026Y-184893328D01*
X178458026Y-184893328D02*
X179172312Y-184893328D01*
X179743740Y-186393328D02*
X179743740Y-185393328D01*
X179743740Y-184893328D02*
X179672312Y-184964757D01*
X179672312Y-184964757D02*
X179743740Y-185036185D01*
X179743740Y-185036185D02*
X179815169Y-184964757D01*
X179815169Y-184964757D02*
X179743740Y-184893328D01*
X179743740Y-184893328D02*
X179743740Y-185036185D01*
X180672312Y-186393328D02*
X180529455Y-186321900D01*
X180529455Y-186321900D02*
X180458026Y-186179042D01*
X180458026Y-186179042D02*
X180458026Y-184893328D01*
X181815169Y-186321900D02*
X181672312Y-186393328D01*
X181672312Y-186393328D02*
X181386598Y-186393328D01*
X181386598Y-186393328D02*
X181243740Y-186321900D01*
X181243740Y-186321900D02*
X181172312Y-186179042D01*
X181172312Y-186179042D02*
X181172312Y-185607614D01*
X181172312Y-185607614D02*
X181243740Y-185464757D01*
X181243740Y-185464757D02*
X181386598Y-185393328D01*
X181386598Y-185393328D02*
X181672312Y-185393328D01*
X181672312Y-185393328D02*
X181815169Y-185464757D01*
X181815169Y-185464757D02*
X181886598Y-185607614D01*
X181886598Y-185607614D02*
X181886598Y-185750471D01*
X181886598Y-185750471D02*
X181172312Y-185893328D01*
X182529454Y-186250471D02*
X182600883Y-186321900D01*
X182600883Y-186321900D02*
X182529454Y-186393328D01*
X182529454Y-186393328D02*
X182458026Y-186321900D01*
X182458026Y-186321900D02*
X182529454Y-186250471D01*
X182529454Y-186250471D02*
X182529454Y-186393328D01*
X182529454Y-185464757D02*
X182600883Y-185536185D01*
X182600883Y-185536185D02*
X182529454Y-185607614D01*
X182529454Y-185607614D02*
X182458026Y-185536185D01*
X182458026Y-185536185D02*
X182529454Y-185464757D01*
X182529454Y-185464757D02*
X182529454Y-185607614D01*
X184315169Y-186321900D02*
X184529455Y-186393328D01*
X184529455Y-186393328D02*
X184886597Y-186393328D01*
X184886597Y-186393328D02*
X185029455Y-186321900D01*
X185029455Y-186321900D02*
X185100883Y-186250471D01*
X185100883Y-186250471D02*
X185172312Y-186107614D01*
X185172312Y-186107614D02*
X185172312Y-185964757D01*
X185172312Y-185964757D02*
X185100883Y-185821900D01*
X185100883Y-185821900D02*
X185029455Y-185750471D01*
X185029455Y-185750471D02*
X184886597Y-185679042D01*
X184886597Y-185679042D02*
X184600883Y-185607614D01*
X184600883Y-185607614D02*
X184458026Y-185536185D01*
X184458026Y-185536185D02*
X184386597Y-185464757D01*
X184386597Y-185464757D02*
X184315169Y-185321900D01*
X184315169Y-185321900D02*
X184315169Y-185179042D01*
X184315169Y-185179042D02*
X184386597Y-185036185D01*
X184386597Y-185036185D02*
X184458026Y-184964757D01*
X184458026Y-184964757D02*
X184600883Y-184893328D01*
X184600883Y-184893328D02*
X184958026Y-184893328D01*
X184958026Y-184893328D02*
X185172312Y-184964757D01*
X186672311Y-186393328D02*
X186172311Y-185679042D01*
X185815168Y-186393328D02*
X185815168Y-184893328D01*
X185815168Y-184893328D02*
X186386597Y-184893328D01*
X186386597Y-184893328D02*
X186529454Y-184964757D01*
X186529454Y-184964757D02*
X186600883Y-185036185D01*
X186600883Y-185036185D02*
X186672311Y-185179042D01*
X186672311Y-185179042D02*
X186672311Y-185393328D01*
X186672311Y-185393328D02*
X186600883Y-185536185D01*
X186600883Y-185536185D02*
X186529454Y-185607614D01*
X186529454Y-185607614D02*
X186386597Y-185679042D01*
X186386597Y-185679042D02*
X185815168Y-185679042D01*
X187243740Y-185964757D02*
X187958026Y-185964757D01*
X187100883Y-186393328D02*
X187600883Y-184893328D01*
X187600883Y-184893328D02*
X188100883Y-186393328D01*
X188600882Y-186393328D02*
X188600882Y-184893328D01*
X188600882Y-184893328D02*
X189100882Y-185964757D01*
X189100882Y-185964757D02*
X189600882Y-184893328D01*
X189600882Y-184893328D02*
X189600882Y-186393328D01*
X189958026Y-186536185D02*
X191100883Y-186536185D01*
X192029454Y-186321900D02*
X191886597Y-186393328D01*
X191886597Y-186393328D02*
X191600883Y-186393328D01*
X191600883Y-186393328D02*
X191458025Y-186321900D01*
X191458025Y-186321900D02*
X191386597Y-186179042D01*
X191386597Y-186179042D02*
X191386597Y-185607614D01*
X191386597Y-185607614D02*
X191458025Y-185464757D01*
X191458025Y-185464757D02*
X191600883Y-185393328D01*
X191600883Y-185393328D02*
X191886597Y-185393328D01*
X191886597Y-185393328D02*
X192029454Y-185464757D01*
X192029454Y-185464757D02*
X192100883Y-185607614D01*
X192100883Y-185607614D02*
X192100883Y-185750471D01*
X192100883Y-185750471D02*
X191386597Y-185893328D01*
X192600882Y-186393328D02*
X193386597Y-185393328D01*
X192600882Y-185393328D02*
X193386597Y-186393328D01*
X193958025Y-185393328D02*
X193958025Y-186893328D01*
X193958025Y-185464757D02*
X194100883Y-185393328D01*
X194100883Y-185393328D02*
X194386597Y-185393328D01*
X194386597Y-185393328D02*
X194529454Y-185464757D01*
X194529454Y-185464757D02*
X194600883Y-185536185D01*
X194600883Y-185536185D02*
X194672311Y-185679042D01*
X194672311Y-185679042D02*
X194672311Y-186107614D01*
X194672311Y-186107614D02*
X194600883Y-186250471D01*
X194600883Y-186250471D02*
X194529454Y-186321900D01*
X194529454Y-186321900D02*
X194386597Y-186393328D01*
X194386597Y-186393328D02*
X194100883Y-186393328D01*
X194100883Y-186393328D02*
X193958025Y-186321900D01*
X195315168Y-186250471D02*
X195386597Y-186321900D01*
X195386597Y-186321900D02*
X195315168Y-186393328D01*
X195315168Y-186393328D02*
X195243740Y-186321900D01*
X195243740Y-186321900D02*
X195315168Y-186250471D01*
X195315168Y-186250471D02*
X195315168Y-186393328D01*
X196029454Y-186393328D02*
X196029454Y-184893328D01*
X196172312Y-185821900D02*
X196600883Y-186393328D01*
X196600883Y-185393328D02*
X196029454Y-185964757D01*
X197243740Y-186393328D02*
X197243740Y-185393328D01*
X197243740Y-184893328D02*
X197172312Y-184964757D01*
X197172312Y-184964757D02*
X197243740Y-185036185D01*
X197243740Y-185036185D02*
X197315169Y-184964757D01*
X197315169Y-184964757D02*
X197243740Y-184893328D01*
X197243740Y-184893328D02*
X197243740Y-185036185D01*
X198600884Y-186321900D02*
X198458026Y-186393328D01*
X198458026Y-186393328D02*
X198172312Y-186393328D01*
X198172312Y-186393328D02*
X198029455Y-186321900D01*
X198029455Y-186321900D02*
X197958026Y-186250471D01*
X197958026Y-186250471D02*
X197886598Y-186107614D01*
X197886598Y-186107614D02*
X197886598Y-185679042D01*
X197886598Y-185679042D02*
X197958026Y-185536185D01*
X197958026Y-185536185D02*
X198029455Y-185464757D01*
X198029455Y-185464757D02*
X198172312Y-185393328D01*
X198172312Y-185393328D02*
X198458026Y-185393328D01*
X198458026Y-185393328D02*
X198600884Y-185464757D01*
X199886598Y-186393328D02*
X199886598Y-185607614D01*
X199886598Y-185607614D02*
X199815169Y-185464757D01*
X199815169Y-185464757D02*
X199672312Y-185393328D01*
X199672312Y-185393328D02*
X199386598Y-185393328D01*
X199386598Y-185393328D02*
X199243740Y-185464757D01*
X199886598Y-186321900D02*
X199743740Y-186393328D01*
X199743740Y-186393328D02*
X199386598Y-186393328D01*
X199386598Y-186393328D02*
X199243740Y-186321900D01*
X199243740Y-186321900D02*
X199172312Y-186179042D01*
X199172312Y-186179042D02*
X199172312Y-186036185D01*
X199172312Y-186036185D02*
X199243740Y-185893328D01*
X199243740Y-185893328D02*
X199386598Y-185821900D01*
X199386598Y-185821900D02*
X199743740Y-185821900D01*
X199743740Y-185821900D02*
X199886598Y-185750471D01*
X201243741Y-186393328D02*
X201243741Y-184893328D01*
X201243741Y-186321900D02*
X201100883Y-186393328D01*
X201100883Y-186393328D02*
X200815169Y-186393328D01*
X200815169Y-186393328D02*
X200672312Y-186321900D01*
X200672312Y-186321900D02*
X200600883Y-186250471D01*
X200600883Y-186250471D02*
X200529455Y-186107614D01*
X200529455Y-186107614D02*
X200529455Y-185679042D01*
X200529455Y-185679042D02*
X200600883Y-185536185D01*
X200600883Y-185536185D02*
X200672312Y-185464757D01*
X200672312Y-185464757D02*
X200815169Y-185393328D01*
X200815169Y-185393328D02*
X201100883Y-185393328D01*
X201100883Y-185393328D02*
X201243741Y-185464757D01*
X201600884Y-186536185D02*
X202743741Y-186536185D01*
X203100883Y-185393328D02*
X203100883Y-186893328D01*
X203100883Y-185464757D02*
X203243741Y-185393328D01*
X203243741Y-185393328D02*
X203529455Y-185393328D01*
X203529455Y-185393328D02*
X203672312Y-185464757D01*
X203672312Y-185464757D02*
X203743741Y-185536185D01*
X203743741Y-185536185D02*
X203815169Y-185679042D01*
X203815169Y-185679042D02*
X203815169Y-186107614D01*
X203815169Y-186107614D02*
X203743741Y-186250471D01*
X203743741Y-186250471D02*
X203672312Y-186321900D01*
X203672312Y-186321900D02*
X203529455Y-186393328D01*
X203529455Y-186393328D02*
X203243741Y-186393328D01*
X203243741Y-186393328D02*
X203100883Y-186321900D01*
X205100884Y-186321900D02*
X204958026Y-186393328D01*
X204958026Y-186393328D02*
X204672312Y-186393328D01*
X204672312Y-186393328D02*
X204529455Y-186321900D01*
X204529455Y-186321900D02*
X204458026Y-186250471D01*
X204458026Y-186250471D02*
X204386598Y-186107614D01*
X204386598Y-186107614D02*
X204386598Y-185679042D01*
X204386598Y-185679042D02*
X204458026Y-185536185D01*
X204458026Y-185536185D02*
X204529455Y-185464757D01*
X204529455Y-185464757D02*
X204672312Y-185393328D01*
X204672312Y-185393328D02*
X204958026Y-185393328D01*
X204958026Y-185393328D02*
X205100884Y-185464757D01*
X205743740Y-186393328D02*
X205743740Y-184893328D01*
X205743740Y-185464757D02*
X205886598Y-185393328D01*
X205886598Y-185393328D02*
X206172312Y-185393328D01*
X206172312Y-185393328D02*
X206315169Y-185464757D01*
X206315169Y-185464757D02*
X206386598Y-185536185D01*
X206386598Y-185536185D02*
X206458026Y-185679042D01*
X206458026Y-185679042D02*
X206458026Y-186107614D01*
X206458026Y-186107614D02*
X206386598Y-186250471D01*
X206386598Y-186250471D02*
X206315169Y-186321900D01*
X206315169Y-186321900D02*
X206172312Y-186393328D01*
X206172312Y-186393328D02*
X205886598Y-186393328D01*
X205886598Y-186393328D02*
X205743740Y-186321900D01*
D10*
D11*
X177002200Y-181507200D02*
X285002200Y-181507200D01*
D10*
D11*
X178386598Y-183621900D02*
X178600884Y-183693328D01*
X178600884Y-183693328D02*
X178958026Y-183693328D01*
X178958026Y-183693328D02*
X179100884Y-183621900D01*
X179100884Y-183621900D02*
X179172312Y-183550471D01*
X179172312Y-183550471D02*
X179243741Y-183407614D01*
X179243741Y-183407614D02*
X179243741Y-183264757D01*
X179243741Y-183264757D02*
X179172312Y-183121900D01*
X179172312Y-183121900D02*
X179100884Y-183050471D01*
X179100884Y-183050471D02*
X178958026Y-182979042D01*
X178958026Y-182979042D02*
X178672312Y-182907614D01*
X178672312Y-182907614D02*
X178529455Y-182836185D01*
X178529455Y-182836185D02*
X178458026Y-182764757D01*
X178458026Y-182764757D02*
X178386598Y-182621900D01*
X178386598Y-182621900D02*
X178386598Y-182479042D01*
X178386598Y-182479042D02*
X178458026Y-182336185D01*
X178458026Y-182336185D02*
X178529455Y-182264757D01*
X178529455Y-182264757D02*
X178672312Y-182193328D01*
X178672312Y-182193328D02*
X179029455Y-182193328D01*
X179029455Y-182193328D02*
X179243741Y-182264757D01*
X179886597Y-183693328D02*
X179886597Y-182193328D01*
X180529455Y-183693328D02*
X180529455Y-182907614D01*
X180529455Y-182907614D02*
X180458026Y-182764757D01*
X180458026Y-182764757D02*
X180315169Y-182693328D01*
X180315169Y-182693328D02*
X180100883Y-182693328D01*
X180100883Y-182693328D02*
X179958026Y-182764757D01*
X179958026Y-182764757D02*
X179886597Y-182836185D01*
X181815169Y-183621900D02*
X181672312Y-183693328D01*
X181672312Y-183693328D02*
X181386598Y-183693328D01*
X181386598Y-183693328D02*
X181243740Y-183621900D01*
X181243740Y-183621900D02*
X181172312Y-183479042D01*
X181172312Y-183479042D02*
X181172312Y-182907614D01*
X181172312Y-182907614D02*
X181243740Y-182764757D01*
X181243740Y-182764757D02*
X181386598Y-182693328D01*
X181386598Y-182693328D02*
X181672312Y-182693328D01*
X181672312Y-182693328D02*
X181815169Y-182764757D01*
X181815169Y-182764757D02*
X181886598Y-182907614D01*
X181886598Y-182907614D02*
X181886598Y-183050471D01*
X181886598Y-183050471D02*
X181172312Y-183193328D01*
X183100883Y-183621900D02*
X182958026Y-183693328D01*
X182958026Y-183693328D02*
X182672312Y-183693328D01*
X182672312Y-183693328D02*
X182529454Y-183621900D01*
X182529454Y-183621900D02*
X182458026Y-183479042D01*
X182458026Y-183479042D02*
X182458026Y-182907614D01*
X182458026Y-182907614D02*
X182529454Y-182764757D01*
X182529454Y-182764757D02*
X182672312Y-182693328D01*
X182672312Y-182693328D02*
X182958026Y-182693328D01*
X182958026Y-182693328D02*
X183100883Y-182764757D01*
X183100883Y-182764757D02*
X183172312Y-182907614D01*
X183172312Y-182907614D02*
X183172312Y-183050471D01*
X183172312Y-183050471D02*
X182458026Y-183193328D01*
X183600883Y-182693328D02*
X184172311Y-182693328D01*
X183815168Y-182193328D02*
X183815168Y-183479042D01*
X183815168Y-183479042D02*
X183886597Y-183621900D01*
X183886597Y-183621900D02*
X184029454Y-183693328D01*
X184029454Y-183693328D02*
X184172311Y-183693328D01*
X184672311Y-183550471D02*
X184743740Y-183621900D01*
X184743740Y-183621900D02*
X184672311Y-183693328D01*
X184672311Y-183693328D02*
X184600883Y-183621900D01*
X184600883Y-183621900D02*
X184672311Y-183550471D01*
X184672311Y-183550471D02*
X184672311Y-183693328D01*
X184672311Y-182764757D02*
X184743740Y-182836185D01*
X184743740Y-182836185D02*
X184672311Y-182907614D01*
X184672311Y-182907614D02*
X184600883Y-182836185D01*
X184600883Y-182836185D02*
X184672311Y-182764757D01*
X184672311Y-182764757D02*
X184672311Y-182907614D01*
D10*
D11*
X197002200Y-191507200D02*
X197002200Y-194507200D01*
D10*
D11*
X261002200Y-191507200D02*
X261002200Y-198007200D01*
D14*
X182041700Y-120090000D02*
X183341700Y-120090000D01*
X183341700Y-121090000D01*
X182041700Y-121090000D01*
X182041700Y-120090000D01*
%TA.AperFunction,NonConductor*%
G36*
X182041700Y-120090000D02*
G01*
X183341700Y-120090000D01*
X183341700Y-121090000D01*
X182041700Y-121090000D01*
X182041700Y-120090000D01*
G37*
%TD.AperFunction*%
D15*
%TO.N,+5V*%
%TO.C,TP1*%
X103223400Y-120300100D03*
%TD*%
%TO.N,GND*%
%TO.C,TP3*%
X103123400Y-125400100D03*
%TD*%
D16*
%TO.N,+3.3V*%
%TO.C,J3*%
X143591700Y-105462500D03*
D17*
%TO.N,GND*%
X146131700Y-105462500D03*
%TO.N,/spare1*%
X148671700Y-105462500D03*
%TO.N,/spare3*%
X151211700Y-105462500D03*
%TO.N,/spare5*%
X153751700Y-105462500D03*
%TO.N,/spare7*%
X156291700Y-105462500D03*
%TO.N,+3.3V*%
X143591700Y-108002500D03*
%TO.N,GND*%
X146131700Y-108002500D03*
%TO.N,/spare0*%
X148671700Y-108002500D03*
%TO.N,/spare2*%
X151211700Y-108002500D03*
%TO.N,/spare4*%
X153751700Y-108002500D03*
%TO.N,/spare6*%
X156291700Y-108002500D03*
%TD*%
D18*
%TO.N,Net-(U1-CS#)*%
%TO.C,TP8*%
X157591700Y-124783800D03*
%TD*%
%TO.N,Net-(U1-LB#)*%
%TO.C,TP6*%
X178741700Y-108383800D03*
%TD*%
%TO.N,Net-(U1-WE#)*%
%TO.C,TP7*%
X174341700Y-124733800D03*
%TD*%
%TO.N,Net-(U1-UB#)*%
%TO.C,TP5*%
X178741700Y-106333800D03*
%TD*%
D15*
%TO.N,+3.3V*%
%TO.C,TP2*%
X124947900Y-122885100D03*
%TD*%
D18*
%TO.N,Net-(U1-OE#)*%
%TO.C,TP4*%
X178741700Y-104283800D03*
%TD*%
D15*
%TO.N,GND*%
%TO.C,TP11*%
X181441700Y-123983800D03*
%TD*%
D19*
%TO.N,GND*%
%TO.C,H2*%
X129123400Y-115000100D03*
X130002080Y-112878780D03*
X130002080Y-117121420D03*
X132123400Y-112000100D03*
D20*
X132123400Y-115000100D03*
D19*
X132123400Y-118000100D03*
X134244720Y-112878780D03*
X134244720Y-117121420D03*
X135123400Y-115000100D03*
%TD*%
D21*
%TO.N,GND*%
%TO.C,J2*%
X98123400Y-117780100D03*
%TO.N,+5V*%
X98123400Y-120320100D03*
X98123400Y-122860100D03*
%TO.N,GND*%
X98123400Y-125400100D03*
%TD*%
D22*
%TO.N,/A9*%
X171541700Y-110083800D03*
%TO.N,/A12*%
X174741700Y-110083800D03*
%TO.N,/A0*%
X157941700Y-118483800D03*
%TO.N,/A17*%
X174741700Y-118783800D03*
%TO.N,/A15*%
X177141700Y-118783800D03*
%TO.N,/A20*%
X169941700Y-110383800D03*
%TO.N,/A3*%
X153141700Y-118483800D03*
%TO.N,/A13*%
X176341700Y-110381800D03*
%TO.N,/A11*%
X173941700Y-110383800D03*
%TO.N,/A4*%
X152341700Y-118833800D03*
%TO.N,/A14*%
X177141700Y-110081800D03*
%TO.N,/A10*%
X172341700Y-109783800D03*
%TO.N,/A18*%
X173941700Y-118483800D03*
%TO.N,/A1*%
X157141700Y-118833800D03*
%TO.N,/A2*%
X154741700Y-118833800D03*
%TO.N,/A19*%
X172341700Y-118783800D03*
%TO.N,/A5*%
X161816199Y-110464634D03*
%TO.N,/A8*%
X165141700Y-110383800D03*
%TO.N,/A6*%
X162722348Y-110461208D03*
%TO.N,/A7*%
X164341700Y-110383800D03*
%TO.N,/A16*%
X176341700Y-118483800D03*
%TO.N,/IO2*%
X164341700Y-118483800D03*
%TO.N,GND*%
X123041700Y-114690000D03*
X156341700Y-114283800D03*
X138001700Y-114710000D03*
X153941700Y-114283800D03*
X128041700Y-125971300D03*
X177941700Y-114283800D03*
X117323400Y-119400100D03*
X170741700Y-114283800D03*
X120331700Y-120930100D03*
X123041700Y-125970000D03*
X115404100Y-122200100D03*
X138041700Y-125965100D03*
X118523400Y-119400100D03*
X180541700Y-109683800D03*
X113001700Y-107210000D03*
X153041700Y-125965100D03*
X138041700Y-104683800D03*
X128041700Y-107183800D03*
X113567900Y-122200100D03*
X158741700Y-119183800D03*
X166441700Y-126033800D03*
X180541700Y-119683800D03*
X175541700Y-109783800D03*
X161141700Y-119183800D03*
X145541700Y-112083800D03*
X161141700Y-110783800D03*
X175541700Y-114283800D03*
X180541700Y-104683800D03*
X118523400Y-123000100D03*
X180541700Y-112183800D03*
X177941700Y-119083800D03*
X94103161Y-125970000D03*
X178041700Y-122183800D03*
X118005377Y-112205862D03*
X113005377Y-112205862D03*
X177941700Y-109783800D03*
X108098404Y-125970000D03*
X123005377Y-112205862D03*
X179141700Y-112083800D03*
X138041700Y-112183800D03*
X163541700Y-119183800D03*
X113041700Y-125970000D03*
X158741700Y-110383800D03*
X133041700Y-107183800D03*
X117323400Y-123000100D03*
X170741700Y-108983800D03*
X118041700Y-125970000D03*
X117323400Y-121800100D03*
X94041700Y-119731629D03*
X180541700Y-117183800D03*
X118041700Y-107183800D03*
X151541700Y-119183800D03*
X117923400Y-123600100D03*
X121433400Y-118270100D03*
X103041700Y-117190000D03*
X158741700Y-114283800D03*
X175541700Y-119083800D03*
X148541700Y-110283800D03*
X173141700Y-114283800D03*
X165941700Y-110733800D03*
X146741700Y-109770000D03*
X123041700Y-109690000D03*
X145541700Y-114283800D03*
X173141700Y-119033800D03*
X113001700Y-109710000D03*
X180541700Y-107183800D03*
X161141700Y-114283800D03*
X128041700Y-112190000D03*
X166503804Y-120733800D03*
X163541700Y-114283800D03*
X138041700Y-109683800D03*
X153941700Y-119183800D03*
X165541698Y-106784035D03*
X117323400Y-120600100D03*
X108041700Y-117190000D03*
X163541700Y-110583857D03*
X165541700Y-103683800D03*
X173041700Y-124683800D03*
X175541700Y-107183800D03*
X118041700Y-117190000D03*
X148041700Y-125970000D03*
X180547900Y-124685100D03*
X146741700Y-114283800D03*
X166503804Y-121420904D03*
X128041700Y-117190000D03*
X115404100Y-120930100D03*
X146741700Y-119183800D03*
X156341700Y-119183800D03*
X113567900Y-121565100D03*
X138001700Y-117210000D03*
X117923400Y-122400100D03*
X94041700Y-122690000D03*
X118005377Y-109705862D03*
X117923400Y-121200100D03*
X128041700Y-109683800D03*
X138041700Y-107183800D03*
X178041700Y-124683800D03*
X165941700Y-119083800D03*
X170741700Y-119083800D03*
X143041700Y-125965100D03*
X179141700Y-116483800D03*
X149141700Y-114283800D03*
X170741700Y-110683800D03*
X117923400Y-120000100D03*
X179141700Y-114283800D03*
X118523400Y-120700100D03*
X168341700Y-119083800D03*
X118523400Y-121800100D03*
X94041700Y-117190000D03*
X123041700Y-107183800D03*
X173141700Y-110083800D03*
X133041700Y-109683800D03*
X180541700Y-122183800D03*
X149141700Y-119183800D03*
X133041700Y-125965100D03*
X113567900Y-120930100D03*
X151541700Y-114283800D03*
%TO.N,/IO4*%
X166750000Y-118483800D03*
%TO.N,Net-(U1-CS#)*%
X159541700Y-118483800D03*
%TO.N,Net-(U1-WE#)*%
X171541700Y-118483800D03*
%TO.N,/IO6*%
X169150000Y-118483800D03*
%TO.N,Net-(U1-OE#)*%
X161842677Y-107033800D03*
%TO.N,/IO1*%
X162741700Y-118833800D03*
%TO.N,/IO5*%
X167541700Y-118833800D03*
%TO.N,/IO7*%
X169950000Y-118833800D03*
%TO.N,/IO0*%
X161941700Y-118483800D03*
%TO.N,/IO3*%
X165141700Y-118833800D03*
%TO.N,+3.3V*%
X165441700Y-126033800D03*
X165541700Y-121008800D03*
X120967900Y-124565100D03*
X122367900Y-124565100D03*
X167141700Y-108283800D03*
X166341700Y-103683800D03*
X123567900Y-123465100D03*
X123567900Y-124565100D03*
X122367900Y-122165100D03*
X123567900Y-122165100D03*
X165541700Y-120383800D03*
X119767900Y-124565100D03*
X120331700Y-123470100D03*
X120331700Y-122200100D03*
X166541700Y-107783800D03*
X165541700Y-121633800D03*
%TO.N,+5V*%
X113767900Y-124465100D03*
X116089900Y-118665100D03*
X113767900Y-119670100D03*
X113767900Y-123470100D03*
X113767900Y-118665100D03*
X114967900Y-118665100D03*
X114967900Y-124465100D03*
X116067900Y-124465100D03*
X115404100Y-119660100D03*
X115404100Y-123470100D03*
%TO.N,Net-(U1-LB#)*%
X163291426Y-108484074D03*
%TO.N,Net-(U1-UB#)*%
X162541700Y-107683800D03*
%TO.N,/spare7*%
X160341700Y-114290000D03*
%TD*%
%TA.AperFunction,Conductor*%
%TO.N,GND*%
G36*
X97394524Y-116401185D02*
G01*
X97440279Y-116453989D01*
X97450223Y-116523147D01*
X97421198Y-116586703D01*
X97400370Y-116605819D01*
X97343783Y-116646930D01*
X97985825Y-117288971D01*
X97926547Y-117304855D01*
X97810253Y-117371998D01*
X97715298Y-117466953D01*
X97648155Y-117583247D01*
X97632271Y-117642524D01*
X96990230Y-117000483D01*
X96947392Y-117059446D01*
X96849136Y-117252282D01*
X96849135Y-117252285D01*
X96782257Y-117458118D01*
X96748400Y-117671879D01*
X96748400Y-117888320D01*
X96782257Y-118102081D01*
X96849135Y-118307914D01*
X96849136Y-118307917D01*
X96947396Y-118500760D01*
X96990229Y-118559715D01*
X96990230Y-118559716D01*
X97632271Y-117917675D01*
X97648155Y-117976953D01*
X97715298Y-118093247D01*
X97810253Y-118188202D01*
X97926547Y-118255345D01*
X97985824Y-118271228D01*
X97343782Y-118913268D01*
X97393614Y-118949473D01*
X97436279Y-119004803D01*
X97442258Y-119074416D01*
X97409652Y-119136211D01*
X97393614Y-119150109D01*
X97227320Y-119270929D01*
X97074230Y-119424019D01*
X97074230Y-119424020D01*
X97074228Y-119424022D01*
X97025745Y-119490753D01*
X96946967Y-119599180D01*
X96848673Y-119792090D01*
X96848672Y-119792093D01*
X96781770Y-119998001D01*
X96747900Y-120211846D01*
X96747900Y-120428353D01*
X96781770Y-120642198D01*
X96848672Y-120848106D01*
X96848673Y-120848109D01*
X96909474Y-120967435D01*
X96946967Y-121041019D01*
X97074228Y-121216178D01*
X97227322Y-121369272D01*
X97319165Y-121436000D01*
X97393189Y-121489782D01*
X97435854Y-121545112D01*
X97441833Y-121614726D01*
X97409227Y-121676521D01*
X97393188Y-121690418D01*
X97227322Y-121810928D01*
X97227320Y-121810930D01*
X97227319Y-121810930D01*
X97074230Y-121964019D01*
X97074230Y-121964020D01*
X97074228Y-121964022D01*
X97036244Y-122016302D01*
X96946967Y-122139180D01*
X96848673Y-122332090D01*
X96848672Y-122332093D01*
X96781770Y-122538001D01*
X96747900Y-122751846D01*
X96747900Y-122968353D01*
X96781770Y-123182198D01*
X96848672Y-123388106D01*
X96848673Y-123388109D01*
X96932403Y-123552435D01*
X96946967Y-123581019D01*
X97074228Y-123756178D01*
X97227322Y-123909272D01*
X97393615Y-124030091D01*
X97436279Y-124085420D01*
X97442258Y-124155033D01*
X97409652Y-124216828D01*
X97393613Y-124230726D01*
X97343783Y-124266929D01*
X97343783Y-124266930D01*
X97985825Y-124908971D01*
X97926547Y-124924855D01*
X97810253Y-124991998D01*
X97715298Y-125086953D01*
X97648155Y-125203247D01*
X97632271Y-125262524D01*
X96990230Y-124620483D01*
X96947392Y-124679446D01*
X96849136Y-124872282D01*
X96849135Y-124872285D01*
X96782257Y-125078118D01*
X96748400Y-125291879D01*
X96748400Y-125508320D01*
X96782257Y-125722081D01*
X96849135Y-125927914D01*
X96849136Y-125927917D01*
X96947396Y-126120760D01*
X96990229Y-126179715D01*
X96990230Y-126179716D01*
X97632271Y-125537675D01*
X97648155Y-125596953D01*
X97715298Y-125713247D01*
X97810253Y-125808202D01*
X97926547Y-125875345D01*
X97985824Y-125891228D01*
X97343782Y-126533268D01*
X97405325Y-126577982D01*
X97447990Y-126633312D01*
X97453969Y-126702926D01*
X97421363Y-126764721D01*
X97360524Y-126799078D01*
X97332439Y-126802300D01*
X93448661Y-126802300D01*
X93434777Y-126801520D01*
X93317953Y-126788357D01*
X93290882Y-126782178D01*
X93186532Y-126745664D01*
X93161515Y-126733617D01*
X93067899Y-126674794D01*
X93046190Y-126657481D01*
X92968018Y-126579309D01*
X92950705Y-126557600D01*
X92919101Y-126507302D01*
X92891880Y-126463981D01*
X92879837Y-126438971D01*
X92843319Y-126334611D01*
X92837143Y-126307550D01*
X92823980Y-126190721D01*
X92823200Y-126176838D01*
X92823200Y-117006961D01*
X92823980Y-116993078D01*
X92835450Y-116891274D01*
X92837143Y-116876247D01*
X92843319Y-116849190D01*
X92879838Y-116744824D01*
X92891878Y-116719821D01*
X92950707Y-116626195D01*
X92968014Y-116604494D01*
X93046194Y-116526314D01*
X93067895Y-116509007D01*
X93161521Y-116450178D01*
X93186524Y-116438138D01*
X93290890Y-116401619D01*
X93317947Y-116395443D01*
X93423616Y-116383537D01*
X93434778Y-116382280D01*
X93448661Y-116381500D01*
X97327485Y-116381500D01*
X97394524Y-116401185D01*
G37*
%TD.AperFunction*%
%TA.AperFunction,Conductor*%
G36*
X182448622Y-102482280D02*
G01*
X182461491Y-102483729D01*
X182565450Y-102495443D01*
X182592511Y-102501619D01*
X182696871Y-102538137D01*
X182721881Y-102550180D01*
X182815500Y-102609005D01*
X182837209Y-102626318D01*
X182915381Y-102704490D01*
X182932694Y-102726199D01*
X182991517Y-102819815D01*
X183003564Y-102844832D01*
X183040078Y-102949182D01*
X183046257Y-102976253D01*
X183059420Y-103093077D01*
X183060200Y-103106961D01*
X183060200Y-117566000D01*
X183040515Y-117633039D01*
X182987711Y-117678794D01*
X182936200Y-117690000D01*
X181641700Y-117690000D01*
X181641700Y-119589402D01*
X181622015Y-119656441D01*
X181605381Y-119677083D01*
X181561181Y-119721282D01*
X181561175Y-119721290D01*
X181482126Y-119858209D01*
X181482123Y-119858216D01*
X181441200Y-120010943D01*
X181441200Y-121169057D01*
X181481994Y-121321300D01*
X181482123Y-121321783D01*
X181482126Y-121321790D01*
X181561175Y-121458709D01*
X181561181Y-121458717D01*
X181605381Y-121502917D01*
X181638866Y-121564240D01*
X181641700Y-121590598D01*
X181641700Y-122490000D01*
X182936200Y-122490000D01*
X183003239Y-122509685D01*
X183048994Y-122562489D01*
X183060200Y-122614000D01*
X183060200Y-126176838D01*
X183059420Y-126190721D01*
X183059420Y-126190722D01*
X183046257Y-126307546D01*
X183040078Y-126334617D01*
X183003564Y-126438967D01*
X182991517Y-126463984D01*
X182932694Y-126557600D01*
X182915381Y-126579309D01*
X182837209Y-126657481D01*
X182815500Y-126674794D01*
X182721884Y-126733617D01*
X182696867Y-126745664D01*
X182592517Y-126782178D01*
X182565446Y-126788357D01*
X182448623Y-126801520D01*
X182434739Y-126802300D01*
X166003666Y-126802300D01*
X165936627Y-126782615D01*
X165890872Y-126729811D01*
X165880928Y-126660653D01*
X165909953Y-126597097D01*
X165915985Y-126590619D01*
X166008026Y-126498577D01*
X166008029Y-126498574D01*
X166087820Y-126379158D01*
X166142781Y-126246471D01*
X166170800Y-126105610D01*
X166170800Y-125961990D01*
X166170800Y-125961987D01*
X166170799Y-125961985D01*
X166142782Y-125821136D01*
X166142781Y-125821129D01*
X166087820Y-125688442D01*
X166087819Y-125688441D01*
X166087816Y-125688435D01*
X166008029Y-125569026D01*
X166008026Y-125569022D01*
X165906477Y-125467473D01*
X165906473Y-125467470D01*
X165787064Y-125387683D01*
X165787055Y-125387678D01*
X165654371Y-125332719D01*
X165654363Y-125332717D01*
X165513513Y-125304700D01*
X165513510Y-125304700D01*
X165369890Y-125304700D01*
X165369887Y-125304700D01*
X165229036Y-125332717D01*
X165229028Y-125332719D01*
X165096344Y-125387678D01*
X165096335Y-125387683D01*
X164976926Y-125467470D01*
X164976922Y-125467473D01*
X164875373Y-125569022D01*
X164875370Y-125569026D01*
X164795583Y-125688435D01*
X164795578Y-125688444D01*
X164740619Y-125821128D01*
X164740617Y-125821136D01*
X164712600Y-125961985D01*
X164712600Y-126105614D01*
X164740617Y-126246463D01*
X164740619Y-126246471D01*
X164795578Y-126379155D01*
X164795583Y-126379164D01*
X164875370Y-126498573D01*
X164875373Y-126498577D01*
X164967415Y-126590619D01*
X165000900Y-126651942D01*
X164995916Y-126721634D01*
X164954044Y-126777567D01*
X164888580Y-126801984D01*
X164879734Y-126802300D01*
X98914360Y-126802300D01*
X98847321Y-126782615D01*
X98801566Y-126729811D01*
X98791622Y-126660653D01*
X98820647Y-126597097D01*
X98841474Y-126577982D01*
X98903015Y-126533268D01*
X98903016Y-126533268D01*
X98260975Y-125891228D01*
X98320253Y-125875345D01*
X98436547Y-125808202D01*
X98531502Y-125713247D01*
X98598645Y-125596953D01*
X98614528Y-125537675D01*
X99256568Y-126179716D01*
X99256568Y-126179715D01*
X99299406Y-126120756D01*
X99397663Y-125927917D01*
X99397664Y-125927914D01*
X99464542Y-125722081D01*
X99498400Y-125508320D01*
X99498400Y-125291879D01*
X99464542Y-125078118D01*
X99397664Y-124872285D01*
X99397663Y-124872282D01*
X99299405Y-124679442D01*
X99256568Y-124620483D01*
X99256568Y-124620482D01*
X98614527Y-125262523D01*
X98598645Y-125203247D01*
X98531502Y-125086953D01*
X98436547Y-124991998D01*
X98320253Y-124924855D01*
X98260974Y-124908971D01*
X98903016Y-124266930D01*
X98903015Y-124266928D01*
X98853187Y-124230726D01*
X98810521Y-124175396D01*
X98804542Y-124105783D01*
X98837148Y-124043988D01*
X98853180Y-124030094D01*
X99019478Y-123909272D01*
X99172572Y-123756178D01*
X99299833Y-123581019D01*
X99392941Y-123398285D01*
X113038800Y-123398285D01*
X113038800Y-123541914D01*
X113066817Y-123682763D01*
X113066819Y-123682771D01*
X113121778Y-123815455D01*
X113121782Y-123815462D01*
X113177406Y-123898710D01*
X113198283Y-123965388D01*
X113179798Y-124032768D01*
X113177406Y-124036490D01*
X113121782Y-124119737D01*
X113121778Y-124119744D01*
X113066819Y-124252428D01*
X113066817Y-124252436D01*
X113038800Y-124393285D01*
X113038800Y-124536914D01*
X113066817Y-124677763D01*
X113066819Y-124677771D01*
X113121778Y-124810455D01*
X113121783Y-124810464D01*
X113201570Y-124929873D01*
X113201573Y-124929877D01*
X113303122Y-125031426D01*
X113303126Y-125031429D01*
X113422535Y-125111216D01*
X113422541Y-125111219D01*
X113422542Y-125111220D01*
X113555229Y-125166181D01*
X113696085Y-125194199D01*
X113696088Y-125194200D01*
X113696090Y-125194200D01*
X113839712Y-125194200D01*
X113839713Y-125194199D01*
X113980571Y-125166181D01*
X114113258Y-125111220D01*
X114232674Y-125031429D01*
X114236539Y-125027564D01*
X114280219Y-124983885D01*
X114341542Y-124950400D01*
X114411234Y-124955384D01*
X114455581Y-124983885D01*
X114503122Y-125031426D01*
X114503126Y-125031429D01*
X114622535Y-125111216D01*
X114622541Y-125111219D01*
X114622542Y-125111220D01*
X114755229Y-125166181D01*
X114896085Y-125194199D01*
X114896088Y-125194200D01*
X114896090Y-125194200D01*
X115039712Y-125194200D01*
X115039713Y-125194199D01*
X115180571Y-125166181D01*
X115313258Y-125111220D01*
X115432674Y-125031429D01*
X115432678Y-125031424D01*
X115437384Y-125027564D01*
X115438752Y-125029231D01*
X115491509Y-125000406D01*
X115561202Y-125005372D01*
X115597490Y-125028692D01*
X115598416Y-125027564D01*
X115603126Y-125031429D01*
X115722535Y-125111216D01*
X115722541Y-125111219D01*
X115722542Y-125111220D01*
X115855229Y-125166181D01*
X115996085Y-125194199D01*
X115996088Y-125194200D01*
X115996090Y-125194200D01*
X116139712Y-125194200D01*
X116139713Y-125194199D01*
X116280571Y-125166181D01*
X116413258Y-125111220D01*
X116532674Y-125031429D01*
X116634229Y-124929874D01*
X116714020Y-124810458D01*
X116768981Y-124677771D01*
X116797000Y-124536910D01*
X116797000Y-124493285D01*
X119038800Y-124493285D01*
X119038800Y-124636914D01*
X119066817Y-124777763D01*
X119066819Y-124777771D01*
X119121778Y-124910455D01*
X119121783Y-124910464D01*
X119201570Y-125029873D01*
X119201573Y-125029877D01*
X119303122Y-125131426D01*
X119303126Y-125131429D01*
X119422535Y-125211216D01*
X119422541Y-125211219D01*
X119422542Y-125211220D01*
X119555229Y-125266181D01*
X119684422Y-125291879D01*
X119696085Y-125294199D01*
X119696088Y-125294200D01*
X119696090Y-125294200D01*
X119839712Y-125294200D01*
X119839713Y-125294199D01*
X119980571Y-125266181D01*
X120113258Y-125211220D01*
X120232674Y-125131429D01*
X120252887Y-125111216D01*
X120280219Y-125083885D01*
X120341542Y-125050400D01*
X120411234Y-125055384D01*
X120455581Y-125083885D01*
X120503122Y-125131426D01*
X120503126Y-125131429D01*
X120622535Y-125211216D01*
X120622541Y-125211219D01*
X120622542Y-125211220D01*
X120755229Y-125266181D01*
X120884422Y-125291879D01*
X120896085Y-125294199D01*
X120896088Y-125294200D01*
X120896090Y-125294200D01*
X121039712Y-125294200D01*
X121039713Y-125294199D01*
X121180571Y-125266181D01*
X121313258Y-125211220D01*
X121432674Y-125131429D01*
X121534229Y-125029874D01*
X121564797Y-124984124D01*
X121618409Y-124939320D01*
X121687734Y-124930612D01*
X121750762Y-124960766D01*
X121771003Y-124984125D01*
X121801572Y-125029876D01*
X121903122Y-125131426D01*
X121903126Y-125131429D01*
X122022535Y-125211216D01*
X122022541Y-125211219D01*
X122022542Y-125211220D01*
X122155229Y-125266181D01*
X122284422Y-125291879D01*
X122296085Y-125294199D01*
X122296088Y-125294200D01*
X122296090Y-125294200D01*
X122439712Y-125294200D01*
X122439713Y-125294199D01*
X122580571Y-125266181D01*
X122713258Y-125211220D01*
X122832674Y-125131429D01*
X122852887Y-125111216D01*
X122880219Y-125083885D01*
X122941542Y-125050400D01*
X123011234Y-125055384D01*
X123055581Y-125083885D01*
X123103122Y-125131426D01*
X123103126Y-125131429D01*
X123222535Y-125211216D01*
X123222541Y-125211219D01*
X123222542Y-125211220D01*
X123355229Y-125266181D01*
X123484422Y-125291879D01*
X123496085Y-125294199D01*
X123496088Y-125294200D01*
X123496090Y-125294200D01*
X123639712Y-125294200D01*
X123639713Y-125294199D01*
X123780571Y-125266181D01*
X123913258Y-125211220D01*
X124032674Y-125131429D01*
X124134229Y-125029874D01*
X124214020Y-124910458D01*
X124268981Y-124777771D01*
X124297000Y-124636910D01*
X124297000Y-124493290D01*
X124297000Y-124493287D01*
X124296999Y-124493285D01*
X124268981Y-124352429D01*
X124227559Y-124252428D01*
X124220728Y-124235935D01*
X156591200Y-124235935D01*
X156591200Y-125331670D01*
X156591201Y-125331676D01*
X156597608Y-125391283D01*
X156647902Y-125526128D01*
X156647906Y-125526135D01*
X156734152Y-125641344D01*
X156734155Y-125641347D01*
X156849364Y-125727593D01*
X156849371Y-125727597D01*
X156984217Y-125777891D01*
X156984216Y-125777891D01*
X156991144Y-125778635D01*
X157043827Y-125784300D01*
X158139572Y-125784299D01*
X158199183Y-125777891D01*
X158334031Y-125727596D01*
X158449246Y-125641346D01*
X158535496Y-125526131D01*
X158585791Y-125391283D01*
X158592200Y-125331673D01*
X158592199Y-124235928D01*
X158588523Y-124201730D01*
X158587892Y-124195859D01*
X158586825Y-124185935D01*
X173341200Y-124185935D01*
X173341200Y-125281670D01*
X173341201Y-125281676D01*
X173347608Y-125341283D01*
X173397902Y-125476128D01*
X173397906Y-125476135D01*
X173484152Y-125591344D01*
X173484155Y-125591347D01*
X173599364Y-125677593D01*
X173599371Y-125677597D01*
X173734217Y-125727891D01*
X173734216Y-125727891D01*
X173741144Y-125728635D01*
X173793827Y-125734300D01*
X174889572Y-125734299D01*
X174949183Y-125727891D01*
X175084031Y-125677596D01*
X175199246Y-125591346D01*
X175285496Y-125476131D01*
X175335791Y-125341283D01*
X175342200Y-125281673D01*
X175342199Y-124185928D01*
X175335791Y-124126317D01*
X175333339Y-124119744D01*
X175285497Y-123991471D01*
X175285493Y-123991464D01*
X175199247Y-123876255D01*
X175199244Y-123876252D01*
X175084035Y-123790006D01*
X175084028Y-123790002D01*
X174949182Y-123739708D01*
X174949183Y-123739708D01*
X174889583Y-123733301D01*
X174889581Y-123733300D01*
X174889573Y-123733300D01*
X174889564Y-123733300D01*
X173793829Y-123733300D01*
X173793823Y-123733301D01*
X173734216Y-123739708D01*
X173599371Y-123790002D01*
X173599364Y-123790006D01*
X173484155Y-123876252D01*
X173484152Y-123876255D01*
X173397906Y-123991464D01*
X173397902Y-123991471D01*
X173347608Y-124126317D01*
X173342973Y-124169432D01*
X173341201Y-124185923D01*
X173341200Y-124185935D01*
X158586825Y-124185935D01*
X158585791Y-124176316D01*
X158535497Y-124041471D01*
X158535493Y-124041464D01*
X158449247Y-123926255D01*
X158449244Y-123926252D01*
X158334035Y-123840006D01*
X158334028Y-123840002D01*
X158199182Y-123789708D01*
X158199183Y-123789708D01*
X158139583Y-123783301D01*
X158139581Y-123783300D01*
X158139573Y-123783300D01*
X158139564Y-123783300D01*
X157043829Y-123783300D01*
X157043823Y-123783301D01*
X156984216Y-123789708D01*
X156849371Y-123840002D01*
X156849364Y-123840006D01*
X156734155Y-123926252D01*
X156734152Y-123926255D01*
X156647906Y-124041464D01*
X156647902Y-124041471D01*
X156597608Y-124176317D01*
X156592940Y-124219742D01*
X156591201Y-124235923D01*
X156591200Y-124235935D01*
X124220728Y-124235935D01*
X124214023Y-124219748D01*
X124214016Y-124219735D01*
X124134229Y-124100326D01*
X124130364Y-124095616D01*
X124132031Y-124094247D01*
X124103206Y-124041491D01*
X124108172Y-123971798D01*
X124122082Y-123944999D01*
X124128568Y-123935534D01*
X124134229Y-123929874D01*
X124203475Y-123826239D01*
X124203860Y-123825678D01*
X124230385Y-123804035D01*
X124256652Y-123782084D01*
X124257406Y-123781989D01*
X124257996Y-123781508D01*
X124292040Y-123777638D01*
X124325977Y-123773376D01*
X124327049Y-123773659D01*
X124327419Y-123773618D01*
X124328031Y-123773919D01*
X124349476Y-123779597D01*
X124415417Y-123804191D01*
X124415416Y-123804191D01*
X124422344Y-123804935D01*
X124475027Y-123810600D01*
X125420772Y-123810599D01*
X125480383Y-123804191D01*
X125615231Y-123753896D01*
X125730446Y-123667646D01*
X125816696Y-123552431D01*
X125866991Y-123417583D01*
X125873400Y-123357973D01*
X125873399Y-122412228D01*
X125866991Y-122352617D01*
X125860376Y-122334882D01*
X125816697Y-122217771D01*
X125816693Y-122217764D01*
X125730447Y-122102555D01*
X125730444Y-122102552D01*
X125615235Y-122016306D01*
X125615228Y-122016302D01*
X125480382Y-121966008D01*
X125480383Y-121966008D01*
X125420783Y-121959601D01*
X125420781Y-121959600D01*
X125420773Y-121959600D01*
X125420764Y-121959600D01*
X124475029Y-121959600D01*
X124475023Y-121959601D01*
X124415416Y-121966008D01*
X124405552Y-121969688D01*
X124335861Y-121974670D01*
X124274538Y-121941184D01*
X124247661Y-121900958D01*
X124214021Y-121819744D01*
X124214016Y-121819735D01*
X124134229Y-121700326D01*
X124134226Y-121700322D01*
X124032677Y-121598773D01*
X124032673Y-121598770D01*
X123913264Y-121518983D01*
X123913255Y-121518978D01*
X123780571Y-121464019D01*
X123780563Y-121464017D01*
X123639713Y-121436000D01*
X123639710Y-121436000D01*
X123496090Y-121436000D01*
X123496087Y-121436000D01*
X123355236Y-121464017D01*
X123355228Y-121464019D01*
X123222544Y-121518978D01*
X123222535Y-121518983D01*
X123103126Y-121598770D01*
X123103122Y-121598773D01*
X123055581Y-121646315D01*
X122994258Y-121679800D01*
X122924566Y-121674816D01*
X122880219Y-121646315D01*
X122832677Y-121598773D01*
X122832673Y-121598770D01*
X122713264Y-121518983D01*
X122713255Y-121518978D01*
X122580571Y-121464019D01*
X122580563Y-121464017D01*
X122439713Y-121436000D01*
X122439710Y-121436000D01*
X122296090Y-121436000D01*
X122296087Y-121436000D01*
X122155236Y-121464017D01*
X122155228Y-121464019D01*
X122022544Y-121518978D01*
X122022535Y-121518983D01*
X121903126Y-121598770D01*
X121903122Y-121598773D01*
X121801573Y-121700322D01*
X121801570Y-121700326D01*
X121721783Y-121819735D01*
X121721778Y-121819744D01*
X121666819Y-121952428D01*
X121666817Y-121952436D01*
X121638800Y-122093285D01*
X121638800Y-122236914D01*
X121666817Y-122377763D01*
X121666819Y-122377771D01*
X121721778Y-122510455D01*
X121721783Y-122510464D01*
X121801570Y-122629873D01*
X121801573Y-122629877D01*
X121903122Y-122731426D01*
X121903126Y-122731429D01*
X122022535Y-122811216D01*
X122022541Y-122811219D01*
X122022542Y-122811220D01*
X122155229Y-122866181D01*
X122284557Y-122891906D01*
X122296085Y-122894199D01*
X122296088Y-122894200D01*
X122296090Y-122894200D01*
X122439712Y-122894200D01*
X122439713Y-122894199D01*
X122580571Y-122866181D01*
X122713258Y-122811220D01*
X122832674Y-122731429D01*
X122836684Y-122727419D01*
X122880219Y-122683885D01*
X122888164Y-122679546D01*
X122893590Y-122672299D01*
X122918349Y-122663064D01*
X122941542Y-122650400D01*
X122950571Y-122651045D01*
X122959054Y-122647882D01*
X122984874Y-122653498D01*
X123011234Y-122655384D01*
X123020287Y-122661202D01*
X123027327Y-122662734D01*
X123055581Y-122683885D01*
X123099115Y-122727419D01*
X123132600Y-122788742D01*
X123127616Y-122858434D01*
X123099115Y-122902781D01*
X123001573Y-123000322D01*
X123001570Y-123000326D01*
X122921783Y-123119735D01*
X122921778Y-123119744D01*
X122866819Y-123252428D01*
X122866817Y-123252436D01*
X122838800Y-123393285D01*
X122838800Y-123536914D01*
X122866817Y-123677763D01*
X122866820Y-123677775D01*
X122907299Y-123775501D01*
X122914768Y-123844970D01*
X122883492Y-123907449D01*
X122823403Y-123943101D01*
X122753578Y-123940607D01*
X122723846Y-123926054D01*
X122713265Y-123918984D01*
X122713255Y-123918978D01*
X122580571Y-123864019D01*
X122580563Y-123864017D01*
X122439713Y-123836000D01*
X122439710Y-123836000D01*
X122296090Y-123836000D01*
X122296087Y-123836000D01*
X122155236Y-123864017D01*
X122155228Y-123864019D01*
X122022544Y-123918978D01*
X122022535Y-123918983D01*
X121903126Y-123998770D01*
X121903122Y-123998773D01*
X121801573Y-124100322D01*
X121801570Y-124100326D01*
X121771002Y-124146075D01*
X121717390Y-124190880D01*
X121648065Y-124199587D01*
X121585037Y-124169432D01*
X121564798Y-124146075D01*
X121534229Y-124100326D01*
X121534226Y-124100322D01*
X121432677Y-123998773D01*
X121432673Y-123998770D01*
X121313264Y-123918983D01*
X121313255Y-123918978D01*
X121180571Y-123864019D01*
X121180565Y-123864017D01*
X121122860Y-123852539D01*
X121060949Y-123820154D01*
X121026375Y-123759438D01*
X121030115Y-123689669D01*
X121032482Y-123683491D01*
X121032781Y-123682771D01*
X121060800Y-123541910D01*
X121060800Y-123398290D01*
X121060800Y-123398287D01*
X121060799Y-123398285D01*
X121051966Y-123353880D01*
X121032781Y-123257429D01*
X120977820Y-123124742D01*
X120977819Y-123124741D01*
X120977816Y-123124735D01*
X120898029Y-123005326D01*
X120898026Y-123005322D01*
X120815485Y-122922781D01*
X120782000Y-122861458D01*
X120786984Y-122791766D01*
X120815485Y-122747419D01*
X120898026Y-122664877D01*
X120898029Y-122664874D01*
X120977820Y-122545458D01*
X121032781Y-122412771D01*
X121060800Y-122271910D01*
X121060800Y-122128290D01*
X121060800Y-122128287D01*
X121060799Y-122128285D01*
X121038525Y-122016306D01*
X121032781Y-121987429D01*
X120977820Y-121854742D01*
X120977819Y-121854741D01*
X120977816Y-121854735D01*
X120898029Y-121735326D01*
X120898026Y-121735322D01*
X120796477Y-121633773D01*
X120796473Y-121633770D01*
X120677064Y-121553983D01*
X120677055Y-121553978D01*
X120544371Y-121499019D01*
X120544363Y-121499017D01*
X120403513Y-121471000D01*
X120403510Y-121471000D01*
X120259890Y-121471000D01*
X120259887Y-121471000D01*
X120119036Y-121499017D01*
X120119028Y-121499019D01*
X119986344Y-121553978D01*
X119986335Y-121553983D01*
X119866926Y-121633770D01*
X119866922Y-121633773D01*
X119765373Y-121735322D01*
X119765370Y-121735326D01*
X119685583Y-121854735D01*
X119685578Y-121854744D01*
X119630619Y-121987428D01*
X119630617Y-121987436D01*
X119602600Y-122128285D01*
X119602600Y-122271914D01*
X119630617Y-122412763D01*
X119630619Y-122412771D01*
X119685578Y-122545455D01*
X119685583Y-122545464D01*
X119765370Y-122664873D01*
X119765373Y-122664877D01*
X119847915Y-122747419D01*
X119881400Y-122808742D01*
X119876416Y-122878434D01*
X119847915Y-122922781D01*
X119765373Y-123005322D01*
X119765370Y-123005326D01*
X119685583Y-123124735D01*
X119685578Y-123124744D01*
X119630619Y-123257428D01*
X119630617Y-123257436D01*
X119602600Y-123398285D01*
X119602600Y-123541914D01*
X119630617Y-123682763D01*
X119630619Y-123682771D01*
X119636543Y-123697073D01*
X119644010Y-123766543D01*
X119612734Y-123829022D01*
X119560759Y-123861452D01*
X119560857Y-123861688D01*
X119559444Y-123862273D01*
X119557991Y-123863180D01*
X119555237Y-123864015D01*
X119422544Y-123918978D01*
X119422535Y-123918983D01*
X119303126Y-123998770D01*
X119303122Y-123998773D01*
X119201573Y-124100322D01*
X119201570Y-124100326D01*
X119121783Y-124219735D01*
X119121778Y-124219744D01*
X119066819Y-124352428D01*
X119066817Y-124352436D01*
X119038800Y-124493285D01*
X116797000Y-124493285D01*
X116797000Y-124393290D01*
X116797000Y-124393287D01*
X116796999Y-124393285D01*
X116774477Y-124280059D01*
X116768981Y-124252429D01*
X116720268Y-124134826D01*
X116714021Y-124119744D01*
X116714016Y-124119735D01*
X116634229Y-124000326D01*
X116634226Y-124000322D01*
X116532677Y-123898773D01*
X116532673Y-123898770D01*
X116413264Y-123818983D01*
X116413255Y-123818978D01*
X116280571Y-123764019D01*
X116280566Y-123764017D01*
X116217926Y-123751557D01*
X116156015Y-123719171D01*
X116121442Y-123658455D01*
X116120502Y-123605748D01*
X116133200Y-123541912D01*
X116133200Y-123398287D01*
X116133199Y-123398285D01*
X116124366Y-123353880D01*
X116105181Y-123257429D01*
X116050220Y-123124742D01*
X116050219Y-123124741D01*
X116050216Y-123124735D01*
X115970429Y-123005326D01*
X115970426Y-123005322D01*
X115868877Y-122903773D01*
X115868873Y-122903770D01*
X115749464Y-122823983D01*
X115749455Y-122823978D01*
X115616771Y-122769019D01*
X115616763Y-122769017D01*
X115475913Y-122741000D01*
X115475910Y-122741000D01*
X115332290Y-122741000D01*
X115332287Y-122741000D01*
X115191436Y-122769017D01*
X115191428Y-122769019D01*
X115058744Y-122823978D01*
X115058735Y-122823983D01*
X114939326Y-122903770D01*
X114939322Y-122903773D01*
X114837773Y-123005322D01*
X114837770Y-123005326D01*
X114757983Y-123124735D01*
X114757978Y-123124744D01*
X114709195Y-123242517D01*
X114703020Y-123257428D01*
X114700688Y-123263057D01*
X114698132Y-123261998D01*
X114666322Y-123310491D01*
X114602497Y-123338920D01*
X114533434Y-123328329D01*
X114481061Y-123282082D01*
X114472203Y-123262687D01*
X114471312Y-123263057D01*
X114468980Y-123257428D01*
X114414020Y-123124742D01*
X114414019Y-123124741D01*
X114414016Y-123124735D01*
X114334229Y-123005326D01*
X114334226Y-123005322D01*
X114232677Y-122903773D01*
X114232673Y-122903770D01*
X114113264Y-122823983D01*
X114113255Y-122823978D01*
X113980571Y-122769019D01*
X113980563Y-122769017D01*
X113839713Y-122741000D01*
X113839710Y-122741000D01*
X113696090Y-122741000D01*
X113696087Y-122741000D01*
X113555236Y-122769017D01*
X113555228Y-122769019D01*
X113422544Y-122823978D01*
X113422535Y-122823983D01*
X113303126Y-122903770D01*
X113303122Y-122903773D01*
X113201573Y-123005322D01*
X113201570Y-123005326D01*
X113121783Y-123124735D01*
X113121778Y-123124744D01*
X113066819Y-123257428D01*
X113066817Y-123257436D01*
X113038800Y-123398285D01*
X99392941Y-123398285D01*
X99398126Y-123388109D01*
X99398127Y-123388106D01*
X99409248Y-123353880D01*
X99438757Y-123263057D01*
X99465030Y-123182197D01*
X99498900Y-122968354D01*
X99498900Y-122751846D01*
X99465030Y-122538003D01*
X99412966Y-122377763D01*
X99398127Y-122332093D01*
X99398126Y-122332090D01*
X99299832Y-122139180D01*
X99291918Y-122128287D01*
X99172572Y-121964022D01*
X99019478Y-121810928D01*
X98853608Y-121690416D01*
X98810945Y-121635088D01*
X98804966Y-121565475D01*
X98837572Y-121503680D01*
X98853605Y-121489786D01*
X99019478Y-121369272D01*
X99172572Y-121216178D01*
X99299833Y-121041019D01*
X99398126Y-120848109D01*
X99465030Y-120642197D01*
X99498900Y-120428354D01*
X99498900Y-120211846D01*
X99465030Y-119998003D01*
X99465029Y-119997999D01*
X99420914Y-119862223D01*
X99409546Y-119827235D01*
X102297900Y-119827235D01*
X102297900Y-120772970D01*
X102297901Y-120772976D01*
X102304308Y-120832583D01*
X102354602Y-120967428D01*
X102354606Y-120967435D01*
X102440852Y-121082644D01*
X102440855Y-121082647D01*
X102556064Y-121168893D01*
X102556071Y-121168897D01*
X102690917Y-121219191D01*
X102690916Y-121219191D01*
X102697844Y-121219935D01*
X102750527Y-121225600D01*
X103696272Y-121225599D01*
X103755883Y-121219191D01*
X103890731Y-121168896D01*
X104005946Y-121082646D01*
X104092196Y-120967431D01*
X104142491Y-120832583D01*
X104148900Y-120772973D01*
X104148899Y-119827228D01*
X104142491Y-119767617D01*
X104132904Y-119741914D01*
X104092197Y-119632771D01*
X104092193Y-119632764D01*
X104005947Y-119517555D01*
X104005944Y-119517552D01*
X103890735Y-119431306D01*
X103890728Y-119431302D01*
X103755882Y-119381008D01*
X103755883Y-119381008D01*
X103696283Y-119374601D01*
X103696281Y-119374600D01*
X103696273Y-119374600D01*
X103696264Y-119374600D01*
X102750529Y-119374600D01*
X102750523Y-119374601D01*
X102690916Y-119381008D01*
X102556071Y-119431302D01*
X102556064Y-119431306D01*
X102440855Y-119517552D01*
X102440852Y-119517555D01*
X102354606Y-119632764D01*
X102354602Y-119632771D01*
X102304308Y-119767617D01*
X102298242Y-119824042D01*
X102297901Y-119827223D01*
X102297900Y-119827235D01*
X99409546Y-119827235D01*
X99398127Y-119792093D01*
X99398126Y-119792090D01*
X99339526Y-119677083D01*
X99299833Y-119599181D01*
X99172572Y-119424022D01*
X99019478Y-119270928D01*
X98936931Y-119210954D01*
X98853185Y-119150108D01*
X98810520Y-119094777D01*
X98804541Y-119025164D01*
X98837147Y-118963369D01*
X98853186Y-118949472D01*
X98903015Y-118913268D01*
X98903016Y-118913268D01*
X98583033Y-118593285D01*
X113038800Y-118593285D01*
X113038800Y-118736914D01*
X113066817Y-118877763D01*
X113066819Y-118877771D01*
X113121778Y-119010455D01*
X113121782Y-119010462D01*
X113180747Y-119098710D01*
X113201624Y-119165387D01*
X113183139Y-119232767D01*
X113180747Y-119236490D01*
X113121782Y-119324737D01*
X113121778Y-119324744D01*
X113066819Y-119457428D01*
X113066817Y-119457436D01*
X113038800Y-119598285D01*
X113038800Y-119741914D01*
X113066817Y-119882763D01*
X113066819Y-119882771D01*
X113121778Y-120015455D01*
X113121783Y-120015464D01*
X113201570Y-120134873D01*
X113201573Y-120134877D01*
X113303122Y-120236426D01*
X113303126Y-120236429D01*
X113422535Y-120316216D01*
X113422541Y-120316219D01*
X113422542Y-120316220D01*
X113555229Y-120371181D01*
X113645812Y-120389199D01*
X113696085Y-120399199D01*
X113696088Y-120399200D01*
X113696090Y-120399200D01*
X113839712Y-120399200D01*
X113839713Y-120399199D01*
X113980571Y-120371181D01*
X114113258Y-120316220D01*
X114232674Y-120236429D01*
X114334229Y-120134874D01*
X114414020Y-120015458D01*
X114468981Y-119882771D01*
X114468984Y-119882753D01*
X114469067Y-119882484D01*
X114469155Y-119882348D01*
X114471312Y-119877143D01*
X114472298Y-119877551D01*
X114507359Y-119824042D01*
X114571169Y-119795580D01*
X114640237Y-119806134D01*
X114692635Y-119852354D01*
X114702292Y-119871016D01*
X114757978Y-120005454D01*
X114757983Y-120005464D01*
X114837770Y-120124873D01*
X114837773Y-120124877D01*
X114939322Y-120226426D01*
X114939326Y-120226429D01*
X115058735Y-120306216D01*
X115058744Y-120306221D01*
X115072672Y-120311990D01*
X115191429Y-120361181D01*
X115332285Y-120389199D01*
X115332288Y-120389200D01*
X115332290Y-120389200D01*
X115475912Y-120389200D01*
X115475913Y-120389199D01*
X115616771Y-120361181D01*
X115749458Y-120306220D01*
X115868874Y-120226429D01*
X115970429Y-120124874D01*
X116050220Y-120005458D01*
X116105181Y-119872771D01*
X116133200Y-119731910D01*
X116133200Y-119588290D01*
X116133200Y-119588287D01*
X116121339Y-119528660D01*
X116127566Y-119459068D01*
X116170429Y-119403891D01*
X116218762Y-119382851D01*
X116302571Y-119366181D01*
X116435258Y-119311220D01*
X116554674Y-119231429D01*
X116656229Y-119129874D01*
X116736020Y-119010458D01*
X116790981Y-118877771D01*
X116814012Y-118761985D01*
X151612600Y-118761985D01*
X151612600Y-118905614D01*
X151640617Y-119046463D01*
X151640619Y-119046471D01*
X151695578Y-119179155D01*
X151695583Y-119179164D01*
X151775370Y-119298573D01*
X151775373Y-119298577D01*
X151876922Y-119400126D01*
X151876926Y-119400129D01*
X151996335Y-119479916D01*
X151996341Y-119479919D01*
X151996342Y-119479920D01*
X152129029Y-119534881D01*
X152257940Y-119560523D01*
X152269885Y-119562899D01*
X152269888Y-119562900D01*
X152269890Y-119562900D01*
X152413512Y-119562900D01*
X152413513Y-119562899D01*
X152554371Y-119534881D01*
X152687058Y-119479920D01*
X152806474Y-119400129D01*
X152908029Y-119298574D01*
X152931516Y-119263421D01*
X152985127Y-119218618D01*
X153054452Y-119209910D01*
X153058783Y-119210690D01*
X153069890Y-119212900D01*
X153069891Y-119212900D01*
X153213512Y-119212900D01*
X153213513Y-119212899D01*
X153354371Y-119184881D01*
X153487058Y-119129920D01*
X153606474Y-119050129D01*
X153708029Y-118948574D01*
X153770144Y-118855612D01*
X153785498Y-118832634D01*
X153839110Y-118787829D01*
X153908435Y-118779122D01*
X153971463Y-118809276D01*
X154008182Y-118868719D01*
X154012600Y-118901525D01*
X154012600Y-118905614D01*
X154040617Y-119046463D01*
X154040619Y-119046471D01*
X154095578Y-119179155D01*
X154095583Y-119179164D01*
X154175370Y-119298573D01*
X154175373Y-119298577D01*
X154276922Y-119400126D01*
X154276926Y-119400129D01*
X154396335Y-119479916D01*
X154396341Y-119479919D01*
X154396342Y-119479920D01*
X154529029Y-119534881D01*
X154657940Y-119560523D01*
X154669885Y-119562899D01*
X154669888Y-119562900D01*
X154669890Y-119562900D01*
X154813512Y-119562900D01*
X154813513Y-119562899D01*
X154954371Y-119534881D01*
X155087058Y-119479920D01*
X155206474Y-119400129D01*
X155308029Y-119298574D01*
X155387820Y-119179158D01*
X155442781Y-119046471D01*
X155470800Y-118905610D01*
X155470800Y-118761990D01*
X155470800Y-118761987D01*
X155470799Y-118761985D01*
X156412600Y-118761985D01*
X156412600Y-118905614D01*
X156440617Y-119046463D01*
X156440619Y-119046471D01*
X156495578Y-119179155D01*
X156495583Y-119179164D01*
X156575370Y-119298573D01*
X156575373Y-119298577D01*
X156676922Y-119400126D01*
X156676926Y-119400129D01*
X156796335Y-119479916D01*
X156796341Y-119479919D01*
X156796342Y-119479920D01*
X156929029Y-119534881D01*
X157057940Y-119560523D01*
X157069885Y-119562899D01*
X157069888Y-119562900D01*
X157069890Y-119562900D01*
X157213512Y-119562900D01*
X157213513Y-119562899D01*
X157354371Y-119534881D01*
X157487058Y-119479920D01*
X157606474Y-119400129D01*
X157708029Y-119298574D01*
X157731516Y-119263421D01*
X157785127Y-119218618D01*
X157854452Y-119209910D01*
X157858783Y-119210690D01*
X157869890Y-119212900D01*
X157869891Y-119212900D01*
X158013512Y-119212900D01*
X158013513Y-119212899D01*
X158154371Y-119184881D01*
X158287058Y-119129920D01*
X158406474Y-119050129D01*
X158508029Y-118948574D01*
X158587820Y-118829158D01*
X158589583Y-118824903D01*
X158627139Y-118734234D01*
X158670980Y-118679830D01*
X158737274Y-118657765D01*
X158804973Y-118675044D01*
X158852584Y-118726181D01*
X158856261Y-118734234D01*
X158895576Y-118829151D01*
X158895583Y-118829164D01*
X158975370Y-118948573D01*
X158975373Y-118948577D01*
X159076922Y-119050126D01*
X159076926Y-119050129D01*
X159196335Y-119129916D01*
X159196341Y-119129919D01*
X159196342Y-119129920D01*
X159329029Y-119184881D01*
X159428807Y-119204728D01*
X159469885Y-119212899D01*
X159469888Y-119212900D01*
X159469890Y-119212900D01*
X159613512Y-119212900D01*
X159613513Y-119212899D01*
X159754371Y-119184881D01*
X159887058Y-119129920D01*
X160006474Y-119050129D01*
X160108029Y-118948574D01*
X160187820Y-118829158D01*
X160242781Y-118696471D01*
X160270800Y-118555610D01*
X160270800Y-118411990D01*
X160270800Y-118411987D01*
X160270799Y-118411985D01*
X161212600Y-118411985D01*
X161212600Y-118555614D01*
X161240617Y-118696463D01*
X161240619Y-118696471D01*
X161295578Y-118829155D01*
X161295583Y-118829164D01*
X161375370Y-118948573D01*
X161375373Y-118948577D01*
X161476922Y-119050126D01*
X161476926Y-119050129D01*
X161596335Y-119129916D01*
X161596341Y-119129919D01*
X161596342Y-119129920D01*
X161729029Y-119184881D01*
X161828807Y-119204728D01*
X161869885Y-119212899D01*
X161869888Y-119212900D01*
X161869890Y-119212900D01*
X162013511Y-119212900D01*
X162017760Y-119212054D01*
X162024584Y-119210697D01*
X162094175Y-119216921D01*
X162149355Y-119259781D01*
X162151883Y-119263423D01*
X162175367Y-119298569D01*
X162175373Y-119298577D01*
X162276922Y-119400126D01*
X162276926Y-119400129D01*
X162396335Y-119479916D01*
X162396341Y-119479919D01*
X162396342Y-119479920D01*
X162529029Y-119534881D01*
X162657940Y-119560523D01*
X162669885Y-119562899D01*
X162669888Y-119562900D01*
X162669890Y-119562900D01*
X162813512Y-119562900D01*
X162813513Y-119562899D01*
X162954371Y-119534881D01*
X163087058Y-119479920D01*
X163206474Y-119400129D01*
X163308029Y-119298574D01*
X163387820Y-119179158D01*
X163442781Y-119046471D01*
X163470800Y-118905610D01*
X163470800Y-118901525D01*
X163490485Y-118834486D01*
X163543289Y-118788731D01*
X163612447Y-118778787D01*
X163676003Y-118807812D01*
X163697902Y-118832634D01*
X163775370Y-118948573D01*
X163775373Y-118948577D01*
X163876922Y-119050126D01*
X163876926Y-119050129D01*
X163996335Y-119129916D01*
X163996341Y-119129919D01*
X163996342Y-119129920D01*
X164129029Y-119184881D01*
X164228807Y-119204728D01*
X164269885Y-119212899D01*
X164269888Y-119212900D01*
X164269890Y-119212900D01*
X164413511Y-119212900D01*
X164417760Y-119212054D01*
X164424584Y-119210697D01*
X164494175Y-119216921D01*
X164549355Y-119259781D01*
X164551883Y-119263423D01*
X164575367Y-119298569D01*
X164575373Y-119298577D01*
X164676922Y-119400126D01*
X164676926Y-119400129D01*
X164796335Y-119479916D01*
X164796341Y-119479919D01*
X164796342Y-119479920D01*
X164929029Y-119534881D01*
X164995183Y-119548040D01*
X165075292Y-119563975D01*
X165137203Y-119596360D01*
X165171777Y-119657075D01*
X165168038Y-119726845D01*
X165127171Y-119783517D01*
X165119993Y-119788693D01*
X165076928Y-119817468D01*
X165076922Y-119817473D01*
X164975373Y-119919022D01*
X164975370Y-119919026D01*
X164895583Y-120038435D01*
X164895578Y-120038444D01*
X164840619Y-120171128D01*
X164840617Y-120171136D01*
X164812600Y-120311985D01*
X164812600Y-120455614D01*
X164840616Y-120596463D01*
X164840619Y-120596472D01*
X164862314Y-120648848D01*
X164869783Y-120718317D01*
X164862314Y-120743752D01*
X164840619Y-120796127D01*
X164840616Y-120796136D01*
X164812600Y-120936985D01*
X164812600Y-121080614D01*
X164840616Y-121221463D01*
X164840619Y-121221472D01*
X164862314Y-121273848D01*
X164869783Y-121343317D01*
X164862314Y-121368752D01*
X164840619Y-121421127D01*
X164840616Y-121421136D01*
X164812600Y-121561985D01*
X164812600Y-121705614D01*
X164840617Y-121846463D01*
X164840619Y-121846471D01*
X164895578Y-121979155D01*
X164895583Y-121979164D01*
X164975370Y-122098573D01*
X164975373Y-122098577D01*
X165076922Y-122200126D01*
X165076926Y-122200129D01*
X165196335Y-122279916D01*
X165196341Y-122279919D01*
X165196342Y-122279920D01*
X165329029Y-122334881D01*
X165469885Y-122362899D01*
X165469888Y-122362900D01*
X165469890Y-122362900D01*
X165613512Y-122362900D01*
X165613513Y-122362899D01*
X165754371Y-122334881D01*
X165887058Y-122279920D01*
X166006474Y-122200129D01*
X166108029Y-122098574D01*
X166187820Y-121979158D01*
X166242781Y-121846471D01*
X166270800Y-121705610D01*
X166270800Y-121561990D01*
X166270800Y-121561987D01*
X166270799Y-121561985D01*
X166259201Y-121503680D01*
X166242781Y-121421129D01*
X166221085Y-121368752D01*
X166213616Y-121299285D01*
X166221086Y-121273846D01*
X166242779Y-121221476D01*
X166242779Y-121221475D01*
X166242781Y-121221471D01*
X166270800Y-121080610D01*
X166270800Y-120936990D01*
X166270800Y-120936987D01*
X166270799Y-120936985D01*
X166242782Y-120796136D01*
X166242781Y-120796129D01*
X166221085Y-120743752D01*
X166213616Y-120674285D01*
X166221086Y-120648846D01*
X166242779Y-120596476D01*
X166242779Y-120596475D01*
X166242781Y-120596471D01*
X166270800Y-120455610D01*
X166270800Y-120311990D01*
X166270800Y-120311987D01*
X166270799Y-120311985D01*
X166242782Y-120171136D01*
X166242781Y-120171129D01*
X166187820Y-120038442D01*
X166187819Y-120038441D01*
X166187816Y-120038435D01*
X166108029Y-119919026D01*
X166108026Y-119919022D01*
X166006477Y-119817473D01*
X166006473Y-119817470D01*
X165887064Y-119737683D01*
X165887055Y-119737678D01*
X165754371Y-119682719D01*
X165754365Y-119682717D01*
X165608106Y-119653624D01*
X165546195Y-119621239D01*
X165511621Y-119560523D01*
X165515361Y-119490753D01*
X165556228Y-119434082D01*
X165563394Y-119428913D01*
X165606474Y-119400129D01*
X165708029Y-119298574D01*
X165787820Y-119179158D01*
X165842781Y-119046471D01*
X165870800Y-118905610D01*
X165870800Y-118888132D01*
X165890485Y-118821093D01*
X165943289Y-118775338D01*
X166012447Y-118765394D01*
X166076003Y-118794419D01*
X166099973Y-118824441D01*
X166100495Y-118824093D01*
X166183670Y-118948573D01*
X166183673Y-118948577D01*
X166285222Y-119050126D01*
X166285226Y-119050129D01*
X166404635Y-119129916D01*
X166404641Y-119129919D01*
X166404642Y-119129920D01*
X166537329Y-119184881D01*
X166637107Y-119204728D01*
X166678185Y-119212899D01*
X166678188Y-119212900D01*
X166678190Y-119212900D01*
X166821809Y-119212900D01*
X166821810Y-119212900D01*
X166825554Y-119212155D01*
X166827557Y-119212334D01*
X166827875Y-119212303D01*
X166827880Y-119212363D01*
X166895144Y-119218376D01*
X166950326Y-119261233D01*
X166952842Y-119264857D01*
X166967075Y-119286158D01*
X166975372Y-119298576D01*
X167076922Y-119400126D01*
X167076926Y-119400129D01*
X167196335Y-119479916D01*
X167196341Y-119479919D01*
X167196342Y-119479920D01*
X167329029Y-119534881D01*
X167457940Y-119560523D01*
X167469885Y-119562899D01*
X167469888Y-119562900D01*
X167469890Y-119562900D01*
X167613512Y-119562900D01*
X167613513Y-119562899D01*
X167754371Y-119534881D01*
X167887058Y-119479920D01*
X168006474Y-119400129D01*
X168108029Y-119298574D01*
X168187820Y-119179158D01*
X168242781Y-119046471D01*
X168270800Y-118905610D01*
X168270800Y-118888132D01*
X168290485Y-118821093D01*
X168343289Y-118775338D01*
X168412447Y-118765394D01*
X168476003Y-118794419D01*
X168499973Y-118824441D01*
X168500495Y-118824093D01*
X168583670Y-118948573D01*
X168583673Y-118948577D01*
X168685222Y-119050126D01*
X168685226Y-119050129D01*
X168804635Y-119129916D01*
X168804641Y-119129919D01*
X168804642Y-119129920D01*
X168937329Y-119184881D01*
X169037107Y-119204728D01*
X169078185Y-119212899D01*
X169078188Y-119212900D01*
X169078190Y-119212900D01*
X169221811Y-119212900D01*
X169226060Y-119212054D01*
X169232884Y-119210697D01*
X169302475Y-119216921D01*
X169357655Y-119259781D01*
X169360183Y-119263423D01*
X169383667Y-119298569D01*
X169383673Y-119298577D01*
X169485222Y-119400126D01*
X169485226Y-119400129D01*
X169604635Y-119479916D01*
X169604641Y-119479919D01*
X169604642Y-119479920D01*
X169737329Y-119534881D01*
X169866240Y-119560523D01*
X169878185Y-119562899D01*
X169878188Y-119562900D01*
X169878190Y-119562900D01*
X170021812Y-119562900D01*
X170021813Y-119562899D01*
X170162671Y-119534881D01*
X170295358Y-119479920D01*
X170414774Y-119400129D01*
X170516329Y-119298574D01*
X170596120Y-119179158D01*
X170651081Y-119046471D01*
X170679100Y-118905610D01*
X170679100Y-118905600D01*
X170679503Y-118901511D01*
X170705661Y-118836722D01*
X170762693Y-118796360D01*
X170832493Y-118793239D01*
X170892900Y-118828351D01*
X170906009Y-118844767D01*
X170975370Y-118948573D01*
X170975373Y-118948577D01*
X171076922Y-119050126D01*
X171076926Y-119050129D01*
X171196335Y-119129916D01*
X171196341Y-119129919D01*
X171196342Y-119129920D01*
X171329029Y-119184881D01*
X171428807Y-119204728D01*
X171469885Y-119212899D01*
X171469888Y-119212900D01*
X171469890Y-119212900D01*
X171613511Y-119212900D01*
X171627689Y-119210079D01*
X171654592Y-119204728D01*
X171724183Y-119210954D01*
X171770592Y-119244737D01*
X171771063Y-119244267D01*
X171774048Y-119247252D01*
X171774640Y-119247683D01*
X171775376Y-119248580D01*
X171876922Y-119350126D01*
X171876926Y-119350129D01*
X171996335Y-119429916D01*
X171996341Y-119429919D01*
X171996342Y-119429920D01*
X172129029Y-119484881D01*
X172269885Y-119512899D01*
X172269888Y-119512900D01*
X172269890Y-119512900D01*
X172413512Y-119512900D01*
X172413513Y-119512899D01*
X172554371Y-119484881D01*
X172687058Y-119429920D01*
X172806474Y-119350129D01*
X172908029Y-119248574D01*
X172987820Y-119129158D01*
X173042781Y-118996471D01*
X173066393Y-118877765D01*
X173068017Y-118869603D01*
X173100402Y-118807692D01*
X173161117Y-118773118D01*
X173230887Y-118776857D01*
X173287559Y-118817724D01*
X173292736Y-118824903D01*
X173375370Y-118948573D01*
X173375373Y-118948577D01*
X173476922Y-119050126D01*
X173476926Y-119050129D01*
X173596335Y-119129916D01*
X173596341Y-119129919D01*
X173596342Y-119129920D01*
X173729029Y-119184881D01*
X173828807Y-119204728D01*
X173869885Y-119212899D01*
X173869888Y-119212900D01*
X173869890Y-119212900D01*
X174013511Y-119212900D01*
X174027689Y-119210079D01*
X174054592Y-119204728D01*
X174124183Y-119210954D01*
X174170592Y-119244737D01*
X174171063Y-119244267D01*
X174174048Y-119247252D01*
X174174640Y-119247683D01*
X174175376Y-119248580D01*
X174276922Y-119350126D01*
X174276926Y-119350129D01*
X174396335Y-119429916D01*
X174396341Y-119429919D01*
X174396342Y-119429920D01*
X174529029Y-119484881D01*
X174669885Y-119512899D01*
X174669888Y-119512900D01*
X174669890Y-119512900D01*
X174813512Y-119512900D01*
X174813513Y-119512899D01*
X174954371Y-119484881D01*
X175087058Y-119429920D01*
X175206474Y-119350129D01*
X175308029Y-119248574D01*
X175387820Y-119129158D01*
X175442781Y-118996471D01*
X175466393Y-118877765D01*
X175468017Y-118869603D01*
X175500402Y-118807692D01*
X175561117Y-118773118D01*
X175630887Y-118776857D01*
X175687559Y-118817724D01*
X175692736Y-118824903D01*
X175775370Y-118948573D01*
X175775373Y-118948577D01*
X175876922Y-119050126D01*
X175876926Y-119050129D01*
X175996335Y-119129916D01*
X175996341Y-119129919D01*
X175996342Y-119129920D01*
X176129029Y-119184881D01*
X176228807Y-119204728D01*
X176269885Y-119212899D01*
X176269888Y-119212900D01*
X176269890Y-119212900D01*
X176413511Y-119212900D01*
X176427689Y-119210079D01*
X176454592Y-119204728D01*
X176524183Y-119210954D01*
X176570592Y-119244737D01*
X176571063Y-119244267D01*
X176574048Y-119247252D01*
X176574640Y-119247683D01*
X176575376Y-119248580D01*
X176676922Y-119350126D01*
X176676926Y-119350129D01*
X176796335Y-119429916D01*
X176796341Y-119429919D01*
X176796342Y-119429920D01*
X176929029Y-119484881D01*
X177069885Y-119512899D01*
X177069888Y-119512900D01*
X177069890Y-119512900D01*
X177213512Y-119512900D01*
X177213513Y-119512899D01*
X177354371Y-119484881D01*
X177487058Y-119429920D01*
X177606474Y-119350129D01*
X177708029Y-119248574D01*
X177787820Y-119129158D01*
X177842781Y-118996471D01*
X177870800Y-118855610D01*
X177870800Y-118711990D01*
X177870800Y-118711987D01*
X177870799Y-118711985D01*
X177852728Y-118621136D01*
X177842781Y-118571129D01*
X177787820Y-118438442D01*
X177787819Y-118438441D01*
X177787816Y-118438435D01*
X177708029Y-118319026D01*
X177708026Y-118319022D01*
X177606477Y-118217473D01*
X177606473Y-118217470D01*
X177487064Y-118137683D01*
X177487055Y-118137678D01*
X177354371Y-118082719D01*
X177354363Y-118082717D01*
X177213513Y-118054700D01*
X177213510Y-118054700D01*
X177069890Y-118054700D01*
X177028805Y-118062872D01*
X176959213Y-118056643D01*
X176912807Y-118022862D01*
X176912337Y-118023333D01*
X176909346Y-118020342D01*
X176908758Y-118019914D01*
X176908026Y-118019022D01*
X176806477Y-117917473D01*
X176806473Y-117917470D01*
X176687064Y-117837683D01*
X176687055Y-117837678D01*
X176554371Y-117782719D01*
X176554363Y-117782717D01*
X176413513Y-117754700D01*
X176413510Y-117754700D01*
X176269890Y-117754700D01*
X176269887Y-117754700D01*
X176129036Y-117782717D01*
X176129028Y-117782719D01*
X175996344Y-117837678D01*
X175996335Y-117837683D01*
X175876926Y-117917470D01*
X175876922Y-117917473D01*
X175775373Y-118019022D01*
X175775370Y-118019026D01*
X175695583Y-118138435D01*
X175695578Y-118138444D01*
X175640619Y-118271128D01*
X175640617Y-118271134D01*
X175615382Y-118397997D01*
X175582997Y-118459908D01*
X175522281Y-118494482D01*
X175452511Y-118490741D01*
X175395839Y-118449875D01*
X175390663Y-118442696D01*
X175308029Y-118319026D01*
X175308026Y-118319022D01*
X175206477Y-118217473D01*
X175206473Y-118217470D01*
X175087064Y-118137683D01*
X175087055Y-118137678D01*
X174954371Y-118082719D01*
X174954363Y-118082717D01*
X174813513Y-118054700D01*
X174813510Y-118054700D01*
X174669890Y-118054700D01*
X174628805Y-118062872D01*
X174559213Y-118056643D01*
X174512807Y-118022862D01*
X174512337Y-118023333D01*
X174509346Y-118020342D01*
X174508758Y-118019914D01*
X174508026Y-118019022D01*
X174406477Y-117917473D01*
X174406473Y-117917470D01*
X174287064Y-117837683D01*
X174287055Y-117837678D01*
X174154371Y-117782719D01*
X174154363Y-117782717D01*
X174013513Y-117754700D01*
X174013510Y-117754700D01*
X173869890Y-117754700D01*
X173869887Y-117754700D01*
X173729036Y-117782717D01*
X173729028Y-117782719D01*
X173596344Y-117837678D01*
X173596335Y-117837683D01*
X173476926Y-117917470D01*
X173476922Y-117917473D01*
X173375373Y-118019022D01*
X173375370Y-118019026D01*
X173295583Y-118138435D01*
X173295578Y-118138444D01*
X173240619Y-118271128D01*
X173240617Y-118271134D01*
X173215382Y-118397997D01*
X173182997Y-118459908D01*
X173122281Y-118494482D01*
X173052511Y-118490741D01*
X172995839Y-118449875D01*
X172990663Y-118442696D01*
X172908029Y-118319026D01*
X172908026Y-118319022D01*
X172806477Y-118217473D01*
X172806473Y-118217470D01*
X172687064Y-118137683D01*
X172687055Y-118137678D01*
X172554371Y-118082719D01*
X172554363Y-118082717D01*
X172413513Y-118054700D01*
X172413510Y-118054700D01*
X172269890Y-118054700D01*
X172228805Y-118062872D01*
X172159213Y-118056643D01*
X172112807Y-118022862D01*
X172112337Y-118023333D01*
X172109346Y-118020342D01*
X172108758Y-118019914D01*
X172108026Y-118019022D01*
X172006477Y-117917473D01*
X172006473Y-117917470D01*
X171887064Y-117837683D01*
X171887055Y-117837678D01*
X171754371Y-117782719D01*
X171754363Y-117782717D01*
X171613513Y-117754700D01*
X171613510Y-117754700D01*
X171469890Y-117754700D01*
X171469887Y-117754700D01*
X171329036Y-117782717D01*
X171329028Y-117782719D01*
X171196344Y-117837678D01*
X171196335Y-117837683D01*
X171076926Y-117917470D01*
X171076922Y-117917473D01*
X170975373Y-118019022D01*
X170975370Y-118019026D01*
X170895583Y-118138435D01*
X170895578Y-118138444D01*
X170840619Y-118271128D01*
X170840617Y-118271136D01*
X170812599Y-118411990D01*
X170812194Y-118416102D01*
X170786030Y-118480887D01*
X170728993Y-118521243D01*
X170659193Y-118524357D01*
X170598790Y-118489239D01*
X170585690Y-118472832D01*
X170516329Y-118369025D01*
X170414777Y-118267473D01*
X170414773Y-118267470D01*
X170295364Y-118187683D01*
X170295355Y-118187678D01*
X170162671Y-118132719D01*
X170162663Y-118132717D01*
X170021813Y-118104700D01*
X170021810Y-118104700D01*
X169878190Y-118104700D01*
X169878185Y-118104700D01*
X169867105Y-118106904D01*
X169797513Y-118100674D01*
X169742338Y-118057809D01*
X169739816Y-118054177D01*
X169716327Y-118019023D01*
X169614777Y-117917473D01*
X169614773Y-117917470D01*
X169495364Y-117837683D01*
X169495355Y-117837678D01*
X169362671Y-117782719D01*
X169362663Y-117782717D01*
X169221813Y-117754700D01*
X169221810Y-117754700D01*
X169078190Y-117754700D01*
X169078187Y-117754700D01*
X168937336Y-117782717D01*
X168937328Y-117782719D01*
X168804644Y-117837678D01*
X168804635Y-117837683D01*
X168685226Y-117917470D01*
X168685222Y-117917473D01*
X168583673Y-118019022D01*
X168583670Y-118019026D01*
X168503883Y-118138435D01*
X168503878Y-118138444D01*
X168448919Y-118271128D01*
X168448917Y-118271136D01*
X168420900Y-118411985D01*
X168420900Y-118429467D01*
X168401215Y-118496506D01*
X168348411Y-118542261D01*
X168279253Y-118552205D01*
X168215697Y-118523180D01*
X168191725Y-118493159D01*
X168191205Y-118493507D01*
X168108029Y-118369026D01*
X168108026Y-118369022D01*
X168006477Y-118267473D01*
X168006473Y-118267470D01*
X167887064Y-118187683D01*
X167887055Y-118187678D01*
X167754371Y-118132719D01*
X167754363Y-118132717D01*
X167613513Y-118104700D01*
X167613510Y-118104700D01*
X167469890Y-118104700D01*
X167469884Y-118104700D01*
X167466130Y-118105447D01*
X167464125Y-118105267D01*
X167463826Y-118105297D01*
X167463820Y-118105240D01*
X167396539Y-118099217D01*
X167341363Y-118056352D01*
X167338841Y-118052718D01*
X167316330Y-118019027D01*
X167316326Y-118019022D01*
X167214777Y-117917473D01*
X167214773Y-117917470D01*
X167095364Y-117837683D01*
X167095355Y-117837678D01*
X166962671Y-117782719D01*
X166962663Y-117782717D01*
X166821813Y-117754700D01*
X166821810Y-117754700D01*
X166678190Y-117754700D01*
X166678187Y-117754700D01*
X166537336Y-117782717D01*
X166537328Y-117782719D01*
X166404644Y-117837678D01*
X166404635Y-117837683D01*
X166285226Y-117917470D01*
X166285222Y-117917473D01*
X166183673Y-118019022D01*
X166183670Y-118019026D01*
X166103883Y-118138435D01*
X166103878Y-118138444D01*
X166048919Y-118271128D01*
X166048917Y-118271136D01*
X166020900Y-118411985D01*
X166020900Y-118429467D01*
X166001215Y-118496506D01*
X165948411Y-118542261D01*
X165879253Y-118552205D01*
X165815697Y-118523180D01*
X165791725Y-118493159D01*
X165791205Y-118493507D01*
X165708029Y-118369026D01*
X165708026Y-118369022D01*
X165606477Y-118267473D01*
X165606473Y-118267470D01*
X165487064Y-118187683D01*
X165487055Y-118187678D01*
X165354371Y-118132719D01*
X165354363Y-118132717D01*
X165213513Y-118104700D01*
X165213510Y-118104700D01*
X165069890Y-118104700D01*
X165069885Y-118104700D01*
X165058805Y-118106904D01*
X164989213Y-118100674D01*
X164934038Y-118057809D01*
X164931516Y-118054177D01*
X164908027Y-118019023D01*
X164806477Y-117917473D01*
X164806473Y-117917470D01*
X164687064Y-117837683D01*
X164687055Y-117837678D01*
X164554371Y-117782719D01*
X164554363Y-117782717D01*
X164413513Y-117754700D01*
X164413510Y-117754700D01*
X164269890Y-117754700D01*
X164269887Y-117754700D01*
X164129036Y-117782717D01*
X164129028Y-117782719D01*
X163996344Y-117837678D01*
X163996335Y-117837683D01*
X163876926Y-117917470D01*
X163876922Y-117917473D01*
X163775373Y-118019022D01*
X163775370Y-118019026D01*
X163695583Y-118138435D01*
X163695578Y-118138444D01*
X163640619Y-118271128D01*
X163640617Y-118271136D01*
X163612600Y-118411985D01*
X163612600Y-118416074D01*
X163592915Y-118483113D01*
X163540111Y-118528868D01*
X163470953Y-118538812D01*
X163407397Y-118509787D01*
X163385498Y-118484965D01*
X163308029Y-118369026D01*
X163308026Y-118369022D01*
X163206477Y-118267473D01*
X163206473Y-118267470D01*
X163087064Y-118187683D01*
X163087055Y-118187678D01*
X162954371Y-118132719D01*
X162954363Y-118132717D01*
X162813513Y-118104700D01*
X162813510Y-118104700D01*
X162669890Y-118104700D01*
X162669885Y-118104700D01*
X162658805Y-118106904D01*
X162589213Y-118100674D01*
X162534038Y-118057809D01*
X162531516Y-118054177D01*
X162508027Y-118019023D01*
X162406477Y-117917473D01*
X162406473Y-117917470D01*
X162287064Y-117837683D01*
X162287055Y-117837678D01*
X162154371Y-117782719D01*
X162154363Y-117782717D01*
X162013513Y-117754700D01*
X162013510Y-117754700D01*
X161869890Y-117754700D01*
X161869887Y-117754700D01*
X161729036Y-117782717D01*
X161729028Y-117782719D01*
X161596344Y-117837678D01*
X161596335Y-117837683D01*
X161476926Y-117917470D01*
X161476922Y-117917473D01*
X161375373Y-118019022D01*
X161375370Y-118019026D01*
X161295583Y-118138435D01*
X161295578Y-118138444D01*
X161240619Y-118271128D01*
X161240617Y-118271136D01*
X161212600Y-118411985D01*
X160270799Y-118411985D01*
X160252451Y-118319744D01*
X160242781Y-118271129D01*
X160187820Y-118138442D01*
X160187819Y-118138441D01*
X160187816Y-118138435D01*
X160108029Y-118019026D01*
X160108026Y-118019022D01*
X160006477Y-117917473D01*
X160006473Y-117917470D01*
X159887064Y-117837683D01*
X159887055Y-117837678D01*
X159754371Y-117782719D01*
X159754363Y-117782717D01*
X159613513Y-117754700D01*
X159613510Y-117754700D01*
X159469890Y-117754700D01*
X159469887Y-117754700D01*
X159329036Y-117782717D01*
X159329028Y-117782719D01*
X159196344Y-117837678D01*
X159196335Y-117837683D01*
X159076926Y-117917470D01*
X159076922Y-117917473D01*
X158975373Y-118019022D01*
X158975370Y-118019026D01*
X158895583Y-118138435D01*
X158895578Y-118138444D01*
X158856261Y-118233366D01*
X158812420Y-118287769D01*
X158746126Y-118309834D01*
X158678427Y-118292555D01*
X158630816Y-118241418D01*
X158627139Y-118233366D01*
X158587821Y-118138444D01*
X158587816Y-118138435D01*
X158508029Y-118019026D01*
X158508026Y-118019022D01*
X158406477Y-117917473D01*
X158406473Y-117917470D01*
X158287064Y-117837683D01*
X158287055Y-117837678D01*
X158154371Y-117782719D01*
X158154363Y-117782717D01*
X158013513Y-117754700D01*
X158013510Y-117754700D01*
X157869890Y-117754700D01*
X157869887Y-117754700D01*
X157729036Y-117782717D01*
X157729028Y-117782719D01*
X157596344Y-117837678D01*
X157596335Y-117837683D01*
X157476926Y-117917470D01*
X157476922Y-117917473D01*
X157375373Y-118019022D01*
X157351883Y-118054178D01*
X157298270Y-118098982D01*
X157228945Y-118107689D01*
X157224592Y-118106904D01*
X157213511Y-118104700D01*
X157213510Y-118104700D01*
X157069890Y-118104700D01*
X157069887Y-118104700D01*
X156929036Y-118132717D01*
X156929028Y-118132719D01*
X156796344Y-118187678D01*
X156796335Y-118187683D01*
X156676926Y-118267470D01*
X156676922Y-118267473D01*
X156575373Y-118369022D01*
X156575370Y-118369026D01*
X156495583Y-118488435D01*
X156495578Y-118488444D01*
X156440619Y-118621128D01*
X156440617Y-118621136D01*
X156412600Y-118761985D01*
X155470799Y-118761985D01*
X155442782Y-118621136D01*
X155442781Y-118621129D01*
X155387820Y-118488442D01*
X155387819Y-118488441D01*
X155387816Y-118488435D01*
X155308029Y-118369026D01*
X155308026Y-118369022D01*
X155206477Y-118267473D01*
X155206473Y-118267470D01*
X155087064Y-118187683D01*
X155087055Y-118187678D01*
X154954371Y-118132719D01*
X154954363Y-118132717D01*
X154813513Y-118104700D01*
X154813510Y-118104700D01*
X154669890Y-118104700D01*
X154669887Y-118104700D01*
X154529036Y-118132717D01*
X154529028Y-118132719D01*
X154396344Y-118187678D01*
X154396335Y-118187683D01*
X154276926Y-118267470D01*
X154276922Y-118267473D01*
X154175373Y-118369022D01*
X154175370Y-118369026D01*
X154097902Y-118484965D01*
X154044290Y-118529770D01*
X153974965Y-118538477D01*
X153911937Y-118508322D01*
X153875218Y-118448879D01*
X153870800Y-118416074D01*
X153870800Y-118411987D01*
X153870799Y-118411985D01*
X153852451Y-118319744D01*
X153842781Y-118271129D01*
X153787820Y-118138442D01*
X153787819Y-118138441D01*
X153787816Y-118138435D01*
X153708029Y-118019026D01*
X153708026Y-118019022D01*
X153606477Y-117917473D01*
X153606473Y-117917470D01*
X153487064Y-117837683D01*
X153487055Y-117837678D01*
X153354371Y-117782719D01*
X153354363Y-117782717D01*
X153213513Y-117754700D01*
X153213510Y-117754700D01*
X153069890Y-117754700D01*
X153069887Y-117754700D01*
X152929036Y-117782717D01*
X152929028Y-117782719D01*
X152796344Y-117837678D01*
X152796335Y-117837683D01*
X152676926Y-117917470D01*
X152676922Y-117917473D01*
X152575373Y-118019022D01*
X152551883Y-118054178D01*
X152498270Y-118098982D01*
X152428945Y-118107689D01*
X152424592Y-118106904D01*
X152413511Y-118104700D01*
X152413510Y-118104700D01*
X152269890Y-118104700D01*
X152269887Y-118104700D01*
X152129036Y-118132717D01*
X152129028Y-118132719D01*
X151996344Y-118187678D01*
X151996335Y-118187683D01*
X151876926Y-118267470D01*
X151876922Y-118267473D01*
X151775373Y-118369022D01*
X151775370Y-118369026D01*
X151695583Y-118488435D01*
X151695578Y-118488444D01*
X151640619Y-118621128D01*
X151640617Y-118621136D01*
X151612600Y-118761985D01*
X116814012Y-118761985D01*
X116819000Y-118736910D01*
X116819000Y-118593290D01*
X116819000Y-118593287D01*
X116818999Y-118593285D01*
X116812322Y-118559716D01*
X116790981Y-118452429D01*
X116736020Y-118319742D01*
X116736019Y-118319741D01*
X116736016Y-118319735D01*
X116656229Y-118200326D01*
X116656226Y-118200322D01*
X116554677Y-118098773D01*
X116554673Y-118098770D01*
X116435264Y-118018983D01*
X116435255Y-118018978D01*
X116302571Y-117964019D01*
X116302563Y-117964017D01*
X116161713Y-117936000D01*
X116161710Y-117936000D01*
X116018090Y-117936000D01*
X116018087Y-117936000D01*
X115877236Y-117964017D01*
X115877228Y-117964019D01*
X115744544Y-118018978D01*
X115744535Y-118018983D01*
X115625126Y-118098770D01*
X115625122Y-118098773D01*
X115616581Y-118107315D01*
X115555258Y-118140800D01*
X115485566Y-118135816D01*
X115441219Y-118107315D01*
X115432677Y-118098773D01*
X115432673Y-118098770D01*
X115313264Y-118018983D01*
X115313255Y-118018978D01*
X115180571Y-117964019D01*
X115180563Y-117964017D01*
X115039713Y-117936000D01*
X115039710Y-117936000D01*
X114896090Y-117936000D01*
X114896087Y-117936000D01*
X114755236Y-117964017D01*
X114755228Y-117964019D01*
X114622544Y-118018978D01*
X114622535Y-118018983D01*
X114503126Y-118098770D01*
X114503122Y-118098773D01*
X114455581Y-118146315D01*
X114394258Y-118179800D01*
X114324566Y-118174816D01*
X114280219Y-118146315D01*
X114232677Y-118098773D01*
X114232673Y-118098770D01*
X114113264Y-118018983D01*
X114113255Y-118018978D01*
X113980571Y-117964019D01*
X113980563Y-117964017D01*
X113839713Y-117936000D01*
X113839710Y-117936000D01*
X113696090Y-117936000D01*
X113696087Y-117936000D01*
X113555236Y-117964017D01*
X113555228Y-117964019D01*
X113422544Y-118018978D01*
X113422535Y-118018983D01*
X113303126Y-118098770D01*
X113303122Y-118098773D01*
X113201573Y-118200322D01*
X113201570Y-118200326D01*
X113121783Y-118319735D01*
X113121778Y-118319744D01*
X113066819Y-118452428D01*
X113066817Y-118452436D01*
X113038800Y-118593285D01*
X98583033Y-118593285D01*
X98260975Y-118271228D01*
X98320253Y-118255345D01*
X98436547Y-118188202D01*
X98531502Y-118093247D01*
X98598645Y-117976953D01*
X98614528Y-117917675D01*
X99256568Y-118559716D01*
X99256568Y-118559715D01*
X99289557Y-118514312D01*
X99289557Y-118514311D01*
X99299405Y-118500757D01*
X99397663Y-118307917D01*
X99397664Y-118307914D01*
X99464542Y-118102081D01*
X99498400Y-117888320D01*
X99498400Y-117671879D01*
X99464542Y-117458118D01*
X99397664Y-117252285D01*
X99397663Y-117252282D01*
X99299405Y-117059442D01*
X99256568Y-117000483D01*
X99256568Y-117000482D01*
X98614527Y-117642523D01*
X98598645Y-117583247D01*
X98531502Y-117466953D01*
X98436547Y-117371998D01*
X98320253Y-117304855D01*
X98260974Y-117288971D01*
X98903016Y-116646930D01*
X98903015Y-116646929D01*
X98846431Y-116605818D01*
X98803765Y-116550489D01*
X98797786Y-116480875D01*
X98830391Y-116419080D01*
X98891230Y-116384723D01*
X98919316Y-116381500D01*
X109185757Y-116381500D01*
X109246027Y-116374181D01*
X109471762Y-116346773D01*
X109751499Y-116277824D01*
X110020885Y-116175659D01*
X110275992Y-116041768D01*
X110513101Y-115878104D01*
X110728753Y-115687053D01*
X110919804Y-115471401D01*
X111083468Y-115234292D01*
X111211115Y-114991082D01*
X111217357Y-114979189D01*
X111229363Y-114947534D01*
X111319524Y-114709799D01*
X111388473Y-114430062D01*
X111414059Y-114219337D01*
X111416452Y-114199634D01*
X143387200Y-114199634D01*
X143387200Y-114367965D01*
X143420036Y-114533041D01*
X143420038Y-114533049D01*
X143484450Y-114688555D01*
X143484455Y-114688564D01*
X143577965Y-114828511D01*
X143577968Y-114828515D01*
X143696984Y-114947531D01*
X143696988Y-114947534D01*
X143836935Y-115041044D01*
X143836941Y-115041047D01*
X143836942Y-115041048D01*
X143992451Y-115105462D01*
X144157534Y-115138299D01*
X144157538Y-115138300D01*
X144157539Y-115138300D01*
X144325862Y-115138300D01*
X144325863Y-115138299D01*
X144490949Y-115105462D01*
X144646458Y-115041048D01*
X144786412Y-114947534D01*
X144905434Y-114828512D01*
X144998948Y-114688558D01*
X145063362Y-114533049D01*
X145096200Y-114367961D01*
X145096200Y-114218185D01*
X159612600Y-114218185D01*
X159612600Y-114361814D01*
X159640617Y-114502663D01*
X159640619Y-114502671D01*
X159695578Y-114635355D01*
X159695583Y-114635364D01*
X159775370Y-114754773D01*
X159775373Y-114754777D01*
X159876922Y-114856326D01*
X159876926Y-114856329D01*
X159996335Y-114936116D01*
X159996344Y-114936121D01*
X160001605Y-114938300D01*
X160129029Y-114991081D01*
X160269885Y-115019099D01*
X160269888Y-115019100D01*
X160269890Y-115019100D01*
X160413512Y-115019100D01*
X160413513Y-115019099D01*
X160554371Y-114991081D01*
X160687058Y-114936120D01*
X160806474Y-114856329D01*
X160908029Y-114754774D01*
X160987820Y-114635358D01*
X161042781Y-114502671D01*
X161070800Y-114361810D01*
X161070800Y-114219332D01*
X179787200Y-114219332D01*
X179787200Y-114348267D01*
X179812349Y-114474703D01*
X179812352Y-114474712D01*
X179861686Y-114593817D01*
X179861687Y-114593819D01*
X179933316Y-114701019D01*
X179933319Y-114701023D01*
X180024476Y-114792180D01*
X180024480Y-114792183D01*
X180131678Y-114863811D01*
X180131679Y-114863811D01*
X180131680Y-114863812D01*
X180131682Y-114863813D01*
X180211085Y-114896702D01*
X180250789Y-114913148D01*
X180250791Y-114913148D01*
X180250796Y-114913150D01*
X180377232Y-114938299D01*
X180377236Y-114938300D01*
X180377237Y-114938300D01*
X180506164Y-114938300D01*
X180506165Y-114938299D01*
X180548312Y-114929916D01*
X180632603Y-114913150D01*
X180632606Y-114913148D01*
X180632611Y-114913148D01*
X180751722Y-114863811D01*
X180858920Y-114792183D01*
X180950083Y-114701020D01*
X181021711Y-114593822D01*
X181071048Y-114474711D01*
X181096200Y-114348263D01*
X181096200Y-114219337D01*
X181081226Y-114144058D01*
X181071050Y-114092896D01*
X181071047Y-114092887D01*
X181021713Y-113973782D01*
X181021712Y-113973780D01*
X181002581Y-113945149D01*
X180950083Y-113866580D01*
X180950080Y-113866576D01*
X180858923Y-113775419D01*
X180858919Y-113775416D01*
X180751719Y-113703787D01*
X180751717Y-113703786D01*
X180632612Y-113654452D01*
X180632603Y-113654449D01*
X180506167Y-113629300D01*
X180506163Y-113629300D01*
X180377237Y-113629300D01*
X180377232Y-113629300D01*
X180250796Y-113654449D01*
X180250787Y-113654452D01*
X180131682Y-113703786D01*
X180131680Y-113703787D01*
X180024480Y-113775416D01*
X180024476Y-113775419D01*
X179933319Y-113866576D01*
X179933316Y-113866580D01*
X179861687Y-113973780D01*
X179861686Y-113973782D01*
X179812352Y-114092887D01*
X179812349Y-114092896D01*
X179787200Y-114219332D01*
X161070800Y-114219332D01*
X161070800Y-114218190D01*
X161070800Y-114218187D01*
X161070799Y-114218185D01*
X161045876Y-114092889D01*
X161042781Y-114077329D01*
X160987820Y-113944642D01*
X160987819Y-113944641D01*
X160987816Y-113944635D01*
X160908029Y-113825226D01*
X160908026Y-113825222D01*
X160806477Y-113723673D01*
X160806473Y-113723670D01*
X160687064Y-113643883D01*
X160687055Y-113643878D01*
X160554371Y-113588919D01*
X160554363Y-113588917D01*
X160413513Y-113560900D01*
X160413510Y-113560900D01*
X160269890Y-113560900D01*
X160269887Y-113560900D01*
X160129036Y-113588917D01*
X160129028Y-113588919D01*
X159996344Y-113643878D01*
X159996335Y-113643883D01*
X159876926Y-113723670D01*
X159876922Y-113723673D01*
X159775373Y-113825222D01*
X159775370Y-113825226D01*
X159695583Y-113944635D01*
X159695578Y-113944644D01*
X159640619Y-114077328D01*
X159640617Y-114077336D01*
X159612600Y-114218185D01*
X145096200Y-114218185D01*
X145096200Y-114199639D01*
X145063362Y-114034551D01*
X144998948Y-113879042D01*
X144998947Y-113879041D01*
X144998944Y-113879035D01*
X144905434Y-113739088D01*
X144905431Y-113739084D01*
X144786415Y-113620068D01*
X144786411Y-113620065D01*
X144646464Y-113526555D01*
X144646455Y-113526550D01*
X144490949Y-113462138D01*
X144490941Y-113462136D01*
X144325865Y-113429300D01*
X144325861Y-113429300D01*
X144157539Y-113429300D01*
X144157534Y-113429300D01*
X143992458Y-113462136D01*
X143992450Y-113462138D01*
X143836944Y-113526550D01*
X143836935Y-113526555D01*
X143696988Y-113620065D01*
X143696984Y-113620068D01*
X143577968Y-113739084D01*
X143577965Y-113739088D01*
X143484455Y-113879035D01*
X143484450Y-113879044D01*
X143420038Y-114034550D01*
X143420036Y-114034558D01*
X143387200Y-114199634D01*
X111416452Y-114199634D01*
X111419006Y-114178600D01*
X111419006Y-114178599D01*
X111423200Y-114144058D01*
X111423200Y-110392819D01*
X161087099Y-110392819D01*
X161087099Y-110536448D01*
X161115116Y-110677297D01*
X161115118Y-110677305D01*
X161170077Y-110809989D01*
X161170082Y-110809998D01*
X161249869Y-110929407D01*
X161249872Y-110929411D01*
X161351421Y-111030960D01*
X161351425Y-111030963D01*
X161470834Y-111110750D01*
X161470838Y-111110752D01*
X161470841Y-111110754D01*
X161603528Y-111165715D01*
X161744384Y-111193733D01*
X161744387Y-111193734D01*
X161744389Y-111193734D01*
X161888011Y-111193734D01*
X161888012Y-111193733D01*
X162028870Y-111165715D01*
X162161557Y-111110754D01*
X162202946Y-111083098D01*
X162269621Y-111062220D01*
X162337002Y-111080703D01*
X162340697Y-111083077D01*
X162376791Y-111107195D01*
X162376987Y-111107326D01*
X162376992Y-111107329D01*
X162390442Y-111112900D01*
X162509677Y-111162289D01*
X162650533Y-111190307D01*
X162650536Y-111190308D01*
X162650538Y-111190308D01*
X162794160Y-111190308D01*
X162794161Y-111190307D01*
X162935019Y-111162289D01*
X163067706Y-111107328D01*
X163187122Y-111027537D01*
X163288677Y-110925982D01*
X163368468Y-110806566D01*
X163423429Y-110673879D01*
X163424544Y-110668272D01*
X163456927Y-110606361D01*
X163517641Y-110571785D01*
X163587411Y-110575522D01*
X163644084Y-110616386D01*
X163660723Y-110645007D01*
X163695578Y-110729154D01*
X163695583Y-110729164D01*
X163775370Y-110848573D01*
X163775373Y-110848577D01*
X163876922Y-110950126D01*
X163876926Y-110950129D01*
X163996335Y-111029916D01*
X163996344Y-111029921D01*
X163998860Y-111030963D01*
X164129029Y-111084881D01*
X164259830Y-111110899D01*
X164269885Y-111112899D01*
X164269888Y-111112900D01*
X164269890Y-111112900D01*
X164413512Y-111112900D01*
X164413513Y-111112899D01*
X164554371Y-111084881D01*
X164684540Y-111030963D01*
X164692686Y-111027589D01*
X164693605Y-111029807D01*
X164751611Y-111017712D01*
X164790121Y-111029019D01*
X164790714Y-111027589D01*
X164798860Y-111030963D01*
X164929029Y-111084881D01*
X165059830Y-111110899D01*
X165069885Y-111112899D01*
X165069888Y-111112900D01*
X165069890Y-111112900D01*
X165213512Y-111112900D01*
X165213513Y-111112899D01*
X165354371Y-111084881D01*
X165487058Y-111029920D01*
X165606474Y-110950129D01*
X165708029Y-110848574D01*
X165787820Y-110729158D01*
X165842781Y-110596471D01*
X165870800Y-110455610D01*
X165870800Y-110311990D01*
X165870800Y-110311987D01*
X165870799Y-110311985D01*
X169212600Y-110311985D01*
X169212600Y-110455614D01*
X169240617Y-110596463D01*
X169240619Y-110596471D01*
X169295578Y-110729155D01*
X169295583Y-110729164D01*
X169375370Y-110848573D01*
X169375373Y-110848577D01*
X169476922Y-110950126D01*
X169476926Y-110950129D01*
X169596335Y-111029916D01*
X169596344Y-111029921D01*
X169598860Y-111030963D01*
X169729029Y-111084881D01*
X169859830Y-111110899D01*
X169869885Y-111112899D01*
X169869888Y-111112900D01*
X169869890Y-111112900D01*
X170013512Y-111112900D01*
X170013513Y-111112899D01*
X170154371Y-111084881D01*
X170287058Y-111029920D01*
X170406474Y-110950129D01*
X170508029Y-110848574D01*
X170587820Y-110729158D01*
X170642781Y-110596471D01*
X170664225Y-110488666D01*
X170668017Y-110469603D01*
X170700402Y-110407692D01*
X170761117Y-110373118D01*
X170830887Y-110376857D01*
X170887559Y-110417724D01*
X170892736Y-110424903D01*
X170975370Y-110548573D01*
X170975373Y-110548577D01*
X171076922Y-110650126D01*
X171076926Y-110650129D01*
X171196335Y-110729916D01*
X171196341Y-110729919D01*
X171196342Y-110729920D01*
X171329029Y-110784881D01*
X171455301Y-110809998D01*
X171469885Y-110812899D01*
X171469888Y-110812900D01*
X171469890Y-110812900D01*
X171613512Y-110812900D01*
X171613513Y-110812899D01*
X171754371Y-110784881D01*
X171887058Y-110729920D01*
X172006474Y-110650129D01*
X172108029Y-110548574D01*
X172108036Y-110548562D01*
X172108751Y-110547693D01*
X172109253Y-110547350D01*
X172112337Y-110544267D01*
X172112921Y-110544851D01*
X172166492Y-110508351D01*
X172228807Y-110504728D01*
X172247021Y-110508351D01*
X172269889Y-110512900D01*
X172269890Y-110512900D01*
X172413512Y-110512900D01*
X172413513Y-110512899D01*
X172554371Y-110484881D01*
X172687058Y-110429920D01*
X172806474Y-110350129D01*
X172844618Y-110311985D01*
X173212600Y-110311985D01*
X173212600Y-110455614D01*
X173240617Y-110596463D01*
X173240619Y-110596471D01*
X173295578Y-110729155D01*
X173295583Y-110729164D01*
X173375370Y-110848573D01*
X173375373Y-110848577D01*
X173476922Y-110950126D01*
X173476926Y-110950129D01*
X173596335Y-111029916D01*
X173596344Y-111029921D01*
X173598860Y-111030963D01*
X173729029Y-111084881D01*
X173859830Y-111110899D01*
X173869885Y-111112899D01*
X173869888Y-111112900D01*
X173869890Y-111112900D01*
X174013512Y-111112900D01*
X174013513Y-111112899D01*
X174154371Y-111084881D01*
X174287058Y-111029920D01*
X174406474Y-110950129D01*
X174508029Y-110848574D01*
X174508036Y-110848562D01*
X174508751Y-110847693D01*
X174509253Y-110847350D01*
X174512337Y-110844267D01*
X174512921Y-110844851D01*
X174566492Y-110808351D01*
X174628807Y-110804728D01*
X174647021Y-110808351D01*
X174669889Y-110812900D01*
X174669890Y-110812900D01*
X174813512Y-110812900D01*
X174813513Y-110812899D01*
X174954371Y-110784881D01*
X175087058Y-110729920D01*
X175206474Y-110650129D01*
X175308029Y-110548574D01*
X175370144Y-110455612D01*
X175390970Y-110424444D01*
X175444582Y-110379639D01*
X175513907Y-110370932D01*
X175576934Y-110401086D01*
X175613654Y-110460529D01*
X175615689Y-110469143D01*
X175640617Y-110594465D01*
X175640619Y-110594471D01*
X175695578Y-110727155D01*
X175695583Y-110727164D01*
X175775370Y-110846573D01*
X175775373Y-110846577D01*
X175876922Y-110948126D01*
X175876926Y-110948129D01*
X175996335Y-111027916D01*
X175996344Y-111027921D01*
X176003681Y-111030960D01*
X176129029Y-111082881D01*
X176269136Y-111110750D01*
X176269885Y-111110899D01*
X176269888Y-111110900D01*
X176269890Y-111110900D01*
X176413512Y-111110900D01*
X176413513Y-111110899D01*
X176554371Y-111082881D01*
X176687058Y-111027920D01*
X176806474Y-110948129D01*
X176908029Y-110846574D01*
X176908036Y-110846562D01*
X176908751Y-110845693D01*
X176909253Y-110845350D01*
X176912337Y-110842267D01*
X176912921Y-110842851D01*
X176966492Y-110806351D01*
X177028807Y-110802728D01*
X177047021Y-110806351D01*
X177069889Y-110810900D01*
X177069890Y-110810900D01*
X177213512Y-110810900D01*
X177213513Y-110810899D01*
X177354371Y-110782881D01*
X177487058Y-110727920D01*
X177606474Y-110648129D01*
X177708029Y-110546574D01*
X177787820Y-110427158D01*
X177842781Y-110294471D01*
X177870800Y-110153610D01*
X177870800Y-110009990D01*
X177870800Y-110009987D01*
X177870799Y-110009985D01*
X177852308Y-109917026D01*
X177842781Y-109869129D01*
X177788649Y-109738444D01*
X177787821Y-109736444D01*
X177787816Y-109736435D01*
X177708029Y-109617026D01*
X177708026Y-109617022D01*
X177606477Y-109515473D01*
X177606473Y-109515470D01*
X177487064Y-109435683D01*
X177487055Y-109435678D01*
X177354371Y-109380719D01*
X177354363Y-109380717D01*
X177213513Y-109352700D01*
X177213510Y-109352700D01*
X177069890Y-109352700D01*
X177069887Y-109352700D01*
X176929036Y-109380717D01*
X176929028Y-109380719D01*
X176796344Y-109435678D01*
X176796335Y-109435683D01*
X176676927Y-109515469D01*
X176575366Y-109617031D01*
X176574634Y-109617924D01*
X176574132Y-109618265D01*
X176571065Y-109621333D01*
X176570483Y-109620751D01*
X176516886Y-109657255D01*
X176454595Y-109660872D01*
X176413510Y-109652700D01*
X176269890Y-109652700D01*
X176269887Y-109652700D01*
X176129036Y-109680717D01*
X176129028Y-109680719D01*
X175996344Y-109735678D01*
X175996335Y-109735683D01*
X175876926Y-109815470D01*
X175876922Y-109815473D01*
X175775373Y-109917022D01*
X175775370Y-109917026D01*
X175692429Y-110041155D01*
X175638816Y-110085960D01*
X175569491Y-110094667D01*
X175506464Y-110064512D01*
X175469745Y-110005069D01*
X175467710Y-109996455D01*
X175452308Y-109919026D01*
X175442781Y-109871129D01*
X175387820Y-109738442D01*
X175387819Y-109738441D01*
X175387816Y-109738435D01*
X175308029Y-109619026D01*
X175308026Y-109619022D01*
X175206477Y-109517473D01*
X175206473Y-109517470D01*
X175087064Y-109437683D01*
X175087055Y-109437678D01*
X174954371Y-109382719D01*
X174954363Y-109382717D01*
X174813513Y-109354700D01*
X174813510Y-109354700D01*
X174669890Y-109354700D01*
X174669887Y-109354700D01*
X174529036Y-109382717D01*
X174529028Y-109382719D01*
X174396344Y-109437678D01*
X174396335Y-109437683D01*
X174276927Y-109517469D01*
X174175366Y-109619031D01*
X174174634Y-109619924D01*
X174174132Y-109620265D01*
X174171065Y-109623333D01*
X174170483Y-109622751D01*
X174116886Y-109659255D01*
X174054595Y-109662872D01*
X174013510Y-109654700D01*
X173869890Y-109654700D01*
X173869887Y-109654700D01*
X173729036Y-109682717D01*
X173729028Y-109682719D01*
X173596344Y-109737678D01*
X173596335Y-109737683D01*
X173476926Y-109817470D01*
X173476922Y-109817473D01*
X173375373Y-109919022D01*
X173375370Y-109919026D01*
X173295583Y-110038435D01*
X173295578Y-110038444D01*
X173240619Y-110171128D01*
X173240617Y-110171136D01*
X173212600Y-110311985D01*
X172844618Y-110311985D01*
X172908029Y-110248574D01*
X172987820Y-110129158D01*
X173042781Y-109996471D01*
X173070800Y-109855610D01*
X173070800Y-109711990D01*
X173070800Y-109711987D01*
X173070799Y-109711985D01*
X173064579Y-109680717D01*
X173042781Y-109571129D01*
X172987820Y-109438442D01*
X172987819Y-109438441D01*
X172987816Y-109438435D01*
X172908029Y-109319026D01*
X172908026Y-109319022D01*
X172806477Y-109217473D01*
X172806473Y-109217470D01*
X172687064Y-109137683D01*
X172687055Y-109137678D01*
X172554371Y-109082719D01*
X172554363Y-109082717D01*
X172413513Y-109054700D01*
X172413510Y-109054700D01*
X172269890Y-109054700D01*
X172269887Y-109054700D01*
X172129036Y-109082717D01*
X172129028Y-109082719D01*
X171996344Y-109137678D01*
X171996335Y-109137683D01*
X171876927Y-109217469D01*
X171775366Y-109319031D01*
X171774634Y-109319924D01*
X171774132Y-109320265D01*
X171771065Y-109323333D01*
X171770483Y-109322751D01*
X171716886Y-109359255D01*
X171654595Y-109362872D01*
X171613510Y-109354700D01*
X171469890Y-109354700D01*
X171469887Y-109354700D01*
X171329036Y-109382717D01*
X171329028Y-109382719D01*
X171196344Y-109437678D01*
X171196335Y-109437683D01*
X171076926Y-109517470D01*
X171076922Y-109517473D01*
X170975373Y-109619022D01*
X170975370Y-109619026D01*
X170895583Y-109738435D01*
X170895578Y-109738444D01*
X170840619Y-109871128D01*
X170840617Y-109871134D01*
X170815382Y-109997997D01*
X170782997Y-110059908D01*
X170722281Y-110094482D01*
X170652511Y-110090741D01*
X170595839Y-110049875D01*
X170590663Y-110042696D01*
X170508029Y-109919026D01*
X170508026Y-109919022D01*
X170406477Y-109817473D01*
X170406473Y-109817470D01*
X170287064Y-109737683D01*
X170287055Y-109737678D01*
X170154371Y-109682719D01*
X170154363Y-109682717D01*
X170013513Y-109654700D01*
X170013510Y-109654700D01*
X169869890Y-109654700D01*
X169869887Y-109654700D01*
X169729036Y-109682717D01*
X169729028Y-109682719D01*
X169596344Y-109737678D01*
X169596335Y-109737683D01*
X169476926Y-109817470D01*
X169476922Y-109817473D01*
X169375373Y-109919022D01*
X169375370Y-109919026D01*
X169295583Y-110038435D01*
X169295578Y-110038444D01*
X169240619Y-110171128D01*
X169240617Y-110171136D01*
X169212600Y-110311985D01*
X165870799Y-110311985D01*
X165854215Y-110228611D01*
X165842781Y-110171129D01*
X165787820Y-110038442D01*
X165787819Y-110038441D01*
X165787816Y-110038435D01*
X165708029Y-109919026D01*
X165708026Y-109919022D01*
X165606477Y-109817473D01*
X165606473Y-109817470D01*
X165487064Y-109737683D01*
X165487055Y-109737678D01*
X165354371Y-109682719D01*
X165354363Y-109682717D01*
X165213513Y-109654700D01*
X165213510Y-109654700D01*
X165069890Y-109654700D01*
X165069887Y-109654700D01*
X164929036Y-109682717D01*
X164929028Y-109682719D01*
X164790714Y-109740011D01*
X164789799Y-109737802D01*
X164731728Y-109749882D01*
X164693274Y-109738591D01*
X164692686Y-109740011D01*
X164554371Y-109682719D01*
X164554363Y-109682717D01*
X164413513Y-109654700D01*
X164413510Y-109654700D01*
X164269890Y-109654700D01*
X164269887Y-109654700D01*
X164129036Y-109682717D01*
X164129028Y-109682719D01*
X163996344Y-109737678D01*
X163996335Y-109737683D01*
X163876926Y-109817470D01*
X163876922Y-109817473D01*
X163775373Y-109919022D01*
X163775370Y-109919026D01*
X163695583Y-110038435D01*
X163695578Y-110038444D01*
X163640619Y-110171128D01*
X163640617Y-110171134D01*
X163639501Y-110176746D01*
X163607112Y-110238655D01*
X163546394Y-110273225D01*
X163476624Y-110269481D01*
X163419955Y-110228611D01*
X163403324Y-110199999D01*
X163368471Y-110115856D01*
X163368464Y-110115843D01*
X163288677Y-109996434D01*
X163288674Y-109996430D01*
X163187125Y-109894881D01*
X163187121Y-109894878D01*
X163067712Y-109815091D01*
X163067703Y-109815086D01*
X162935019Y-109760127D01*
X162935011Y-109760125D01*
X162794161Y-109732108D01*
X162794158Y-109732108D01*
X162650538Y-109732108D01*
X162650535Y-109732108D01*
X162509684Y-109760125D01*
X162509676Y-109760127D01*
X162376989Y-109815088D01*
X162335598Y-109842744D01*
X162268921Y-109863621D01*
X162201541Y-109845136D01*
X162197818Y-109842743D01*
X162161556Y-109818513D01*
X162028870Y-109763553D01*
X162028862Y-109763551D01*
X161888012Y-109735534D01*
X161888009Y-109735534D01*
X161744389Y-109735534D01*
X161744386Y-109735534D01*
X161603535Y-109763551D01*
X161603527Y-109763553D01*
X161470843Y-109818512D01*
X161470834Y-109818517D01*
X161351425Y-109898304D01*
X161351421Y-109898307D01*
X161249872Y-109999856D01*
X161249869Y-109999860D01*
X161170082Y-110119269D01*
X161170077Y-110119278D01*
X161115118Y-110251962D01*
X161115116Y-110251970D01*
X161087099Y-110392819D01*
X111423200Y-110392819D01*
X111423200Y-107917496D01*
X142511700Y-107917496D01*
X142511700Y-108087503D01*
X142538293Y-108255402D01*
X142590822Y-108417073D01*
X142590823Y-108417076D01*
X142635386Y-108504534D01*
X142668001Y-108568544D01*
X142767922Y-108706073D01*
X142888127Y-108826278D01*
X143025656Y-108926199D01*
X143070105Y-108948847D01*
X143177123Y-109003376D01*
X143177126Y-109003377D01*
X143251512Y-109027546D01*
X143338799Y-109055907D01*
X143416561Y-109068223D01*
X143506697Y-109082500D01*
X143506702Y-109082500D01*
X143676703Y-109082500D01*
X143758098Y-109069607D01*
X143844601Y-109055907D01*
X144006276Y-109003376D01*
X144157744Y-108926199D01*
X144295273Y-108826278D01*
X144415478Y-108706073D01*
X144515399Y-108568544D01*
X144592576Y-108417076D01*
X144645107Y-108255401D01*
X144665102Y-108129158D01*
X144671700Y-108087503D01*
X144671700Y-107917498D01*
X144671699Y-107917494D01*
X144659101Y-107837954D01*
X144645107Y-107749599D01*
X144607814Y-107634822D01*
X144592577Y-107587926D01*
X144592576Y-107587923D01*
X144526410Y-107458066D01*
X144515399Y-107436456D01*
X144415478Y-107298927D01*
X144295273Y-107178722D01*
X144157744Y-107078801D01*
X144152498Y-107076128D01*
X144006276Y-107001623D01*
X144006273Y-107001622D01*
X143844602Y-106949093D01*
X143676703Y-106922500D01*
X143676698Y-106922500D01*
X143506702Y-106922500D01*
X143506697Y-106922500D01*
X143338797Y-106949093D01*
X143177126Y-107001622D01*
X143177123Y-107001623D01*
X143025655Y-107078801D01*
X142947189Y-107135810D01*
X142888127Y-107178722D01*
X142888125Y-107178724D01*
X142888124Y-107178724D01*
X142767924Y-107298924D01*
X142767924Y-107298925D01*
X142767922Y-107298927D01*
X142743573Y-107332441D01*
X142668001Y-107436455D01*
X142590823Y-107587923D01*
X142590822Y-107587926D01*
X142538293Y-107749597D01*
X142511700Y-107917496D01*
X111423200Y-107917496D01*
X111423200Y-104727794D01*
X142511700Y-104727794D01*
X142511700Y-106197206D01*
X142522504Y-106271361D01*
X142522504Y-106271362D01*
X142522505Y-106271364D01*
X142578421Y-106385743D01*
X142578423Y-106385746D01*
X142668453Y-106475776D01*
X142668456Y-106475778D01*
X142750540Y-106515906D01*
X142782839Y-106531696D01*
X142856994Y-106542500D01*
X142857000Y-106542500D01*
X144326400Y-106542500D01*
X144326406Y-106542500D01*
X144400561Y-106531696D01*
X144457753Y-106503736D01*
X144514943Y-106475778D01*
X144514946Y-106475776D01*
X144604976Y-106385746D01*
X144604978Y-106385743D01*
X144653605Y-106286275D01*
X144660896Y-106271361D01*
X144671700Y-106197206D01*
X144671700Y-105368176D01*
X144933200Y-105368176D01*
X144933200Y-105556823D01*
X144962711Y-105743150D01*
X145021004Y-105922561D01*
X145021005Y-105922563D01*
X145106652Y-106090653D01*
X145124889Y-106115755D01*
X145124890Y-106115755D01*
X145694052Y-105546593D01*
X145717492Y-105634071D01*
X145776011Y-105735430D01*
X145858770Y-105818189D01*
X145960129Y-105876708D01*
X146047605Y-105900147D01*
X145478443Y-106469308D01*
X145478443Y-106469309D01*
X145503544Y-106487546D01*
X145671635Y-106573194D01*
X145671638Y-106573195D01*
X145798975Y-106614569D01*
X145856650Y-106654006D01*
X145883849Y-106718365D01*
X145871935Y-106787211D01*
X145824691Y-106838687D01*
X145798975Y-106850431D01*
X145671638Y-106891804D01*
X145671636Y-106891805D01*
X145503544Y-106977453D01*
X145503539Y-106977457D01*
X145478443Y-106995688D01*
X145478443Y-106995691D01*
X146047606Y-107564852D01*
X145960129Y-107588292D01*
X145858770Y-107646811D01*
X145776011Y-107729570D01*
X145717492Y-107830929D01*
X145694052Y-107918405D01*
X145124891Y-107349243D01*
X145124888Y-107349243D01*
X145106657Y-107374339D01*
X145106653Y-107374344D01*
X145021005Y-107542436D01*
X145021004Y-107542438D01*
X144962711Y-107721849D01*
X144933200Y-107908176D01*
X144933200Y-108096823D01*
X144962711Y-108283150D01*
X145021004Y-108462561D01*
X145021005Y-108462563D01*
X145106652Y-108630653D01*
X145124889Y-108655755D01*
X145124890Y-108655755D01*
X145694052Y-108086593D01*
X145717492Y-108174071D01*
X145776011Y-108275430D01*
X145858770Y-108358189D01*
X145960129Y-108416708D01*
X146047605Y-108440147D01*
X145478443Y-109009308D01*
X145478443Y-109009309D01*
X145503544Y-109027546D01*
X145671635Y-109113194D01*
X145671638Y-109113195D01*
X145851049Y-109171488D01*
X146037377Y-109201000D01*
X146226023Y-109201000D01*
X146412350Y-109171488D01*
X146591761Y-109113195D01*
X146591764Y-109113194D01*
X146759851Y-109027548D01*
X146784955Y-109009308D01*
X146784956Y-109009308D01*
X146215795Y-108440147D01*
X146303271Y-108416708D01*
X146404630Y-108358189D01*
X146487389Y-108275430D01*
X146545908Y-108174071D01*
X146569347Y-108086594D01*
X147138508Y-108655756D01*
X147138508Y-108655755D01*
X147156748Y-108630651D01*
X147242394Y-108462564D01*
X147242395Y-108462561D01*
X147300688Y-108283150D01*
X147330200Y-108096823D01*
X147330200Y-107917496D01*
X147591700Y-107917496D01*
X147591700Y-108087503D01*
X147618293Y-108255402D01*
X147670822Y-108417073D01*
X147670823Y-108417076D01*
X147715386Y-108504534D01*
X147748001Y-108568544D01*
X147847922Y-108706073D01*
X147968127Y-108826278D01*
X148105656Y-108926199D01*
X148150105Y-108948847D01*
X148257123Y-109003376D01*
X148257126Y-109003377D01*
X148331512Y-109027546D01*
X148418799Y-109055907D01*
X148496561Y-109068223D01*
X148586697Y-109082500D01*
X148586702Y-109082500D01*
X148756703Y-109082500D01*
X148838098Y-109069607D01*
X148924601Y-109055907D01*
X149086276Y-109003376D01*
X149237744Y-108926199D01*
X149375273Y-108826278D01*
X149495478Y-108706073D01*
X149595399Y-108568544D01*
X149672576Y-108417076D01*
X149725107Y-108255401D01*
X149745102Y-108129158D01*
X149751700Y-108087503D01*
X149751700Y-107917496D01*
X150131700Y-107917496D01*
X150131700Y-108087503D01*
X150158293Y-108255402D01*
X150210822Y-108417073D01*
X150210823Y-108417076D01*
X150255386Y-108504534D01*
X150288001Y-108568544D01*
X150387922Y-108706073D01*
X150508127Y-108826278D01*
X150645656Y-108926199D01*
X150690105Y-108948847D01*
X150797123Y-109003376D01*
X150797126Y-109003377D01*
X150871512Y-109027546D01*
X150958799Y-109055907D01*
X151036561Y-109068223D01*
X151126697Y-109082500D01*
X151126702Y-109082500D01*
X151296703Y-109082500D01*
X151378098Y-109069607D01*
X151464601Y-109055907D01*
X151626276Y-109003376D01*
X151777744Y-108926199D01*
X151915273Y-108826278D01*
X152035478Y-108706073D01*
X152135399Y-108568544D01*
X152212576Y-108417076D01*
X152265107Y-108255401D01*
X152285102Y-108129158D01*
X152291700Y-108087503D01*
X152291700Y-107917496D01*
X152671700Y-107917496D01*
X152671700Y-108087503D01*
X152698293Y-108255402D01*
X152750822Y-108417073D01*
X152750823Y-108417076D01*
X152795386Y-108504534D01*
X152828001Y-108568544D01*
X152927922Y-108706073D01*
X153048127Y-108826278D01*
X153185656Y-108926199D01*
X153230105Y-108948847D01*
X153337123Y-109003376D01*
X153337126Y-109003377D01*
X153411512Y-109027546D01*
X153498799Y-109055907D01*
X153576561Y-109068223D01*
X153666697Y-109082500D01*
X153666702Y-109082500D01*
X153836703Y-109082500D01*
X153918098Y-109069607D01*
X154004601Y-109055907D01*
X154166276Y-109003376D01*
X154317744Y-108926199D01*
X154455273Y-108826278D01*
X154575478Y-108706073D01*
X154675399Y-108568544D01*
X154752576Y-108417076D01*
X154805107Y-108255401D01*
X154825102Y-108129158D01*
X154831700Y-108087503D01*
X154831700Y-107917496D01*
X155211700Y-107917496D01*
X155211700Y-108087503D01*
X155238293Y-108255402D01*
X155290822Y-108417073D01*
X155290823Y-108417076D01*
X155335386Y-108504534D01*
X155368001Y-108568544D01*
X155467922Y-108706073D01*
X155588127Y-108826278D01*
X155725656Y-108926199D01*
X155770105Y-108948847D01*
X155877123Y-109003376D01*
X155877126Y-109003377D01*
X155951512Y-109027546D01*
X156038799Y-109055907D01*
X156116561Y-109068223D01*
X156206697Y-109082500D01*
X156206702Y-109082500D01*
X156376703Y-109082500D01*
X156458098Y-109069607D01*
X156544601Y-109055907D01*
X156706276Y-109003376D01*
X156857744Y-108926199D01*
X156995273Y-108826278D01*
X157115478Y-108706073D01*
X157215399Y-108568544D01*
X157292576Y-108417076D01*
X157345107Y-108255401D01*
X157365102Y-108129158D01*
X157371700Y-108087503D01*
X157371700Y-107917496D01*
X157350396Y-107782993D01*
X157345107Y-107749599D01*
X157307814Y-107634822D01*
X157292577Y-107587926D01*
X157292576Y-107587923D01*
X157226410Y-107458066D01*
X157215399Y-107436456D01*
X157115478Y-107298927D01*
X156995273Y-107178722D01*
X156857744Y-107078801D01*
X156777036Y-107037678D01*
X156706276Y-107001623D01*
X156706273Y-107001622D01*
X156584280Y-106961985D01*
X161113577Y-106961985D01*
X161113577Y-107105614D01*
X161141594Y-107246463D01*
X161141596Y-107246471D01*
X161196555Y-107379155D01*
X161196560Y-107379164D01*
X161276347Y-107498573D01*
X161276350Y-107498577D01*
X161377899Y-107600126D01*
X161377903Y-107600129D01*
X161497312Y-107679916D01*
X161497318Y-107679919D01*
X161497319Y-107679920D01*
X161630006Y-107734881D01*
X161666921Y-107742224D01*
X161734566Y-107755680D01*
X161796477Y-107788065D01*
X161831051Y-107848781D01*
X161831992Y-107853104D01*
X161840617Y-107896466D01*
X161840619Y-107896471D01*
X161895578Y-108029155D01*
X161895583Y-108029164D01*
X161975370Y-108148573D01*
X161975373Y-108148577D01*
X162076922Y-108250126D01*
X162076926Y-108250129D01*
X162196335Y-108329916D01*
X162196341Y-108329919D01*
X162196342Y-108329920D01*
X162329029Y-108384881D01*
X162382836Y-108395583D01*
X162462517Y-108411434D01*
X162524428Y-108443819D01*
X162559002Y-108504534D01*
X162562326Y-108533051D01*
X162562326Y-108555888D01*
X162590343Y-108696737D01*
X162590345Y-108696745D01*
X162645304Y-108829429D01*
X162645309Y-108829438D01*
X162725096Y-108948847D01*
X162725099Y-108948851D01*
X162826648Y-109050400D01*
X162826652Y-109050403D01*
X162946061Y-109130190D01*
X162946067Y-109130193D01*
X162946068Y-109130194D01*
X163078755Y-109185155D01*
X163219611Y-109213173D01*
X163219614Y-109213174D01*
X163219616Y-109213174D01*
X163363238Y-109213174D01*
X163363239Y-109213173D01*
X163504097Y-109185155D01*
X163636784Y-109130194D01*
X163756200Y-109050403D01*
X163857755Y-108948848D01*
X163937546Y-108829432D01*
X163992507Y-108696745D01*
X164020526Y-108555884D01*
X164020526Y-108412264D01*
X164020526Y-108412261D01*
X164020525Y-108412259D01*
X164009345Y-108356053D01*
X163992507Y-108271403D01*
X163937546Y-108138716D01*
X163937545Y-108138715D01*
X163937542Y-108138709D01*
X163857755Y-108019300D01*
X163857752Y-108019296D01*
X163756203Y-107917747D01*
X163756199Y-107917744D01*
X163636790Y-107837957D01*
X163636780Y-107837952D01*
X163594548Y-107820459D01*
X163504097Y-107782993D01*
X163504091Y-107782991D01*
X163370608Y-107756439D01*
X163308697Y-107724054D01*
X163301824Y-107711985D01*
X165812600Y-107711985D01*
X165812600Y-107855614D01*
X165840617Y-107996463D01*
X165840619Y-107996471D01*
X165895578Y-108129155D01*
X165895583Y-108129164D01*
X165975370Y-108248573D01*
X165975373Y-108248577D01*
X166076922Y-108350126D01*
X166076926Y-108350129D01*
X166196335Y-108429916D01*
X166196341Y-108429919D01*
X166196342Y-108429920D01*
X166329029Y-108484881D01*
X166380402Y-108495099D01*
X166442310Y-108527483D01*
X166470770Y-108569263D01*
X166495578Y-108629154D01*
X166495583Y-108629164D01*
X166575370Y-108748573D01*
X166575373Y-108748577D01*
X166676922Y-108850126D01*
X166676926Y-108850129D01*
X166796335Y-108929916D01*
X166796344Y-108929921D01*
X166800574Y-108931673D01*
X166929029Y-108984881D01*
X167022010Y-109003376D01*
X167069885Y-109012899D01*
X167069888Y-109012900D01*
X167069890Y-109012900D01*
X167213512Y-109012900D01*
X167213513Y-109012899D01*
X167354371Y-108984881D01*
X167487058Y-108929920D01*
X167606474Y-108850129D01*
X167708029Y-108748574D01*
X167787820Y-108629158D01*
X167842781Y-108496471D01*
X167870800Y-108355610D01*
X167870800Y-108211990D01*
X167870800Y-108211987D01*
X167870799Y-108211985D01*
X167858186Y-108148574D01*
X167842781Y-108071129D01*
X167787820Y-107938442D01*
X167787819Y-107938441D01*
X167787816Y-107938435D01*
X167708029Y-107819026D01*
X167708026Y-107819022D01*
X167606477Y-107717473D01*
X167606473Y-107717470D01*
X167487064Y-107637683D01*
X167487055Y-107637678D01*
X167354369Y-107582718D01*
X167354367Y-107582717D01*
X167302997Y-107572499D01*
X167241087Y-107540113D01*
X167212629Y-107498335D01*
X167187821Y-107438445D01*
X167187821Y-107438444D01*
X167187820Y-107438442D01*
X167187818Y-107438439D01*
X167187816Y-107438435D01*
X167108029Y-107319026D01*
X167108026Y-107319022D01*
X167006477Y-107217473D01*
X167006473Y-107217470D01*
X166887064Y-107137683D01*
X166887055Y-107137678D01*
X166754371Y-107082719D01*
X166754363Y-107082717D01*
X166613513Y-107054700D01*
X166613510Y-107054700D01*
X166469890Y-107054700D01*
X166469887Y-107054700D01*
X166329036Y-107082717D01*
X166329028Y-107082719D01*
X166196344Y-107137678D01*
X166196335Y-107137683D01*
X166076926Y-107217470D01*
X166076922Y-107217473D01*
X165975373Y-107319022D01*
X165975370Y-107319026D01*
X165895583Y-107438435D01*
X165895578Y-107438444D01*
X165840619Y-107571128D01*
X165840617Y-107571136D01*
X165812600Y-107711985D01*
X163301824Y-107711985D01*
X163274123Y-107663338D01*
X163270800Y-107634822D01*
X163270800Y-107611987D01*
X163270799Y-107611985D01*
X163256965Y-107542436D01*
X163242781Y-107471129D01*
X163187820Y-107338442D01*
X163187819Y-107338441D01*
X163187816Y-107338435D01*
X163108029Y-107219026D01*
X163108026Y-107219022D01*
X163006477Y-107117473D01*
X163006473Y-107117470D01*
X162887064Y-107037683D01*
X162887055Y-107037678D01*
X162754371Y-106982719D01*
X162754365Y-106982717D01*
X162649809Y-106961919D01*
X162587898Y-106929534D01*
X162553324Y-106868818D01*
X162552384Y-106864493D01*
X162548383Y-106844385D01*
X162543758Y-106821129D01*
X162488797Y-106688442D01*
X162488796Y-106688441D01*
X162488793Y-106688435D01*
X162409006Y-106569026D01*
X162409003Y-106569022D01*
X162307454Y-106467473D01*
X162307450Y-106467470D01*
X162188041Y-106387683D01*
X162188032Y-106387678D01*
X162055348Y-106332719D01*
X162055340Y-106332717D01*
X161914490Y-106304700D01*
X161914487Y-106304700D01*
X161770867Y-106304700D01*
X161770864Y-106304700D01*
X161630013Y-106332717D01*
X161630005Y-106332719D01*
X161497321Y-106387678D01*
X161497312Y-106387683D01*
X161377903Y-106467470D01*
X161377899Y-106467473D01*
X161276350Y-106569022D01*
X161276347Y-106569026D01*
X161196560Y-106688435D01*
X161196555Y-106688444D01*
X161141596Y-106821128D01*
X161141594Y-106821136D01*
X161113577Y-106961985D01*
X156584280Y-106961985D01*
X156544602Y-106949093D01*
X156376703Y-106922500D01*
X156376698Y-106922500D01*
X156206702Y-106922500D01*
X156206697Y-106922500D01*
X156038797Y-106949093D01*
X155877126Y-107001622D01*
X155877123Y-107001623D01*
X155725655Y-107078801D01*
X155647189Y-107135810D01*
X155588127Y-107178722D01*
X155588125Y-107178724D01*
X155588124Y-107178724D01*
X155467924Y-107298924D01*
X155467924Y-107298925D01*
X155467922Y-107298927D01*
X155443573Y-107332441D01*
X155368001Y-107436455D01*
X155290823Y-107587923D01*
X155290822Y-107587926D01*
X155238293Y-107749597D01*
X155211700Y-107917496D01*
X154831700Y-107917496D01*
X154810396Y-107782993D01*
X154805107Y-107749599D01*
X154767814Y-107634822D01*
X154752577Y-107587926D01*
X154752576Y-107587923D01*
X154686410Y-107458066D01*
X154675399Y-107436456D01*
X154575478Y-107298927D01*
X154455273Y-107178722D01*
X154317744Y-107078801D01*
X154312498Y-107076128D01*
X154166276Y-107001623D01*
X154166273Y-107001622D01*
X154004602Y-106949093D01*
X153836703Y-106922500D01*
X153836698Y-106922500D01*
X153666702Y-106922500D01*
X153666697Y-106922500D01*
X153498797Y-106949093D01*
X153337126Y-107001622D01*
X153337123Y-107001623D01*
X153185655Y-107078801D01*
X153107189Y-107135810D01*
X153048127Y-107178722D01*
X153048125Y-107178724D01*
X153048124Y-107178724D01*
X152927924Y-107298924D01*
X152927924Y-107298925D01*
X152927922Y-107298927D01*
X152903573Y-107332441D01*
X152828001Y-107436455D01*
X152750823Y-107587923D01*
X152750822Y-107587926D01*
X152698293Y-107749597D01*
X152671700Y-107917496D01*
X152291700Y-107917496D01*
X152270396Y-107782993D01*
X152265107Y-107749599D01*
X152227814Y-107634822D01*
X152212577Y-107587926D01*
X152212576Y-107587923D01*
X152146410Y-107458066D01*
X152135399Y-107436456D01*
X152035478Y-107298927D01*
X151915273Y-107178722D01*
X151777744Y-107078801D01*
X151772498Y-107076128D01*
X151626276Y-107001623D01*
X151626273Y-107001622D01*
X151464602Y-106949093D01*
X151296703Y-106922500D01*
X151296698Y-106922500D01*
X151126702Y-106922500D01*
X151126697Y-106922500D01*
X150958797Y-106949093D01*
X150797126Y-107001622D01*
X150797123Y-107001623D01*
X150645655Y-107078801D01*
X150567189Y-107135810D01*
X150508127Y-107178722D01*
X150508125Y-107178724D01*
X150508124Y-107178724D01*
X150387924Y-107298924D01*
X150387924Y-107298925D01*
X150387922Y-107298927D01*
X150363573Y-107332441D01*
X150288001Y-107436455D01*
X150210823Y-107587923D01*
X150210822Y-107587926D01*
X150158293Y-107749597D01*
X150131700Y-107917496D01*
X149751700Y-107917496D01*
X149730396Y-107782993D01*
X149725107Y-107749599D01*
X149687814Y-107634822D01*
X149672577Y-107587926D01*
X149672576Y-107587923D01*
X149606410Y-107458066D01*
X149595399Y-107436456D01*
X149495478Y-107298927D01*
X149375273Y-107178722D01*
X149237744Y-107078801D01*
X149232498Y-107076128D01*
X149086276Y-107001623D01*
X149086273Y-107001622D01*
X148924602Y-106949093D01*
X148756703Y-106922500D01*
X148756698Y-106922500D01*
X148586702Y-106922500D01*
X148586697Y-106922500D01*
X148418797Y-106949093D01*
X148257126Y-107001622D01*
X148257123Y-107001623D01*
X148105655Y-107078801D01*
X148027189Y-107135810D01*
X147968127Y-107178722D01*
X147968125Y-107178724D01*
X147968124Y-107178724D01*
X147847924Y-107298924D01*
X147847924Y-107298925D01*
X147847922Y-107298927D01*
X147823573Y-107332441D01*
X147748001Y-107436455D01*
X147670823Y-107587923D01*
X147670822Y-107587926D01*
X147618293Y-107749597D01*
X147591700Y-107917496D01*
X147330200Y-107917496D01*
X147330200Y-107908176D01*
X147300688Y-107721849D01*
X147242395Y-107542438D01*
X147242394Y-107542435D01*
X147156746Y-107374344D01*
X147138509Y-107349243D01*
X147138508Y-107349243D01*
X146569347Y-107918404D01*
X146545908Y-107830929D01*
X146487389Y-107729570D01*
X146404630Y-107646811D01*
X146303271Y-107588292D01*
X146215794Y-107564852D01*
X146784955Y-106995690D01*
X146784955Y-106995689D01*
X146759853Y-106977452D01*
X146591763Y-106891805D01*
X146591761Y-106891804D01*
X146464424Y-106850431D01*
X146406749Y-106810994D01*
X146379550Y-106746635D01*
X146391464Y-106677789D01*
X146438708Y-106626313D01*
X146464424Y-106614569D01*
X146591761Y-106573195D01*
X146591764Y-106573194D01*
X146759851Y-106487548D01*
X146784955Y-106469308D01*
X146784956Y-106469308D01*
X146215795Y-105900147D01*
X146303271Y-105876708D01*
X146404630Y-105818189D01*
X146487389Y-105735430D01*
X146545908Y-105634071D01*
X146569347Y-105546594D01*
X147138508Y-106115756D01*
X147138508Y-106115755D01*
X147156748Y-106090651D01*
X147242394Y-105922564D01*
X147242395Y-105922561D01*
X147300688Y-105743150D01*
X147330200Y-105556823D01*
X147330200Y-105377496D01*
X147591700Y-105377496D01*
X147591700Y-105547503D01*
X147618293Y-105715402D01*
X147670822Y-105877073D01*
X147670823Y-105877076D01*
X147694001Y-105922564D01*
X147748001Y-106028544D01*
X147847922Y-106166073D01*
X147968127Y-106286278D01*
X148105656Y-106386199D01*
X148108569Y-106387683D01*
X148257123Y-106463376D01*
X148257126Y-106463377D01*
X148331512Y-106487546D01*
X148418799Y-106515907D01*
X148496561Y-106528223D01*
X148586697Y-106542500D01*
X148586702Y-106542500D01*
X148756703Y-106542500D01*
X148838098Y-106529607D01*
X148924601Y-106515907D01*
X149086276Y-106463376D01*
X149237744Y-106386199D01*
X149375273Y-106286278D01*
X149495478Y-106166073D01*
X149595399Y-106028544D01*
X149672576Y-105877076D01*
X149725107Y-105715401D01*
X149738807Y-105628898D01*
X149751700Y-105547503D01*
X149751700Y-105377496D01*
X150131700Y-105377496D01*
X150131700Y-105547503D01*
X150158293Y-105715402D01*
X150210822Y-105877073D01*
X150210823Y-105877076D01*
X150234001Y-105922564D01*
X150288001Y-106028544D01*
X150387922Y-106166073D01*
X150508127Y-106286278D01*
X150645656Y-106386199D01*
X150648569Y-106387683D01*
X150797123Y-106463376D01*
X150797126Y-106463377D01*
X150871512Y-106487546D01*
X150958799Y-106515907D01*
X151036561Y-106528223D01*
X151126697Y-106542500D01*
X151126702Y-106542500D01*
X151296703Y-106542500D01*
X151378098Y-106529607D01*
X151464601Y-106515907D01*
X151626276Y-106463376D01*
X151777744Y-106386199D01*
X151915273Y-106286278D01*
X152035478Y-106166073D01*
X152135399Y-106028544D01*
X152212576Y-105877076D01*
X152265107Y-105715401D01*
X152278807Y-105628898D01*
X152291700Y-105547503D01*
X152291700Y-105377496D01*
X152671700Y-105377496D01*
X152671700Y-105547503D01*
X152698293Y-105715402D01*
X152750822Y-105877073D01*
X152750823Y-105877076D01*
X152774001Y-105922564D01*
X152828001Y-106028544D01*
X152927922Y-106166073D01*
X153048127Y-106286278D01*
X153185656Y-106386199D01*
X153188569Y-106387683D01*
X153337123Y-106463376D01*
X153337126Y-106463377D01*
X153411512Y-106487546D01*
X153498799Y-106515907D01*
X153576561Y-106528223D01*
X153666697Y-106542500D01*
X153666702Y-106542500D01*
X153836703Y-106542500D01*
X153918098Y-106529607D01*
X154004601Y-106515907D01*
X154166276Y-106463376D01*
X154317744Y-106386199D01*
X154455273Y-106286278D01*
X154575478Y-106166073D01*
X154675399Y-106028544D01*
X154752576Y-105877076D01*
X154805107Y-105715401D01*
X154818807Y-105628898D01*
X154831700Y-105547503D01*
X154831700Y-105377496D01*
X155211700Y-105377496D01*
X155211700Y-105547503D01*
X155238293Y-105715402D01*
X155290822Y-105877073D01*
X155290823Y-105877076D01*
X155314001Y-105922564D01*
X155368001Y-106028544D01*
X155467922Y-106166073D01*
X155588127Y-106286278D01*
X155725656Y-106386199D01*
X155728569Y-106387683D01*
X155877123Y-106463376D01*
X155877126Y-106463377D01*
X155951512Y-106487546D01*
X156038799Y-106515907D01*
X156116561Y-106528223D01*
X156206697Y-106542500D01*
X156206702Y-106542500D01*
X156376703Y-106542500D01*
X156458098Y-106529607D01*
X156544601Y-106515907D01*
X156706276Y-106463376D01*
X156857744Y-106386199D01*
X156995273Y-106286278D01*
X157115478Y-106166073D01*
X157215399Y-106028544D01*
X157292576Y-105877076D01*
X157345107Y-105715401D01*
X157358807Y-105628898D01*
X157371700Y-105547503D01*
X157371700Y-105377496D01*
X157346931Y-105221118D01*
X157345107Y-105209599D01*
X157292576Y-105047924D01*
X157292576Y-105047923D01*
X157215398Y-104896455D01*
X157115478Y-104758927D01*
X156995273Y-104638722D01*
X156857744Y-104538801D01*
X156706276Y-104461623D01*
X156706273Y-104461622D01*
X156544602Y-104409093D01*
X156376703Y-104382500D01*
X156376698Y-104382500D01*
X156206702Y-104382500D01*
X156206697Y-104382500D01*
X156038797Y-104409093D01*
X155877126Y-104461622D01*
X155877123Y-104461623D01*
X155725655Y-104538801D01*
X155700044Y-104557409D01*
X155588127Y-104638722D01*
X155588125Y-104638724D01*
X155588124Y-104638724D01*
X155467924Y-104758924D01*
X155467924Y-104758925D01*
X155467922Y-104758927D01*
X155431365Y-104809243D01*
X155368001Y-104896455D01*
X155290823Y-105047923D01*
X155290822Y-105047926D01*
X155238293Y-105209597D01*
X155211700Y-105377496D01*
X154831700Y-105377496D01*
X154806931Y-105221118D01*
X154805107Y-105209599D01*
X154752576Y-105047924D01*
X154752576Y-105047923D01*
X154675398Y-104896455D01*
X154575478Y-104758927D01*
X154455273Y-104638722D01*
X154317744Y-104538801D01*
X154166276Y-104461623D01*
X154166273Y-104461622D01*
X154004602Y-104409093D01*
X153836703Y-104382500D01*
X153836698Y-104382500D01*
X153666702Y-104382500D01*
X153666697Y-104382500D01*
X153498797Y-104409093D01*
X153337126Y-104461622D01*
X153337123Y-104461623D01*
X153185655Y-104538801D01*
X153160044Y-104557409D01*
X153048127Y-104638722D01*
X153048125Y-104638724D01*
X153048124Y-104638724D01*
X152927924Y-104758924D01*
X152927924Y-104758925D01*
X152927922Y-104758927D01*
X152891365Y-104809243D01*
X152828001Y-104896455D01*
X152750823Y-105047923D01*
X152750822Y-105047926D01*
X152698293Y-105209597D01*
X152671700Y-105377496D01*
X152291700Y-105377496D01*
X152266931Y-105221118D01*
X152265107Y-105209599D01*
X152212576Y-105047924D01*
X152212576Y-105047923D01*
X152135398Y-104896455D01*
X152035478Y-104758927D01*
X151915273Y-104638722D01*
X151777744Y-104538801D01*
X151626276Y-104461623D01*
X151626273Y-104461622D01*
X151464602Y-104409093D01*
X151296703Y-104382500D01*
X151296698Y-104382500D01*
X151126702Y-104382500D01*
X151126697Y-104382500D01*
X150958797Y-104409093D01*
X150797126Y-104461622D01*
X150797123Y-104461623D01*
X150645655Y-104538801D01*
X150620044Y-104557409D01*
X150508127Y-104638722D01*
X150508125Y-104638724D01*
X150508124Y-104638724D01*
X150387924Y-104758924D01*
X150387924Y-104758925D01*
X150387922Y-104758927D01*
X150351365Y-104809243D01*
X150288001Y-104896455D01*
X150210823Y-105047923D01*
X150210822Y-105047926D01*
X150158293Y-105209597D01*
X150131700Y-105377496D01*
X149751700Y-105377496D01*
X149726931Y-105221118D01*
X149725107Y-105209599D01*
X149672576Y-105047924D01*
X149672576Y-105047923D01*
X149595398Y-104896455D01*
X149495478Y-104758927D01*
X149375273Y-104638722D01*
X149237744Y-104538801D01*
X149086276Y-104461623D01*
X149086273Y-104461622D01*
X148924602Y-104409093D01*
X148756703Y-104382500D01*
X148756698Y-104382500D01*
X148586702Y-104382500D01*
X148586697Y-104382500D01*
X148418797Y-104409093D01*
X148257126Y-104461622D01*
X148257123Y-104461623D01*
X148105655Y-104538801D01*
X148080044Y-104557409D01*
X147968127Y-104638722D01*
X147968125Y-104638724D01*
X147968124Y-104638724D01*
X147847924Y-104758924D01*
X147847924Y-104758925D01*
X147847922Y-104758927D01*
X147811365Y-104809243D01*
X147748001Y-104896455D01*
X147670823Y-105047923D01*
X147670822Y-105047926D01*
X147618293Y-105209597D01*
X147591700Y-105377496D01*
X147330200Y-105377496D01*
X147330200Y-105368176D01*
X147300688Y-105181849D01*
X147242395Y-105002438D01*
X147242394Y-105002435D01*
X147156746Y-104834344D01*
X147138509Y-104809243D01*
X147138508Y-104809243D01*
X146569347Y-105378404D01*
X146545908Y-105290929D01*
X146487389Y-105189570D01*
X146404630Y-105106811D01*
X146303271Y-105048292D01*
X146215794Y-105024852D01*
X146784955Y-104455690D01*
X146784955Y-104455689D01*
X146759853Y-104437452D01*
X146591763Y-104351805D01*
X146591761Y-104351804D01*
X146412350Y-104293511D01*
X146226023Y-104264000D01*
X146037377Y-104264000D01*
X145851049Y-104293511D01*
X145671638Y-104351804D01*
X145671636Y-104351805D01*
X145503544Y-104437453D01*
X145503539Y-104437457D01*
X145478443Y-104455688D01*
X145478443Y-104455691D01*
X146047606Y-105024852D01*
X145960129Y-105048292D01*
X145858770Y-105106811D01*
X145776011Y-105189570D01*
X145717492Y-105290929D01*
X145694052Y-105378405D01*
X145124891Y-104809243D01*
X145124888Y-104809243D01*
X145106657Y-104834339D01*
X145106653Y-104834344D01*
X145021005Y-105002436D01*
X145021004Y-105002438D01*
X144962711Y-105181849D01*
X144933200Y-105368176D01*
X144671700Y-105368176D01*
X144671700Y-104727794D01*
X144660896Y-104653639D01*
X144653604Y-104638724D01*
X144613852Y-104557409D01*
X144613851Y-104557407D01*
X144604977Y-104539254D01*
X144514946Y-104449223D01*
X144514943Y-104449221D01*
X144400564Y-104393305D01*
X144400562Y-104393304D01*
X144400561Y-104393304D01*
X144326406Y-104382500D01*
X142856994Y-104382500D01*
X142782839Y-104393304D01*
X142782837Y-104393304D01*
X142782835Y-104393305D01*
X142668456Y-104449221D01*
X142668453Y-104449223D01*
X142578423Y-104539253D01*
X142578421Y-104539256D01*
X142522505Y-104653635D01*
X142522504Y-104653637D01*
X142522504Y-104653639D01*
X142511700Y-104727794D01*
X111423200Y-104727794D01*
X111423200Y-103611985D01*
X165612600Y-103611985D01*
X165612600Y-103755614D01*
X165640617Y-103896463D01*
X165640619Y-103896471D01*
X165695578Y-104029155D01*
X165695583Y-104029164D01*
X165775370Y-104148573D01*
X165775373Y-104148577D01*
X165876922Y-104250126D01*
X165876926Y-104250129D01*
X165996335Y-104329916D01*
X165996341Y-104329919D01*
X165996342Y-104329920D01*
X166129029Y-104384881D01*
X166250751Y-104409093D01*
X166269885Y-104412899D01*
X166269888Y-104412900D01*
X166269890Y-104412900D01*
X166413512Y-104412900D01*
X166413513Y-104412899D01*
X166554371Y-104384881D01*
X166687058Y-104329920D01*
X166806474Y-104250129D01*
X166908029Y-104148574D01*
X166987820Y-104029158D01*
X167042781Y-103896471D01*
X167070800Y-103755610D01*
X167070800Y-103735935D01*
X177741200Y-103735935D01*
X177741200Y-104831670D01*
X177741201Y-104831676D01*
X177747608Y-104891283D01*
X177797902Y-105026128D01*
X177797906Y-105026135D01*
X177884152Y-105141344D01*
X177884155Y-105141347D01*
X177975240Y-105209534D01*
X178017111Y-105265468D01*
X178022095Y-105335159D01*
X177988609Y-105396482D01*
X177975240Y-105408066D01*
X177884155Y-105476252D01*
X177884152Y-105476255D01*
X177797906Y-105591464D01*
X177797902Y-105591471D01*
X177747608Y-105726317D01*
X177741201Y-105785916D01*
X177741201Y-105785923D01*
X177741200Y-105785935D01*
X177741200Y-106881670D01*
X177741201Y-106881676D01*
X177747608Y-106941283D01*
X177797902Y-107076128D01*
X177797906Y-107076135D01*
X177884152Y-107191344D01*
X177884155Y-107191347D01*
X177975240Y-107259534D01*
X178017111Y-107315468D01*
X178022095Y-107385159D01*
X177988609Y-107446482D01*
X177975240Y-107458066D01*
X177884155Y-107526252D01*
X177884152Y-107526255D01*
X177797906Y-107641464D01*
X177797902Y-107641471D01*
X177747608Y-107776317D01*
X177743017Y-107819026D01*
X177741201Y-107835923D01*
X177741200Y-107835935D01*
X177741200Y-108931670D01*
X177741201Y-108931676D01*
X177747608Y-108991283D01*
X177797902Y-109126128D01*
X177797906Y-109126135D01*
X177884152Y-109241344D01*
X177884155Y-109241347D01*
X177999364Y-109327593D01*
X177999371Y-109327597D01*
X178134217Y-109377891D01*
X178134216Y-109377891D01*
X178141144Y-109378635D01*
X178193827Y-109384300D01*
X179289572Y-109384299D01*
X179349183Y-109377891D01*
X179484031Y-109327596D01*
X179599246Y-109241346D01*
X179685496Y-109126131D01*
X179735791Y-108991283D01*
X179742200Y-108931673D01*
X179742199Y-107835928D01*
X179735791Y-107776317D01*
X179720336Y-107734881D01*
X179685497Y-107641471D01*
X179685493Y-107641464D01*
X179632839Y-107571128D01*
X179599246Y-107526254D01*
X179508157Y-107458065D01*
X179466288Y-107402133D01*
X179461304Y-107332441D01*
X179494789Y-107271118D01*
X179508152Y-107259538D01*
X179599246Y-107191346D01*
X179685496Y-107076131D01*
X179735791Y-106941283D01*
X179742200Y-106881673D01*
X179742199Y-105785928D01*
X179735791Y-105726317D01*
X179685496Y-105591469D01*
X179685495Y-105591468D01*
X179685493Y-105591464D01*
X179599247Y-105476256D01*
X179599248Y-105476256D01*
X179599246Y-105476254D01*
X179508157Y-105408065D01*
X179466288Y-105352133D01*
X179461304Y-105282441D01*
X179494789Y-105221118D01*
X179508152Y-105209538D01*
X179599246Y-105141346D01*
X179685496Y-105026131D01*
X179735791Y-104891283D01*
X179742200Y-104831673D01*
X179742199Y-103735928D01*
X179735791Y-103676317D01*
X179711797Y-103611987D01*
X179685497Y-103541471D01*
X179685493Y-103541464D01*
X179599247Y-103426255D01*
X179599244Y-103426252D01*
X179484035Y-103340006D01*
X179484028Y-103340002D01*
X179349182Y-103289708D01*
X179349183Y-103289708D01*
X179289583Y-103283301D01*
X179289581Y-103283300D01*
X179289573Y-103283300D01*
X179289564Y-103283300D01*
X178193829Y-103283300D01*
X178193823Y-103283301D01*
X178134216Y-103289708D01*
X177999371Y-103340002D01*
X177999364Y-103340006D01*
X177884155Y-103426252D01*
X177884152Y-103426255D01*
X177797906Y-103541464D01*
X177797902Y-103541471D01*
X177747608Y-103676317D01*
X177741201Y-103735916D01*
X177741201Y-103735923D01*
X177741200Y-103735935D01*
X167070800Y-103735935D01*
X167070800Y-103611990D01*
X167070800Y-103611987D01*
X167070799Y-103611985D01*
X167056772Y-103541469D01*
X167042781Y-103471129D01*
X166987820Y-103338442D01*
X166987819Y-103338441D01*
X166987816Y-103338435D01*
X166908029Y-103219026D01*
X166908026Y-103219022D01*
X166806477Y-103117473D01*
X166806473Y-103117470D01*
X166687064Y-103037683D01*
X166687055Y-103037678D01*
X166554371Y-102982719D01*
X166554363Y-102982717D01*
X166413513Y-102954700D01*
X166413510Y-102954700D01*
X166269890Y-102954700D01*
X166269887Y-102954700D01*
X166129036Y-102982717D01*
X166129028Y-102982719D01*
X165996344Y-103037678D01*
X165996335Y-103037683D01*
X165876926Y-103117470D01*
X165876922Y-103117473D01*
X165775373Y-103219022D01*
X165775370Y-103219026D01*
X165695583Y-103338435D01*
X165695578Y-103338444D01*
X165640619Y-103471128D01*
X165640617Y-103471136D01*
X165612600Y-103611985D01*
X111423200Y-103611985D01*
X111423200Y-103106961D01*
X111423980Y-103093078D01*
X111430221Y-103037683D01*
X111437143Y-102976245D01*
X111443319Y-102949190D01*
X111479838Y-102844824D01*
X111491878Y-102819821D01*
X111550707Y-102726195D01*
X111568014Y-102704494D01*
X111646194Y-102626314D01*
X111667895Y-102609007D01*
X111761521Y-102550178D01*
X111786524Y-102538138D01*
X111890890Y-102501619D01*
X111917947Y-102495443D01*
X112023616Y-102483537D01*
X112034778Y-102482280D01*
X112048661Y-102481500D01*
X112096551Y-102481500D01*
X182386849Y-102481500D01*
X182434739Y-102481500D01*
X182448622Y-102482280D01*
G37*
%TD.AperFunction*%
%TD*%
M02*
